<svg width="14" height="14" viewBox="0 0 14 14" fill="none" xmlns="http://www.w3.org/2000/svg">
<g clip-path="url(#clip0_586_13372)">
<path fill-rule="evenodd" clip-rule="evenodd" d="M7 0C10.8694 0 14 3.13056 14 7C14 10.8694 10.8694 14 7 14C3.13056 14 0 10.8694 0 7C0 5.94028 0.233333 4.92917 0.661111 4.03472C0.7 4.26806 0.758333 4.50139 0.855556 4.71528C1.01111 5.08472 1.225 5.40556 1.50694 5.6875C1.77917 5.95972 2.10972 6.18333 2.47917 6.33889C2.82917 6.48472 3.21806 6.5625 3.61667 6.5625H4.21944H4.375V6.40694V5.23056V5.075H4.21944H3.61667C3.4125 5.075 3.21806 5.03611 3.05278 4.95833C2.86806 4.88056 2.70278 4.77361 2.56667 4.6375C2.43056 4.50139 2.31389 4.33611 2.23611 4.15139C2.16806 3.97639 2.11944 3.79167 2.11944 3.59722V3.5875V3.57778C2.11944 3.38333 2.15833 3.18889 2.23611 3.02361C2.31389 2.83889 2.42083 2.67361 2.55694 2.5375C2.69306 2.40139 2.85833 2.28472 3.04306 2.21667C3.21806 2.14861 3.4125 2.1 3.60694 2.1C3.81111 2.1 3.99583 2.13889 4.17083 2.21667C4.35556 2.29444 4.52083 2.40139 4.65694 2.5375C4.79306 2.67361 4.90972 2.83889 4.97778 3.02361C5.04583 3.19861 5.09444 3.39306 5.09444 3.5875V5.82361V8.05972C5.09444 8.45833 5.17222 8.84722 5.31806 9.19722C5.47361 9.56667 5.6875 9.8875 5.96944 10.1694C6.24167 10.4417 6.57222 10.6653 6.94167 10.8208C7.29167 10.9667 7.68056 11.0444 8.07917 11.0444C8.47778 11.0444 8.86667 10.9667 9.21667 10.8208C9.57639 10.6653 9.90695 10.4514 10.1889 10.1694C10.4611 9.89722 10.6847 9.56667 10.8403 9.19722C10.9667 8.89583 11.0444 8.56528 11.0639 8.21528H11.0736V8.05972V8.00139V7.9625C11.0639 7.59306 10.9861 7.25278 10.85 6.92222C10.6944 6.5625 10.4806 6.23194 10.1986 5.95C9.92639 5.67778 9.59583 5.45417 9.22639 5.29861C8.87639 5.15278 8.4875 5.075 8.08889 5.075H7.48611H7.33056V5.23056V6.40694V6.5625H7.48611H8.08889C8.29306 6.5625 8.4875 6.60139 8.65278 6.67917C8.8375 6.75694 9.00278 6.86389 9.13889 7.00972C9.275 7.14583 9.39167 7.31111 9.46944 7.49583C9.5375 7.67083 9.58611 7.85556 9.58611 8.05V8.05972V8.06944C9.58611 8.26389 9.54722 8.45833 9.46944 8.62361C9.39167 8.80833 9.28472 8.97361 9.14861 9.10972C9.0125 9.24583 8.84722 9.3625 8.6625 9.43056C8.4875 9.49861 8.29306 9.54722 8.09861 9.54722C7.90417 9.54722 7.70972 9.50833 7.53472 9.43056C7.35 9.35278 7.18472 9.24583 7.04861 9.10972C6.9125 8.97361 6.79583 8.80833 6.72778 8.62361C6.65972 8.44861 6.61111 8.25417 6.61111 8.05972V5.82361V3.5875C6.61111 3.18889 6.53333 2.8 6.3875 2.45C6.23194 2.08056 6.01806 1.75972 5.73611 1.47778C5.46389 1.20556 5.13333 0.981944 4.76389 0.826389C4.55972 0.738889 4.33611 0.680556 4.1125 0.641667C4.97778 0.223611 5.95972 0 7 0Z" fill="#4250E4"/>
</g>
<defs>
<clipPath id="clip0_586_13372">
<rect width="14" height="14" fill="white"/>
</clipPath>
</defs>
</svg>
