<svg xmlns="http://www.w3.org/2000/svg" xmlns:xlink="http://www.w3.org/1999/xlink" width="380" height="200" viewBox="0 0 380 200">
  <defs>
    <linearGradient id="linear-gradient" x2="1" y2="1" gradientUnits="objectBoundingBox">
      <stop offset="0" stop-color="#ef5867"/>
      <stop offset="1" stop-color="#5031a8"/>
    </linearGradient>
    <clipPath id="clip-path">
      <rect width="380" height="200" fill="none"/>
    </clipPath>
  </defs>
  <g id="Group_504" data-name="Group 504" transform="translate(-200 -140)">
    <rect id="top_layer_copy_2" data-name="top layer copy 2" width="380" height="200" transform="translate(200 140)" fill="url(#linear-gradient)"/>
    <g id="Repeat_Grid_1" data-name="Repeat Grid 1" transform="translate(200 140)" opacity="0.3" clip-path="url(#clip-path)">
      <g transform="translate(0 -64)">
        <path id="pattern-taikai" d="M161.656,160.225a4.55,4.55,0,1,0,5.834,2.719A4.556,4.556,0,0,0,161.656,160.225Zm2.668,7.33a3.25,3.25,0,1,1,1.945-4.166,3.256,3.256,0,0,1-1.945,4.166Zm9.174,8.412,5.585-2.032c-1.489-3.637-4.123-6.346-6.763-7.022A28.755,28.755,0,0,1,173.5,175.967Zm-1.314.479a28.174,28.174,0,0,0-7.75-20.691l-7.78,2.832a28.175,28.175,0,0,0,7.363,20.832l8.168-2.973Zm-6.79,5.927,7.616-2.772-1.765-1.43-5.42,1.973Zm-8.276-.443L162.7,179.9a28.745,28.745,0,0,1-4.917-7.693C156.2,174.418,155.92,178.186,157.118,181.929Zm1.3-30.613a21.908,21.908,0,0,0-1.609,5.833l6.59-2.4A21.9,21.9,0,0,0,158.413,151.316Zm13.454,14.19c3.5.46,6.944,3.841,8.672,8.59a.65.65,0,0,1-.388.833l-7.12,2.591h0l-.358.13,2.051,1.662a.65.65,0,0,1-.187,1.115l-9.775,3.558a.65.65,0,0,1-.86-.734l.5-2.591-.34.124h0l-7.12,2.591a.65.65,0,0,1-.833-.389c-1.729-4.749-1.265-9.552,1.121-12.155-.049-.13-.1-.257-.152-.388-2.541-6.981-2.383-14.373.434-20.28a.652.652,0,0,1,.857-.312c5.955,2.715,10.827,8.276,13.368,15.257.047.13.086.263.132.395Zm-1.988,17.313a.651.651,0,0,1,.833.389l.889,2.443a.65.65,0,0,1-1.222.445l-.889-2.443A.65.65,0,0,1,169.879,182.819Zm-3.057,1.113a.649.649,0,0,1,.833.388l.445,1.22a.65.65,0,1,1-1.222.445l-.445-1.22a.65.65,0,0,1,.389-.833Zm6.115-2.225a.649.649,0,0,1,.833.388l.445,1.22a.65.65,0,0,1-1.222.445l-.445-1.22A.65.65,0,0,1,172.937,181.706Zm172.224,11.222a4.55,4.55,0,1,0,6.412.559A4.557,4.557,0,0,0,345.161,192.929Zm5.014,5.975a3.25,3.25,0,1,1,.4-4.58,3.255,3.255,0,0,1-.4,4.58Zm11.5,4.767,4.553-3.82c-2.643-2.909-6.045-4.552-8.757-4.285a28.74,28.74,0,0,1,4.2,8.1Zm-1.071.9a28.184,28.184,0,0,0-14.359-16.792L339.9,193.1a28.175,28.175,0,0,0,14.044,17.057l6.658-5.587Zm-4.354,7.892,6.209-5.21-2.147-.74-4.418,3.707Zm-7.929,2.414,4.553-3.82a28.735,28.735,0,0,1-7.252-5.548C344.887,208.132,345.915,211.768,348.32,214.876Zm-9.253-29.209a21.92,21.92,0,0,0,.483,6.031l5.372-4.508A21.886,21.886,0,0,0,339.067,185.666Zm17.5,8.732c3.446-.765,7.838,1.235,11.087,5.107a.65.65,0,0,1-.08.916l-5.8,4.87,0,0-.291.244,2.495.86a.65.65,0,0,1,.206,1.112L356.2,214.2a.65.65,0,0,1-1.06-.4l-.414-2.606-.277.232h0l-5.8,4.871a.651.651,0,0,1-.916-.08c-3.248-3.871-4.456-8.544-3.1-11.805-.091-.1-.186-.205-.275-.312-4.775-5.69-7.155-12.691-6.529-19.205a.652.652,0,0,1,.7-.586c6.524.514,13,4.073,17.78,9.764.089.106.172.218.26.326Zm4.054,16.949a.65.65,0,0,1,.916.08l1.671,1.991a.65.65,0,0,1-1,.836l-1.671-1.991a.65.65,0,0,1,.08-.916Zm-2.492,2.092a.65.65,0,0,1,.916.08l.835.995a.65.65,0,0,1-1,.836l-.835-.995a.65.65,0,0,1,.08-.916Zm4.985-4.183a.65.65,0,0,1,.916.08l.835.995a.65.65,0,0,1-1,.836l-.835-.995a.65.65,0,0,1,.08-.916ZM182.437,41.141a4.55,4.55,0,1,0,5.834,2.719A4.556,4.556,0,0,0,182.437,41.141Zm2.668,7.33a3.25,3.25,0,1,1,1.945-4.166A3.256,3.256,0,0,1,185.1,48.471Zm9.175,8.412,5.585-2.033c-1.489-3.637-4.123-6.346-6.763-7.022a28.757,28.757,0,0,1,1.178,9.054Zm-1.314.478a28.18,28.18,0,0,0-7.75-20.691L177.435,39.5A28.179,28.179,0,0,0,184.8,60.334Zm-6.791,5.927,7.617-2.773-1.765-1.43-5.42,1.973Zm-8.276-.444,5.585-2.033a28.735,28.735,0,0,1-4.917-7.693C176.979,55.334,176.7,59.1,177.9,62.845Zm1.3-30.612a21.876,21.876,0,0,0-1.609,5.832l6.59-2.4a21.857,21.857,0,0,0-4.981-3.434Zm13.454,14.189c3.5.46,6.943,3.842,8.672,8.591a.649.649,0,0,1-.389.833l-7.12,2.591h0l-.358.13,2.05,1.661a.651.651,0,0,1-.187,1.116L185.541,64.9a.649.649,0,0,1-.86-.734l.5-2.591-.34.124h0l-7.12,2.591a.649.649,0,0,1-.833-.389c-1.729-4.748-1.265-9.552,1.121-12.155-.049-.13-.1-.257-.152-.388-2.541-6.981-2.383-14.372.434-20.28a.651.651,0,0,1,.856-.312c5.956,2.715,10.828,8.276,13.368,15.257.048.131.087.263.133.395Zm-1.988,17.313a.65.65,0,0,1,.833.388l.889,2.443a.65.65,0,1,1-1.222.445l-.889-2.443a.649.649,0,0,1,.388-.833ZM187.6,64.847a.65.65,0,0,1,.833.389l.444,1.22a.65.65,0,1,1-1.221.445l-.445-1.22a.65.65,0,0,1,.389-.833Zm6.115-2.225a.649.649,0,0,1,.833.388l.444,1.22a.65.65,0,1,1-1.221.445l-.445-1.22a.65.65,0,0,1,.389-.833ZM124.63,289.034a4.55,4.55,0,1,1,1.119-6.338A4.556,4.556,0,0,1,124.63,289.034Zm-4.474-6.389a3.25,3.25,0,1,0,4.528.8A3.255,3.255,0,0,0,120.156,282.644ZM118.528,270.3,123.4,266.9c2.125,3.305,2.833,7.016,1.872,9.567A28.748,28.748,0,0,0,118.528,270.3Zm-1.145.8a28.177,28.177,0,0,1,12.5,18.216l-6.782,4.749a28.176,28.176,0,0,1-12.841-17.98l7.12-4.985Zm-8.75,2.163,6.64-4.649.16,2.266-4.725,3.308Zm-4.384,7.034,4.868-3.409a28.737,28.737,0,0,0,3.482,8.441C109.873,285.363,106.628,283.43,104.248,280.3Zm25.819,16.5a21.873,21.873,0,0,1-5.7-2.027l5.744-4.022A21.9,21.9,0,0,1,130.068,296.8Zm-3.907-19.159c1.631-3.131.836-7.891-2.063-12.031a.65.65,0,0,0-.9-.16l-6.207,4.346h0l-.311.218-.185-2.633a.65.65,0,0,0-1.022-.487l-8.521,5.966a.649.649,0,1,0,.108,1.126l2.41,1.074-.3.208h0l-6.206,4.346a.65.65,0,0,0-.16.9c2.9,4.14,7.1,6.515,10.6,6.054.078.115.15.233.23.347,4.261,6.086,10.407,10.2,16.862,11.276a.651.651,0,0,0,.747-.523c1.192-6.435-.569-13.616-4.83-19.7-.079-.114-.166-.222-.247-.335Zm-15.322-8.3a.65.65,0,0,0,.16-.905l-1.491-2.129a.65.65,0,0,0-1.065.746l1.491,2.129A.65.65,0,0,0,110.839,269.338Zm-2.665,1.866a.65.65,0,0,0,.16-.905l-.745-1.064a.65.65,0,0,0-1.065.746l.745,1.064a.65.65,0,0,0,.905.16Zm5.33-3.733a.65.65,0,0,0,.16-.9l-.745-1.064a.65.65,0,0,0-1.065.746l.745,1.064a.65.65,0,0,0,.905.16Zm257.08,34.169a4.55,4.55,0,1,1-1.116-6.338A4.556,4.556,0,0,1,370.584,301.641Zm-6.389-4.474a3.25,3.25,0,1,0,4.528-.8,3.255,3.255,0,0,0-4.528.8Zm-5.751-11.039,3.409-4.868c3.128,2.379,5.062,5.625,5.032,8.35a28.725,28.725,0,0,0-8.44-3.482Zm-.8,1.145a28.176,28.176,0,0,1,17.98,12.841l-4.749,6.782a28.181,28.181,0,0,1-18.216-12.5l4.985-7.12Zm-7.483,5.025,4.649-6.64.925,2.075-3.308,4.724-2.266-.159Zm-1.713,8.108,3.409-4.868a28.746,28.746,0,0,0,6.158,6.74C355.462,303.24,351.751,302.532,348.445,300.407Zm29.9,6.673a21.9,21.9,0,0,1-6.05.044l4.022-5.745a21.878,21.878,0,0,1,2.027,5.7Zm-10.223-16.668c.461-3.5-1.914-7.7-6.054-10.6a.649.649,0,0,0-.9.16l-4.346,6.206v0l-.218.311-1.074-2.411a.65.65,0,0,0-1.126-.108l-5.966,8.521a.649.649,0,0,0,.487,1.021l2.633.185-.208.3v0L347,300.2a.65.65,0,0,0,.16.9c4.14,2.9,8.9,3.694,12.031,2.063.113.081.221.167.335.247,6.085,4.261,13.266,6.022,19.7,4.829a.651.651,0,0,0,.523-.746c-1.081-6.455-5.191-12.6-11.277-16.862-.114-.08-.232-.152-.347-.23Zm-17.238-2.561a.65.65,0,0,0-.16-.905l-2.129-1.49a.65.65,0,1,0-.746,1.064l2.129,1.491a.65.65,0,0,0,.905-.16Zm-1.866,2.665a.65.65,0,0,0-.16-.905l-1.064-.745a.65.65,0,1,0-.745,1.065l1.064.745a.65.65,0,0,0,.905-.16Zm3.732-5.33a.65.65,0,0,0-.16-.9l-1.064-.745a.65.65,0,0,0-.746,1.065l1.064.745A.65.65,0,0,0,352.755,285.185ZM41.971,144.015a4.55,4.55,0,1,0,2.719-5.834A4.556,4.556,0,0,0,41.971,144.015Zm7.33-2.668a3.25,3.25,0,1,1-4.166-1.945,3.254,3.254,0,0,1,4.166,1.945Zm8.413-9.174-2.033-5.585c-3.637,1.489-6.345,4.123-7.021,6.763A28.719,28.719,0,0,1,57.713,132.173Zm.479,1.313a28.178,28.178,0,0,0-20.691,7.75l2.832,7.781a28.176,28.176,0,0,0,20.831-7.363Zm5.927,6.791-2.772-7.617-1.43,1.765,1.972,5.42Zm-.443,8.276-2.033-5.585a28.731,28.731,0,0,1-7.693,4.918C56.164,149.473,59.932,149.75,63.676,148.552Zm-30.613-1.295a21.919,21.919,0,0,0,5.833,1.609l-2.4-6.59a21.9,21.9,0,0,0-3.434,4.981ZM47.252,133.8c.46-3.5,3.842-6.944,8.591-8.672a.651.651,0,0,1,.833.389l2.591,7.12v0l.13.357,1.661-2.05a.65.65,0,0,1,1.116.187l3.558,9.775a.652.652,0,0,1-.735.86l-2.59-.5.124.34v0l2.591,7.12a.65.65,0,0,1-.388.833c-4.749,1.729-9.552,1.265-12.155-1.121-.13.05-.257.105-.388.152-6.981,2.541-14.373,2.383-20.28-.434a.651.651,0,0,1-.311-.857c2.714-5.955,8.275-10.827,15.256-13.368.131-.047.264-.086.395-.132Zm17.313,1.987a.649.649,0,0,1,.389-.833l2.443-.889a.65.65,0,0,1,.445,1.222l-2.443.889A.65.65,0,0,1,64.565,135.791Zm1.113,3.058a.65.65,0,0,1,.388-.833l1.22-.444a.65.65,0,1,1,.445,1.222l-1.22.444a.649.649,0,0,1-.833-.388Zm-2.226-6.115a.651.651,0,0,1,.389-.833l1.22-.444a.65.65,0,1,1,.445,1.222l-1.22.444A.65.65,0,0,1,63.452,132.734ZM271.01,356.374a4.55,4.55,0,1,0-1.667-6.217A4.556,4.556,0,0,0,271.01,356.374Zm3.9-6.755a3.25,3.25,0,1,1-4.442,1.189,3.256,3.256,0,0,1,4.442-1.189Zm.547-12.435-5.147-2.971c-1.829,3.478-2.21,7.237-1.031,9.693A28.745,28.745,0,0,1,275.456,337.183Zm1.211.7A28.174,28.174,0,0,0,265.8,357.118l7.171,4.14a28.178,28.178,0,0,0,11.225-19.031l-7.527-4.346Zm8.905,1.392-7.02-4.053.039,2.271,4.995,2.884Zm4.98,6.625-5.147-2.972a28.743,28.743,0,0,1-2.732,8.712C285.39,351.432,288.455,349.222,290.553,345.9Zm-24.284,18.685a21.893,21.893,0,0,0,5.5-2.516l-6.073-3.506a21.9,21.9,0,0,0,.571,6.023Zm2.222-19.427c-1.9-2.977-1.52-7.788,1.007-12.164a.65.65,0,0,1,.888-.238l6.562,3.788h0l.329.19-.046-2.638a.65.65,0,1,1,.975-.574l9.009,5.2a.65.65,0,0,1-.01,1.131l-2.308,1.28.313.181h0l6.562,3.788a.65.65,0,0,1,.238.888c-2.527,4.377-6.5,7.109-10.032,6.955-.068.121-.129.245-.2.365-3.715,6.434-9.479,11.064-15.815,12.7a.652.652,0,0,1-.79-.456c-1.748-6.307-.62-13.614,3.094-20.048C268.343,345.392,268.42,345.276,268.491,345.157Zm14.54-9.606a.65.65,0,0,1-.238-.888l1.3-2.251a.65.65,0,0,1,1.126.65l-1.3,2.251a.65.65,0,0,1-.888.238Zm2.818,1.627a.649.649,0,0,1-.238-.887l.649-1.125a.65.65,0,0,1,1.126.65l-.65,1.125A.65.65,0,0,1,285.849,337.178Zm-5.635-3.253a.65.65,0,0,1-.238-.888l.649-1.125a.65.65,0,0,1,1.126.65l-.649,1.124A.65.65,0,0,1,280.214,333.924ZM27.287,254.38a4.55,4.55,0,1,0-3.69,5.273A4.556,4.556,0,0,0,27.287,254.38Zm-7.681,1.355a3.25,3.25,0,1,1,3.766,2.638,3.255,3.255,0,0,1-3.766-2.638Zm-9.878,7.574,1.032,5.853c3.84-.835,6.965-2.959,8.089-5.441A28.737,28.737,0,0,1,9.728,263.309Zm-.243-1.377a27.627,27.627,0,0,0,11.015.245,27.481,27.481,0,0,0,10.707-4.284l-1.438-8.155a28.178,28.178,0,0,0-21.794,3.634l1.51,8.559Zm-4.658-7.717L6.235,262.2l1.715-1.489-1-5.68-2.121-.813ZM6.7,246.143l1.032,5.852a28.745,28.745,0,0,1,8.43-3.506C14.258,246.54,10.6,245.613,6.7,246.143Zm29.922,6.591a21.891,21.891,0,0,0-5.464-2.6l1.218,6.907A21.885,21.885,0,0,0,36.624,252.733Zm-16.31,10.785c-1.061,3.368-4.989,6.171-9.966,7.048a.65.65,0,0,1-.753-.527l-1.316-7.462v0l-.066-.374-1.993,1.73a.648.648,0,0,1-1.066-.378L3.348,253.311a.651.651,0,0,1,.873-.72l2.464.944-.063-.356v0l-1.316-7.462a.65.65,0,0,1,.527-.753c4.977-.877,9.627.413,11.775,3.215.137-.026.271-.059.408-.083,7.316-1.29,14.568.149,19.9,3.949a.651.651,0,0,1,.158.9c-3.707,5.393-10.029,9.226-17.346,10.516C20.589,263.482,20.451,263.5,20.314,263.519ZM3.609,258.555a.65.65,0,0,1-.527.753l-2.56.451A.65.65,0,0,1,.3,258.48l2.56-.452a.65.65,0,0,1,.753.527Zm-.565-3.2a.65.65,0,0,1-.527.753l-1.279.226a.65.65,0,0,1-.226-1.28l1.279-.226a.65.65,0,0,1,.753.527Zm1.13,6.408a.65.65,0,0,1-.527.753l-1.279.226a.65.65,0,0,1-.226-1.28l1.279-.226A.65.65,0,0,1,4.174,261.759ZM295.683,141.116a4.55,4.55,0,1,0-2.2,6.049A4.555,4.555,0,0,0,295.683,141.116Zm-7.069,3.3a3.25,3.25,0,1,1,4.32,1.574,3.255,3.255,0,0,1-4.32-1.574Zm-7.58,9.873,2.512,5.386c3.493-1.8,5.962-4.66,6.4-7.349A28.714,28.714,0,0,1,281.033,154.285Zm-.592-1.267a28.177,28.177,0,0,0,19.937-9.524l-3.5-7.5a28.18,28.18,0,0,0-20.111,9.15l3.673,7.877Zm-6.5-6.248,3.425,7.346,1.271-1.883-2.437-5.227Zm-.28-8.283,2.512,5.386a28.727,28.727,0,0,1,7.235-5.569C281.068,136.916,277.291,136.968,273.666,138.487Zm30.609-1.378a21.893,21.893,0,0,0-5.95-1.094l2.964,6.356A21.9,21.9,0,0,0,304.275,137.109Zm-12.963,14.639c-.153,3.527-3.222,7.252-7.8,9.387a.65.65,0,0,1-.864-.314l-3.2-6.867v0l-.161-.345-1.477,2.188a.649.649,0,0,1-1.127-.089l-4.4-9.428a.65.65,0,0,1,.656-.921l2.625.275-.153-.328v0l-3.2-6.867a.65.65,0,0,1,.314-.864c4.58-2.135,9.406-2.092,12.206.058.125-.061.247-.127.373-.185,6.733-3.14,14.111-3.626,20.241-1.335a.65.65,0,0,1,.385.826c-2.185,6.169-7.3,11.507-14.033,14.647-.126.059-.255.109-.382.166Zm-17.42-.471a.65.65,0,0,1-.315.864l-2.356,1.1a.65.65,0,1,1-.55-1.178l2.356-1.1a.65.65,0,0,1,.864.314Zm-1.375-2.949a.65.65,0,0,1-.314.864l-1.177.549a.65.65,0,0,1-.549-1.178l1.177-.549a.651.651,0,0,1,.864.314Zm2.75,5.9a.65.65,0,0,1-.314.864l-1.177.549a.65.65,0,1,1-.549-1.178l1.177-.549a.65.65,0,0,1,.863.314ZM230.57,336.29l.67-2.911a8.661,8.661,0,0,1-.714-.655l-2.842.921a.564.564,0,0,1-.685-.3l-1.61-3.452a.564.564,0,0,1,.212-.716l2.532-1.585a8.565,8.565,0,0,1-.042-.967l-2.66-1.358a.564.564,0,0,1-.274-.694l1.3-3.581a.564.564,0,0,1,.656-.356l2.911.67a8.543,8.543,0,0,1,.655-.714l-.921-2.842a.564.564,0,0,1,.3-.685l3.453-1.61a.564.564,0,0,1,.716.212l1.585,2.532a8.715,8.715,0,0,1,.968-.043l1.358-2.661a.563.563,0,0,1,.695-.273l3.579,1.3a.563.563,0,0,1,.356.656l-.67,2.911a8.546,8.546,0,0,1,.715.654l2.842-.921a.563.563,0,0,1,.684.3l1.61,3.452a.564.564,0,0,1-.212.716l-2.533,1.585a8.573,8.573,0,0,1,.043.968l2.66,1.358a.563.563,0,0,1,.273.694l-1.3,3.579a.563.563,0,0,1-.655.356l-2.911-.669a8.542,8.542,0,0,1-.655.714l.921,2.841a.564.564,0,0,1-.3.685l-3.453,1.61a.564.564,0,0,1-.716-.212l-1.585-2.531a8.558,8.558,0,0,1-.967.043l-1.358,2.66a.564.564,0,0,1-.695.273l-3.579-1.3a.564.564,0,0,1-.357-.656Zm3.853.729,1.295-2.536a.564.564,0,0,1,.534-.307,7.4,7.4,0,0,0,1.482-.065.563.563,0,0,1,.557.259l1.511,2.413,2.549-1.189-.877-2.708a.562.562,0,0,1,.16-.593,7.473,7.473,0,0,0,1-1.094.563.563,0,0,1,.578-.212l2.774.638.963-2.643-2.536-1.294a.565.565,0,0,1-.307-.534,7.445,7.445,0,0,0-.065-1.482.564.564,0,0,1,.259-.558l2.414-1.511-1.189-2.549-2.708.878a.564.564,0,0,1-.594-.16,7.4,7.4,0,0,0-1.093-1,.562.562,0,0,1-.212-.578l.638-2.776-2.644-.962-1.295,2.536a.563.563,0,0,1-.534.307,7.431,7.431,0,0,0-1.481.065.564.564,0,0,1-.558-.259l-1.511-2.414-2.55,1.189.878,2.709a.564.564,0,0,1-.161.594,7.463,7.463,0,0,0-1,1.093.563.563,0,0,1-.578.212l-2.775-.638-.962,2.644,2.536,1.295a.565.565,0,0,1,.306.534,7.479,7.479,0,0,0,.065,1.481.564.564,0,0,1-.259.559l-2.414,1.51,1.189,2.549,2.708-.878a.565.565,0,0,1,.594.161,7.481,7.481,0,0,0,1.094,1,.564.564,0,0,1,.212.578l-.638,2.774,2.643.962Zm3.7-7.161a3.444,3.444,0,1,1,1.665-4.577,3.449,3.449,0,0,1-1.665,4.577Zm-3.388-7.264a4.571,4.571,0,1,0,6.074,2.211,4.576,4.576,0,0,0-6.074-2.211Zm-11.96,29.738-1.748-.637.451-1.96a.565.565,0,0,0-.212-.578,5.432,5.432,0,0,1-.8-.732.563.563,0,0,0-.593-.16l-1.913.62-.787-1.687,1.705-1.067a.563.563,0,0,0,.259-.557,5.432,5.432,0,0,1-.047-1.084.563.563,0,0,0-.307-.534l-1.79-.914.636-1.749,1.96.451a.563.563,0,0,0,.578-.212,5.355,5.355,0,0,1,.731-.8.563.563,0,0,0,.161-.594l-.62-1.914,1.686-.786,1.068,1.7a.562.562,0,0,0,.559.259,5.415,5.415,0,0,1,1.082-.048.563.563,0,0,0,.534-.306l.914-1.791,1.748.637-.451,1.96a.564.564,0,0,0,.212.578,5.342,5.342,0,0,1,.8.732.566.566,0,0,0,.595.161l1.912-.62.787,1.687-1.7,1.067a.563.563,0,0,0-.259.557,5.437,5.437,0,0,1,.047,1.083.564.564,0,0,0,.307.534l1.791.914-.636,1.748-1.96-.451a.562.562,0,0,0-.578.212,5.431,5.431,0,0,1-.733.8.564.564,0,0,0-.161.594l.62,1.913-1.687.787-1.067-1.7a.564.564,0,0,0-.559-.259,5.4,5.4,0,0,1-1.081.047.562.562,0,0,0-.535.306l-.915,1.792Zm-2.959-.4a.564.564,0,0,0,.356.656l2.684.977a.564.564,0,0,0,.695-.273l.98-1.918c.188,0,.377-.008.566-.025l1.143,1.825a.564.564,0,0,0,.716.212l2.588-1.207a.564.564,0,0,0,.3-.685l-.664-2.048q.2-.2.383-.418l2.1.482a.563.563,0,0,0,.656-.356l.977-2.684a.563.563,0,0,0-.273-.694l-1.918-.98q0-.282-.025-.566l1.826-1.143a.564.564,0,0,0,.212-.716l-1.208-2.589a.562.562,0,0,0-.684-.3l-2.048.664q-.2-.2-.418-.383l.482-2.1a.563.563,0,0,0-.356-.656l-2.684-.978a.563.563,0,0,0-.695.274l-.979,1.918q-.283,0-.566.025l-1.143-1.825a.564.564,0,0,0-.716-.212l-2.588,1.207a.564.564,0,0,0-.3.685l.664,2.049c-.134.134-.262.274-.383.417l-2.1-.482a.563.563,0,0,0-.656.356l-.977,2.685a.564.564,0,0,0,.273.695l1.918.979q0,.283.025.566l-1.826,1.142a.564.564,0,0,0-.212.716l1.208,2.59a.563.563,0,0,0,.684.3l2.049-.664q.2.2.418.383l-.483,2.1Zm5.744-4.921a2.442,2.442,0,1,1,1.181-3.245,2.445,2.445,0,0,1-1.181,3.245Zm-2.54-5.447a3.569,3.569,0,1,0,4.743,1.726,3.574,3.574,0,0,0-4.743-1.726ZM293.1,228.913l-2.842.92a8.59,8.59,0,0,0-.715-.654l.67-2.911a.563.563,0,0,0-.356-.656l-3.58-1.3a.564.564,0,0,0-.695.273l-1.358,2.66a8.512,8.512,0,0,0-.967.043l-1.585-2.532a.564.564,0,0,0-.716-.212l-3.453,1.61a.564.564,0,0,0-.3.685l.922,2.841a8.5,8.5,0,0,0-.654.715l-2.911-.67a.565.565,0,0,0-.656.356l-1.3,3.58a.563.563,0,0,0,.273.694l2.661,1.358a8.527,8.527,0,0,0,.042.968l-2.533,1.585a.564.564,0,0,0-.212.716l1.611,3.452a.563.563,0,0,0,.684.3l2.842-.921a8.4,8.4,0,0,0,.714.655l-.67,2.911a.563.563,0,0,0,.356.656l3.58,1.3a.563.563,0,0,0,.694-.273l1.358-2.661a8.525,8.525,0,0,0,.968-.042l1.585,2.532a.564.564,0,0,0,.716.212l3.452-1.61a.564.564,0,0,0,.3-.684l-.92-2.842a8.587,8.587,0,0,0,.654-.714l2.911.67a.564.564,0,0,0,.656-.356l1.3-3.58a.563.563,0,0,0-.274-.694l-2.66-1.358a8.647,8.647,0,0,0-.042-.967l2.531-1.585a.564.564,0,0,0,.212-.716l-1.61-3.452a.563.563,0,0,0-.684-.3Zm1.062,3.775-2.413,1.511a.562.562,0,0,0-.259.559,7.472,7.472,0,0,1,.064,1.481.564.564,0,0,0,.307.533l2.536,1.294-.962,2.644-2.774-.638a.563.563,0,0,0-.577.212,7.481,7.481,0,0,1-1,1.093.564.564,0,0,0-.161.595l.877,2.708-2.549,1.189-1.511-2.414a.564.564,0,0,0-.559-.259,7.437,7.437,0,0,1-1.482.064.565.565,0,0,0-.533.307l-1.295,2.537-2.644-.962.638-2.774a.563.563,0,0,0-.211-.578,7.414,7.414,0,0,1-1.093-1,.563.563,0,0,0-.594-.161l-2.709.878-1.19-2.549,2.414-1.511a.565.565,0,0,0,.259-.559,7.438,7.438,0,0,1-.065-1.481.563.563,0,0,0-.306-.533l-2.536-1.295.962-2.644,2.775.638a.565.565,0,0,0,.578-.211,7.422,7.422,0,0,1,1-1.094.565.565,0,0,0,.161-.595l-.878-2.708,2.55-1.189,1.511,2.414a.565.565,0,0,0,.559.259,7.445,7.445,0,0,1,1.482-.065.563.563,0,0,0,.533-.307l1.295-2.536,2.643.962-.638,2.775a.563.563,0,0,0,.211.577,7.426,7.426,0,0,1,1.094,1,.565.565,0,0,0,.594.161l2.708-.878,1.189,2.549ZM287.352,237a3.444,3.444,0,1,0-4.414,2.057A3.448,3.448,0,0,0,287.352,237Zm-7.531-2.741a4.571,4.571,0,1,1,2.732,5.858A4.576,4.576,0,0,1,279.821,234.257ZM308.4,219.751l-.787-1.686-1.913.62a.564.564,0,0,1-.595-.161,5.435,5.435,0,0,0-.8-.732.564.564,0,0,1-.211-.577l.451-1.96-1.748-.637-.914,1.792a.564.564,0,0,1-.533.307,5.43,5.43,0,0,0-1.084.047.563.563,0,0,1-.559-.259l-1.067-1.7-1.687.787.619,1.913a.563.563,0,0,1-.161.595,5.429,5.429,0,0,0-.731.8.563.563,0,0,1-.577.212l-1.961-.451-.636,1.748,1.791.915a.563.563,0,0,1,.307.534,5.379,5.379,0,0,0,.046,1.082.563.563,0,0,1-.259.559l-1.7,1.067.787,1.687,1.913-.62a.565.565,0,0,1,.595.161,5.4,5.4,0,0,0,.8.732.564.564,0,0,1,.212.578l-.451,1.959,1.748.637.914-1.792a.564.564,0,0,1,.533-.306,5.461,5.461,0,0,0,1.083-.047.563.563,0,0,1,.559.259l1.067,1.7,1.687-.786-.62-1.913a.564.564,0,0,1,.161-.595,5.439,5.439,0,0,0,.732-.8.563.563,0,0,1,.578-.212l1.96.451.636-1.748-1.79-.914a.564.564,0,0,1-.307-.534,5.415,5.415,0,0,0-.047-1.081.563.563,0,0,1,.258-.559Zm-.66-2.912a.564.564,0,0,1,.685.3l1.207,2.589a.564.564,0,0,1-.212.716l-1.825,1.143c.016.188.025.377.025.566l1.918.98a.563.563,0,0,1,.273.694l-.977,2.684a.564.564,0,0,1-.656.356l-2.1-.482q-.183.217-.383.418l.664,2.048a.564.564,0,0,1-.3.685l-2.589,1.207a.564.564,0,0,1-.716-.212l-1.142-1.825c-.187.016-.377.025-.566.025l-.98,1.918a.564.564,0,0,1-.695.273l-2.684-.977a.564.564,0,0,1-.356-.656l.483-2.1q-.217-.182-.418-.383l-2.048.664a.564.564,0,0,1-.685-.3l-1.208-2.589a.563.563,0,0,1,.212-.716l1.825-1.142c-.016-.188-.024-.377-.024-.566l-1.918-.98a.563.563,0,0,1-.273-.694l.977-2.684a.563.563,0,0,1,.656-.356l2.1.482q.183-.218.382-.418l-.664-2.048a.564.564,0,0,1,.3-.685l2.59-1.207a.565.565,0,0,1,.716.212l1.142,1.825c.187-.016.376-.025.566-.025l.979-1.918a.563.563,0,0,1,.695-.273l2.684.977a.563.563,0,0,1,.356.656l-.482,2.1q.218.183.418.383l2.048-.664Zm-4.4,6.151a2.442,2.442,0,1,0-3.13,1.46A2.445,2.445,0,0,0,303.343,222.989Zm-5.648-2.056a3.569,3.569,0,1,1,2.133,4.574A3.573,3.573,0,0,1,297.695,220.934ZM132.133,77.157l1.837,2.355a8.723,8.723,0,0,0-.371.9l-2.964.367a.563.563,0,0,0-.494.559v3.809a.563.563,0,0,0,.494.559l2.965.366a8.523,8.523,0,0,0,.37.895l-1.837,2.356a.564.564,0,0,0,.046.745l2.693,2.695a.563.563,0,0,0,.745.046l2.355-1.837a8.578,8.578,0,0,0,.895.37l.367,2.965a.564.564,0,0,0,.559.494H143.6a.564.564,0,0,0,.559-.494l.367-2.965a8.575,8.575,0,0,0,.895-.37l2.356,1.837a.562.562,0,0,0,.745-.046l2.693-2.695a.563.563,0,0,0,.046-.745l-1.837-2.355a8.536,8.536,0,0,0,.371-.9l2.964-.366a.563.563,0,0,0,.494-.559V81.333a.563.563,0,0,0-.494-.559l-2.965-.367a8.671,8.671,0,0,0-.371-.9l1.837-2.355a.564.564,0,0,0-.046-.745l-2.694-2.693a.563.563,0,0,0-.745-.046l-2.356,1.836a8.652,8.652,0,0,0-.895-.37l-.366-2.964a.564.564,0,0,0-.56-.494h-3.809a.563.563,0,0,0-.559.494l-.366,2.964a8.666,8.666,0,0,0-.9.37l-2.355-1.837a.564.564,0,0,0-.745.046l-2.693,2.693a.564.564,0,0,0-.046.745Zm3.184-2.29,2.245,1.751a.564.564,0,0,0,.613.052,7.407,7.407,0,0,1,1.37-.568.563.563,0,0,0,.4-.47l.349-2.825H143.1l.349,2.825a.563.563,0,0,0,.4.47,7.422,7.422,0,0,1,1.37.568.563.563,0,0,0,.613-.052l2.245-1.75,1.99,1.988L148.317,79.1a.563.563,0,0,0-.052.613,7.479,7.479,0,0,1,.568,1.371.563.563,0,0,0,.47.4l2.826.349v2.813l-2.825.349a.565.565,0,0,0-.47.4,7.355,7.355,0,0,1-.568,1.37.564.564,0,0,0,.052.614l1.751,2.245-1.989,1.99-2.246-1.751a.563.563,0,0,0-.613-.052,7.432,7.432,0,0,1-1.37.567.564.564,0,0,0-.4.47l-.349,2.826h-2.813l-.349-2.826a.563.563,0,0,0-.4-.47,7.446,7.446,0,0,1-1.37-.567.563.563,0,0,0-.613.052l-2.245,1.751-1.989-1.99,1.751-2.245a.566.566,0,0,0,.052-.614,7.409,7.409,0,0,1-.567-1.37.565.565,0,0,0-.47-.4l-2.826-.349V81.831l2.826-.349a.565.565,0,0,0,.47-.4,7.417,7.417,0,0,1,.568-1.37.563.563,0,0,0-.052-.613l-1.751-2.245Zm6.381,4.927a3.444,3.444,0,1,0,3.443,3.444,3.447,3.447,0,0,0-3.443-3.444Zm0,8.015a4.571,4.571,0,1,1,4.57-4.571A4.576,4.576,0,0,1,141.7,87.809Zm-23.408-21.9-1.315,1.316,1.237,1.586a.563.563,0,0,1,.052.614,5.42,5.42,0,0,0-.415,1,.564.564,0,0,1-.47.4l-2,.247v1.861l2,.247a.564.564,0,0,1,.47.4,5.411,5.411,0,0,0,.415,1,.563.563,0,0,1-.052.614l-1.237,1.585,1.316,1.316,1.586-1.237a.563.563,0,0,1,.614-.052,5.388,5.388,0,0,0,1,.414.564.564,0,0,1,.4.47l.247,2H124l.247-2a.565.565,0,0,1,.4-.471,5.372,5.372,0,0,0,1-.413.563.563,0,0,1,.614.052l1.585,1.237,1.316-1.316-1.237-1.585a.564.564,0,0,1-.052-.614,5.412,5.412,0,0,0,.415-1,.564.564,0,0,1,.47-.4l2-.247V71.071l-2-.247a.564.564,0,0,1-.47-.4,5.418,5.418,0,0,0-.415-1,.564.564,0,0,1,.052-.614l1.237-1.586-1.316-1.315-1.585,1.237a.564.564,0,0,1-.614.052,5.429,5.429,0,0,0-1-.415.564.564,0,0,1-.4-.47l-.247-2h-1.861l-.247,2a.562.562,0,0,1-.4.47,5.38,5.38,0,0,0-1,.415.563.563,0,0,1-.614-.052l-1.586-1.237Zm-2.51,1.616a.564.564,0,0,1,.046-.745l2.02-2.02a.564.564,0,0,1,.745-.046l1.7,1.324q.257-.12.524-.217l.265-2.137a.563.563,0,0,1,.559-.494h2.856a.563.563,0,0,1,.559.494l.265,2.137q.266.1.524.217l1.7-1.324a.564.564,0,0,1,.745.046l2.02,2.02a.564.564,0,0,1,.046.745l-1.324,1.7c.079.17.152.345.217.523l2.138.265a.564.564,0,0,1,.494.559V73.43a.563.563,0,0,1-.494.559l-2.137.264q-.1.266-.217.524l1.324,1.7a.564.564,0,0,1-.046.745l-2.02,2.021a.564.564,0,0,1-.745.046l-1.7-1.324q-.256.119-.524.217l-.265,2.137a.563.563,0,0,1-.559.494h-2.856a.564.564,0,0,1-.56-.495l-.264-2.137q-.267-.1-.524-.217l-1.7,1.324a.564.564,0,0,1-.745-.046l-2.02-2.021a.564.564,0,0,1-.046-.745l1.324-1.7q-.119-.257-.217-.524l-2.137-.264a.564.564,0,0,1-.5-.559V70.573a.564.564,0,0,1,.494-.559l2.138-.265q.1-.267.217-.523Zm7.285,2.032A2.442,2.442,0,1,0,125.507,72,2.444,2.444,0,0,0,123.065,69.56Zm0,6.011A3.569,3.569,0,1,1,126.634,72a3.574,3.574,0,0,1-3.569,3.569Zm108.4,57,2.985.106a8.461,8.461,0,0,0,.448.859l-1.625,2.507a.563.563,0,0,0,.11.738l2.918,2.449a.563.563,0,0,0,.746-.019l2.186-2.036a8.4,8.4,0,0,0,.923.292l.623,2.921a.563.563,0,0,0,.6.443l3.8-.331a.564.564,0,0,0,.514-.542l.106-2.985a8.575,8.575,0,0,0,.859-.448l2.507,1.625a.563.563,0,0,0,.738-.11l2.449-2.918a.563.563,0,0,0-.019-.746l-2.036-2.186a8.4,8.4,0,0,0,.292-.923l2.922-.623a.564.564,0,0,0,.444-.6l-.333-3.794a.563.563,0,0,0-.541-.514l-2.985-.107a8.52,8.52,0,0,0-.447-.859l1.625-2.506a.563.563,0,0,0-.11-.738l-2.918-2.449a.563.563,0,0,0-.746.019l-2.187,2.036a8.618,8.618,0,0,0-.923-.292l-.623-2.921a.564.564,0,0,0-.6-.444l-3.794.333a.564.564,0,0,0-.514.541l-.107,2.984a8.528,8.528,0,0,0-.859.448l-2.506-1.625a.563.563,0,0,0-.738.11L232.2,123.18a.564.564,0,0,0,.02.746l2.035,2.186a8.491,8.491,0,0,0-.292.923l-2.921.623a.564.564,0,0,0-.443.6l.332,3.795a.564.564,0,0,0,.541.514Zm.293-3.911,2.785-.595a.564.564,0,0,0,.434-.436,7.449,7.449,0,0,1,.446-1.414.562.562,0,0,0-.106-.606l-1.94-2.084,1.808-2.155,2.389,1.549a.564.564,0,0,0,.615,0,7.432,7.432,0,0,1,1.315-.685.563.563,0,0,0,.355-.5l.1-2.845,2.8-.246.594,2.785a.564.564,0,0,0,.436.434,7.5,7.5,0,0,1,1.415.446.562.562,0,0,0,.605-.106l2.084-1.94,2.155,1.808-1.549,2.389a.565.565,0,0,0,0,.616,7.363,7.363,0,0,1,.684,1.315.564.564,0,0,0,.5.355l2.846.1.245,2.8-2.785.595a.562.562,0,0,0-.434.436,7.438,7.438,0,0,1-.446,1.414.562.562,0,0,0,.106.606l1.94,2.084-1.808,2.155-2.389-1.549a.563.563,0,0,0-.615,0,7.45,7.45,0,0,1-1.315.685.563.563,0,0,0-.355.5l-.1,2.846-2.8.245-.595-2.785a.564.564,0,0,0-.436-.434,7.426,7.426,0,0,1-1.414-.446.562.562,0,0,0-.606.106l-2.084,1.94-2.155-1.808,1.549-2.389a.564.564,0,0,0,0-.615,7.434,7.434,0,0,1-.685-1.316.564.564,0,0,0-.5-.355l-2.845-.1-.245-2.8Zm7.876-1.721a3.444,3.444,0,1,0,4.852-.424A3.447,3.447,0,0,0,239.635,126.936Zm6.139,5.152a4.571,4.571,0,1,1-.563-6.439A4.576,4.576,0,0,1,245.774,132.087Zm-31.819,3.856.162,1.853,2.009.072a.563.563,0,0,1,.5.355,5.476,5.476,0,0,0,.5.962.563.563,0,0,1,0,.614l-1.094,1.688,1.426,1.2,1.472-1.37a.562.562,0,0,1,.605-.106,5.5,5.5,0,0,0,1.034.326.562.562,0,0,1,.436.434l.42,1.966,1.854-.161.072-2.01a.564.564,0,0,1,.355-.5,5.39,5.39,0,0,0,.959-.5.564.564,0,0,1,.616,0l1.688,1.094,1.2-1.426-1.37-1.472a.564.564,0,0,1-.105-.607,5.383,5.383,0,0,0,.326-1.033.564.564,0,0,1,.434-.437l1.966-.419-.163-1.854-2.009-.071a.563.563,0,0,1-.5-.355,5.422,5.422,0,0,0-.5-.962.562.562,0,0,1,0-.615l1.094-1.687-1.426-1.2-1.472,1.37a.564.564,0,0,1-.606.106,5.421,5.421,0,0,0-1.034-.326.564.564,0,0,1-.437-.434l-.419-1.967-1.853.162-.072,2.009a.563.563,0,0,1-.355.5,5.369,5.369,0,0,0-.961.5.564.564,0,0,1-.616,0L216.4,130.55l-1.2,1.426,1.37,1.472a.562.562,0,0,1,.106.606,5.352,5.352,0,0,0-.325,1.033.564.564,0,0,1-.434.437l-1.967.421Zm-.376,2.962a.563.563,0,0,1-.541-.514l-.249-2.846a.564.564,0,0,1,.443-.6l2.106-.45c.049-.182.106-.362.171-.54l-1.467-1.576a.564.564,0,0,1-.019-.746l1.836-2.188a.563.563,0,0,1,.738-.11l1.807,1.171c.164-.095.332-.182.5-.262l.077-2.152a.563.563,0,0,1,.514-.541l2.846-.249a.563.563,0,0,1,.6.443l.449,2.106q.273.073.541.17l1.577-1.467a.563.563,0,0,1,.746-.019l2.189,1.836a.563.563,0,0,1,.11.738l-1.171,1.807q.141.246.262.5l2.152.077a.564.564,0,0,1,.541.514l.25,2.846a.563.563,0,0,1-.444.6l-2.105.449q-.074.273-.171.541l1.467,1.576a.563.563,0,0,1,.019.746l-1.836,2.188a.563.563,0,0,1-.738.11l-1.808-1.171c-.164.095-.332.182-.5.262l-.077,2.152a.564.564,0,0,1-.514.541l-2.846.248a.564.564,0,0,1-.6-.444l-.449-2.105q-.274-.074-.541-.171l-1.576,1.468a.563.563,0,0,1-.746.02l-2.189-1.837a.563.563,0,0,1-.11-.738l1.171-1.808q-.142-.246-.262-.5l-2.152-.077Zm6.239-4.274a2.442,2.442,0,1,0,3.44-.3,2.444,2.444,0,0,0-3.44.3Zm4.6,3.863a3.569,3.569,0,1,1-.44-5.028A3.574,3.574,0,0,1,224.422,138.495Zm-86.575,85.926.67,2.911a8.654,8.654,0,0,0-.714.655l-2.842-.921a.564.564,0,0,0-.685.3l-1.61,3.452a.564.564,0,0,0,.212.716l2.532,1.585a8.555,8.555,0,0,0-.043.967l-2.66,1.358a.563.563,0,0,0-.274.694l1.3,3.581a.563.563,0,0,0,.656.356l2.911-.67a8.543,8.543,0,0,0,.655.714l-.922,2.842a.564.564,0,0,0,.3.685l3.452,1.61a.564.564,0,0,0,.716-.212l1.585-2.532a8.565,8.565,0,0,0,.968.043l1.358,2.661a.563.563,0,0,0,.695.273l3.579-1.3a.563.563,0,0,0,.356-.656l-.67-2.911a8.549,8.549,0,0,0,.715-.654l2.841.921a.564.564,0,0,0,.685-.3l1.61-3.452a.563.563,0,0,0-.212-.716l-2.532-1.585a8.577,8.577,0,0,0,.043-.968l2.66-1.358a.563.563,0,0,0,.273-.694l-1.3-3.579a.563.563,0,0,0-.656-.356l-2.911.669a8.55,8.55,0,0,0-.655-.714l.921-2.841a.564.564,0,0,0-.3-.685L147.1,222.7a.563.563,0,0,0-.716.212l-1.585,2.531a8.573,8.573,0,0,0-.968-.043l-1.358-2.66a.564.564,0,0,0-.695-.273l-3.58,1.3a.564.564,0,0,0-.356.656Zm3.853-.729L143,226.228a.563.563,0,0,0,.534.307,7.441,7.441,0,0,1,1.481.065.564.564,0,0,0,.558-.259l1.51-2.413,2.55,1.189-.878,2.708a.563.563,0,0,0,.16.593,7.473,7.473,0,0,1,1,1.094.562.562,0,0,0,.578.212l2.774-.638.962,2.643-2.536,1.294a.564.564,0,0,0-.307.534,7.455,7.455,0,0,1-.065,1.483.563.563,0,0,0,.259.557l2.414,1.511-1.189,2.549-2.708-.878a.564.564,0,0,0-.594.16,7.4,7.4,0,0,1-1.093,1,.563.563,0,0,0-.212.578l.638,2.775-2.644.962-1.295-2.536a.563.563,0,0,0-.534-.307,7.435,7.435,0,0,1-1.481-.065.564.564,0,0,0-.558.259l-1.511,2.414-2.55-1.189.878-2.709a.565.565,0,0,0-.161-.594,7.464,7.464,0,0,1-1-1.093.563.563,0,0,0-.578-.212l-2.775.638-.962-2.644,2.536-1.295a.565.565,0,0,0,.306-.534,7.432,7.432,0,0,1,.065-1.481.564.564,0,0,0-.259-.558l-2.414-1.511,1.189-2.549,2.708.878a.564.564,0,0,0,.594-.161,7.5,7.5,0,0,1,1.093-1,.563.563,0,0,0,.212-.578l-.638-2.774,2.643-.962Zm3.7,7.162a3.443,3.443,0,1,0,1.666,4.577A3.447,3.447,0,0,0,145.4,230.854Zm-3.387,7.263a4.571,4.571,0,1,1,6.074-2.211A4.575,4.575,0,0,1,142.014,238.117Zm-11.96-29.738-1.748.637.451,1.96a.565.565,0,0,1-.212.578,5.4,5.4,0,0,0-.8.732.563.563,0,0,1-.593.16l-1.913-.62-.787,1.687,1.7,1.067a.563.563,0,0,1,.259.558,5.426,5.426,0,0,0-.047,1.083.563.563,0,0,1-.307.534l-1.791.914.637,1.749,1.96-.451a.563.563,0,0,1,.578.212,5.327,5.327,0,0,0,.731.8.565.565,0,0,1,.161.594l-.62,1.914,1.686.786,1.067-1.7a.563.563,0,0,1,.559-.259,5.422,5.422,0,0,0,1.082.048.563.563,0,0,1,.534.307l.914,1.79,1.748-.637-.451-1.96a.564.564,0,0,1,.212-.578,5.341,5.341,0,0,0,.8-.732.565.565,0,0,1,.594-.161l1.913.62.787-1.687-1.7-1.067a.564.564,0,0,1-.259-.557,5.435,5.435,0,0,0,.047-1.083.564.564,0,0,1,.307-.534l1.791-.914-.637-1.748-1.959.451a.564.564,0,0,1-.578-.212,5.4,5.4,0,0,0-.732-.8.562.562,0,0,1-.161-.594l.619-1.913-1.686-.787-1.067,1.7a.565.565,0,0,1-.559.259,5.406,5.406,0,0,0-1.081-.047.562.562,0,0,1-.535-.306l-.915-1.792Zm-2.959.4a.564.564,0,0,1,.356-.656l2.684-.977a.564.564,0,0,1,.695.273l.979,1.918q.283,0,.566.025l1.143-1.825a.563.563,0,0,1,.715-.212l2.589,1.207a.563.563,0,0,1,.3.685l-.663,2.048q.2.2.383.418l2.1-.482a.563.563,0,0,1,.656.356l.977,2.684a.564.564,0,0,1-.273.695l-1.918.979q0,.282-.025.566l1.826,1.143a.564.564,0,0,1,.211.716l-1.207,2.589a.563.563,0,0,1-.685.3l-2.048-.664q-.2.2-.419.383l.483,2.1a.564.564,0,0,1-.356.656l-2.684.978a.563.563,0,0,1-.695-.274l-.979-1.918q-.283,0-.566-.025l-1.143,1.825a.564.564,0,0,1-.716.212L126.79,223.3a.563.563,0,0,1-.3-.684l.664-2.05q-.2-.2-.383-.417l-2.1.482a.563.563,0,0,1-.656-.356l-.976-2.685a.563.563,0,0,1,.273-.695l1.918-.979q0-.283.025-.566l-1.826-1.142a.564.564,0,0,1-.212-.716l1.207-2.59a.564.564,0,0,1,.685-.3l2.049.664q.2-.2.418-.383l-.482-2.1Zm5.743,4.921a2.442,2.442,0,1,0,1.181,3.245,2.444,2.444,0,0,0-1.181-3.245Zm-2.54,5.447a3.569,3.569,0,1,1,4.743-1.726,3.573,3.573,0,0,1-4.743,1.726ZM45.983,290.582l-1.837,2.355a8.642,8.642,0,0,1,.37.9l2.965.367a.563.563,0,0,1,.494.559v3.809a.563.563,0,0,1-.494.559l-2.965.366a8.588,8.588,0,0,1-.37.9l1.837,2.355a.563.563,0,0,1-.046.745l-2.693,2.695a.564.564,0,0,1-.745.046l-2.355-1.838a8.523,8.523,0,0,1-.9.37l-.366,2.965a.564.564,0,0,1-.559.494h-3.81a.564.564,0,0,1-.559-.494l-.366-2.965a8.58,8.58,0,0,1-.9-.37l-2.356,1.838a.564.564,0,0,1-.745-.046L26.9,303.487a.564.564,0,0,1-.046-.745l1.837-2.355a8.581,8.581,0,0,1-.371-.895l-2.965-.367a.564.564,0,0,1-.494-.559v-3.809a.564.564,0,0,1,.494-.559l2.965-.367a8.667,8.667,0,0,1,.37-.9l-1.837-2.355a.564.564,0,0,1,.046-.745l2.694-2.693a.564.564,0,0,1,.745-.046l2.355,1.837a8.54,8.54,0,0,1,.9-.371l.366-2.964a.564.564,0,0,1,.559-.494h3.81a.563.563,0,0,1,.559.494l.366,2.964a8.476,8.476,0,0,1,.895.371L42.5,287.1a.563.563,0,0,1,.745.046l2.694,2.693A.564.564,0,0,1,45.983,290.582ZM42.8,288.293l-2.245,1.751a.564.564,0,0,1-.614.052,7.424,7.424,0,0,0-1.37-.568.564.564,0,0,1-.4-.47l-.349-2.825H35.012l-.349,2.825a.564.564,0,0,1-.4.47,7.431,7.431,0,0,0-1.37.568.564.564,0,0,1-.614-.052l-2.245-1.75-1.99,1.988,1.751,2.245a.563.563,0,0,1,.052.613,7.454,7.454,0,0,0-.568,1.371.563.563,0,0,1-.47.4l-2.827.349v2.813l2.826.349a.564.564,0,0,1,.47.4,7.393,7.393,0,0,0,.568,1.37.563.563,0,0,1-.052.614l-1.751,2.245,1.989,1.99,2.245-1.751a.564.564,0,0,1,.614-.052,7.391,7.391,0,0,0,1.37.567.565.565,0,0,1,.4.47l.349,2.827h2.813l.349-2.827a.565.565,0,0,1,.4-.47,7.423,7.423,0,0,0,1.37-.567.564.564,0,0,1,.614.052l2.245,1.751,1.99-1.99L43.037,300.8a.564.564,0,0,1-.052-.613,7.435,7.435,0,0,0,.568-1.37.565.565,0,0,1,.47-.4l2.826-.349v-2.813l-2.826-.349a.563.563,0,0,1-.47-.4,7.448,7.448,0,0,0-.568-1.371.563.563,0,0,1,.052-.613l1.751-2.245Zm-6.381,4.926a3.444,3.444,0,1,1-3.443,3.445,3.448,3.448,0,0,1,3.443-3.445Zm0,8.015a4.571,4.571,0,1,0-4.57-4.571,4.576,4.576,0,0,0,4.57,4.571Zm23.407-21.9,1.316,1.315L59.9,282.238a.563.563,0,0,0-.052.614,5.461,5.461,0,0,1,.415,1,.564.564,0,0,0,.47.4l2,.247v1.861l-2,.246a.564.564,0,0,0-.47.4,5.461,5.461,0,0,1-.415,1,.563.563,0,0,0,.052.614l1.237,1.585-1.315,1.316-1.586-1.237a.564.564,0,0,0-.614-.051,5.379,5.379,0,0,1-1,.413.563.563,0,0,0-.4.47l-.247,2H54.121l-.247-2a.562.562,0,0,0-.4-.47,5.4,5.4,0,0,1-1-.414.563.563,0,0,0-.613.052l-1.585,1.237L48.962,290.2l1.237-1.585a.564.564,0,0,0,.052-.614,5.424,5.424,0,0,1-.415-1,.564.564,0,0,0-.47-.4l-2-.246V284.5l2-.247a.562.562,0,0,0,.47-.4,5.422,5.422,0,0,1,.415-1,.564.564,0,0,0-.052-.614l-1.237-1.586,1.316-1.315,1.585,1.237a.562.562,0,0,0,.613.052,5.408,5.408,0,0,1,1-.414.565.565,0,0,0,.4-.471l.247-1.995h1.861l.247,1.995a.563.563,0,0,0,.4.47,5.4,5.4,0,0,1,1,.415.564.564,0,0,0,.614-.052l1.586-1.237Zm2.511,1.616a.564.564,0,0,0-.046-.745l-2.02-2.02a.564.564,0,0,0-.745-.046l-1.7,1.324q-.257-.12-.524-.217l-.265-2.137a.563.563,0,0,0-.559-.494H53.624a.563.563,0,0,0-.559.494l-.265,2.137q-.266.1-.524.217l-1.7-1.324a.564.564,0,0,0-.745.046l-2.02,2.02a.563.563,0,0,0-.046.745l1.324,1.7q-.119.256-.217.524l-2.138.264a.565.565,0,0,0-.494.56v2.857a.564.564,0,0,0,.494.559l2.137.264c.065.178.137.353.217.524l-1.324,1.7a.564.564,0,0,0,.046.745l2.02,2.021a.564.564,0,0,0,.745.046l1.7-1.324q.256.119.524.217l.264,2.137a.563.563,0,0,0,.559.494H56.48a.563.563,0,0,0,.559-.494L57.3,291.6c.178-.065.353-.137.524-.217l1.7,1.325a.564.564,0,0,0,.745-.046l2.02-2.021a.564.564,0,0,0,.046-.745l-1.324-1.7q.119-.256.217-.524l2.137-.264a.563.563,0,0,0,.494-.559V284a.564.564,0,0,0-.494-.56l-2.138-.264q-.1-.266-.217-.524l1.324-1.7Zm-7.285,2.032a2.442,2.442,0,1,1-2.443,2.442A2.445,2.445,0,0,1,55.052,282.984Zm0,6.011a3.569,3.569,0,1,0-3.569-3.569A3.573,3.573,0,0,0,55.052,289ZM340.233,91.41,338.4,93.765a8.542,8.542,0,0,1,.37.9l2.965.367a.564.564,0,0,1,.494.559V99.4a.564.564,0,0,1-.494.559l-2.965.366a8.564,8.564,0,0,1-.37.895l1.837,2.356a.563.563,0,0,1-.046.745l-2.693,2.695a.564.564,0,0,1-.745.046l-2.355-1.837a8.657,8.657,0,0,1-.9.37l-.366,2.965a.563.563,0,0,1-.559.494h-3.81a.563.563,0,0,1-.559-.494l-.366-2.965a8.588,8.588,0,0,1-.9-.37l-2.356,1.837a.564.564,0,0,1-.745-.046l-2.693-2.695a.562.562,0,0,1-.046-.745l1.837-2.355a8.545,8.545,0,0,1-.371-.9l-2.965-.366a.564.564,0,0,1-.494-.559V95.586a.564.564,0,0,1,.494-.559l2.965-.367a8.655,8.655,0,0,1,.37-.9L321.1,91.41a.564.564,0,0,1,.046-.745l2.693-2.693a.564.564,0,0,1,.745-.046l2.355,1.836a8.532,8.532,0,0,1,.9-.37l.366-2.964a.564.564,0,0,1,.559-.494h3.81a.563.563,0,0,1,.559.494l.366,2.964a8.474,8.474,0,0,1,.895.37l2.356-1.837a.563.563,0,0,1,.745.046l2.694,2.693a.564.564,0,0,1,.046.745Zm-3.184-2.29L334.8,90.872a.564.564,0,0,1-.614.052,7.382,7.382,0,0,0-1.37-.568.565.565,0,0,1-.4-.47l-.349-2.825h-2.813l-.349,2.825a.565.565,0,0,1-.4.47,7.435,7.435,0,0,0-1.37.568.564.564,0,0,1-.614-.052l-2.245-1.751L322.3,91.11l1.751,2.245a.563.563,0,0,1,.052.613,7.434,7.434,0,0,0-.568,1.371.565.565,0,0,1-.47.4l-2.827.349V98.9l2.826.349a.565.565,0,0,1,.47.4,7.368,7.368,0,0,0,.568,1.369.564.564,0,0,1-.052.614l-1.751,2.245,1.989,1.99,2.245-1.752a.563.563,0,0,1,.614-.052,7.474,7.474,0,0,0,1.37.567.564.564,0,0,1,.4.47l.349,2.826h2.813l.349-2.826a.565.565,0,0,1,.4-.47,7.424,7.424,0,0,0,1.37-.567.563.563,0,0,1,.614.052l2.245,1.752,1.99-1.99-1.751-2.245a.564.564,0,0,1-.052-.614,7.43,7.43,0,0,0,.568-1.37.565.565,0,0,1,.47-.4L341.1,98.9V96.084l-2.826-.349a.565.565,0,0,1-.47-.4,7.459,7.459,0,0,0-.568-1.37.563.563,0,0,1,.052-.613l1.751-2.245-1.988-1.989Zm-6.381,4.927a3.444,3.444,0,1,1-3.443,3.444A3.448,3.448,0,0,1,330.669,94.047Zm0,8.015a4.571,4.571,0,1,0-4.571-4.571A4.576,4.576,0,0,0,330.669,102.062Zm23.407-21.9,1.316,1.316-1.237,1.586a.563.563,0,0,0-.052.614,5.463,5.463,0,0,1,.415,1,.565.565,0,0,0,.47.4l2,.247v1.861l-2,.247a.562.562,0,0,0-.47.4,5.468,5.468,0,0,1-.415,1,.562.562,0,0,0,.052.613l1.237,1.586-1.316,1.316-1.586-1.237a.564.564,0,0,0-.614-.052,5.38,5.38,0,0,1-1,.413.563.563,0,0,0-.4.47l-.247,2h-1.861l-.247-2a.564.564,0,0,0-.4-.47,5.418,5.418,0,0,1-1-.413.562.562,0,0,0-.613.052l-1.586,1.237-1.315-1.316,1.237-1.586a.563.563,0,0,0,.052-.613,5.413,5.413,0,0,1-.415-1,.564.564,0,0,0-.47-.4l-2-.247V85.324l2-.247a.564.564,0,0,0,.47-.4,5.423,5.423,0,0,1,.415-1,.564.564,0,0,0-.052-.614l-1.237-1.586,1.315-1.316,1.586,1.237a.562.562,0,0,0,.613.052,5.452,5.452,0,0,1,1-.415.562.562,0,0,0,.4-.47l.247-2h1.861l.247,2a.564.564,0,0,0,.4.47,5.4,5.4,0,0,1,1,.414.562.562,0,0,0,.614-.052l1.586-1.237Zm2.511,1.616a.564.564,0,0,0-.046-.745l-2.02-2.02a.564.564,0,0,0-.745-.046l-1.7,1.325q-.257-.12-.524-.217l-.265-2.137a.563.563,0,0,0-.559-.494h-2.856a.564.564,0,0,0-.56.494l-.264,2.136q-.266.1-.524.217l-1.7-1.324a.564.564,0,0,0-.745.046l-2.02,2.02a.563.563,0,0,0-.046.745l1.324,1.7c-.079.17-.152.346-.217.524l-2.138.265a.564.564,0,0,0-.494.559v2.857a.564.564,0,0,0,.494.559l2.137.263q.1.267.217.524l-1.324,1.7a.564.564,0,0,0,.046.745l2.02,2.021a.564.564,0,0,0,.745.046l1.7-1.324q.256.119.524.217l.264,2.137a.563.563,0,0,0,.559.494h2.857a.563.563,0,0,0,.559-.494l.265-2.138c.178-.065.353-.137.524-.216l1.7,1.324a.564.564,0,0,0,.745-.046l2.02-2.021a.564.564,0,0,0,.046-.745l-1.324-1.7q.119-.256.217-.524l2.137-.264a.563.563,0,0,0,.494-.559V84.826a.564.564,0,0,0-.494-.559L355.479,84q-.1-.266-.217-.524l1.324-1.7ZM349.3,83.813a2.442,2.442,0,1,1-2.443,2.441,2.444,2.444,0,0,1,2.443-2.441Zm0,6.01a3.569,3.569,0,1,0-3.569-3.569,3.572,3.572,0,0,0,3.569,3.569ZM95.152,246.176a4.254,4.254,0,0,1-6.38-3.571l-9.521-2.551a5.632,5.632,0,0,1-6.014,3.473l-1.991,7.429a2.8,2.8,0,0,1,1.064,1.039,2.836,2.836,0,1,1-3.875-1.039,2.8,2.8,0,0,1,1.441-.367l1.991-7.429a5.639,5.639,0,0,1-3.473-6.015l-12.267-3.287a4.211,4.211,0,1,1,.208-1.412l12.426,3.329a5.637,5.637,0,0,1,1.819-2.376l-3.6-6.239a4.253,4.253,0,1,1,1.228-.709l3.6,6.239a5.64,5.64,0,0,1,2.968-.388l1.99-7.429a2.794,2.794,0,0,1-1.065-1.039,2.836,2.836,0,1,1,3.875,1.039,2.8,2.8,0,0,1-1.441.367l-1.99,7.429a5.639,5.639,0,0,1,3.473,6.015l9.362,2.509a4.252,4.252,0,1,1,6.171,4.984Zm-26.526,7.946a1.418,1.418,0,1,0,.519-1.937,1.419,1.419,0,0,0-.519,1.937ZM50.665,230.1a2.836,2.836,0,1,0,3.875,1.039,2.839,2.839,0,0,0-3.875-1.039Zm17.289-8.344a2.836,2.836,0,1,0-1.038,3.874,2.84,2.84,0,0,0,1.038-3.874Zm3.925,12.471a4.255,4.255,0,1,0,5.812,1.557,4.259,4.259,0,0,0-5.812-1.557Zm7.508-12.522a1.4,1.4,0,1,0-.519,1.937,1.42,1.42,0,0,0,.519-1.937Zm12.219,18.327a2.836,2.836,0,1,0,3.875,1.038A2.839,2.839,0,0,0,91.606,240.035ZM9.28,337.579a4.254,4.254,0,0,1,5.239,5.1l8.536,4.928a5.636,5.636,0,0,1,6.709-1.8l3.845-6.66a2.793,2.793,0,0,1-.759-1.279,2.836,2.836,0,1,1,3.474,2.005,2.8,2.8,0,0,1-1.487-.017l-3.845,6.66a5.637,5.637,0,0,1,1.8,6.709l11,6.35a4.211,4.211,0,1,1-.566,1.31l-11.141-6.432a5.64,5.64,0,0,1-2.373,1.824l1.865,6.959a4.255,4.255,0,1,1-1.37.367l-1.865-6.959a5.643,5.643,0,0,1-2.967-.394l-3.845,6.66a2.8,2.8,0,0,1,.76,1.279,2.836,2.836,0,1,1-3.474-2.005,2.8,2.8,0,0,1,1.487.017l3.845-6.66a5.636,5.636,0,0,1-1.8-6.709l-8.393-4.846a4.252,4.252,0,1,1-4.672-6.411Zm27.679-.809a1.418,1.418,0,1,0-1,1.737,1.42,1.42,0,0,0,1-1.737Zm11.133,27.849a2.836,2.836,0,1,0-3.474-2.005,2.839,2.839,0,0,0,3.474,2.005ZM29.232,368.2a2.837,2.837,0,1,0,2.006-3.474,2.839,2.839,0,0,0-2.006,3.474Zm-.563-13.063a4.254,4.254,0,1,0-5.211-3.008,4.259,4.259,0,0,0,5.211,3.008ZM18.175,365.294a1.418,1.418,0,1,0,1-1.737,1.42,1.42,0,0,0-1,1.737Zm-7.059-20.866a2.836,2.836,0,1,0-3.474-2.005,2.839,2.839,0,0,0,3.474,2.005ZM138.895,139.335a4.254,4.254,0,0,0-7.037-1.986l-8.535-4.928a5.635,5.635,0,0,0-1.8-6.709l3.845-6.66a2.8,2.8,0,0,0,1.487.018,2.837,2.837,0,1,0-3.474-2.006,2.793,2.793,0,0,0,.759,1.279L120.3,125a5.634,5.634,0,0,0-6.709,1.8l-11-6.35a4.21,4.21,0,1,0-.851,1.146l11.141,6.433a5.641,5.641,0,0,0-.394,2.967l-6.959,1.864a4.254,4.254,0,1,0,.367,1.37l6.959-1.864a5.64,5.64,0,0,0,1.825,2.372l-3.845,6.661a2.8,2.8,0,0,0-1.488-.019,2.836,2.836,0,1,0,3.474,2.006,2.8,2.8,0,0,0-.759-1.279l3.845-6.66a5.634,5.634,0,0,0,6.709-1.8l8.394,4.846a4.252,4.252,0,1,0,7.888.839Zm-13.138-24.375a1.418,1.418,0,1,1-1,1.737,1.42,1.42,0,0,1,1-1.737Zm-29.685,4.284a2.836,2.836,0,1,1,3.474,2.005,2.839,2.839,0,0,1-3.474-2.005Zm6.325,18.126A2.837,2.837,0,1,1,104.4,133.9a2.84,2.84,0,0,1-2.006,3.474Zm11.594-6.043a4.255,4.255,0,1,1,5.211,3.008,4.259,4.259,0,0,1-5.211-3.008Zm-3.545,14.163a1.418,1.418,0,1,1,1-1.737A1.419,1.419,0,0,1,110.446,145.49Zm21.6-4.319a2.837,2.837,0,1,1,3.474,2.006,2.839,2.839,0,0,1-3.474-2.006ZM366.684,7.528a4.253,4.253,0,0,0-3.74,6.282l-6.97,6.97a5.632,5.632,0,0,0-6.946,0l-5.438-5.438a2.8,2.8,0,0,0,.4-1.432,2.836,2.836,0,1,0-2.836,2.836,2.8,2.8,0,0,0,1.432-.4l5.438,5.438a5.639,5.639,0,0,0,0,6.946l-8.98,8.981a4.212,4.212,0,1,0,.886,1.119l9.1-9.1a5.635,5.635,0,0,0,2.764,1.148v7.2a4.255,4.255,0,1,0,1.418,0v-7.2a5.634,5.634,0,0,0,2.764-1.148l5.438,5.438a2.8,2.8,0,0,0-.4,1.432,2.836,2.836,0,1,0,2.837-2.836,2.8,2.8,0,0,0-1.432.4l-5.438-5.438a5.639,5.639,0,0,0,0-6.946l6.854-6.854a4.251,4.251,0,1,0,2.852-7.4ZM339.738,13.91a1.418,1.418,0,1,1,1.418,1.418A1.42,1.42,0,0,1,339.738,13.91Zm-3.545,29.781a2.836,2.836,0,1,1,2.836-2.836A2.839,2.839,0,0,1,336.193,43.691Zm19.145-1.418a2.836,2.836,0,1,1-2.836-2.837A2.839,2.839,0,0,1,355.338,42.273ZM352.5,29.51a4.255,4.255,0,1,1,4.255-4.255A4.259,4.259,0,0,1,352.5,29.51ZM365.265,36.6a1.418,1.418,0,1,1-1.418-1.418A1.42,1.42,0,0,1,365.265,36.6Zm1.418-21.981a2.836,2.836,0,1,1,2.836-2.837A2.839,2.839,0,0,1,366.684,14.619ZM147.588-.453a4.254,4.254,0,0,0-3.74,6.283l-6.97,6.97a5.635,5.635,0,0,0-6.945,0L124.5,7.361a2.8,2.8,0,0,0,.4-1.432,2.836,2.836,0,1,0-2.837,2.836,2.8,2.8,0,0,0,1.432-.4L128.93,13.8a5.639,5.639,0,0,0,0,6.946l-8.98,8.981a4.21,4.21,0,1,0,.887,1.119l9.1-9.1A5.641,5.641,0,0,0,132.7,22.9v7.2a4.255,4.255,0,1,0,1.418,0V22.9a5.639,5.639,0,0,0,2.764-1.148l5.438,5.438a2.791,2.791,0,0,0-.4,1.432,2.836,2.836,0,1,0,2.837-2.836,2.8,2.8,0,0,0-1.432.4l-5.438-5.438a5.639,5.639,0,0,0,0-6.946l6.853-6.854a4.252,4.252,0,1,0,2.853-7.4ZM120.643,5.929a1.418,1.418,0,1,1,1.418,1.418A1.42,1.42,0,0,1,120.643,5.929ZM117.1,35.711a2.836,2.836,0,1,1,2.836-2.836,2.84,2.84,0,0,1-2.836,2.836Zm19.145-1.418a2.836,2.836,0,1,1-2.837-2.837,2.839,2.839,0,0,1,2.837,2.837Zm-2.837-12.764a4.255,4.255,0,1,1,4.255-4.255A4.258,4.258,0,0,1,133.406,21.529Zm12.764,7.091a1.418,1.418,0,1,1-1.418-1.418,1.42,1.42,0,0,1,1.418,1.418Zm1.418-21.981A2.836,2.836,0,1,1,150.424,3.8,2.84,2.84,0,0,1,147.588,6.639ZM343.782,120.064a4.254,4.254,0,0,1,3.74,6.282l6.97,6.97a5.633,5.633,0,0,1,6.946,0l5.438-5.438a2.8,2.8,0,0,1-.4-1.432,2.836,2.836,0,1,1,2.836,2.836,2.8,2.8,0,0,1-1.432-.4l-5.438,5.438a5.639,5.639,0,0,1,0,6.946l8.98,8.981a4.212,4.212,0,1,1-.886,1.119l-9.1-9.1a5.632,5.632,0,0,1-2.764,1.148v7.2a4.254,4.254,0,1,1-1.418,0v-7.2a5.635,5.635,0,0,1-2.764-1.148l-5.438,5.438a2.8,2.8,0,0,1,.4,1.432,2.836,2.836,0,1,1-2.836-2.836,2.8,2.8,0,0,1,1.432.4l5.438-5.438a5.636,5.636,0,0,1,0-6.946l-6.853-6.854a4.251,4.251,0,1,1-2.853-7.4Zm26.946,6.382a1.418,1.418,0,1,0-1.418,1.418,1.42,1.42,0,0,0,1.418-1.418Zm3.545,29.781a2.836,2.836,0,1,0-2.837-2.836A2.839,2.839,0,0,0,374.273,156.227Zm-19.145-1.418a2.836,2.836,0,1,0,2.836-2.837A2.839,2.839,0,0,0,355.128,154.809Zm2.836-12.764a4.255,4.255,0,1,0-4.255-4.255,4.259,4.259,0,0,0,4.255,4.255ZM345.2,149.136a1.418,1.418,0,1,0,1.418-1.418A1.42,1.42,0,0,0,345.2,149.136Zm-1.418-21.981a2.836,2.836,0,1,0-2.836-2.837,2.839,2.839,0,0,0,2.836,2.837Zm-35.41,185.634a14.3,14.3,0,0,1-12.087-25.92,14.643,14.643,0,0,1,8.977-1.029l.6-1.642-.686-.25a.649.649,0,0,1-.388-.833l4.64-12.749a3.407,3.407,0,0,1,6.4,2.33l-4.64,12.75c-.22.359-.057.184-.578.427l-.256-.039-.685-.249-.6,1.642a14.66,14.66,0,0,1,6.214,6.558A14.316,14.316,0,0,1,308.372,312.789Zm1.819-28.4,4.418-12.139a2.108,2.108,0,1,0-3.962-1.441l-4.418,12.138,3.961,1.442Zm-2.368,27.22a13,13,0,1,0-17.276-6.288A13.014,13.014,0,0,0,307.822,311.611ZM307,309.844a11.05,11.05,0,1,1,5.345-14.685A11.063,11.063,0,0,1,307,309.844Zm-.55-1.178a9.75,9.75,0,1,0-12.957-4.716A9.761,9.761,0,0,0,306.449,308.665Zm1.447-22,.555-1.526-1.369-.5-.556,1.526A7.556,7.556,0,0,1,307.9,286.667Zm-65.64-47.9a14.3,14.3,0,1,0-28.491,2.492,14.637,14.637,0,0,0,3.6,8.288l-1.123,1.339-.559-.469a.649.649,0,0,0-.916.08l-8.722,10.393a3.408,3.408,0,0,0,5.22,4.382l8.722-10.394c.2-.37.131-.141.081-.714l-.161-.2-.558-.469,1.124-1.339a14.659,14.659,0,0,0,8.786,2.1,14.316,14.316,0,0,0,13-15.492Zm-23.684,15.774-8.3,9.9a2.109,2.109,0,0,1-3.229-2.71l8.3-9.9Zm22.389-15.66a13,13,0,1,1-14.084-11.817,13.014,13.014,0,0,1,14.084,11.817Zm-1.943.17a11.05,11.05,0,1,0-10.044,11.971A11.062,11.062,0,0,0,239.018,239.046Zm-1.295.113A9.75,9.75,0,1,1,227.16,230.3,9.761,9.761,0,0,1,237.723,239.159Zm-18.329,12.252-1.043,1.244-1.117-.937,1.043-1.243A7.54,7.54,0,0,0,219.394,251.411ZM29.605,9.443a14.3,14.3,0,1,0,0,28.6,14.638,14.638,0,0,0,8.57-2.861l1.235,1.235-.515.516a.649.649,0,0,0,0,.919l9.594,9.594a3.408,3.408,0,0,0,4.82-4.819l-9.6-9.594c-.35-.233-.129-.143-.7-.143l-.215.143-.515.515-1.235-1.236a14.662,14.662,0,0,0,2.86-8.57,14.316,14.316,0,0,0-14.3-14.3Zm13.65,24.969,9.134,9.134a2.108,2.108,0,1,1-2.982,2.98l-9.133-9.134,2.981-2.981ZM29.605,10.744a13,13,0,1,1-13,13A13.014,13.014,0,0,1,29.605,10.744Zm0,1.95a11.05,11.05,0,1,0,11.05,11.049A11.062,11.062,0,0,0,29.605,12.694Zm0,1.3a9.75,9.75,0,1,1-9.75,9.75A9.761,9.761,0,0,1,29.605,13.993ZM40.213,33.32l1.148,1.148L40.33,35.5,39.183,34.35a7.572,7.572,0,0,0,1.031-1.031Zm80.82,290.312a14.3,14.3,0,1,1,0,28.6,14.636,14.636,0,0,1-8.57-2.861l-1.236,1.235.516.516a.649.649,0,0,1,0,.919l-9.594,9.594a3.408,3.408,0,0,1-4.82-4.819l9.594-9.594c.351-.233.129-.143.7-.143l.215.143.515.515,1.235-1.236a14.658,14.658,0,0,1-2.86-8.57,14.315,14.315,0,0,1,14.3-14.3ZM107.383,348.6l-9.134,9.134a2.108,2.108,0,0,0,2.981,2.98l9.134-9.134-2.981-2.981Zm13.65-23.669a13,13,0,1,0,13,13,13.015,13.015,0,0,0-13-13Zm0,1.95a11.05,11.05,0,1,1-11.049,11.05,11.063,11.063,0,0,1,11.049-11.05Zm0,1.3a9.75,9.75,0,1,0,9.75,9.75A9.761,9.761,0,0,0,121.033,328.181Zm-10.608,19.326-1.148,1.148,1.03,1.03,1.148-1.148a7.537,7.537,0,0,1-1.03-1.031ZM238.618,53.082a14.3,14.3,0,0,0,0,28.6,14.638,14.638,0,0,0,8.57-2.861l1.235,1.236-.515.516a.648.648,0,0,0,0,.919l9.594,9.594a3.407,3.407,0,0,0,4.82-4.818l-9.6-9.594c-.35-.233-.129-.143-.7-.143l-.215.143-.515.515-1.236-1.236a14.656,14.656,0,0,0,2.861-8.569,14.317,14.317,0,0,0-14.3-14.3Zm13.65,24.969,9.134,9.135a2.109,2.109,0,0,1-2.982,2.98l-9.134-9.134Zm-13.65-23.669a13,13,0,1,1-13,13A13.015,13.015,0,0,1,238.618,54.382Zm0,1.95a11.05,11.05,0,1,0,11.05,11.05,11.062,11.062,0,0,0-11.05-11.05Zm0,1.3a9.75,9.75,0,1,1-9.75,9.75,9.76,9.76,0,0,1,9.75-9.75Zm10.608,19.326,1.148,1.148-1.031,1.031L248.2,77.99A7.606,7.606,0,0,0,249.226,76.959ZM44.077,171.772A14.3,14.3,0,0,1,34.3,198.647a14.641,14.641,0,0,1-7.075-5.62l-1.584.739.308.661a.65.65,0,0,1-.314.864l-12.3,5.734a3.408,3.408,0,0,1-2.881-6.176l12.3-5.735c.409-.1.17-.09.71.107l.153.208.308.66,1.584-.739a14.661,14.661,0,0,1,.243-9.031,14.316,14.316,0,0,1,18.329-8.546ZM22.71,190.566,11,196.026a2.108,2.108,0,1,0,1.783,3.821l11.707-5.46Zm20.922-17.573A13,13,0,1,0,51.4,189.656a13.015,13.015,0,0,0-7.769-16.662Zm-.667,1.832a11.05,11.05,0,1,1-14.163,6.6A11.062,11.062,0,0,1,42.965,174.826Zm-.445,1.222a9.75,9.75,0,1,0,5.827,12.5,9.761,9.761,0,0,0-5.827-12.5ZM25.942,190.581l-1.471.686.616,1.321,1.471-.686a7.552,7.552,0,0,1-.616-1.321ZM28.5,79.05a11.823,11.823,0,0,1,6.045,21.983l-1.141,3.2v2.448a5.56,5.56,0,0,1-1.157,2.956.639.639,0,0,1-.5.243H25.25a.641.641,0,0,1-.5-.243,5.57,5.57,0,0,1-1.157-2.956v-2.448l-1.141-3.2A11.823,11.823,0,0,1,28.5,79.05Zm3.525,28.266H24.969a4.866,4.866,0,0,0,.609,1.28h5.833A4.962,4.962,0,0,0,32.02,107.316Zm.1-2.558H24.87v1.279H32.12ZM28.5,80.329a10.543,10.543,0,0,0-5.2,19.712.639.639,0,0,1,.286.341l1.105,3.1h7.627l1.105-3.1a.64.64,0,0,1,.286-.341,10.544,10.544,0,0,0-5.2-19.712Zm12.272,20.26c-.275.009-.142.007-.4.005l-.221.143a.682.682,0,0,0,.026.962l2.824,2.824a.662.662,0,1,0,.935-.935l-2.824-2.824a.642.642,0,0,0-.338-.175Zm-23.891,0a.731.731,0,0,0-.338.175l-2.824,2.824a.662.662,0,1,0,.935.935l2.824-2.824a.681.681,0,0,0,.026-.962l-.221-.143c-.261,0-.127,0-.4-.005ZM13.255,89.746H9.262a.662.662,0,1,0,0,1.322h3.994a.662.662,0,1,0,0-1.322Zm34.474,0H43.735a.662.662,0,1,0,0,1.322h3.994a.662.662,0,1,0,0-1.322ZM15.112,76.136c-.275.01-.141.008-.4.005l-.221.143a.68.68,0,0,0,.026.962l2.824,2.824a.662.662,0,1,0,.935-.935l-2.824-2.824a.647.647,0,0,0-.339-.175Zm27.018,0a.74.74,0,0,0-.338.175l-2.824,2.824a.662.662,0,1,0,.935.935l2.824-2.824a.68.68,0,0,0,.026-.962l-.221-.143C42.271,76.144,42.406,76.146,42.13,76.136ZM28.5,70.876a.68.68,0,0,0-.661.7v3.994a.662.662,0,1,0,1.323,0V71.575A.681.681,0,0,0,28.5,70.876ZM345.048,337.923a11.823,11.823,0,0,1,2.136,22.7l-1.679,2.95-.425,2.411a5.558,5.558,0,0,1-1.653,2.709.639.639,0,0,1-.536.152l-6.391-1.127a.64.64,0,0,1-.452-.326,5.56,5.56,0,0,1-.626-3.112l.425-2.411-.568-3.346a11.823,11.823,0,0,1,9.77-20.6Zm-1.437,28.449-6.944-1.224a4.888,4.888,0,0,0,.377,1.366l5.744,1.013A4.949,4.949,0,0,0,343.611,366.372Zm.542-2.5-7.139-1.259-.222,1.26,7.139,1.259Zm.673-24.687a10.544,10.544,0,0,0-8.549,18.509.643.643,0,0,1,.223.385l.55,3.241,7.511,1.324,1.626-2.857a.643.643,0,0,1,.341-.286,10.543,10.543,0,0,0-1.7-20.316Zm8.567,22.083c-.273-.038-.14-.017-.4-.064l-.242.1a.681.681,0,0,0-.141.952l2.291,3.272a.662.662,0,1,0,1.084-.759L353.7,361.5c-.091-.091-.17-.206-.3-.232Zm-23.527-4.148a.735.735,0,0,0-.364.113l-3.272,2.291a.662.662,0,1,0,.759,1.084l3.271-2.291a.681.681,0,0,0,.193-.943l-.193-.179C330,357.15,330.135,357.174,329.865,357.117Zm-1.683-11.307-3.933-.694a.662.662,0,1,0-.23,1.3l3.934.694a.662.662,0,1,0,.229-1.3Zm33.95,5.986L358.2,351.1a.662.662,0,1,0-.23,1.3l3.933.694a.662.662,0,1,0,.23-1.3ZM332.373,332.73c-.273-.038-.14-.017-.4-.064l-.242.1a.681.681,0,0,0-.141.952l2.291,3.272a.662.662,0,1,0,1.084-.759l-2.291-3.271c-.091-.091-.17-.205-.3-.232Zm26.608,4.692a.732.732,0,0,0-.364.113l-3.272,2.291a.662.662,0,1,0,.758,1.084l3.272-2.291a.681.681,0,0,0,.193-.943l-.193-.179C359.119,337.454,359.251,337.479,358.981,337.422Zm-12.514-7.549a.682.682,0,0,0-.773.574L345,334.379a.662.662,0,1,0,1.3.23l.694-3.933A.681.681,0,0,0,346.467,329.873Zm-172.061,9.513a11.823,11.823,0,0,1,6.046,21.983l-1.141,3.2v2.448a5.555,5.555,0,0,1-1.157,2.955.639.639,0,0,1-.5.243h-6.49a.639.639,0,0,1-.5-.243,5.554,5.554,0,0,1-1.157-2.955v-2.448l-1.141-3.2a11.823,11.823,0,0,1,6.045-21.983Zm3.525,28.267h-7.051a4.89,4.89,0,0,0,.609,1.279h5.833a4.957,4.957,0,0,0,.609-1.279Zm.1-2.559h-7.25v1.279h7.25Zm-3.625-24.428a10.544,10.544,0,0,0-5.2,19.712.638.638,0,0,1,.286.341l1.1,3.1h7.627l1.105-3.1a.638.638,0,0,1,.286-.341,10.544,10.544,0,0,0-5.2-19.712Zm12.272,20.259c-.275.009-.141.008-.4.005l-.221.143a.681.681,0,0,0,.026.962l2.824,2.824a.662.662,0,1,0,.935-.935l-2.824-2.824a.643.643,0,0,0-.339-.175Zm-23.891,0a.729.729,0,0,0-.338.175l-2.824,2.824a.662.662,0,1,0,.935.935l2.824-2.824a.681.681,0,0,0,.026-.962l-.221-.143C162.929,360.933,163.063,360.934,162.787,360.925Zm-3.62-10.843h-3.994a.663.663,0,1,0,0,1.323h3.994a.662.662,0,1,0,0-1.323Zm34.473,0h-3.994a.663.663,0,1,0,0,1.323h3.994a.663.663,0,1,0,0-1.323Zm-32.617-13.609c-.275.009-.142.008-.4.005l-.221.143a.681.681,0,0,0,.026.962l2.824,2.824a.662.662,0,1,0,.935-.935l-2.824-2.824a.645.645,0,0,0-.338-.175Zm27.018,0a.735.735,0,0,0-.339.175l-2.824,2.824a.662.662,0,1,0,.935.935l2.824-2.824a.68.68,0,0,0,.026-.962l-.221-.143c-.261,0-.127,0-.4-.005Zm-13.635-5.261a.681.681,0,0,0-.662.7v3.994a.662.662,0,1,0,1.323,0v-3.994A.681.681,0,0,0,174.407,331.212Zm65.664-160.187a11.823,11.823,0,0,1-3.812,22.478l-2.385,2.415-1.034,2.218a5.555,5.555,0,0,1-2.3,2.189.638.638,0,0,1-.557.008l-5.882-2.743a.64.64,0,0,1-.352-.433,5.561,5.561,0,0,1,.2-3.167l1.035-2.219.317-3.379a11.823,11.823,0,0,1,14.769-17.368Zm-8.751,27.108-6.39-2.98a4.866,4.866,0,0,0,.011,1.417l5.286,2.465A4.971,4.971,0,0,0,231.32,198.133Zm1.172-2.277-6.571-3.064-.541,1.159,6.571,3.064Zm7.038-23.672a10.543,10.543,0,0,0-13.047,15.666.638.638,0,0,1,.115.43l-.307,3.273,6.913,3.223,2.31-2.339a.641.641,0,0,1,.4-.188,10.543,10.543,0,0,0,3.613-20.065Zm2.56,23.548c-.254-.109-.131-.053-.367-.166l-.26.037a.681.681,0,0,0-.383.883l1.366,3.753a.662.662,0,1,0,1.243-.452l-1.366-3.753C242.258,195.923,242.212,195.792,242.09,195.732Zm-21.652-10.1a.728.728,0,0,0-.381.016l-3.753,1.366a.662.662,0,1,0,.452,1.243l3.753-1.366a.681.681,0,0,0,.43-.86l-.14-.223C220.563,185.7,220.684,185.76,220.438,185.636Zm1.3-11.357-3.62-1.688a.662.662,0,1,0-.559,1.2l3.62,1.688a.662.662,0,1,0,.559-1.2Zm31.243,14.569-3.62-1.688a.662.662,0,1,0-.559,1.2l3.62,1.688a.662.662,0,1,0,.559-1.2Zm-23.809-26.119c-.254-.108-.131-.053-.367-.165l-.261.037a.681.681,0,0,0-.383.883l1.366,3.754a.663.663,0,1,0,1.243-.453l-1.366-3.753c-.064-.111-.111-.242-.233-.3Zm24.487,11.418a.736.736,0,0,0-.381.016l-3.753,1.366a.662.662,0,1,0,.452,1.243l3.753-1.366a.681.681,0,0,0,.431-.86l-.14-.223c-.238-.109-.117-.05-.362-.175Zm-10.134-10.53a.682.682,0,0,0-.9.354l-1.688,3.62a.662.662,0,1,0,1.2.559l1.688-3.62a.681.681,0,0,0-.3-.913ZM305.4,55.434a11.822,11.822,0,0,1-3.811,22.478L299.2,80.326l-1.034,2.219a5.564,5.564,0,0,1-2.3,2.189.638.638,0,0,1-.557.008L289.431,82a.64.64,0,0,1-.352-.433,5.561,5.561,0,0,1,.2-3.167l1.034-2.219.317-3.379A11.822,11.822,0,0,1,305.4,55.434Zm-8.751,27.108-6.39-2.98a4.869,4.869,0,0,0,.011,1.417l5.286,2.465a4.945,4.945,0,0,0,1.093-.9Zm1.172-2.276-6.57-3.064-.541,1.16,6.57,3.064Zm7.039-23.672a10.543,10.543,0,0,0-13.047,15.666.639.639,0,0,1,.115.43l-.307,3.273,6.913,3.223,2.31-2.339a.641.641,0,0,1,.4-.188,10.543,10.543,0,0,0,3.613-20.065Zm2.56,23.548c-.254-.108-.131-.053-.367-.165l-.26.036a.681.681,0,0,0-.383.883l1.366,3.753a.662.662,0,1,0,1.243-.452l-1.366-3.753c-.065-.111-.111-.242-.233-.3Zm-21.653-10.1a.733.733,0,0,0-.38.016l-3.754,1.366a.662.662,0,1,0,.452,1.243l3.754-1.366a.681.681,0,0,0,.43-.861l-.14-.223C285.891,70.111,286.012,70.169,285.766,70.044Zm1.3-11.357L283.447,57a.662.662,0,1,0-.559,1.2l3.62,1.688a.662.662,0,1,0,.559-1.2Zm31.244,14.569-3.62-1.688a.662.662,0,1,0-.559,1.2l3.62,1.688a.662.662,0,1,0,.559-1.2ZM294.5,47.137c-.254-.109-.131-.053-.367-.166l-.26.037a.681.681,0,0,0-.383.883l1.366,3.754a.662.662,0,1,0,1.243-.452l-1.366-3.754C294.669,47.328,294.623,47.2,294.5,47.137Zm24.487,11.418a.735.735,0,0,0-.381.016l-3.753,1.366a.662.662,0,1,0,.452,1.243l3.753-1.366a.68.68,0,0,0,.43-.86l-.139-.223c-.238-.108-.117-.05-.362-.175Zm-10.134-10.53a.681.681,0,0,0-.895.354L306.271,52a.662.662,0,1,0,1.2.559l1.688-3.62A.681.681,0,0,0,308.854,48.025Zm-117.4,52.88L174.592,111.9l7.525,4.345a1.111,1.111,0,0,1,.406,1.516,1.117,1.117,0,0,1-.693.55,1.07,1.07,0,0,1-.842-.111l-9.083-5.244-.034-.019a1.154,1.154,0,0,1-.11-1.876.153.153,0,0,0,.09-.08l20.4-13.283a.893.893,0,0,1,1.1-.071.909.909,0,0,1,.475.938L192.5,122.9a.078.078,0,0,0-.013.059.077.077,0,0,1-.012.059,1.025,1.025,0,0,1-.13.455,1.04,1.04,0,0,1-.691.507,1.132,1.132,0,0,1-.859-.12,1.043,1.043,0,0,1-.575-.995.112.112,0,0,0,0-.085Zm52.285,173.732-.67,20.12,7.875-3.673a1.112,1.112,0,0,1,1.475.537,1.116,1.116,0,0,1,.053.883,1.07,1.07,0,0,1-.574.627l-9.506,4.432-.034.016a1.155,1.155,0,0,1-1.6-.986.155.155,0,0,0-.014-.12l.819-24.329a.892.892,0,0,1,.574-.943.908.908,0,0,1,1.04.148L262.361,286.4a.077.077,0,0,0,.041.044.079.079,0,0,1,.042.044,1.021,1.021,0,0,1,.3.368,1.04,1.04,0,0,1,.019.856,1.132,1.132,0,0,1-.591.635,1.045,1.045,0,0,1-1.145-.1.11.11,0,0,0-.067-.053ZM188,210.531l-9.11,17.952h8.688a1.112,1.112,0,0,1,1.111,1.11,1.115,1.115,0,0,1-.326.823,1.069,1.069,0,0,1-.785.325H177.057a1.154,1.154,0,0,1-1.034-1.569.156.156,0,0,0,.038-.115l11.024-21.7a.893.893,0,0,1,.919-.613.909.909,0,0,1,.88.574l11.024,21.741a.078.078,0,0,0,.019.058.08.08,0,0,1,.019.058,1.016,1.016,0,0,1,.115.459,1.04,1.04,0,0,1-.344.785,1.134,1.134,0,0,1-.8.325,1.045,1.045,0,0,1-1-.574.111.111,0,0,0-.038-.076ZM86.287,307.982l-19.136,6.252,6.144,6.144a1.112,1.112,0,0,1,0,1.57,1.117,1.117,0,0,1-.812.352,1.069,1.069,0,0,1-.785-.325l-7.416-7.416-.027-.028a1.155,1.155,0,0,1,.379-1.84.156.156,0,0,0,.109-.054l23.141-7.552a.893.893,0,0,1,1.083.217.91.91,0,0,1,.217,1.028L81.6,329.5a.077.077,0,0,0-.028.054.078.078,0,0,1-.027.054,1.018,1.018,0,0,1-.244.406,1.039,1.039,0,0,1-.8.311,1.133,1.133,0,0,1-.8-.338,1.044,1.044,0,0,1-.3-1.11.11.11,0,0,0,.027-.081ZM301.381,180.643,282.246,186.9l6.144,6.144a1.111,1.111,0,0,1,0,1.57,1.114,1.114,0,0,1-.812.352,1.07,1.07,0,0,1-.785-.325l-7.416-7.416-.027-.027a1.155,1.155,0,0,1,.379-1.841.156.156,0,0,0,.108-.054l23.142-7.552a.892.892,0,0,1,1.082.217.91.91,0,0,1,.217,1.029L296.7,202.161a.078.078,0,0,0-.027.054.08.08,0,0,1-.027.055,1.021,1.021,0,0,1-.244.406,1.04,1.04,0,0,1-.8.311,1.135,1.135,0,0,1-.8-.338,1.044,1.044,0,0,1-.3-1.109.112.112,0,0,0,.027-.082ZM91.546,179.555l1.087,20.1,7.525-4.345a1.111,1.111,0,0,1,1.517.407,1.117,1.117,0,0,1,.13.875,1.071,1.071,0,0,1-.517.674L92.2,202.512l-.033.019a1.155,1.155,0,0,1-1.68-.842.155.155,0,0,0-.024-.119l-1.3-24.307a.893.893,0,0,1,.489-.99.909.909,0,0,1,1.049.057l20.418,13.317a.079.079,0,0,0,.046.04.079.079,0,0,1,.045.04,1.025,1.025,0,0,1,.329.34,1.042,1.042,0,0,1,.094.852,1.134,1.134,0,0,1-.533.683,1.045,1.045,0,0,1-1.149,0,.112.112,0,0,0-.071-.047ZM226.97,2.281,226.3,22.4l7.875-3.672a1.11,1.11,0,0,1,1.475.537,1.116,1.116,0,0,1,.053.883,1.07,1.07,0,0,1-.574.626l-9.506,4.432-.034.016a1.155,1.155,0,0,1-1.6-.985.156.156,0,0,0-.014-.121L224.8-.21a.892.892,0,0,1,.574-.943.909.909,0,0,1,1.04.148l19.179,15.045a.08.08,0,0,0,.041.044.077.077,0,0,1,.042.044,1.021,1.021,0,0,1,.3.368,1.042,1.042,0,0,1,.019.857,1.132,1.132,0,0,1-.591.634,1.044,1.044,0,0,1-1.145-.1.11.11,0,0,0-.067-.053ZM78.7,56.261l-4.153,19.7,8.393-2.249a1.11,1.11,0,0,1,1.36.785,1.114,1.114,0,0,1-.1.879,1.068,1.068,0,0,1-.673.517L73.4,78.606l-.037.01a1.155,1.155,0,0,1-1.4-1.249.156.156,0,0,0,.007-.121L76.995,53.43a.892.892,0,0,1,.729-.829.908.908,0,0,1,1,.326L95,71.075a.078.078,0,0,0,.034.05.08.08,0,0,1,.034.051,1.027,1.027,0,0,1,.23.413,1.04,1.04,0,0,1-.13.847,1.133,1.133,0,0,1-.692.523,1.045,1.045,0,0,1-1.11-.3.111.111,0,0,0-.057-.064ZM338.543,254.186l18.518-7.9L350.4,240.7a1.11,1.11,0,0,1-.137-1.564,1.116,1.116,0,0,1,.778-.421,1.068,1.068,0,0,1,.81.255l8.035,6.742.029.025a1.154,1.154,0,0,1-.217,1.867.156.156,0,0,0-.1.064l-22.4,9.539a.893.893,0,0,1-1.1-.121.909.909,0,0,1-.305-1.006l5.531-23.741a.076.076,0,0,0,.022-.056.078.078,0,0,1,.022-.056,1.021,1.021,0,0,1,.207-.426,1.042,1.042,0,0,1,.769-.38,1.135,1.135,0,0,1,.825.268,1.044,1.044,0,0,1,.393,1.079.111.111,0,0,0-.02.083ZM278.586,27.027a14.3,14.3,0,1,1,12.087-25.92,14.639,14.639,0,0,1,6.558,6.215l1.642-.6-.25-.685a.65.65,0,0,1,.389-.833L311.761.566a3.408,3.408,0,0,1,2.332,6.4l-12.75,4.641c-.416.063-.178.075-.7-.168l-.135-.22-.249-.685-1.642.6a14.662,14.662,0,0,1-1.029,8.976,14.316,14.316,0,0,1-19,6.916Zm22.923-16.86,12.138-4.418a2.108,2.108,0,0,0-1.442-3.961L300.068,6.206l1.442,3.961ZM279.135,25.85a13,13,0,1,0-6.288-17.276A13.015,13.015,0,0,0,279.135,25.85Zm.824-1.768a11.05,11.05,0,1,1,14.684-5.345A11.061,11.061,0,0,1,279.959,24.082Zm.55-1.178a9.75,9.75,0,1,0-4.716-12.957A9.762,9.762,0,0,0,280.509,22.9ZM298.291,9.871l1.525-.555-.5-1.37-1.525.556A7.592,7.592,0,0,1,298.291,9.871Zm-141.4,281.7a4.253,4.253,0,0,1,7.216,1.174l9.819-.859a5.638,5.638,0,0,1,4.464-5.321l-.671-7.661a2.8,2.8,0,0,1-1.355-.612,2.836,2.836,0,1,1,4-.35,2.8,2.8,0,0,1-1.228.838l.67,7.661a5.635,5.635,0,0,1,5.32,4.465l12.652-1.106a4.213,4.213,0,1,1,.287,1.4l-12.816,1.121a5.643,5.643,0,0,1-.9,2.855l5.519,4.631a4.254,4.254,0,1,1-.911,1.086l-5.519-4.631a5.638,5.638,0,0,1-2.656,1.379l.67,7.661a2.793,2.793,0,0,1,1.356.612,2.836,2.836,0,1,1-4,.35,2.8,2.8,0,0,1,1.228-.838l-.671-7.661a5.635,5.635,0,0,1-5.32-4.465l-9.655.845a4.252,4.252,0,1,1-7.5-2.572ZM179.1,275.029a1.418,1.418,0,1,0,.175,2,1.42,1.42,0,0,0-.175-2Zm25.093,16.427a2.837,2.837,0,1,0-4,.349A2.839,2.839,0,0,0,204.192,291.456ZM190.8,305.21a2.836,2.836,0,1,0-.349-4A2.839,2.839,0,0,0,190.8,305.21Zm-7.954-10.377a4.255,4.255,0,1,0-5.994.524,4.259,4.259,0,0,0,5.994-.524Zm-2.773,14.335a1.418,1.418,0,1,0-.175-2A1.419,1.419,0,0,0,180.072,309.168Zm-17.75-13.043a2.837,2.837,0,1,0-4,.349,2.839,2.839,0,0,0,4-.349Z" transform="translate(0.241 6.253)" fill="#2a2a2a" opacity="0.95"/>
      </g>
    </g>
  </g>
</svg>
