<svg width="640" height="360" viewBox="0 0 640 360" fill="none" xmlns="http://www.w3.org/2000/svg">
<g clip-path="url(#clip0_651_701)">
<rect width="640" height="360" fill="#4250E3"/>
<g opacity="0.15">
<path d="M37.357 -127.707C34.5514 -127.022 31.6519 -126.609 28.7525 -126.609H-88.4855C-94.9726 -126.609 -101.361 -125.823 -107.469 -124.31C-111.272 -123.379 -114.966 -122.168 -118.509 -120.69C-128.194 -116.607 -136.604 -110.994 -143.995 -103.594C-151.132 -96.4487 -156.994 -87.7729 -161.071 -78.0763C-164.894 -68.8901 -166.933 -58.683 -166.933 -48.2212C-166.933 -37.7589 -164.894 -27.5522 -161.071 -18.366C-156.994 -8.92461 -151.387 -0.248872 -143.995 7.15122C-136.859 14.2961 -128.194 20.1653 -118.509 24.2479C-110.608 27.5649 -101.943 29.8615 -92.7676 30.372H-86.1411C-82.9406 30.2876 -79.8233 30.0082 -76.7713 29.543C-76.7679 29.5475 -76.7648 29.552 -76.7619 29.556C-76.3314 29.4843 -75.9006 29.4098 -75.4701 29.3327C-73.8033 29.0479 -72.1562 28.7083 -70.5241 28.3135C-67.3444 27.564 -64.2124 26.6257 -61.2022 25.4249C-60.4227 25.1302 -59.6456 24.8225 -58.8703 24.5032C-49.4405 20.4201 -40.7749 14.8065 -33.384 7.40646C-26.2477 0.26159 -20.3857 -8.41417 -16.308 -18.1108C-12.4849 -27.297 -10.4461 -37.5041 -10.4461 -47.9659V-86.7521H-49.4911V-48.0162C-49.4911 -42.6579 -50.5108 -37.5544 -52.5496 -33.2165C-54.0007 -29.7658 -55.8393 -26.5735 -58.065 -23.732C-59.015 -22.5626 -60.0461 -21.452 -61.1641 -20.4073C-64.7323 -16.8351 -69.0652 -13.7729 -73.9074 -11.7316C-75.9044 -10.9543 -77.9502 -10.2734 -80.044 -9.75218C-82.6957 -9.10673 -85.4245 -8.71962 -88.2308 -8.71962H-88.7404C-93.8379 -8.71962 -98.935 -9.7405 -103.268 -11.7818C-108.11 -13.8232 -112.443 -16.6302 -116.011 -20.2024C-119.579 -23.775 -122.638 -28.1129 -124.422 -32.9612C-126.206 -37.5543 -127.48 -42.6579 -127.48 -47.761C-127.48 -53.1197 -126.461 -57.9681 -124.422 -62.5612C-122.383 -67.4095 -119.579 -71.7473 -116.011 -75.3196C-112.443 -78.8922 -108.11 -81.954 -103.268 -83.7405C-101.353 -84.486 -99.3503 -85.1427 -97.2953 -85.6545C-94.4897 -86.3394 -91.5891 -86.7521 -88.6896 -86.7521H28.5484C35.0355 -86.7521 41.4234 -87.5384 47.531 -89.0508C51.3339 -89.9816 55.0288 -91.1935 58.5718 -92.6715C68.2567 -96.7541 76.6672 -102.368 84.0583 -109.768C91.1944 -116.913 97.0564 -125.588 101.134 -135.285C104.957 -144.471 106.996 -154.678 106.996 -165.14C106.996 -175.602 104.957 -185.809 101.134 -194.995C97.0564 -204.437 91.4494 -213.112 84.0583 -220.513C76.922 -227.657 68.2567 -233.527 58.5718 -237.609C50.671 -240.926 42.0055 -243.223 32.8304 -243.733L26.2039 -243.733C23.0033 -243.649 19.8861 -243.37 16.834 -242.904C16.8308 -242.909 16.8276 -242.913 16.8246 -242.917C16.3931 -242.845 15.9617 -242.771 15.5303 -242.694C13.8654 -242.409 12.2194 -242.069 10.5892 -241.675C7.40854 -240.925 4.27606 -239.987 1.26502 -238.786C0.485487 -238.492 -0.291786 -238.184 -1.06684 -237.865C-10.4967 -233.781 -19.1622 -228.168 -26.5532 -220.768C-33.6895 -213.623 -39.5514 -204.947 -43.6292 -195.251C-47.4522 -186.064 -49.4911 -175.857 -49.4911 -165.395V-126.609H-10.4461V-165.345C-10.4461 -170.703 -9.42642 -175.807 -7.38754 -180.145C-5.93645 -183.596 -4.09783 -186.788 -1.87192 -189.63C-0.921919 -190.799 0.109173 -191.909 1.22717 -192.954C4.79509 -196.526 9.12797 -199.588 13.9702 -201.63C15.968 -202.408 18.0142 -203.088 20.1086 -203.61C22.7596 -204.255 25.4881 -204.642 28.2935 -204.642H28.8033C33.9007 -204.642 38.998 -203.621 43.3306 -201.579C48.1731 -199.538 52.5058 -196.731 56.0739 -193.159C59.6419 -189.586 62.7004 -185.248 64.4844 -180.4C66.2685 -175.807 67.5429 -170.703 67.5429 -165.6C67.5429 -160.242 66.5233 -155.393 64.4844 -150.8C62.4456 -145.952 59.6419 -141.614 56.0739 -138.042C52.5058 -134.469 48.1731 -131.407 43.3306 -129.621C41.4161 -128.875 39.412 -128.219 37.357 -127.707Z" stroke="white" stroke-width="1.6"/>
<path d="M344.158 -127.707C341.352 -127.022 338.453 -126.609 335.554 -126.609H218.316C211.828 -126.609 205.44 -125.823 199.332 -124.31C195.529 -123.379 191.835 -122.168 188.292 -120.69C178.607 -116.607 170.197 -110.994 162.806 -103.594C155.669 -96.4487 149.807 -87.7729 145.73 -78.0763C141.907 -68.8901 139.868 -58.683 139.868 -48.2212C139.868 -37.7589 141.907 -27.5522 145.73 -18.366C149.807 -8.92461 155.414 -0.248872 162.806 7.15122C169.942 14.2961 178.607 20.1653 188.292 24.2479C196.193 27.5649 204.858 29.8615 214.033 30.372H220.66C223.86 30.2876 226.978 30.0082 230.03 29.543C230.033 29.5475 230.036 29.552 230.039 29.556C230.47 29.4843 230.9 29.4098 231.331 29.3327C232.998 29.0479 234.645 28.7083 236.277 28.3135C239.457 27.564 242.589 26.6257 245.599 25.4249C246.378 25.1302 247.155 24.8225 247.931 24.5032C257.361 20.4201 266.026 14.8065 273.417 7.40646C280.553 0.26159 286.415 -8.41417 290.493 -18.1108C294.316 -27.297 296.355 -37.5041 296.355 -47.9659V-86.7521H257.31V-48.0162C257.31 -42.6579 256.29 -37.5544 254.251 -33.2165C252.8 -29.7658 250.962 -26.5735 248.736 -23.732C247.786 -22.5626 246.755 -21.452 245.637 -20.4073C242.069 -16.8351 237.736 -13.7729 232.894 -11.7316C230.897 -10.9543 228.851 -10.2734 226.757 -9.75218C224.105 -9.10673 221.377 -8.71962 218.57 -8.71962H218.061C212.963 -8.71962 207.866 -9.7405 203.533 -11.7818C198.691 -13.8232 194.358 -16.6302 190.79 -20.2024C187.222 -23.775 184.163 -28.1129 182.379 -32.9612C180.595 -37.5543 179.321 -42.6579 179.321 -47.761C179.321 -53.1197 180.341 -57.9681 182.379 -62.5612C184.418 -67.4095 187.222 -71.7473 190.79 -75.3196C194.358 -78.8922 198.691 -81.954 203.533 -83.7405C205.448 -84.486 207.451 -85.1427 209.506 -85.6545C212.311 -86.3394 215.212 -86.7521 218.111 -86.7521H335.349C341.836 -86.7521 348.224 -87.5384 354.332 -89.0508C358.135 -89.9816 361.83 -91.1935 365.373 -92.6715C375.058 -96.7541 383.468 -102.368 390.859 -109.768C397.995 -116.913 403.857 -125.588 407.935 -135.285C411.758 -144.471 413.797 -154.678 413.797 -165.14C413.797 -175.602 411.758 -185.809 407.935 -194.995C403.857 -204.437 398.25 -213.112 390.859 -220.513C383.723 -227.657 375.058 -233.527 365.373 -237.609C357.472 -240.926 348.807 -243.223 339.631 -243.733L333.005 -243.733C329.804 -243.649 326.687 -243.37 323.635 -242.904C323.632 -242.909 323.629 -242.913 323.626 -242.917C323.194 -242.845 322.763 -242.771 322.331 -242.694C320.666 -242.409 319.02 -242.069 317.39 -241.675C314.21 -240.925 311.077 -239.987 308.066 -238.786C307.287 -238.492 306.509 -238.184 305.734 -237.865C296.304 -233.781 287.639 -228.168 280.248 -220.768C273.112 -213.623 267.25 -204.947 263.172 -195.251C259.349 -186.064 257.31 -175.857 257.31 -165.395V-126.609H296.355V-165.345C296.355 -170.703 297.375 -175.807 299.414 -180.145C300.865 -183.596 302.703 -186.788 304.929 -189.63C305.879 -190.799 306.91 -191.909 308.028 -192.954C311.596 -196.526 315.929 -199.588 320.771 -201.63C322.769 -202.408 324.815 -203.088 326.91 -203.61C329.561 -204.255 332.289 -204.642 335.095 -204.642H335.604C340.702 -204.642 345.799 -203.621 350.132 -201.579C354.974 -199.538 359.307 -196.731 362.875 -193.159C366.443 -189.586 369.501 -185.248 371.285 -180.4C373.07 -175.807 374.344 -170.703 374.344 -165.6C374.344 -160.242 373.324 -155.393 371.285 -150.8C369.247 -145.952 366.443 -141.614 362.875 -138.042C359.307 -134.469 354.974 -131.407 350.132 -129.621C348.217 -128.875 346.213 -128.219 344.158 -127.707Z" stroke="white" stroke-width="1.6"/>
<path d="M362.907 25.792C365.713 26.477 368.612 26.8897 371.512 26.8897H488.75C495.237 26.8897 501.626 27.6764 507.733 29.1889C511.536 30.1196 515.23 31.3311 518.773 32.8091C528.458 36.8917 536.869 42.5053 544.26 49.9054C551.396 57.0502 557.258 65.726 561.336 75.4226C565.159 84.6088 567.198 94.8159 567.198 105.278C567.198 115.74 565.159 125.947 561.336 135.133C557.258 144.574 551.651 153.25 544.26 160.65C537.124 167.795 528.458 173.664 518.773 177.747C510.872 181.064 502.207 183.36 493.032 183.871H486.405C483.205 183.787 480.088 183.507 477.036 183.042C477.032 183.046 477.029 183.051 477.026 183.055C476.596 182.983 476.165 182.909 475.734 182.832C474.068 182.547 472.421 182.207 470.788 181.812C467.609 181.063 464.477 180.125 461.467 178.924C460.687 178.629 459.91 178.321 459.135 178.002C449.705 173.919 441.039 168.305 433.648 160.905C426.512 153.761 420.65 145.085 416.572 135.388C412.749 126.202 410.711 115.995 410.711 105.533V66.7469H449.755V105.483C449.755 110.841 450.775 115.945 452.814 120.282C454.265 123.733 456.104 126.925 458.329 129.767C459.279 130.936 460.311 132.047 461.429 133.092C464.997 136.664 469.33 139.726 474.172 141.767C476.169 142.545 478.215 143.226 480.308 143.747C482.96 144.392 485.689 144.779 488.495 144.779H489.005C494.102 144.779 499.199 143.758 503.532 141.717C508.375 139.676 512.707 136.869 516.275 133.297C519.844 129.724 522.902 125.386 524.686 120.538C526.47 115.945 527.744 110.841 527.744 105.738C527.744 100.379 526.725 95.5309 524.686 90.9378C522.647 86.0894 519.844 81.7516 516.275 78.1794C512.707 74.6067 508.375 71.545 503.532 69.7584C501.618 69.0129 499.615 68.3562 497.56 67.8445C494.754 67.1595 491.854 66.7469 488.954 66.7469H371.716C365.229 66.7469 358.841 65.9606 352.733 64.4481C348.93 63.5173 345.236 62.3054 341.693 60.8274C332.008 56.7448 323.597 51.1312 316.206 43.7311C309.07 36.5863 303.208 27.9105 299.13 18.2139C295.307 9.02768 293.268 -1.17937 293.268 -11.6412C293.268 -22.1035 295.307 -32.3102 299.13 -41.4964C303.208 -50.9378 308.815 -59.6135 316.206 -67.0136C323.342 -74.1585 332.008 -80.0277 341.693 -84.1104C349.593 -87.4274 358.259 -89.7239 367.434 -90.2344H374.06C377.261 -90.15 380.378 -89.8706 383.43 -89.4054C383.434 -89.4099 383.437 -89.4144 383.44 -89.4185C383.871 -89.3462 384.303 -89.2718 384.734 -89.1946C386.399 -88.9102 388.045 -88.5702 389.675 -88.1764C392.856 -87.4265 395.988 -86.4886 398.999 -85.2874C399.779 -84.9927 400.556 -84.685 401.331 -84.3656C410.761 -80.2825 419.427 -74.6689 426.818 -67.2689C433.954 -60.124 439.816 -51.4483 443.894 -41.7516C447.717 -32.5654 449.755 -22.3583 449.755 -11.8965V26.8897H410.711V-11.8462C410.711 -17.2045 409.691 -22.3081 407.652 -26.646C406.201 -30.0966 404.362 -33.2893 402.136 -36.1309C401.186 -37.3002 400.155 -38.4104 399.037 -39.4551C395.469 -43.0273 391.136 -46.0895 386.294 -48.1308C384.296 -48.9086 382.25 -49.5895 380.156 -50.1107C377.505 -50.7561 374.776 -51.1428 371.971 -51.1428H371.461C366.364 -51.1428 361.266 -50.1219 356.934 -48.0806C352.091 -46.0392 347.759 -43.2322 344.19 -39.66C340.622 -36.0874 337.564 -31.7495 335.78 -26.9012C333.996 -22.3081 332.721 -17.2045 332.721 -12.1014C332.721 -6.74269 333.741 -1.89435 335.78 2.69875C337.819 7.54707 340.622 11.8849 344.19 15.4571C347.759 19.0298 352.091 22.0915 356.934 23.8781C358.848 24.6236 360.852 25.2803 362.907 25.792Z" stroke="white" stroke-width="1.6"/>
<path d="M56.1063 25.792C58.9119 26.477 61.8114 26.8897 64.7108 26.8897H181.949C188.436 26.8897 194.825 27.6764 200.932 29.1889C204.735 30.1196 208.429 31.3311 211.972 32.8091C221.657 36.8917 230.068 42.5053 237.459 49.9054C244.595 57.0502 250.457 65.726 254.535 75.4226C258.358 84.6088 260.397 94.8159 260.397 105.278C260.397 115.74 258.358 125.947 254.535 135.133C250.457 144.574 244.85 153.25 237.459 160.65C230.323 167.795 221.657 173.664 211.972 177.747C204.071 181.064 195.406 183.36 186.231 183.871H179.604C176.404 183.787 173.287 183.507 170.235 183.042C170.231 183.046 170.228 183.051 170.225 183.055C169.795 182.983 169.364 182.909 168.933 182.832C167.267 182.547 165.62 182.207 163.987 181.812C160.808 181.063 157.676 180.125 154.666 178.924C153.886 178.629 153.109 178.321 152.334 178.002C142.904 173.919 134.238 168.305 126.847 160.905C119.711 153.761 113.849 145.085 109.771 135.388C105.948 126.202 103.909 115.995 103.909 105.533V66.7469H142.954V105.483C142.954 110.841 143.974 115.945 146.013 120.282C147.464 123.733 149.303 126.925 151.528 129.767C152.478 130.936 153.509 132.047 154.627 133.092C158.196 136.664 162.528 139.726 167.371 141.767C169.368 142.545 171.414 143.226 173.507 143.747C176.159 144.392 178.888 144.779 181.694 144.779H182.204C187.301 144.779 192.398 143.758 196.731 141.717C201.573 139.676 205.906 136.869 209.474 133.297C213.043 129.724 216.101 125.386 217.885 120.538C219.669 115.945 220.943 110.841 220.943 105.738C220.943 100.379 219.924 95.5309 217.885 90.9378C215.846 86.0894 213.043 81.7516 209.474 78.1794C205.906 74.6067 201.573 71.545 196.731 69.7584C194.817 69.0129 192.814 68.3562 190.759 67.8445C187.953 67.1595 185.052 66.7469 182.153 66.7469H64.9149C58.4279 66.7469 52.04 65.9606 45.9323 64.4481C42.1294 63.5173 38.4345 62.3054 34.8915 60.8274C25.2067 56.7448 16.7962 51.1312 9.40507 43.7311C2.2689 36.5863 -3.59303 27.9105 -7.67089 18.2139C-11.4939 9.02768 -13.5328 -1.17937 -13.5328 -11.6412C-13.5328 -22.1035 -11.494 -32.3102 -7.67092 -41.4964C-3.59306 -50.9378 2.01398 -59.6135 9.40507 -67.0136C16.5414 -74.1585 25.2067 -80.0277 34.8915 -84.1104C42.7923 -87.4274 51.4578 -89.7239 60.6329 -90.2344H67.2594C70.46 -90.15 73.5773 -89.8706 76.6293 -89.4054C76.6326 -89.4099 76.6357 -89.4144 76.6387 -89.4185C77.0703 -89.3462 77.5016 -89.2718 77.933 -89.1946C79.5979 -88.9102 81.2439 -88.5702 82.8742 -88.1764C86.0548 -87.4265 89.1872 -86.4886 92.1983 -85.2874C92.9778 -84.9927 93.7551 -84.685 94.5302 -84.3656C103.96 -80.2825 112.626 -74.6689 120.017 -67.2689C127.153 -60.124 133.015 -51.4483 137.092 -41.7516C140.916 -32.5654 142.954 -22.3583 142.954 -11.8965V26.8897H103.909V-11.8462C103.909 -17.2045 102.89 -22.3081 100.851 -26.646C99.3998 -30.0966 97.5612 -33.2893 95.3352 -36.1309C94.3852 -37.3002 93.3542 -38.4104 92.2362 -39.4551C88.6682 -43.0273 84.3353 -46.0895 79.4931 -48.1308C77.4953 -48.9086 75.4491 -49.5895 73.3547 -50.1107C70.7038 -50.7561 67.9752 -51.1428 65.1698 -51.1428H64.6601C59.5626 -51.1428 54.4654 -50.1219 50.1327 -48.0806C45.2902 -46.0392 40.9576 -43.2322 37.3894 -39.66C33.8214 -36.0874 30.763 -31.7495 28.9789 -26.9012C27.1948 -22.3081 25.9205 -17.2045 25.9205 -12.1014C25.9205 -6.74269 26.94 -1.89435 28.9789 2.69875C31.0178 7.54707 33.8214 11.8849 37.3894 15.4571C40.9576 19.0298 45.2902 22.0915 50.1327 23.8781C52.0473 24.6236 54.0513 25.2803 56.1063 25.792Z" stroke="white" stroke-width="1.6"/>
<path d="M650.959 -127.707C648.153 -127.022 645.254 -126.609 642.355 -126.609H525.117C518.629 -126.609 512.241 -125.823 506.133 -124.31C502.33 -123.379 498.636 -122.168 495.093 -120.69C485.408 -116.607 476.998 -110.994 469.607 -103.594C462.47 -96.4487 456.608 -87.7729 452.531 -78.0763C448.708 -68.8901 446.669 -58.683 446.669 -48.2212C446.669 -37.7589 448.708 -27.5522 452.531 -18.366C456.608 -8.92461 462.215 -0.248872 469.607 7.15122C476.743 14.2961 485.408 20.1653 495.093 24.2479C502.994 27.5649 511.659 29.8615 520.835 30.372H527.461C530.662 30.2876 533.779 30.0082 536.831 29.543C536.834 29.5475 536.837 29.552 536.84 29.556C537.271 29.4843 537.701 29.4098 538.132 29.3327C539.799 29.0479 541.446 28.7083 543.078 28.3135C546.258 27.564 549.39 26.6257 552.4 25.4249C553.179 25.1302 553.956 24.8225 554.732 24.5032C564.162 20.4201 572.827 14.8065 580.218 7.40646C587.354 0.26159 593.216 -8.41417 597.294 -18.1108C601.117 -27.297 603.156 -37.5041 603.156 -47.9659V-86.7521H564.111V-48.0162C564.111 -42.6579 563.091 -37.5544 561.052 -33.2165C559.601 -29.7658 557.763 -26.5735 555.537 -23.732C554.587 -22.5626 553.556 -21.452 552.438 -20.4073C548.87 -16.8351 544.537 -13.7729 539.695 -11.7316C537.698 -10.9543 535.652 -10.2734 533.558 -9.75218C530.906 -9.10673 528.178 -8.71962 525.371 -8.71962H524.862C519.764 -8.71962 514.667 -9.7405 510.334 -11.7818C505.492 -13.8232 501.159 -16.6302 497.591 -20.2024C494.023 -23.775 490.964 -28.1129 489.18 -32.9612C487.397 -37.5543 486.122 -42.6579 486.122 -47.761C486.122 -53.1197 487.142 -57.9681 489.18 -62.5612C491.219 -67.4095 494.023 -71.7473 497.591 -75.3196C501.159 -78.8922 505.492 -81.954 510.334 -83.7405C512.249 -84.486 514.252 -85.1427 516.307 -85.6545C519.112 -86.3394 522.013 -86.7521 524.912 -86.7521H642.151C648.638 -86.7521 655.025 -87.5384 661.133 -89.0508C664.936 -89.9816 668.631 -91.1935 672.174 -92.6715C681.859 -96.7541 690.269 -102.368 697.66 -109.768C704.796 -116.913 710.658 -125.588 714.736 -135.285C718.559 -144.471 720.598 -154.678 720.598 -165.14C720.598 -175.602 718.559 -185.809 714.736 -194.995C710.658 -204.437 705.051 -213.112 697.66 -220.513C690.524 -227.657 681.859 -233.527 672.174 -237.609C664.273 -240.926 655.608 -243.223 646.432 -243.733L639.806 -243.733C636.605 -243.649 633.488 -243.37 630.436 -242.904C630.433 -242.909 630.43 -242.913 630.427 -242.917C629.995 -242.845 629.564 -242.771 629.132 -242.694C627.468 -242.409 625.822 -242.069 624.191 -241.675C621.011 -240.925 617.878 -239.987 614.867 -238.786C614.088 -238.492 613.31 -238.184 612.535 -237.865C603.105 -233.781 594.44 -228.168 587.049 -220.768C579.913 -213.623 574.051 -204.947 569.973 -195.251C566.15 -186.064 564.111 -175.857 564.111 -165.395V-126.609H603.156V-165.345C603.156 -170.703 604.176 -175.807 606.215 -180.145C607.666 -183.596 609.504 -186.788 611.73 -189.63C612.68 -190.799 613.711 -191.909 614.829 -192.954C618.397 -196.526 622.73 -199.588 627.572 -201.63C629.57 -202.408 631.616 -203.088 633.711 -203.61C636.362 -204.255 639.09 -204.642 641.896 -204.642H642.405C647.503 -204.642 652.6 -203.621 656.933 -201.579C661.775 -199.538 666.108 -196.731 669.676 -193.159C673.244 -189.586 676.302 -185.248 678.087 -180.4C679.871 -175.807 681.145 -170.703 681.145 -165.6C681.145 -160.242 680.125 -155.393 678.087 -150.8C676.048 -145.952 673.244 -141.614 669.676 -138.042C666.108 -134.469 661.775 -131.407 656.933 -129.621C655.018 -128.875 653.014 -128.219 650.959 -127.707Z" stroke="white" stroke-width="1.6"/>
<path d="M957.76 -127.707C954.955 -127.022 952.055 -126.609 949.156 -126.609H831.918C825.431 -126.609 819.042 -125.823 812.934 -124.31C809.131 -123.379 805.437 -122.168 801.894 -120.69C792.209 -116.607 783.799 -110.994 776.408 -103.594C769.271 -96.4487 763.41 -87.7729 759.332 -78.0763C755.509 -68.8901 753.47 -58.683 753.47 -48.2212C753.47 -37.7589 755.509 -27.5522 759.332 -18.366C763.409 -8.92461 769.017 -0.248872 776.408 7.15122C783.544 14.2961 792.209 20.1653 801.894 24.2479C809.795 27.5649 818.46 29.8615 827.635 30.372H834.262C837.463 30.2876 840.58 30.0082 843.632 29.543C843.635 29.5475 843.638 29.552 843.641 29.556C844.072 29.4843 844.503 29.4098 844.933 29.3327C846.6 29.0479 848.247 28.7083 849.879 28.3135C853.059 27.564 856.191 26.6257 859.201 25.4249C859.98 25.1302 860.758 24.8225 861.533 24.5032C870.963 20.4201 879.628 14.8065 887.019 7.40646C894.155 0.26159 900.017 -8.41417 904.095 -18.1108C907.918 -27.297 909.957 -37.5041 909.957 -47.9659V-86.7521H870.912V-48.0162C870.912 -42.6579 869.892 -37.5544 867.854 -33.2165C866.402 -29.7658 864.564 -26.5735 862.338 -23.732C861.388 -22.5626 860.357 -21.452 859.239 -20.4073C855.671 -16.8351 851.338 -13.7729 846.496 -11.7316C844.499 -10.9543 842.453 -10.2734 840.359 -9.75218C837.707 -9.10673 834.979 -8.71962 832.172 -8.71962H831.663C826.565 -8.71962 821.468 -9.7405 817.135 -11.7818C812.293 -13.8232 807.96 -16.6302 804.392 -20.2024C800.824 -23.775 797.765 -28.1129 795.981 -32.9612C794.197 -37.5543 792.923 -42.6579 792.923 -47.761C792.923 -53.1197 793.943 -57.9681 795.981 -62.5612C798.02 -67.4095 800.824 -71.7473 804.392 -75.3196C807.96 -78.8922 812.293 -81.954 817.135 -83.7405C819.05 -84.486 821.053 -85.1427 823.108 -85.6545C825.913 -86.3394 828.814 -86.7521 831.714 -86.7521H948.952C955.439 -86.7521 961.827 -87.5384 967.934 -89.0508C971.737 -89.9816 975.432 -91.1935 978.975 -92.6715C988.66 -96.7541 997.07 -102.368 1004.46 -109.768C1011.6 -116.913 1017.46 -125.588 1021.54 -135.285C1025.36 -144.471 1027.4 -154.678 1027.4 -165.14C1027.4 -175.602 1025.36 -185.809 1021.54 -194.995C1017.46 -204.437 1011.85 -213.112 1004.46 -220.513C997.325 -227.657 988.66 -233.527 978.975 -237.609C971.074 -240.926 962.409 -243.223 953.234 -243.733L946.607 -243.733C943.406 -243.649 940.289 -243.37 937.237 -242.904C937.234 -242.909 937.231 -242.913 937.228 -242.917C936.796 -242.845 936.365 -242.771 935.933 -242.694C934.268 -242.409 932.623 -242.069 930.992 -241.675C927.812 -240.925 924.679 -239.987 921.668 -238.786C920.889 -238.492 920.111 -238.184 919.336 -237.865C909.907 -233.781 901.241 -228.168 893.85 -220.768C886.714 -213.623 880.852 -204.947 876.774 -195.251C872.951 -186.064 870.912 -175.857 870.912 -165.395V-126.609H909.957V-165.345C909.957 -170.703 910.977 -175.807 913.016 -180.145C914.467 -183.596 916.305 -186.788 918.531 -189.63C919.481 -190.799 920.512 -191.909 921.63 -192.954C925.198 -196.526 929.531 -199.588 934.373 -201.63C936.371 -202.408 938.417 -203.088 940.512 -203.61C943.163 -204.255 945.891 -204.642 948.697 -204.642H949.206C954.304 -204.642 959.401 -203.621 963.734 -201.579C968.576 -199.538 972.909 -196.731 976.477 -193.159C980.045 -189.586 983.104 -185.248 984.888 -180.4C986.672 -175.807 987.946 -170.703 987.946 -165.6C987.946 -160.242 986.927 -155.393 984.888 -150.8C982.849 -145.952 980.045 -141.614 976.477 -138.042C972.909 -134.469 968.576 -131.407 963.734 -129.621C961.819 -128.875 959.815 -128.219 957.76 -127.707Z" stroke="white" stroke-width="1.6"/>
<path d="M976.509 25.792C979.315 26.477 982.215 26.8897 985.114 26.8897H1102.35C1108.84 26.8897 1115.23 27.6764 1121.34 29.1889C1125.14 30.1196 1128.83 31.3311 1132.38 32.8091C1142.06 36.8917 1150.47 42.5053 1157.86 49.9054C1165 57.0502 1170.86 65.726 1174.94 75.4226C1178.76 84.6088 1180.8 94.8159 1180.8 105.278C1180.8 115.74 1178.76 125.947 1174.94 135.133C1170.86 144.574 1165.25 153.25 1157.86 160.65C1150.73 167.795 1142.06 173.664 1132.38 177.747C1124.47 181.064 1115.81 183.36 1106.63 183.871H1100.01C1096.81 183.787 1093.69 183.507 1090.64 183.042C1090.63 183.046 1090.63 183.051 1090.63 183.055C1090.2 182.983 1089.77 182.909 1089.34 182.832C1087.67 182.547 1086.02 182.207 1084.39 181.812C1081.21 181.063 1078.08 180.125 1075.07 178.924C1074.29 178.629 1073.51 178.321 1072.74 178.002C1063.31 173.919 1054.64 168.305 1047.25 160.905C1040.11 153.761 1034.25 145.085 1030.17 135.388C1026.35 126.202 1024.31 115.995 1024.31 105.533V66.7469H1063.36V105.483C1063.36 110.841 1064.38 115.945 1066.42 120.282C1067.87 123.733 1069.71 126.925 1071.93 129.767C1072.88 130.936 1073.91 132.047 1075.03 133.092C1078.6 136.664 1082.93 139.726 1087.77 141.767C1089.77 142.545 1091.82 143.226 1093.91 143.747C1096.56 144.392 1099.29 144.779 1102.1 144.779H1102.61C1107.7 144.779 1112.8 143.758 1117.13 141.717C1121.98 139.676 1126.31 136.869 1129.88 133.297C1133.45 129.724 1136.5 125.386 1138.29 120.538C1140.07 115.945 1141.35 110.841 1141.35 105.738C1141.35 100.379 1140.33 95.5309 1138.29 90.9378C1136.25 86.0894 1133.45 81.7516 1129.88 78.1794C1126.31 74.6067 1121.98 71.545 1117.13 69.7584C1115.22 69.0129 1113.22 68.3562 1111.16 67.8445C1108.36 67.1595 1105.46 66.7469 1102.56 66.7469H985.318C978.831 66.7469 972.443 65.9606 966.335 64.4481C962.532 63.5173 958.838 62.3054 955.295 60.8274C945.61 56.7448 937.199 51.1312 929.808 43.7311C922.672 36.5863 916.81 27.9105 912.732 18.2139C908.909 9.02768 906.87 -1.17937 906.87 -11.6412C906.87 -22.1035 908.909 -32.3102 912.732 -41.4964C916.81 -50.9378 922.417 -59.6135 929.808 -67.0136C936.944 -74.1585 945.61 -80.0277 955.295 -84.1104C963.196 -87.4274 971.861 -89.7239 981.036 -90.2344H987.663C990.863 -90.15 993.98 -89.8706 997.032 -89.4054C997.036 -89.4099 997.039 -89.4144 997.042 -89.4185C997.473 -89.3462 997.905 -89.2718 998.336 -89.1946C1000 -88.9102 1001.65 -88.5702 1003.28 -88.1764C1006.46 -87.4265 1009.59 -86.4886 1012.6 -85.2874C1013.38 -84.9927 1014.16 -84.685 1014.93 -84.3656C1024.36 -80.2825 1033.03 -74.6689 1040.42 -67.2689C1047.56 -60.124 1053.42 -51.4483 1057.5 -41.7516C1061.32 -32.5654 1063.36 -22.3583 1063.36 -11.8965V26.8897H1024.31V-11.8462C1024.31 -17.2045 1023.29 -22.3081 1021.25 -26.646C1019.8 -30.0966 1017.96 -33.2893 1015.74 -36.1309C1014.79 -37.3002 1013.76 -38.4104 1012.64 -39.4551C1009.07 -43.0273 1004.74 -46.0895 999.896 -48.1308C997.898 -48.9086 995.852 -49.5895 993.758 -50.1107C991.107 -50.7561 988.378 -51.1428 985.573 -51.1428H985.063C979.966 -51.1428 974.869 -50.1219 970.536 -48.0806C965.693 -46.0392 961.361 -43.2322 957.792 -39.66C954.224 -36.0874 951.166 -31.7495 949.382 -26.9012C947.598 -22.3081 946.324 -17.2045 946.324 -12.1014C946.324 -6.74269 947.343 -1.89435 949.382 2.69875C951.421 7.54707 954.224 11.8849 957.792 15.4571C961.361 19.0298 965.693 22.0915 970.536 23.8781C972.45 24.6236 974.454 25.2803 976.509 25.792Z" stroke="white" stroke-width="1.6"/>
<path d="M669.708 25.792C672.514 26.477 675.414 26.8897 678.313 26.8897H795.551C802.038 26.8897 808.427 27.6764 814.534 29.1889C818.337 30.1196 822.031 31.3311 825.574 32.8091C835.259 36.8917 843.67 42.5053 851.061 49.9054C858.197 57.0502 864.059 65.726 868.137 75.4226C871.96 84.6088 873.999 94.8159 873.999 105.278C873.999 115.74 871.96 125.947 868.137 135.133C864.059 144.574 858.452 153.25 851.061 160.65C843.925 167.795 835.259 173.664 825.574 177.747C817.673 181.064 809.008 183.36 799.833 183.871H793.207C790.006 183.787 786.889 183.507 783.837 183.042C783.833 183.046 783.83 183.051 783.827 183.055C783.397 182.983 782.966 182.909 782.535 182.832C780.869 182.547 779.222 182.207 777.59 181.812C774.41 181.063 771.278 180.125 768.268 178.924C767.488 178.629 766.711 178.321 765.936 178.002C756.506 173.919 747.84 168.305 740.449 160.905C733.313 153.761 727.451 145.085 723.373 135.388C719.55 126.202 717.512 115.995 717.512 105.533V66.7469H756.557V105.483C756.557 110.841 757.576 115.945 759.615 120.282C761.066 123.733 762.905 126.925 765.13 129.767C766.08 130.936 767.112 132.047 768.23 133.092C771.798 136.664 776.131 139.726 780.973 141.767C782.97 142.545 785.016 143.226 787.109 143.747C789.761 144.392 792.49 144.779 795.296 144.779H795.806C800.903 144.779 806 143.758 810.333 141.717C815.176 139.676 819.508 136.869 823.076 133.297C826.644 129.724 829.703 125.386 831.487 120.538C833.271 115.945 834.545 110.841 834.545 105.738C834.545 100.379 833.526 95.5309 831.487 90.9378C829.448 86.0894 826.644 81.7516 823.076 78.1794C819.508 74.6067 815.176 71.545 810.333 69.7584C808.419 69.0129 806.416 68.3562 804.361 67.8445C801.555 67.1595 798.655 66.7469 795.755 66.7469H678.517C672.03 66.7469 665.642 65.9606 659.534 64.4481C655.731 63.5173 652.037 62.3054 648.494 60.8274C638.809 56.7448 630.398 51.1312 623.007 43.7311C615.871 36.5863 610.009 27.9105 605.931 18.2139C602.108 9.02768 600.069 -1.17937 600.069 -11.6412C600.069 -22.1035 602.108 -32.3102 605.931 -41.4964C610.009 -50.9378 615.616 -59.6135 623.007 -67.0136C630.143 -74.1585 638.809 -80.0277 648.494 -84.1104C656.394 -87.4274 665.06 -89.7239 674.235 -90.2344H680.862C684.062 -90.15 687.179 -89.8706 690.231 -89.4054C690.235 -89.4099 690.238 -89.4144 690.241 -89.4185C690.672 -89.3462 691.104 -89.2718 691.535 -89.1946C693.2 -88.9102 694.846 -88.5702 696.476 -88.1764C699.657 -87.4265 702.789 -86.4886 705.8 -85.2874C706.58 -84.9927 707.357 -84.685 708.132 -84.3656C717.562 -80.2825 726.228 -74.6689 733.619 -67.2689C740.755 -60.124 746.617 -51.4483 750.695 -41.7516C754.518 -32.5654 756.557 -22.3583 756.557 -11.8965V26.8897H717.512V-11.8462C717.512 -17.2045 716.492 -22.3081 714.453 -26.646C713.002 -30.0966 711.163 -33.2893 708.937 -36.1309C707.987 -37.3002 706.956 -38.4104 705.838 -39.4551C702.27 -43.0273 697.937 -46.0895 693.095 -48.1308C691.097 -48.9086 689.051 -49.5895 686.957 -50.1107C684.306 -50.7561 681.577 -51.1428 678.772 -51.1428H678.262C673.165 -51.1428 668.067 -50.1219 663.735 -48.0806C658.892 -46.0392 654.56 -43.2322 650.992 -39.66C647.423 -36.0874 644.365 -31.7495 642.581 -26.9012C640.797 -22.3081 639.523 -17.2045 639.523 -12.1014C639.523 -6.74269 640.542 -1.89435 642.581 2.69875C644.62 7.54707 647.423 11.8849 650.992 15.4571C654.56 19.0298 658.892 22.0915 663.735 23.8781C665.649 24.6236 667.653 25.2803 669.708 25.792Z" stroke="white" stroke-width="1.6"/>
<path d="M37.357 179.291C34.5514 179.976 31.6519 180.389 28.7525 180.389H-88.4855C-94.9726 180.389 -101.361 181.175 -107.469 182.688C-111.272 183.619 -114.966 184.83 -118.509 186.308C-128.194 190.391 -136.604 196.004 -143.995 203.404C-151.132 210.549 -156.994 219.225 -161.071 228.922C-164.894 238.108 -166.933 248.315 -166.933 258.777C-166.933 269.239 -164.894 279.446 -161.071 288.632C-156.994 298.073 -151.387 306.749 -143.995 314.149C-136.859 321.294 -128.194 327.163 -118.509 331.246C-110.608 334.563 -101.943 336.859 -92.7676 337.37H-86.1411C-82.9406 337.285 -79.8233 337.006 -76.7713 336.541C-76.7679 336.545 -76.7648 336.55 -76.7619 336.554C-76.3314 336.482 -75.9006 336.408 -75.4701 336.331C-73.8033 336.046 -72.1562 335.706 -70.5241 335.311C-67.3444 334.562 -64.2124 333.624 -61.2022 332.423C-60.4227 332.128 -59.6456 331.82 -58.8703 331.501C-49.4405 327.418 -40.7749 321.804 -33.384 314.404C-26.2477 307.259 -20.3857 298.584 -16.308 288.887C-12.4849 279.701 -10.4461 269.494 -10.4461 259.032V220.246H-49.4911V258.982C-49.4911 264.34 -50.5108 269.444 -52.5496 273.781C-54.0007 277.232 -55.8393 280.424 -58.065 283.266C-59.015 284.435 -60.0461 285.546 -61.1641 286.591C-64.7323 290.163 -69.0652 293.225 -73.9074 295.266C-75.9044 296.044 -77.9502 296.724 -80.044 297.246C-82.6957 297.891 -85.4245 298.278 -88.2308 298.278H-88.7404C-93.8379 298.278 -98.935 297.257 -103.268 295.216C-108.11 293.175 -112.443 290.368 -116.011 286.796C-119.579 283.223 -122.638 278.885 -124.422 274.037C-126.206 269.444 -127.48 264.34 -127.48 259.237C-127.48 253.878 -126.461 249.03 -124.422 244.437C-122.383 239.588 -119.579 235.251 -116.011 231.678C-112.443 228.106 -108.11 225.044 -103.268 223.257C-101.353 222.512 -99.3503 221.855 -97.2953 221.343C-94.4897 220.658 -91.5891 220.246 -88.6896 220.246H28.5484C35.0355 220.246 41.4234 219.46 47.531 217.947C51.3339 217.016 55.0288 215.804 58.5718 214.326C68.2567 210.244 76.6672 204.63 84.0583 197.23C91.1944 190.085 97.0564 181.409 101.134 171.713C104.957 162.527 106.996 152.32 106.996 141.858C106.996 131.395 104.957 121.189 101.134 112.003C97.0564 102.561 91.4494 93.8854 84.0583 86.4853C76.922 79.3404 68.2567 73.4712 58.5718 69.3886C50.671 66.0716 42.0055 63.775 32.8304 63.2646H26.2039C23.0033 63.3489 19.8861 63.6284 16.834 64.0935C16.8308 64.089 16.8276 64.0845 16.8246 64.0805C16.3931 64.1527 15.9617 64.2272 15.5303 64.3043C13.8654 64.5887 12.2194 64.9287 10.5892 65.3225C7.40854 66.0724 4.27606 67.0104 1.26502 68.2116C0.485487 68.5063 -0.291786 68.814 -1.06684 69.1333C-10.4967 73.2164 -19.1622 78.83 -26.5532 86.2301C-33.6895 93.3749 -39.5514 102.051 -43.6292 111.747C-47.4522 120.934 -49.4911 131.141 -49.4911 141.602V180.389H-10.4461V141.653C-10.4461 136.294 -9.42642 131.191 -7.38754 126.853C-5.93645 123.402 -4.09783 120.21 -1.87192 117.368C-0.921919 116.199 0.109173 115.089 1.22717 114.044C4.79509 110.472 9.12797 107.409 13.9702 105.368C15.968 104.59 18.0142 103.909 20.1086 103.388C22.7596 102.743 25.4881 102.356 28.2935 102.356H28.8033C33.9007 102.356 38.998 103.377 43.3306 105.418C48.1731 107.46 52.5058 110.267 56.0739 113.839C59.6419 117.412 62.7004 121.749 64.4844 126.598C66.2685 131.191 67.5429 136.294 67.5429 141.397C67.5429 146.756 66.5233 151.605 64.4844 156.198C62.4456 161.046 59.6419 165.384 56.0739 168.956C52.5058 172.529 48.1731 175.59 43.3306 177.377C41.4161 178.123 39.412 178.779 37.357 179.291Z" stroke="white" stroke-width="1.6"/>
<path d="M344.158 179.291C341.352 179.976 338.453 180.389 335.554 180.389H218.316C211.828 180.389 205.44 181.175 199.332 182.688C195.529 183.619 191.835 184.83 188.292 186.308C178.607 190.391 170.197 196.004 162.806 203.404C155.669 210.549 149.807 219.225 145.73 228.922C141.907 238.108 139.868 248.315 139.868 258.777C139.868 269.239 141.907 279.446 145.73 288.632C149.807 298.073 155.414 306.749 162.806 314.149C169.942 321.294 178.607 327.163 188.292 331.246C196.193 334.563 204.858 336.859 214.033 337.37H220.66C223.86 337.285 226.978 337.006 230.03 336.541C230.033 336.545 230.036 336.55 230.039 336.554C230.47 336.482 230.9 336.408 231.331 336.331C232.998 336.046 234.645 335.706 236.277 335.311C239.457 334.562 242.589 333.624 245.599 332.423C246.378 332.128 247.155 331.82 247.931 331.501C257.361 327.418 266.026 321.804 273.417 314.404C280.553 307.259 286.415 298.584 290.493 288.887C294.316 279.701 296.355 269.494 296.355 259.032V220.246H257.31V258.982C257.31 264.34 256.29 269.444 254.251 273.781C252.8 277.232 250.962 280.424 248.736 283.266C247.786 284.435 246.755 285.546 245.637 286.591C242.069 290.163 237.736 293.225 232.894 295.266C230.897 296.044 228.851 296.724 226.757 297.246C224.105 297.891 221.377 298.278 218.57 298.278H218.061C212.963 298.278 207.866 297.257 203.533 295.216C198.691 293.175 194.358 290.368 190.79 286.796C187.222 283.223 184.163 278.885 182.379 274.037C180.595 269.444 179.321 264.34 179.321 259.237C179.321 253.878 180.341 249.03 182.379 244.437C184.418 239.588 187.222 235.251 190.79 231.678C194.358 228.106 198.691 225.044 203.533 223.257C205.448 222.512 207.451 221.855 209.506 221.343C212.311 220.658 215.212 220.246 218.111 220.246H335.349C341.836 220.246 348.224 219.46 354.332 217.947C358.135 217.016 361.83 215.804 365.373 214.326C375.058 210.244 383.468 204.63 390.859 197.23C397.995 190.085 403.857 181.409 407.935 171.713C411.758 162.527 413.797 152.32 413.797 141.858C413.797 131.395 411.758 121.189 407.935 112.003C403.857 102.561 398.25 93.8854 390.859 86.4853C383.723 79.3404 375.058 73.4712 365.373 69.3886C357.472 66.0716 348.807 63.775 339.631 63.2646H333.005C329.804 63.3489 326.687 63.6284 323.635 64.0935C323.632 64.089 323.629 64.0845 323.626 64.0805C323.194 64.1527 322.763 64.2272 322.331 64.3043C320.666 64.5887 319.02 64.9287 317.39 65.3225C314.21 66.0724 311.077 67.0104 308.066 68.2116C307.287 68.5063 306.509 68.814 305.734 69.1333C296.304 73.2164 287.639 78.83 280.248 86.2301C273.112 93.3749 267.25 102.051 263.172 111.747C259.349 120.934 257.31 131.141 257.31 141.602V180.389H296.355V141.653C296.355 136.294 297.375 131.191 299.414 126.853C300.865 123.402 302.703 120.21 304.929 117.368C305.879 116.199 306.91 115.089 308.028 114.044C311.596 110.472 315.929 107.409 320.771 105.368C322.769 104.59 324.815 103.909 326.91 103.388C329.561 102.743 332.289 102.356 335.095 102.356H335.604C340.702 102.356 345.799 103.377 350.132 105.418C354.974 107.46 359.307 110.267 362.875 113.839C366.443 117.412 369.501 121.749 371.285 126.598C373.07 131.191 374.344 136.294 374.344 141.397C374.344 146.756 373.324 151.605 371.285 156.198C369.247 161.046 366.443 165.384 362.875 168.956C359.307 172.529 354.974 175.59 350.132 177.377C348.217 178.123 346.213 178.779 344.158 179.291Z" stroke="white" stroke-width="1.6"/>
<path d="M362.907 332.79C365.713 333.475 368.612 333.888 371.512 333.888H488.75C495.237 333.888 501.626 334.674 507.733 336.187C511.536 337.118 515.23 338.329 518.773 339.807C528.458 343.89 536.869 349.503 544.26 356.903C551.396 364.048 557.258 372.724 561.336 382.42C565.159 391.607 567.198 401.814 567.198 412.276C567.198 422.738 565.159 432.945 561.336 442.131C557.258 451.572 551.651 460.248 544.26 467.648C537.124 474.793 528.458 480.662 518.773 484.745C510.872 488.062 502.207 490.358 493.032 490.869H486.405C483.205 490.784 480.088 490.505 477.036 490.04C477.032 490.044 477.029 490.049 477.026 490.053C476.596 489.981 476.165 489.907 475.734 489.829C474.068 489.545 472.421 489.205 470.788 488.81C467.609 488.061 464.477 487.122 461.467 485.922C460.687 485.627 459.91 485.319 459.135 485C449.705 480.917 441.039 475.303 433.648 467.903C426.512 460.758 420.65 452.083 416.572 442.386C412.749 433.2 410.711 422.993 410.711 412.531V373.745H449.755V412.481C449.755 417.839 450.775 422.942 452.814 427.28C454.265 430.731 456.104 433.923 458.329 436.765C459.279 437.934 460.311 439.045 461.429 440.089C464.997 443.662 469.33 446.724 474.172 448.765C476.169 449.542 478.215 450.223 480.308 450.745C482.96 451.39 485.689 451.777 488.495 451.777H489.005C494.102 451.777 499.199 450.756 503.532 448.715C508.375 446.674 512.707 443.867 516.275 440.294C519.844 436.722 522.902 432.384 524.686 427.536C526.47 422.942 527.744 417.839 527.744 412.736C527.744 407.377 526.725 402.529 524.686 397.936C522.647 393.087 519.844 388.749 516.275 385.177C512.707 381.605 508.375 378.543 503.532 376.756C501.618 376.011 499.615 375.354 497.56 374.842C494.754 374.157 491.854 373.745 488.954 373.745H371.716C365.229 373.745 358.841 372.958 352.733 371.446C348.93 370.515 345.236 369.303 341.693 367.825C332.008 363.743 323.597 358.129 316.206 350.729C309.07 343.584 303.208 334.908 299.13 325.212C295.307 316.026 293.268 305.818 293.268 295.357C293.268 284.894 295.307 274.688 299.13 265.501C303.208 256.06 308.815 247.384 316.206 239.984C323.342 232.839 332.008 226.97 341.693 222.887C349.593 219.571 358.259 217.274 367.434 216.764H374.06C377.261 216.848 380.378 217.127 383.43 217.592C383.434 217.588 383.437 217.583 383.44 217.579C383.871 217.652 384.303 217.726 384.734 217.803C386.399 218.088 388.045 218.428 389.675 218.821C392.856 219.571 395.988 220.509 398.999 221.71C399.779 222.005 400.556 222.313 401.331 222.632C410.761 226.715 419.427 232.329 426.818 239.729C433.954 246.874 439.816 255.55 443.894 265.246C447.717 274.432 449.755 284.64 449.755 295.101V333.888H410.711V295.152C410.711 289.793 409.691 284.69 407.652 280.352C406.201 276.901 404.362 273.708 402.136 270.867C401.186 269.698 400.155 268.587 399.037 267.543C395.469 263.971 391.136 260.908 386.294 258.867C384.296 258.089 382.25 257.408 380.156 256.887C377.505 256.242 374.776 255.855 371.971 255.855H371.461C366.364 255.855 361.266 256.876 356.934 258.917C352.091 260.959 347.759 263.766 344.19 267.338C340.622 270.91 337.564 275.248 335.78 280.097C333.996 284.69 332.721 289.793 332.721 294.896C332.721 300.255 333.741 305.103 335.78 309.697C337.819 314.545 340.622 318.883 344.19 322.455C347.759 326.028 352.091 329.089 356.934 330.876C358.848 331.621 360.852 332.278 362.907 332.79Z" stroke="white" stroke-width="1.6"/>
<path d="M56.1063 332.79C58.9119 333.475 61.8114 333.888 64.7108 333.888H181.949C188.436 333.888 194.825 334.674 200.932 336.187C204.735 337.118 208.429 338.329 211.972 339.807C221.657 343.89 230.068 349.503 237.459 356.903C244.595 364.048 250.457 372.724 254.535 382.42C258.358 391.607 260.397 401.814 260.397 412.276C260.397 422.738 258.358 432.945 254.535 442.131C250.457 451.572 244.85 460.248 237.459 467.648C230.323 474.793 221.657 480.662 211.972 484.745C204.071 488.062 195.406 490.358 186.231 490.869H179.604C176.404 490.784 173.287 490.505 170.235 490.04C170.231 490.044 170.228 490.049 170.225 490.053C169.795 489.981 169.364 489.907 168.933 489.829C167.267 489.545 165.62 489.205 163.987 488.81C160.808 488.061 157.676 487.122 154.666 485.922C153.886 485.627 153.109 485.319 152.334 485C142.904 480.917 134.238 475.303 126.847 467.903C119.711 460.758 113.849 452.083 109.771 442.386C105.948 433.2 103.909 422.993 103.909 412.531V373.745H142.954V412.481C142.954 417.839 143.974 422.942 146.013 427.28C147.464 430.731 149.303 433.923 151.528 436.765C152.478 437.934 153.509 439.045 154.627 440.089C158.196 443.662 162.528 446.724 167.371 448.765C169.368 449.542 171.414 450.223 173.507 450.745C176.159 451.39 178.888 451.777 181.694 451.777H182.204C187.301 451.777 192.398 450.756 196.731 448.715C201.573 446.674 205.906 443.867 209.474 440.294C213.043 436.722 216.101 432.384 217.885 427.536C219.669 422.942 220.943 417.839 220.943 412.736C220.943 407.377 219.924 402.529 217.885 397.936C215.846 393.087 213.043 388.749 209.474 385.177C205.906 381.605 201.573 378.543 196.731 376.756C194.817 376.011 192.814 375.354 190.759 374.842C187.953 374.157 185.052 373.745 182.153 373.745H64.9149C58.4279 373.745 52.04 372.958 45.9323 371.446C42.1294 370.515 38.4345 369.303 34.8915 367.825C25.2067 363.743 16.7962 358.129 9.40507 350.729C2.2689 343.584 -3.59303 334.908 -7.67089 325.212C-11.4939 316.026 -13.5328 305.818 -13.5328 295.357C-13.5328 284.894 -11.494 274.688 -7.67092 265.501C-3.59306 256.06 2.01398 247.384 9.40507 239.984C16.5414 232.839 25.2067 226.97 34.8915 222.887C42.7923 219.571 51.4578 217.274 60.6329 216.764H67.2594C70.46 216.848 73.5773 217.127 76.6293 217.592C76.6326 217.588 76.6357 217.583 76.6387 217.579C77.0703 217.652 77.5016 217.726 77.933 217.803C79.5979 218.088 81.2439 218.428 82.8742 218.821C86.0548 219.571 89.1872 220.509 92.1983 221.71C92.9778 222.005 93.7551 222.313 94.5302 222.632C103.96 226.715 112.626 232.329 120.017 239.729C127.153 246.874 133.015 255.55 137.092 265.246C140.916 274.432 142.954 284.64 142.954 295.101V333.888H103.909V295.152C103.909 289.793 102.89 284.69 100.851 280.352C99.3998 276.901 97.5612 273.708 95.3352 270.867C94.3852 269.698 93.3542 268.587 92.2362 267.543C88.6682 263.971 84.3353 260.908 79.4931 258.867C77.4953 258.089 75.4491 257.408 73.3547 256.887C70.7038 256.242 67.9752 255.855 65.1698 255.855H64.6601C59.5626 255.855 54.4654 256.876 50.1327 258.917C45.2902 260.959 40.9576 263.766 37.3894 267.338C33.8214 270.91 30.763 275.248 28.9789 280.097C27.1948 284.69 25.9205 289.793 25.9205 294.896C25.9205 300.255 26.94 305.103 28.9789 309.697C31.0178 314.545 33.8214 318.883 37.3894 322.455C40.9576 326.028 45.2902 329.089 50.1327 330.876C52.0473 331.621 54.0513 332.278 56.1063 332.79Z" stroke="white" stroke-width="1.6"/>
<path d="M650.959 179.291C648.153 179.976 645.254 180.389 642.355 180.389H525.117C518.629 180.389 512.241 181.175 506.133 182.688C502.33 183.619 498.636 184.83 495.093 186.308C485.408 190.391 476.998 196.004 469.607 203.404C462.47 210.549 456.608 219.225 452.531 228.922C448.708 238.108 446.669 248.315 446.669 258.777C446.669 269.239 448.708 279.446 452.531 288.632C456.608 298.073 462.215 306.749 469.607 314.149C476.743 321.294 485.408 327.163 495.093 331.246C502.994 334.563 511.659 336.859 520.835 337.37H527.461C530.662 337.285 533.779 337.006 536.831 336.541C536.834 336.545 536.837 336.55 536.84 336.554C537.271 336.482 537.701 336.408 538.132 336.331C539.799 336.046 541.446 335.706 543.078 335.311C546.258 334.562 549.39 333.624 552.4 332.423C553.179 332.128 553.956 331.82 554.732 331.501C564.162 327.418 572.827 321.804 580.218 314.404C587.354 307.259 593.216 298.584 597.294 288.887C601.117 279.701 603.156 269.494 603.156 259.032V220.246H564.111V258.982C564.111 264.34 563.091 269.444 561.052 273.781C559.601 277.232 557.763 280.424 555.537 283.266C554.587 284.435 553.556 285.546 552.438 286.591C548.87 290.163 544.537 293.225 539.695 295.266C537.698 296.044 535.652 296.724 533.558 297.246C530.906 297.891 528.178 298.278 525.371 298.278H524.862C519.764 298.278 514.667 297.257 510.334 295.216C505.492 293.175 501.159 290.368 497.591 286.796C494.023 283.223 490.964 278.885 489.18 274.037C487.397 269.444 486.122 264.34 486.122 259.237C486.122 253.878 487.142 249.03 489.18 244.437C491.219 239.588 494.023 235.251 497.591 231.678C501.159 228.106 505.492 225.044 510.334 223.257C512.249 222.512 514.252 221.855 516.307 221.343C519.112 220.658 522.013 220.246 524.912 220.246H642.151C648.638 220.246 655.025 219.46 661.133 217.947C664.936 217.016 668.631 215.804 672.174 214.326C681.859 210.244 690.269 204.63 697.66 197.23C704.796 190.085 710.658 181.409 714.736 171.713C718.559 162.527 720.598 152.32 720.598 141.858C720.598 131.395 718.559 121.189 714.736 112.003C710.658 102.561 705.051 93.8854 697.66 86.4853C690.524 79.3404 681.859 73.4712 672.174 69.3886C664.273 66.0716 655.608 63.775 646.432 63.2646H639.806C636.605 63.3489 633.488 63.6284 630.436 64.0935C630.433 64.089 630.43 64.0845 630.427 64.0805C629.995 64.1527 629.564 64.2272 629.132 64.3043C627.468 64.5887 625.822 64.9287 624.191 65.3225C621.011 66.0724 617.878 67.0104 614.867 68.2116C614.088 68.5063 613.31 68.814 612.535 69.1333C603.105 73.2164 594.44 78.83 587.049 86.2301C579.913 93.3749 574.051 102.051 569.973 111.747C566.15 120.934 564.111 131.141 564.111 141.602V180.389H603.156V141.653C603.156 136.294 604.176 131.191 606.215 126.853C607.666 123.402 609.504 120.21 611.73 117.368C612.68 116.199 613.711 115.089 614.829 114.044C618.397 110.472 622.73 107.409 627.572 105.368C629.57 104.59 631.616 103.909 633.711 103.388C636.362 102.743 639.09 102.356 641.896 102.356H642.405C647.503 102.356 652.6 103.377 656.933 105.418C661.775 107.46 666.108 110.267 669.676 113.839C673.244 117.412 676.302 121.749 678.087 126.598C679.871 131.191 681.145 136.294 681.145 141.397C681.145 146.756 680.125 151.605 678.087 156.198C676.048 161.046 673.244 165.384 669.676 168.956C666.108 172.529 661.775 175.59 656.933 177.377C655.018 178.123 653.014 178.779 650.959 179.291Z" stroke="white" stroke-width="1.6"/>
<path d="M957.76 179.291C954.955 179.976 952.055 180.389 949.156 180.389H831.918C825.431 180.389 819.042 181.175 812.934 182.688C809.131 183.619 805.437 184.83 801.894 186.308C792.209 190.391 783.799 196.004 776.408 203.404C769.271 210.549 763.41 219.225 759.332 228.922C755.509 238.108 753.47 248.315 753.47 258.777C753.47 269.239 755.509 279.446 759.332 288.632C763.409 298.073 769.017 306.749 776.408 314.149C783.544 321.294 792.209 327.163 801.894 331.246C809.795 334.563 818.46 336.859 827.635 337.37H834.262C837.463 337.285 840.58 337.006 843.632 336.541C843.635 336.545 843.638 336.55 843.641 336.554C844.072 336.482 844.503 336.408 844.933 336.331C846.6 336.046 848.247 335.706 849.879 335.311C853.059 334.562 856.191 333.624 859.201 332.423C859.98 332.128 860.758 331.82 861.533 331.501C870.963 327.418 879.628 321.804 887.019 314.404C894.155 307.259 900.017 298.584 904.095 288.887C907.918 279.701 909.957 269.494 909.957 259.032V220.246H870.912V258.982C870.912 264.34 869.892 269.444 867.854 273.781C866.402 277.232 864.564 280.424 862.338 283.266C861.388 284.435 860.357 285.546 859.239 286.591C855.671 290.163 851.338 293.225 846.496 295.266C844.499 296.044 842.453 296.724 840.359 297.246C837.707 297.891 834.979 298.278 832.172 298.278H831.663C826.565 298.278 821.468 297.257 817.135 295.216C812.293 293.175 807.96 290.368 804.392 286.796C800.824 283.223 797.765 278.885 795.981 274.037C794.197 269.444 792.923 264.34 792.923 259.237C792.923 253.878 793.943 249.03 795.981 244.437C798.02 239.588 800.824 235.251 804.392 231.678C807.96 228.106 812.293 225.044 817.135 223.257C819.05 222.512 821.053 221.855 823.108 221.343C825.913 220.658 828.814 220.246 831.714 220.246H948.952C955.439 220.246 961.827 219.46 967.934 217.947C971.737 217.016 975.432 215.804 978.975 214.326C988.66 210.244 997.07 204.63 1004.46 197.23C1011.6 190.085 1017.46 181.409 1021.54 171.713C1025.36 162.527 1027.4 152.32 1027.4 141.858C1027.4 131.395 1025.36 121.189 1021.54 112.003C1017.46 102.561 1011.85 93.8854 1004.46 86.4853C997.325 79.3404 988.66 73.4712 978.975 69.3886C971.074 66.0716 962.409 63.775 953.234 63.2646H946.607C943.406 63.3489 940.289 63.6284 937.237 64.0935C937.234 64.089 937.231 64.0845 937.228 64.0805C936.796 64.1527 936.365 64.2272 935.933 64.3043C934.268 64.5887 932.623 64.9287 930.992 65.3225C927.812 66.0724 924.679 67.0104 921.668 68.2116C920.889 68.5063 920.111 68.814 919.336 69.1333C909.907 73.2164 901.241 78.83 893.85 86.2301C886.714 93.3749 880.852 102.051 876.774 111.747C872.951 120.934 870.912 131.141 870.912 141.602V180.389H909.957V141.653C909.957 136.294 910.977 131.191 913.016 126.853C914.467 123.402 916.305 120.21 918.531 117.368C919.481 116.199 920.512 115.089 921.63 114.044C925.198 110.472 929.531 107.409 934.373 105.368C936.371 104.59 938.417 103.909 940.512 103.388C943.163 102.743 945.891 102.356 948.697 102.356H949.206C954.304 102.356 959.401 103.377 963.734 105.418C968.576 107.46 972.909 110.267 976.477 113.839C980.045 117.412 983.104 121.749 984.888 126.598C986.672 131.191 987.946 136.294 987.946 141.397C987.946 146.756 986.927 151.605 984.888 156.198C982.849 161.046 980.045 165.384 976.477 168.956C972.909 172.529 968.576 175.59 963.734 177.377C961.819 178.123 959.815 178.779 957.76 179.291Z" stroke="white" stroke-width="1.6"/>
<path d="M976.509 332.79C979.315 333.475 982.215 333.888 985.114 333.888H1102.35C1108.84 333.888 1115.23 334.674 1121.34 336.187C1125.14 337.118 1128.83 338.329 1132.38 339.807C1142.06 343.89 1150.47 349.503 1157.86 356.903C1165 364.048 1170.86 372.724 1174.94 382.42C1178.76 391.607 1180.8 401.814 1180.8 412.276C1180.8 422.738 1178.76 432.945 1174.94 442.131C1170.86 451.572 1165.25 460.248 1157.86 467.648C1150.73 474.793 1142.06 480.662 1132.38 484.745C1124.47 488.062 1115.81 490.358 1106.63 490.869H1100.01C1096.81 490.784 1093.69 490.505 1090.64 490.04C1090.63 490.044 1090.63 490.049 1090.63 490.053C1090.2 489.981 1089.77 489.907 1089.34 489.829C1087.67 489.545 1086.02 489.205 1084.39 488.81C1081.21 488.061 1078.08 487.122 1075.07 485.922C1074.29 485.627 1073.51 485.319 1072.74 485C1063.31 480.917 1054.64 475.303 1047.25 467.903C1040.11 460.758 1034.25 452.083 1030.17 442.386C1026.35 433.2 1024.31 422.993 1024.31 412.531V373.745H1063.36V412.481C1063.36 417.839 1064.38 422.942 1066.42 427.28C1067.87 430.731 1069.71 433.923 1071.93 436.765C1072.88 437.934 1073.91 439.045 1075.03 440.089C1078.6 443.662 1082.93 446.724 1087.77 448.765C1089.77 449.542 1091.82 450.223 1093.91 450.745C1096.56 451.39 1099.29 451.777 1102.1 451.777H1102.61C1107.7 451.777 1112.8 450.756 1117.13 448.715C1121.98 446.674 1126.31 443.867 1129.88 440.294C1133.45 436.722 1136.5 432.384 1138.29 427.536C1140.07 422.942 1141.35 417.839 1141.35 412.736C1141.35 407.377 1140.33 402.529 1138.29 397.936C1136.25 393.087 1133.45 388.749 1129.88 385.177C1126.31 381.605 1121.98 378.543 1117.13 376.756C1115.22 376.011 1113.22 375.354 1111.16 374.842C1108.36 374.157 1105.46 373.745 1102.56 373.745H985.318C978.831 373.745 972.443 372.958 966.335 371.446C962.532 370.515 958.838 369.303 955.295 367.825C945.61 363.743 937.199 358.129 929.808 350.729C922.672 343.584 916.81 334.908 912.732 325.212C908.909 316.026 906.87 305.818 906.87 295.357C906.87 284.894 908.909 274.688 912.732 265.501C916.81 256.06 922.417 247.384 929.808 239.984C936.944 232.839 945.61 226.97 955.295 222.887C963.196 219.571 971.861 217.274 981.036 216.764H987.663C990.863 216.848 993.98 217.127 997.032 217.592C997.036 217.588 997.039 217.583 997.042 217.579C997.473 217.652 997.905 217.726 998.336 217.803C1000 218.088 1001.65 218.428 1003.28 218.821C1006.46 219.571 1009.59 220.509 1012.6 221.71C1013.38 222.005 1014.16 222.313 1014.93 222.632C1024.36 226.715 1033.03 232.329 1040.42 239.729C1047.56 246.874 1053.42 255.55 1057.5 265.246C1061.32 274.432 1063.36 284.64 1063.36 295.101V333.888H1024.31V295.152C1024.31 289.793 1023.29 284.69 1021.25 280.352C1019.8 276.901 1017.96 273.708 1015.74 270.867C1014.79 269.698 1013.76 268.587 1012.64 267.543C1009.07 263.971 1004.74 260.908 999.896 258.867C997.898 258.089 995.852 257.408 993.758 256.887C991.107 256.242 988.378 255.855 985.573 255.855H985.063C979.966 255.855 974.869 256.876 970.536 258.917C965.693 260.959 961.361 263.766 957.792 267.338C954.224 270.91 951.166 275.248 949.382 280.097C947.598 284.69 946.324 289.793 946.324 294.896C946.324 300.255 947.343 305.103 949.382 309.697C951.421 314.545 954.224 318.883 957.792 322.455C961.361 326.028 965.693 329.089 970.536 330.876C972.45 331.621 974.454 332.278 976.509 332.79Z" stroke="white" stroke-width="1.6"/>
<path d="M669.708 332.79C672.514 333.475 675.414 333.888 678.313 333.888H795.551C802.038 333.888 808.427 334.674 814.534 336.187C818.337 337.118 822.031 338.329 825.574 339.807C835.259 343.89 843.67 349.503 851.061 356.903C858.197 364.048 864.059 372.724 868.137 382.42C871.96 391.607 873.999 401.814 873.999 412.276C873.999 422.738 871.96 432.945 868.137 442.131C864.059 451.572 858.452 460.248 851.061 467.648C843.925 474.793 835.259 480.662 825.574 484.745C817.673 488.062 809.008 490.358 799.833 490.869H793.207C790.006 490.784 786.889 490.505 783.837 490.04C783.833 490.044 783.83 490.049 783.827 490.053C783.397 489.981 782.966 489.907 782.535 489.829C780.869 489.545 779.222 489.205 777.59 488.81C774.41 488.061 771.278 487.122 768.268 485.922C767.488 485.627 766.711 485.319 765.936 485C756.506 480.917 747.84 475.303 740.449 467.903C733.313 460.758 727.451 452.083 723.373 442.386C719.55 433.2 717.512 422.993 717.512 412.531V373.745H756.557V412.481C756.557 417.839 757.576 422.942 759.615 427.28C761.066 430.731 762.905 433.923 765.13 436.765C766.08 437.934 767.112 439.045 768.23 440.089C771.798 443.662 776.131 446.724 780.973 448.765C782.97 449.542 785.016 450.223 787.109 450.745C789.761 451.39 792.49 451.777 795.296 451.777H795.806C800.903 451.777 806 450.756 810.333 448.715C815.176 446.674 819.508 443.867 823.076 440.294C826.644 436.722 829.703 432.384 831.487 427.536C833.271 422.942 834.545 417.839 834.545 412.736C834.545 407.377 833.526 402.529 831.487 397.936C829.448 393.087 826.644 388.749 823.076 385.177C819.508 381.605 815.176 378.543 810.333 376.756C808.419 376.011 806.416 375.354 804.361 374.842C801.555 374.157 798.655 373.745 795.755 373.745H678.517C672.03 373.745 665.642 372.958 659.534 371.446C655.731 370.515 652.037 369.303 648.494 367.825C638.809 363.743 630.398 358.129 623.007 350.729C615.871 343.584 610.009 334.908 605.931 325.212C602.108 316.026 600.069 305.818 600.069 295.357C600.069 284.894 602.108 274.688 605.931 265.501C610.009 256.06 615.616 247.384 623.007 239.984C630.143 232.839 638.809 226.97 648.494 222.887C656.394 219.571 665.06 217.274 674.235 216.764H680.862C684.062 216.848 687.179 217.127 690.231 217.592C690.235 217.588 690.238 217.583 690.241 217.579C690.672 217.652 691.104 217.726 691.535 217.803C693.2 218.088 694.846 218.428 696.476 218.821C699.657 219.571 702.789 220.509 705.8 221.71C706.58 222.005 707.357 222.313 708.132 222.632C717.562 226.715 726.228 232.329 733.619 239.729C740.755 246.874 746.617 255.55 750.695 265.246C754.518 274.432 756.557 284.64 756.557 295.101V333.888H717.512V295.152C717.512 289.793 716.492 284.69 714.453 280.352C713.002 276.901 711.163 273.708 708.937 270.867C707.987 269.698 706.956 268.587 705.838 267.543C702.27 263.971 697.937 260.908 693.095 258.867C691.097 258.089 689.051 257.408 686.957 256.887C684.306 256.242 681.577 255.855 678.772 255.855H678.262C673.165 255.855 668.067 256.876 663.735 258.917C658.892 260.959 654.56 263.766 650.992 267.338C647.423 270.91 644.365 275.248 642.581 280.097C640.797 284.69 639.523 289.793 639.523 294.896C639.523 300.255 640.542 305.103 642.581 309.697C644.62 314.545 647.423 318.883 650.992 322.455C654.56 326.028 658.892 329.089 663.735 330.876C665.649 331.621 667.653 332.278 669.708 332.79Z" stroke="white" stroke-width="1.6"/>
<path d="M37.357 486.289C34.5514 486.974 31.6519 487.386 28.7525 487.386H-88.4855C-94.9726 487.386 -101.361 488.173 -107.469 489.686C-111.272 490.616 -114.966 491.828 -118.509 493.306C-128.194 497.388 -136.604 503.002 -143.995 510.402C-151.132 517.547 -156.994 526.223 -161.071 535.919C-164.894 545.106 -166.933 555.313 -166.933 565.775C-166.933 576.237 -164.894 586.443 -161.071 595.63C-156.994 605.071 -151.387 613.747 -143.995 621.147C-136.859 628.292 -128.194 634.161 -118.509 638.244C-110.608 641.561 -101.943 643.857 -92.7676 644.368H-86.1411C-82.9406 644.283 -79.8233 644.004 -76.7713 643.539C-76.7679 643.543 -76.7648 643.548 -76.7619 643.552C-76.3314 643.48 -75.9006 643.406 -75.4701 643.328C-73.8033 643.044 -72.1562 642.704 -70.5241 642.309C-67.3444 641.56 -64.2124 640.621 -61.2022 639.421C-60.4227 639.126 -59.6456 638.818 -58.8703 638.499C-49.4405 634.416 -40.7749 628.802 -33.384 621.402C-26.2477 614.257 -20.3857 605.582 -16.308 595.885C-12.4849 586.699 -10.4461 576.492 -10.4461 566.03V527.244H-49.4911V565.98C-49.4911 571.338 -50.5108 576.441 -52.5496 580.779C-54.0007 584.23 -55.8393 587.422 -58.065 590.264C-59.015 591.433 -60.0461 592.544 -61.1641 593.588C-64.7323 597.161 -69.0652 600.223 -73.9074 602.264C-75.9044 603.041 -77.9502 603.722 -80.044 604.244C-82.6957 604.889 -85.4245 605.276 -88.2308 605.276H-88.7404C-93.8379 605.276 -98.935 604.255 -103.268 602.214C-108.11 600.173 -112.443 597.366 -116.011 593.793C-119.579 590.221 -122.638 585.883 -124.422 581.034C-126.206 576.441 -127.48 571.338 -127.48 566.235C-127.48 560.876 -126.461 556.028 -124.422 551.435C-122.383 546.586 -119.579 542.248 -116.011 538.676C-112.443 535.104 -108.11 532.042 -103.268 530.255C-101.353 529.51 -99.3503 528.853 -97.2953 528.341C-94.4897 527.656 -91.5891 527.244 -88.6896 527.244H28.5484C35.0355 527.244 41.4234 526.457 47.531 524.945C51.3339 524.014 55.0288 522.802 58.5718 521.324C68.2567 517.242 76.6672 511.628 84.0583 504.228C91.1944 497.083 97.0564 488.407 101.134 478.711C104.957 469.524 106.996 459.317 106.996 448.856C106.996 438.393 104.957 428.187 101.134 419C97.0564 409.559 91.4494 400.883 84.0583 393.483C76.922 386.338 68.2567 380.469 58.5718 376.386C50.671 373.069 42.0055 370.773 32.8304 370.262H26.2039C23.0033 370.347 19.8861 370.626 16.834 371.091C16.8308 371.087 16.8276 371.082 16.8246 371.078C16.3931 371.151 15.9617 371.225 15.5303 371.302C13.8654 371.587 12.2194 371.927 10.5892 372.32C7.40854 373.07 4.27606 374.008 1.26502 375.209C0.485487 375.504 -0.291786 375.812 -1.06684 376.131C-10.4967 380.214 -19.1622 385.828 -26.5532 393.228C-33.6895 400.373 -39.5514 409.049 -43.6292 418.745C-47.4522 427.931 -49.4911 438.138 -49.4911 448.6V487.386H-10.4461V448.651C-10.4461 443.292 -9.42642 438.189 -7.38754 433.851C-5.93645 430.4 -4.09783 427.207 -1.87192 424.366C-0.921919 423.197 0.109173 422.086 1.22717 421.042C4.79509 417.469 9.12797 414.407 13.9702 412.366C15.968 411.588 18.0142 410.907 20.1086 410.386C22.7596 409.741 25.4881 409.354 28.2935 409.354H28.8033C33.9007 409.354 38.998 410.375 43.3306 412.416C48.1731 414.458 52.5058 417.265 56.0739 420.837C59.6419 424.409 62.7004 428.747 64.4844 433.596C66.2685 438.189 67.5429 443.292 67.5429 448.395C67.5429 453.754 66.5233 458.602 64.4844 463.195C62.4456 468.044 59.6419 472.382 56.0739 475.954C52.5058 479.527 48.1731 482.588 43.3306 484.375C41.4161 485.12 39.412 485.777 37.357 486.289Z" stroke="white" stroke-width="1.6"/>
<path d="M344.158 486.289C341.352 486.974 338.453 487.386 335.554 487.386H218.316C211.828 487.386 205.44 488.173 199.332 489.686C195.529 490.616 191.835 491.828 188.292 493.306C178.607 497.388 170.197 503.002 162.806 510.402C155.669 517.547 149.807 526.223 145.73 535.919C141.907 545.106 139.868 555.313 139.868 565.775C139.868 576.237 141.907 586.443 145.73 595.63C149.807 605.071 155.414 613.747 162.806 621.147C169.942 628.292 178.607 634.161 188.292 638.244C196.193 641.561 204.858 643.857 214.033 644.368H220.66C223.86 644.283 226.978 644.004 230.03 643.539C230.033 643.543 230.036 643.548 230.039 643.552C230.47 643.48 230.9 643.406 231.331 643.328C232.998 643.044 234.645 642.704 236.277 642.309C239.457 641.56 242.589 640.621 245.599 639.421C246.378 639.126 247.155 638.818 247.931 638.499C257.361 634.416 266.026 628.802 273.417 621.402C280.553 614.257 286.415 605.582 290.493 595.885C294.316 586.699 296.355 576.492 296.355 566.03V527.244H257.31V565.98C257.31 571.338 256.29 576.441 254.251 580.779C252.8 584.23 250.962 587.422 248.736 590.264C247.786 591.433 246.755 592.544 245.637 593.588C242.069 597.161 237.736 600.223 232.894 602.264C230.897 603.041 228.851 603.722 226.757 604.244C224.105 604.889 221.377 605.276 218.57 605.276H218.061C212.963 605.276 207.866 604.255 203.533 602.214C198.691 600.173 194.358 597.366 190.79 593.793C187.222 590.221 184.163 585.883 182.379 581.034C180.595 576.441 179.321 571.338 179.321 566.235C179.321 560.876 180.341 556.028 182.379 551.435C184.418 546.586 187.222 542.248 190.79 538.676C194.358 535.104 198.691 532.042 203.533 530.255C205.448 529.51 207.451 528.853 209.506 528.341C212.311 527.656 215.212 527.244 218.111 527.244H335.349C341.836 527.244 348.224 526.457 354.332 524.945C358.135 524.014 361.83 522.802 365.373 521.324C375.058 517.242 383.468 511.628 390.859 504.228C397.995 497.083 403.857 488.407 407.935 478.711C411.758 469.524 413.797 459.317 413.797 448.856C413.797 438.393 411.758 428.187 407.935 419C403.857 409.559 398.25 400.883 390.859 393.483C383.723 386.338 375.058 380.469 365.373 376.386C357.472 373.069 348.807 370.773 339.631 370.262H333.005C329.804 370.347 326.687 370.626 323.635 371.091C323.632 371.087 323.629 371.082 323.626 371.078C323.194 371.151 322.763 371.225 322.331 371.302C320.666 371.587 319.02 371.927 317.39 372.32C314.21 373.07 311.077 374.008 308.066 375.209C307.287 375.504 306.509 375.812 305.734 376.131C296.304 380.214 287.639 385.828 280.248 393.228C273.112 400.373 267.25 409.049 263.172 418.745C259.349 427.931 257.31 438.138 257.31 448.6V487.386H296.355V448.651C296.355 443.292 297.375 438.189 299.414 433.851C300.865 430.4 302.703 427.207 304.929 424.366C305.879 423.197 306.91 422.086 308.028 421.042C311.596 417.469 315.929 414.407 320.771 412.366C322.769 411.588 324.815 410.907 326.91 410.386C329.561 409.741 332.289 409.354 335.095 409.354H335.604C340.702 409.354 345.799 410.375 350.132 412.416C354.974 414.458 359.307 417.265 362.875 420.837C366.443 424.409 369.501 428.747 371.285 433.596C373.07 438.189 374.344 443.292 374.344 448.395C374.344 453.754 373.324 458.602 371.285 463.195C369.247 468.044 366.443 472.382 362.875 475.954C359.307 479.527 354.974 482.588 350.132 484.375C348.217 485.12 346.213 485.777 344.158 486.289Z" stroke="white" stroke-width="1.6"/>
<path d="M362.907 639.788C365.713 640.473 368.612 640.885 371.512 640.885H488.75C495.237 640.885 501.626 641.672 507.733 643.185C511.536 644.115 515.23 645.327 518.773 646.805C528.458 650.887 536.869 656.501 544.26 663.901C551.396 671.046 557.258 679.722 561.336 689.418C565.159 698.605 567.198 708.812 567.198 719.273C567.198 729.736 565.159 739.942 561.336 749.129C557.258 758.57 551.651 767.246 544.26 774.646C537.124 781.791 528.458 787.66 518.773 791.743C510.872 795.06 502.207 797.356 493.032 797.867H486.405C483.205 797.782 480.088 797.503 477.036 797.038C477.032 797.042 477.029 797.047 477.026 797.051C476.596 796.979 476.165 796.904 475.734 796.827C474.068 796.543 472.421 796.203 470.788 795.808C467.609 795.059 464.477 794.12 461.467 792.92C460.687 792.625 459.91 792.317 459.135 791.998C449.705 787.915 441.039 782.301 433.648 774.901C426.512 767.756 420.65 759.081 416.572 749.384C412.749 740.198 410.711 729.99 410.711 719.529V680.743H449.755V719.478C449.755 724.837 450.775 729.94 452.814 734.278C454.265 737.729 456.104 740.921 458.329 743.763C459.279 744.932 460.311 746.043 461.429 747.087C464.997 750.66 469.33 753.722 474.172 755.763C476.169 756.54 478.215 757.221 480.308 757.742C482.96 758.388 485.689 758.775 488.495 758.775H489.005C494.102 758.775 499.199 757.754 503.532 755.713C508.375 753.671 512.707 750.864 516.275 747.292C519.844 743.72 522.902 739.382 524.686 734.533C526.47 729.94 527.744 724.837 527.744 719.734C527.744 714.375 526.725 709.527 524.686 704.933C522.647 700.085 519.844 695.747 516.275 692.175C512.707 688.602 508.375 685.541 503.532 683.754C501.618 683.009 499.615 682.352 497.56 681.84C494.754 681.155 491.854 680.743 488.954 680.743H371.716C365.229 680.743 358.841 679.956 352.733 678.444C348.93 677.513 345.236 676.301 341.693 674.823C332.008 670.741 323.597 665.127 316.206 657.727C309.07 650.582 303.208 641.906 299.13 632.21C295.307 623.023 293.268 612.816 293.268 602.354C293.268 591.892 295.307 581.686 299.13 572.499C303.208 563.058 308.815 554.382 316.206 546.982C323.342 539.837 332.008 533.968 341.693 529.885C349.593 526.568 358.259 524.272 367.434 523.761H374.06C377.261 523.846 380.378 524.125 383.43 524.59C383.434 524.586 383.437 524.581 383.44 524.577C383.871 524.65 384.303 524.724 384.734 524.801C386.399 525.085 388.045 525.425 389.675 525.819C392.856 526.569 395.988 527.507 398.999 528.708C399.779 529.003 400.556 529.311 401.331 529.63C410.761 533.713 419.427 539.327 426.818 546.727C433.954 553.872 439.816 562.547 443.894 572.244C447.717 581.43 449.755 591.637 449.755 602.099V640.885H410.711V602.15C410.711 596.791 409.691 591.688 407.652 587.35C406.201 583.899 404.362 580.706 402.136 577.865C401.186 576.695 400.155 575.585 399.037 574.541C395.469 570.968 391.136 567.906 386.294 565.865C384.296 565.087 382.25 564.406 380.156 563.885C377.505 563.24 374.776 562.853 371.971 562.853H371.461C366.364 562.853 361.266 563.874 356.934 565.915C352.091 567.956 347.759 570.763 344.19 574.336C340.622 577.908 337.564 582.246 335.78 587.095C333.996 591.688 332.721 596.791 332.721 601.894C332.721 607.253 333.741 612.101 335.78 616.694C337.819 621.543 340.622 625.881 344.19 629.453C347.759 633.025 352.091 636.087 356.934 637.874C358.848 638.619 360.852 639.276 362.907 639.788Z" stroke="white" stroke-width="1.6"/>
<path d="M56.1063 639.788C58.9119 640.473 61.8114 640.885 64.7108 640.885H181.949C188.436 640.885 194.825 641.672 200.932 643.185C204.735 644.115 208.429 645.327 211.972 646.805C221.657 650.887 230.068 656.501 237.459 663.901C244.595 671.046 250.457 679.722 254.535 689.418C258.358 698.605 260.397 708.812 260.397 719.273C260.397 729.736 258.358 739.942 254.535 749.129C250.457 758.57 244.85 767.246 237.459 774.646C230.323 781.791 221.657 787.66 211.972 791.743C204.071 795.06 195.406 797.356 186.231 797.867H179.604C176.404 797.782 173.287 797.503 170.235 797.038C170.231 797.042 170.228 797.047 170.225 797.051C169.795 796.979 169.364 796.904 168.933 796.827C167.267 796.543 165.62 796.203 163.987 795.808C160.808 795.059 157.676 794.12 154.666 792.92C153.886 792.625 153.109 792.317 152.334 791.998C142.904 787.915 134.238 782.301 126.847 774.901C119.711 767.756 113.849 759.081 109.771 749.384C105.948 740.198 103.909 729.99 103.909 719.529V680.743H142.954V719.478C142.954 724.837 143.974 729.94 146.013 734.278C147.464 737.729 149.303 740.921 151.528 743.763C152.478 744.932 153.509 746.043 154.627 747.087C158.196 750.66 162.528 753.722 167.371 755.763C169.368 756.54 171.414 757.221 173.507 757.742C176.159 758.388 178.888 758.775 181.694 758.775H182.204C187.301 758.775 192.398 757.754 196.731 755.713C201.573 753.671 205.906 750.864 209.474 747.292C213.043 743.72 216.101 739.382 217.885 734.533C219.669 729.94 220.943 724.837 220.943 719.734C220.943 714.375 219.924 709.527 217.885 704.933C215.846 700.085 213.043 695.747 209.474 692.175C205.906 688.602 201.573 685.541 196.731 683.754C194.817 683.009 192.814 682.352 190.759 681.84C187.953 681.155 185.052 680.743 182.153 680.743H64.9149C58.4279 680.743 52.04 679.956 45.9323 678.444C42.1294 677.513 38.4345 676.301 34.8915 674.823C25.2067 670.741 16.7962 665.127 9.40507 657.727C2.2689 650.582 -3.59303 641.906 -7.67089 632.21C-11.4939 623.023 -13.5328 612.816 -13.5328 602.354C-13.5328 591.892 -11.494 581.686 -7.67092 572.499C-3.59306 563.058 2.01398 554.382 9.40507 546.982C16.5414 539.837 25.2067 533.968 34.8915 529.885C42.7923 526.568 51.4578 524.272 60.6329 523.761H67.2594C70.46 523.846 73.5773 524.125 76.6293 524.59C76.6326 524.586 76.6357 524.581 76.6387 524.577C77.0703 524.65 77.5016 524.724 77.933 524.801C79.5979 525.085 81.2439 525.425 82.8742 525.819C86.0548 526.569 89.1872 527.507 92.1983 528.708C92.9778 529.003 93.7551 529.311 94.5302 529.63C103.96 533.713 112.626 539.327 120.017 546.727C127.153 553.872 133.015 562.547 137.092 572.244C140.916 581.43 142.954 591.637 142.954 602.099V640.885H103.909V602.15C103.909 596.791 102.89 591.688 100.851 587.35C99.3998 583.899 97.5612 580.706 95.3352 577.865C94.3852 576.695 93.3542 575.585 92.2362 574.541C88.6682 570.968 84.3353 567.906 79.4931 565.865C77.4953 565.087 75.4491 564.406 73.3547 563.885C70.7038 563.24 67.9752 562.853 65.1698 562.853H64.6601C59.5626 562.853 54.4654 563.874 50.1327 565.915C45.2902 567.956 40.9576 570.763 37.3894 574.336C33.8214 577.908 30.763 582.246 28.9789 587.095C27.1948 591.688 25.9205 596.791 25.9205 601.894C25.9205 607.253 26.94 612.101 28.9789 616.694C31.0178 621.543 33.8214 625.881 37.3894 629.453C40.9576 633.025 45.2902 636.087 50.1327 637.874C52.0473 638.619 54.0513 639.276 56.1063 639.788Z" stroke="white" stroke-width="1.6"/>
<path d="M650.959 486.289C648.153 486.974 645.254 487.386 642.355 487.386H525.117C518.629 487.386 512.241 488.173 506.133 489.686C502.33 490.616 498.636 491.828 495.093 493.306C485.408 497.388 476.998 503.002 469.607 510.402C462.47 517.547 456.608 526.223 452.531 535.919C448.708 545.106 446.669 555.313 446.669 565.775C446.669 576.237 448.708 586.443 452.531 595.63C456.608 605.071 462.215 613.747 469.607 621.147C476.743 628.292 485.408 634.161 495.093 638.244C502.994 641.561 511.659 643.857 520.835 644.368H527.461C530.662 644.283 533.779 644.004 536.831 643.539C536.834 643.543 536.837 643.548 536.84 643.552C537.271 643.48 537.701 643.406 538.132 643.328C539.799 643.044 541.446 642.704 543.078 642.309C546.258 641.56 549.39 640.621 552.4 639.421C553.179 639.126 553.956 638.818 554.732 638.499C564.162 634.416 572.827 628.802 580.218 621.402C587.354 614.257 593.216 605.582 597.294 595.885C601.117 586.699 603.156 576.492 603.156 566.03V527.244H564.111V565.98C564.111 571.338 563.091 576.441 561.052 580.779C559.601 584.23 557.763 587.422 555.537 590.264C554.587 591.433 553.556 592.544 552.438 593.588C548.87 597.161 544.537 600.223 539.695 602.264C537.698 603.041 535.652 603.722 533.558 604.244C530.906 604.889 528.178 605.276 525.371 605.276H524.862C519.764 605.276 514.667 604.255 510.334 602.214C505.492 600.173 501.159 597.366 497.591 593.793C494.023 590.221 490.964 585.883 489.18 581.034C487.397 576.441 486.122 571.338 486.122 566.235C486.122 560.876 487.142 556.028 489.18 551.435C491.219 546.586 494.023 542.248 497.591 538.676C501.159 535.104 505.492 532.042 510.334 530.255C512.249 529.51 514.252 528.853 516.307 528.341C519.112 527.656 522.013 527.244 524.912 527.244H642.151C648.638 527.244 655.025 526.457 661.133 524.945C664.936 524.014 668.631 522.802 672.174 521.324C681.859 517.242 690.269 511.628 697.66 504.228C704.796 497.083 710.658 488.407 714.736 478.711C718.559 469.524 720.598 459.317 720.598 448.856C720.598 438.393 718.559 428.187 714.736 419C710.658 409.559 705.051 400.883 697.66 393.483C690.524 386.338 681.859 380.469 672.174 376.386C664.273 373.069 655.608 370.773 646.432 370.262H639.806C636.605 370.347 633.488 370.626 630.436 371.091C630.433 371.087 630.43 371.082 630.427 371.078C629.995 371.151 629.564 371.225 629.132 371.302C627.468 371.587 625.822 371.927 624.191 372.32C621.011 373.07 617.878 374.008 614.867 375.209C614.088 375.504 613.31 375.812 612.535 376.131C603.105 380.214 594.44 385.828 587.049 393.228C579.913 400.373 574.051 409.049 569.973 418.745C566.15 427.931 564.111 438.138 564.111 448.6V487.386H603.156V448.651C603.156 443.292 604.176 438.189 606.215 433.851C607.666 430.4 609.504 427.207 611.73 424.366C612.68 423.197 613.711 422.086 614.829 421.042C618.397 417.469 622.73 414.407 627.572 412.366C629.57 411.588 631.616 410.907 633.711 410.386C636.362 409.741 639.09 409.354 641.896 409.354H642.405C647.503 409.354 652.6 410.375 656.933 412.416C661.775 414.458 666.108 417.265 669.676 420.837C673.244 424.409 676.302 428.747 678.087 433.596C679.871 438.189 681.145 443.292 681.145 448.395C681.145 453.754 680.125 458.602 678.087 463.195C676.048 468.044 673.244 472.382 669.676 475.954C666.108 479.527 661.775 482.588 656.933 484.375C655.018 485.12 653.014 485.777 650.959 486.289Z" stroke="white" stroke-width="1.6"/>
<path d="M957.76 486.289C954.955 486.974 952.055 487.386 949.156 487.386H831.918C825.431 487.386 819.042 488.173 812.934 489.686C809.131 490.616 805.437 491.828 801.894 493.306C792.209 497.388 783.799 503.002 776.408 510.402C769.271 517.547 763.41 526.223 759.332 535.919C755.509 545.106 753.47 555.313 753.47 565.775C753.47 576.237 755.509 586.443 759.332 595.63C763.409 605.071 769.017 613.747 776.408 621.147C783.544 628.292 792.209 634.161 801.894 638.244C809.795 641.561 818.46 643.857 827.635 644.368H834.262C837.463 644.283 840.58 644.004 843.632 643.539C843.635 643.543 843.638 643.548 843.641 643.552C844.072 643.48 844.503 643.406 844.933 643.328C846.6 643.044 848.247 642.704 849.879 642.309C853.059 641.56 856.191 640.621 859.201 639.421C859.98 639.126 860.758 638.818 861.533 638.499C870.963 634.416 879.628 628.802 887.019 621.402C894.155 614.257 900.017 605.582 904.095 595.885C907.918 586.699 909.957 576.492 909.957 566.03V527.244H870.912V565.98C870.912 571.338 869.892 576.441 867.854 580.779C866.402 584.23 864.564 587.422 862.338 590.264C861.388 591.433 860.357 592.544 859.239 593.588C855.671 597.161 851.338 600.223 846.496 602.264C844.499 603.041 842.453 603.722 840.359 604.244C837.707 604.889 834.979 605.276 832.172 605.276H831.663C826.565 605.276 821.468 604.255 817.135 602.214C812.293 600.173 807.96 597.366 804.392 593.793C800.824 590.221 797.765 585.883 795.981 581.034C794.197 576.441 792.923 571.338 792.923 566.235C792.923 560.876 793.943 556.028 795.981 551.435C798.02 546.586 800.824 542.248 804.392 538.676C807.96 535.104 812.293 532.042 817.135 530.255C819.05 529.51 821.053 528.853 823.108 528.341C825.913 527.656 828.814 527.244 831.714 527.244H948.952C955.439 527.244 961.827 526.457 967.934 524.945C971.737 524.014 975.432 522.802 978.975 521.324C988.66 517.242 997.07 511.628 1004.46 504.228C1011.6 497.083 1017.46 488.407 1021.54 478.711C1025.36 469.524 1027.4 459.317 1027.4 448.856C1027.4 438.393 1025.36 428.187 1021.54 419C1017.46 409.559 1011.85 400.883 1004.46 393.483C997.325 386.338 988.66 380.469 978.975 376.386C971.074 373.069 962.409 370.773 953.234 370.262H946.607C943.406 370.347 940.289 370.626 937.237 371.091C937.234 371.087 937.231 371.082 937.228 371.078C936.796 371.151 936.365 371.225 935.933 371.302C934.268 371.587 932.623 371.927 930.992 372.32C927.812 373.07 924.679 374.008 921.668 375.209C920.889 375.504 920.111 375.812 919.336 376.131C909.907 380.214 901.241 385.828 893.85 393.228C886.714 400.373 880.852 409.049 876.774 418.745C872.951 427.931 870.912 438.138 870.912 448.6V487.386H909.957V448.651C909.957 443.292 910.977 438.189 913.016 433.851C914.467 430.4 916.305 427.207 918.531 424.366C919.481 423.197 920.512 422.086 921.63 421.042C925.198 417.469 929.531 414.407 934.373 412.366C936.371 411.588 938.417 410.907 940.512 410.386C943.163 409.741 945.891 409.354 948.697 409.354H949.206C954.304 409.354 959.401 410.375 963.734 412.416C968.576 414.458 972.909 417.265 976.477 420.837C980.045 424.409 983.104 428.747 984.888 433.596C986.672 438.189 987.946 443.292 987.946 448.395C987.946 453.754 986.927 458.602 984.888 463.195C982.849 468.044 980.045 472.382 976.477 475.954C972.909 479.527 968.576 482.588 963.734 484.375C961.819 485.12 959.815 485.777 957.76 486.289Z" stroke="white" stroke-width="1.6"/>
<path d="M976.509 639.788C979.315 640.473 982.215 640.885 985.114 640.885H1102.35C1108.84 640.885 1115.23 641.672 1121.34 643.185C1125.14 644.115 1128.83 645.327 1132.38 646.805C1142.06 650.887 1150.47 656.501 1157.86 663.901C1165 671.046 1170.86 679.722 1174.94 689.418C1178.76 698.605 1180.8 708.812 1180.8 719.273C1180.8 729.736 1178.76 739.942 1174.94 749.129C1170.86 758.57 1165.25 767.246 1157.86 774.646C1150.73 781.791 1142.06 787.66 1132.38 791.743C1124.47 795.06 1115.81 797.356 1106.63 797.867H1100.01C1096.81 797.782 1093.69 797.503 1090.64 797.038C1090.63 797.042 1090.63 797.047 1090.63 797.051C1090.2 796.979 1089.77 796.904 1089.34 796.827C1087.67 796.543 1086.02 796.203 1084.39 795.808C1081.21 795.059 1078.08 794.12 1075.07 792.92C1074.29 792.625 1073.51 792.317 1072.74 791.998C1063.31 787.915 1054.64 782.301 1047.25 774.901C1040.11 767.756 1034.25 759.081 1030.17 749.384C1026.35 740.198 1024.31 729.99 1024.31 719.529V680.743H1063.36V719.478C1063.36 724.837 1064.38 729.94 1066.42 734.278C1067.87 737.729 1069.71 740.921 1071.93 743.763C1072.88 744.932 1073.91 746.043 1075.03 747.087C1078.6 750.66 1082.93 753.722 1087.77 755.763C1089.77 756.54 1091.82 757.221 1093.91 757.742C1096.56 758.388 1099.29 758.775 1102.1 758.775H1102.61C1107.7 758.775 1112.8 757.754 1117.13 755.713C1121.98 753.671 1126.31 750.864 1129.88 747.292C1133.45 743.72 1136.5 739.382 1138.29 734.533C1140.07 729.94 1141.35 724.837 1141.35 719.734C1141.35 714.375 1140.33 709.527 1138.29 704.933C1136.25 700.085 1133.45 695.747 1129.88 692.175C1126.31 688.602 1121.98 685.541 1117.13 683.754C1115.22 683.009 1113.22 682.352 1111.16 681.84C1108.36 681.155 1105.46 680.743 1102.56 680.743H985.318C978.831 680.743 972.443 679.956 966.335 678.444C962.532 677.513 958.838 676.301 955.295 674.823C945.61 670.741 937.199 665.127 929.808 657.727C922.672 650.582 916.81 641.906 912.732 632.21C908.909 623.023 906.87 612.816 906.87 602.354C906.87 591.892 908.909 581.686 912.732 572.499C916.81 563.058 922.417 554.382 929.808 546.982C936.944 539.837 945.61 533.968 955.295 529.885C963.196 526.568 971.861 524.272 981.036 523.761H987.663C990.863 523.846 993.98 524.125 997.032 524.59C997.036 524.586 997.039 524.581 997.042 524.577C997.473 524.65 997.905 524.724 998.336 524.801C1000 525.085 1001.65 525.425 1003.28 525.819C1006.46 526.569 1009.59 527.507 1012.6 528.708C1013.38 529.003 1014.16 529.311 1014.93 529.63C1024.36 533.713 1033.03 539.327 1040.42 546.727C1047.56 553.872 1053.42 562.547 1057.5 572.244C1061.32 581.43 1063.36 591.637 1063.36 602.099V640.885H1024.31V602.15C1024.31 596.791 1023.29 591.688 1021.25 587.35C1019.8 583.899 1017.96 580.706 1015.74 577.865C1014.79 576.695 1013.76 575.585 1012.64 574.541C1009.07 570.968 1004.74 567.906 999.896 565.865C997.898 565.087 995.852 564.406 993.758 563.885C991.107 563.24 988.378 562.853 985.573 562.853H985.063C979.966 562.853 974.869 563.874 970.536 565.915C965.693 567.956 961.361 570.763 957.792 574.336C954.224 577.908 951.166 582.246 949.382 587.095C947.598 591.688 946.324 596.791 946.324 601.894C946.324 607.253 947.343 612.101 949.382 616.694C951.421 621.543 954.224 625.881 957.792 629.453C961.361 633.025 965.693 636.087 970.536 637.874C972.45 638.619 974.454 639.276 976.509 639.788Z" stroke="white" stroke-width="1.6"/>
<path d="M669.708 639.788C672.514 640.473 675.414 640.885 678.313 640.885H795.551C802.038 640.885 808.427 641.672 814.534 643.185C818.337 644.115 822.031 645.327 825.574 646.805C835.259 650.887 843.67 656.501 851.061 663.901C858.197 671.046 864.059 679.722 868.137 689.418C871.96 698.605 873.999 708.812 873.999 719.273C873.999 729.736 871.96 739.942 868.137 749.129C864.059 758.57 858.452 767.246 851.061 774.646C843.925 781.791 835.259 787.66 825.574 791.743C817.673 795.06 809.008 797.356 799.833 797.867H793.207C790.006 797.782 786.889 797.503 783.837 797.038C783.833 797.042 783.83 797.047 783.827 797.051C783.397 796.979 782.966 796.904 782.535 796.827C780.869 796.543 779.222 796.203 777.59 795.808C774.41 795.059 771.278 794.12 768.268 792.92C767.488 792.625 766.711 792.317 765.936 791.998C756.506 787.915 747.84 782.301 740.449 774.901C733.313 767.756 727.451 759.081 723.373 749.384C719.55 740.198 717.512 729.99 717.512 719.529V680.743H756.557V719.478C756.557 724.837 757.576 729.94 759.615 734.278C761.066 737.729 762.905 740.921 765.13 743.763C766.08 744.932 767.112 746.043 768.23 747.087C771.798 750.66 776.131 753.722 780.973 755.763C782.97 756.54 785.016 757.221 787.109 757.742C789.761 758.388 792.49 758.775 795.296 758.775H795.806C800.903 758.775 806 757.754 810.333 755.713C815.176 753.671 819.508 750.864 823.076 747.292C826.644 743.72 829.703 739.382 831.487 734.533C833.271 729.94 834.545 724.837 834.545 719.734C834.545 714.375 833.526 709.527 831.487 704.933C829.448 700.085 826.644 695.747 823.076 692.175C819.508 688.602 815.176 685.541 810.333 683.754C808.419 683.009 806.416 682.352 804.361 681.84C801.555 681.155 798.655 680.743 795.755 680.743H678.517C672.03 680.743 665.642 679.956 659.534 678.444C655.731 677.513 652.037 676.301 648.494 674.823C638.809 670.741 630.398 665.127 623.007 657.727C615.871 650.582 610.009 641.906 605.931 632.21C602.108 623.023 600.069 612.816 600.069 602.354C600.069 591.892 602.108 581.686 605.931 572.499C610.009 563.058 615.616 554.382 623.007 546.982C630.143 539.837 638.809 533.968 648.494 529.885C656.394 526.568 665.06 524.272 674.235 523.761H680.862C684.062 523.846 687.179 524.125 690.231 524.59C690.235 524.586 690.238 524.581 690.241 524.577C690.672 524.65 691.104 524.724 691.535 524.801C693.2 525.085 694.846 525.425 696.476 525.819C699.657 526.569 702.789 527.507 705.8 528.708C706.58 529.003 707.357 529.311 708.132 529.63C717.562 533.713 726.228 539.327 733.619 546.727C740.755 553.872 746.617 562.547 750.695 572.244C754.518 581.43 756.557 591.637 756.557 602.099V640.885H717.512V602.15C717.512 596.791 716.492 591.688 714.453 587.35C713.002 583.899 711.163 580.706 708.937 577.865C707.987 576.695 706.956 575.585 705.838 574.541C702.27 570.968 697.937 567.906 693.095 565.865C691.097 565.087 689.051 564.406 686.957 563.885C684.306 563.24 681.577 562.853 678.772 562.853H678.262C673.165 562.853 668.067 563.874 663.735 565.915C658.892 567.956 654.56 570.763 650.992 574.336C647.423 577.908 644.365 582.246 642.581 587.095C640.797 591.688 639.523 596.791 639.523 601.894C639.523 607.253 640.542 612.101 642.581 616.694C644.62 621.543 647.423 625.881 650.992 629.453C654.56 633.025 658.892 636.087 663.735 637.874C665.649 638.619 667.653 639.276 669.708 639.788Z" stroke="white" stroke-width="1.6"/>
</g>
</g>
<defs>
<clipPath id="clip0_651_701">
<rect width="640" height="360" fill="white"/>
</clipPath>
</defs>
</svg>
