<svg width="228" height="228" viewBox="0 0 228 228" fill="none" xmlns="http://www.w3.org/2000/svg">
<g clip-path="url(#clip0_4_10)">
<mask id="path-1-inside-1_4_10" fill="white">
<path d="M57 -85C41.6174 -85 26.8649 -78.8893 15.9878 -68.0122C5.11068 -57.1351 -1 -42.3825 -1 -27V-0.999992H-27C-42.3826 -0.999992 -57.1351 5.11069 -68.0122 15.9878C-78.8893 26.8649 -85 41.6174 -85 57C-85 64.6167 -83.4997 72.1588 -80.585 79.1956C-77.6702 86.2325 -73.398 92.6264 -68.0122 98.0122C-62.6264 103.398 -56.2324 107.67 -49.1956 110.585C-42.1587 113.5 -34.6167 115 -27 115C-11.6174 115 3.1351 108.889 14.0122 98.0122C24.8893 87.1351 31 72.3826 31 57V31H57C72.3826 31 87.1351 24.8893 98.0122 14.0122C108.889 3.13509 115 -11.6174 115 -27C115 -34.6167 113.5 -42.1588 110.585 -49.1956C107.67 -56.2325 103.398 -62.6264 98.0122 -68.0122C92.6264 -73.398 86.2326 -77.6702 79.1957 -80.585C72.1588 -83.4998 64.6167 -85 57 -85ZM-1 57C-1 63.8956 -3.73929 70.5088 -8.61523 75.3848C-13.4912 80.2607 -20.1044 83 -27 83C-33.8956 83 -40.5088 80.2607 -45.3848 75.3848C-50.2607 70.5088 -53 63.8956 -53 57C-53 50.1044 -50.2607 43.4912 -45.3848 38.6152C-40.5088 33.7393 -33.8956 31 -27 31H-1V57ZM57 -0.999992H31V-27C31 -33.8956 33.7393 -40.5088 38.6152 -45.3848C43.4912 -50.2607 50.1044 -53 57 -53C63.8956 -53 70.5088 -50.2607 75.3848 -45.3848C80.2607 -40.5088 83 -33.8956 83 -27C83 -20.1044 80.2607 -13.4912 75.3848 -8.61523C70.5088 -3.73928 63.8956 -0.999992 57 -0.999992Z"/>
</mask>
<path d="M36.5596 -1H-10.1104V0H36.5596V-1ZM-9.70996 31H38.09V30H-9.70996V31ZM57 -85V-86V-85ZM-1 -0.999992V7.62939e-06H0V-0.999992H-1ZM-27 -0.999992V-1.99999V-0.999992ZM-27 115V116V115ZM31 31V30H30V31H31ZM57 31V30V31ZM-1 57H-2H-1ZM-1 31H0V30H-1V31ZM31 -0.999992H30V7.62939e-06H31V-0.999992ZM57 -86C41.3522 -86 26.3453 -79.784 15.2807 -68.7193L16.6949 -67.3051C27.3845 -77.9947 41.8827 -84 57 -84V-86ZM15.2807 -68.7193C4.21604 -57.6547 -2 -42.6478 -2 -27H0C0 -42.1173 6.00533 -56.6155 16.6949 -67.3051L15.2807 -68.7193ZM-2 -27V-0.999992H0V-27H-2ZM-1 -1.99999H-27V7.62939e-06H-1V-1.99999ZM-27 -1.99999C-42.6478 -1.99999 -57.6547 4.21605 -68.7193 15.2807L-67.3051 16.6949C-56.6155 6.00533 -42.1173 7.62939e-06 -27 7.62939e-06V-1.99999ZM-68.7193 15.2807C-79.784 26.3453 -86 41.3522 -86 57H-84C-84 41.8827 -77.9947 27.3845 -67.3051 16.6949L-68.7193 15.2807ZM-86 57C-86 64.748 -84.4739 72.4201 -81.5088 79.5783L-79.6611 78.813C-82.5256 71.8974 -84 64.4853 -84 57H-86ZM-81.5088 79.5783C-78.5438 86.7365 -74.198 93.2406 -68.7193 98.7193L-67.3051 97.3051C-72.598 92.0121 -76.7966 85.7285 -79.6611 78.813L-81.5088 79.5783ZM-68.7193 98.7193C-63.2407 104.198 -56.7364 108.544 -49.5782 111.509L-48.8129 109.661C-55.7284 106.797 -62.0122 102.598 -67.3051 97.3051L-68.7193 98.7193ZM-49.5782 111.509C-42.42 114.474 -34.748 116 -27 116V114C-34.4853 114 -41.8973 112.526 -48.8129 109.661L-49.5782 111.509ZM-27 116C-11.3522 116 3.65467 109.784 14.7193 98.7193L13.3051 97.3051C2.61552 107.995 -11.8827 114 -27 114V116ZM14.7193 98.7193C25.784 87.6546 32 72.6478 32 57H30C30 72.1173 23.9947 86.6155 13.3051 97.3051L14.7193 98.7193ZM32 57V31H30V57H32ZM31 32H57V30H31V32ZM57 32C72.6478 32 87.6547 25.784 98.7193 14.7193L97.3051 13.3051C86.6155 23.9947 72.1173 30 57 30V32ZM98.7193 14.7193C109.784 3.65466 116 -11.3522 116 -27H114C114 -11.8827 107.995 2.61552 97.3051 13.3051L98.7193 14.7193ZM116 -27C116 -34.748 114.474 -42.4201 111.509 -49.5783L109.661 -48.813C112.526 -41.8974 114 -34.4853 114 -27H116ZM111.509 -49.5783C108.544 -56.7365 104.198 -63.2406 98.7193 -68.7193L97.3051 -67.3051C102.598 -62.0122 106.797 -55.7285 109.661 -48.813L111.509 -49.5783ZM98.7193 -68.7193C93.2407 -74.198 86.7366 -78.5439 79.5784 -81.5089L78.813 -79.6611C85.7285 -76.7966 92.0122 -72.598 97.3051 -67.3051L98.7193 -68.7193ZM79.5784 -81.5089C72.4202 -84.4739 64.748 -86 57 -86V-84C64.4854 -84 71.8974 -82.5257 78.813 -79.6611L79.5784 -81.5089ZM-2 57C-2 63.6304 -4.63393 69.9892 -9.32234 74.6777L-7.90813 76.0919C-2.84464 71.0284 0 64.1608 0 57H-2ZM-9.32234 74.6777C-14.0107 79.3661 -20.3696 82 -27 82V84C-19.8391 84 -12.9716 81.1553 -7.90813 76.0919L-9.32234 74.6777ZM-27 82C-33.6304 82 -39.9892 79.3661 -44.6777 74.6777L-46.0919 76.0919C-41.0284 81.1553 -34.1608 84 -27 84V82ZM-44.6777 74.6777C-49.3661 69.9892 -52 63.6304 -52 57H-54C-54 64.1608 -51.1554 71.0284 -46.0919 76.0919L-44.6777 74.6777ZM-52 57C-52 50.3696 -49.3661 44.0107 -44.6777 39.3223L-46.0919 37.9081C-51.1554 42.9716 -54 49.8392 -54 57H-52ZM-44.6777 39.3223C-39.9893 34.6339 -33.6304 32 -27 32V30C-34.1608 30 -41.0284 32.8446 -46.0919 37.9081L-44.6777 39.3223ZM-27 32H-1V30H-27V32ZM-2 31V57H0V31H-2ZM57 -1.99999H31V7.62939e-06H57V-1.99999ZM32 -0.999992V-27H30V-0.999992H32ZM32 -27C32 -33.6304 34.6339 -39.9893 39.3223 -44.6777L37.9081 -46.0919C32.8446 -41.0284 30 -34.1608 30 -27H32ZM39.3223 -44.6777C44.0108 -49.3661 50.3696 -52 57 -52V-54C49.8392 -54 42.9716 -51.1554 37.9081 -46.0919L39.3223 -44.6777ZM57 -52C63.6304 -52 69.9892 -49.3661 74.6777 -44.6777L76.0919 -46.0919C71.0284 -51.1554 64.1608 -54 57 -54V-52ZM74.6777 -44.6777C79.3661 -39.9893 82 -33.6304 82 -27H84C84 -34.1608 81.1553 -41.0284 76.0919 -46.0919L74.6777 -44.6777ZM82 -27C82 -20.3696 79.3661 -14.0107 74.6777 -9.32233L76.0919 -7.90812C81.1553 -12.9716 84 -19.8391 84 -27H82ZM74.6777 -9.32233C69.9892 -4.63393 63.6304 -1.99999 57 -1.99999V7.62939e-06C64.1608 7.62939e-06 71.0284 -2.84464 76.0919 -7.90812L74.6777 -9.32233Z" fill="#17171CA6" mask="url(#path-1-inside-1_4_10)"/>
<mask id="path-3-inside-2_4_10" fill="white">
<path d="M57 143C41.6174 143 26.8649 149.111 15.9878 159.988C5.11068 170.865 -1 185.617 -1 201V227H-27C-42.3826 227 -57.1351 233.111 -68.0122 243.988C-78.8893 254.865 -85 269.617 -85 285C-85 292.617 -83.4997 300.159 -80.585 307.196C-77.6702 314.233 -73.398 320.626 -68.0122 326.012C-62.6264 331.398 -56.2324 335.67 -49.1956 338.585C-42.1587 341.5 -34.6167 343 -27 343C-11.6174 343 3.1351 336.889 14.0122 326.012C24.8893 315.135 31 300.383 31 285V259H57C72.3826 259 87.1351 252.889 98.0122 242.012C108.889 231.135 115 216.383 115 201C115 193.383 113.5 185.841 110.585 178.804C107.67 171.767 103.398 165.374 98.0122 159.988C92.6264 154.602 86.2326 150.33 79.1957 147.415C72.1588 144.5 64.6167 143 57 143ZM-1 285C-1 291.896 -3.73929 298.509 -8.61523 303.385C-13.4912 308.261 -20.1044 311 -27 311C-33.8956 311 -40.5088 308.261 -45.3848 303.385C-50.2607 298.509 -53 291.896 -53 285C-53 278.104 -50.2607 271.491 -45.3848 266.615C-40.5088 261.739 -33.8956 259 -27 259H-1V285ZM57 227H31V201C31 194.104 33.7393 187.491 38.6152 182.615C43.4912 177.739 50.1044 175 57 175C63.8956 175 70.5088 177.739 75.3848 182.615C80.2607 187.491 83 194.104 83 201C83 207.896 80.2607 214.509 75.3848 219.385C70.5088 224.261 63.8956 227 57 227Z"/>
</mask>
<path d="M36.5596 227H-10.1104V228H36.5596V227ZM-9.70996 259H38.09V258H-9.70996V259ZM57 143V142V143ZM-1 227V228H0V227H-1ZM-27 227V226V227ZM-27 343V344V343ZM31 259V258H30V259H31ZM57 259V258V259ZM-1 285H-2H-1ZM-1 259H0V258H-1V259ZM31 227H30V228H31V227ZM57 142C41.3522 142 26.3453 148.216 15.2807 159.281L16.6949 160.695C27.3845 150.005 41.8827 144 57 144V142ZM15.2807 159.281C4.21604 170.345 -2 185.352 -2 201H0C0 185.883 6.00533 171.384 16.6949 160.695L15.2807 159.281ZM-2 201V227H0V201H-2ZM-1 226H-27V228H-1V226ZM-27 226C-42.6478 226 -57.6547 232.216 -68.7193 243.281L-67.3051 244.695C-56.6155 234.005 -42.1173 228 -27 228V226ZM-68.7193 243.281C-79.784 254.345 -86 269.352 -86 285H-84C-84 269.883 -77.9947 255.384 -67.3051 244.695L-68.7193 243.281ZM-86 285C-86 292.748 -84.4739 300.42 -81.5088 307.578L-79.6611 306.813C-82.5256 299.897 -84 292.485 -84 285H-86ZM-81.5088 307.578C-78.5438 314.737 -74.198 321.241 -68.7193 326.719L-67.3051 325.305C-72.598 320.012 -76.7966 313.729 -79.6611 306.813L-81.5088 307.578ZM-68.7193 326.719C-63.2407 332.198 -56.7364 336.544 -49.5782 339.509L-48.8129 337.661C-55.7284 334.797 -62.0122 330.598 -67.3051 325.305L-68.7193 326.719ZM-49.5782 339.509C-42.42 342.474 -34.748 344 -27 344V342C-34.4853 342 -41.8973 340.526 -48.8129 337.661L-49.5782 339.509ZM-27 344C-11.3522 344 3.65467 337.784 14.7193 326.719L13.3051 325.305C2.61552 335.995 -11.8827 342 -27 342V344ZM14.7193 326.719C25.784 315.655 32 300.648 32 285H30C30 300.117 23.9947 314.615 13.3051 325.305L14.7193 326.719ZM32 285V259H30V285H32ZM31 260H57V258H31V260ZM57 260C72.6478 260 87.6547 253.784 98.7193 242.719L97.3051 241.305C86.6155 251.995 72.1173 258 57 258V260ZM98.7193 242.719C109.784 231.655 116 216.648 116 201H114C114 216.117 107.995 230.616 97.3051 241.305L98.7193 242.719ZM116 201C116 193.252 114.474 185.58 111.509 178.422L109.661 179.187C112.526 186.103 114 193.515 114 201H116ZM111.509 178.422C108.544 171.263 104.198 164.759 98.7193 159.281L97.3051 160.695C102.598 165.988 106.797 172.271 109.661 179.187L111.509 178.422ZM98.7193 159.281C93.2407 153.802 86.7366 149.456 79.5784 146.491L78.813 148.339C85.7285 151.203 92.0122 155.402 97.3051 160.695L98.7193 159.281ZM79.5784 146.491C72.4202 143.526 64.748 142 57 142V144C64.4854 144 71.8974 145.474 78.813 148.339L79.5784 146.491ZM-2 285C-2 291.63 -4.63393 297.989 -9.32234 302.678L-7.90813 304.092C-2.84464 299.028 0 292.161 0 285H-2ZM-9.32234 302.678C-14.0107 307.366 -20.3696 310 -27 310V312C-19.8391 312 -12.9716 309.155 -7.90813 304.092L-9.32234 302.678ZM-27 310C-33.6304 310 -39.9892 307.366 -44.6777 302.678L-46.0919 304.092C-41.0284 309.155 -34.1608 312 -27 312V310ZM-44.6777 302.678C-49.3661 297.989 -52 291.63 -52 285H-54C-54 292.161 -51.1554 299.028 -46.0919 304.092L-44.6777 302.678ZM-52 285C-52 278.37 -49.3661 272.011 -44.6777 267.322L-46.0919 265.908C-51.1554 270.972 -54 277.839 -54 285H-52ZM-44.6777 267.322C-39.9893 262.634 -33.6304 260 -27 260V258C-34.1608 258 -41.0284 260.845 -46.0919 265.908L-44.6777 267.322ZM-27 260H-1V258H-27V260ZM-2 259V285H0V259H-2ZM57 226H31V228H57V226ZM32 227V201H30V227H32ZM32 201C32 194.37 34.6339 188.011 39.3223 183.322L37.9081 181.908C32.8446 186.972 30 193.839 30 201H32ZM39.3223 183.322C44.0108 178.634 50.3696 176 57 176V174C49.8392 174 42.9716 176.845 37.9081 181.908L39.3223 183.322ZM57 176C63.6304 176 69.9892 178.634 74.6777 183.322L76.0919 181.908C71.0284 176.845 64.1608 174 57 174V176ZM74.6777 183.322C79.3661 188.011 82 194.37 82 201H84C84 193.839 81.1553 186.972 76.0919 181.908L74.6777 183.322ZM82 201C82 207.63 79.3661 213.989 74.6777 218.678L76.0919 220.092C81.1553 215.028 84 208.161 84 201H82ZM74.6777 218.678C69.9892 223.366 63.6304 226 57 226V228C64.1608 228 71.0284 225.155 76.0919 220.092L74.6777 218.678Z" fill="#17171CA6" mask="url(#path-3-inside-2_4_10)"/>
<mask id="path-5-inside-3_4_10" fill="white">
<path d="M285 -85C269.617 -85 254.865 -78.8893 243.988 -68.0122C233.111 -57.1351 227 -42.3825 227 -27V-0.999992H201C185.617 -0.999992 170.865 5.11069 159.988 15.9878C149.111 26.8649 143 41.6174 143 57C143 64.6167 144.5 72.1588 147.415 79.1956C150.33 86.2325 154.602 92.6264 159.988 98.0122C165.374 103.398 171.768 107.67 178.804 110.585C185.841 113.5 193.383 115 201 115C216.383 115 231.135 108.889 242.012 98.0122C252.889 87.1351 259 72.3826 259 57V31H285C300.383 31 315.135 24.8893 326.012 14.0122C336.889 3.13509 343 -11.6174 343 -27C343 -34.6167 341.5 -42.1588 338.585 -49.1956C335.67 -56.2325 331.398 -62.6264 326.012 -68.0122C320.626 -73.398 314.233 -77.6702 307.196 -80.585C300.159 -83.4998 292.617 -85 285 -85ZM227 57C227 63.8956 224.261 70.5088 219.385 75.3848C214.509 80.2607 207.896 83 201 83C194.104 83 187.491 80.2607 182.615 75.3848C177.739 70.5088 175 63.8956 175 57C175 50.1044 177.739 43.4912 182.615 38.6152C187.491 33.7393 194.104 31 201 31H227V57ZM285 -0.999992H259V-27C259 -33.8956 261.739 -40.5088 266.615 -45.3848C271.491 -50.2607 278.104 -53 285 -53C291.896 -53 298.509 -50.2607 303.385 -45.3848C308.261 -40.5088 311 -33.8956 311 -27C311 -20.1044 308.261 -13.4912 303.385 -8.61523C298.509 -3.73928 291.896 -0.999992 285 -0.999992Z"/>
</mask>
<path d="M264.56 -1H217.89V0H264.56V-1ZM218.29 31H266.09V30H218.29V31ZM285 -85V-86V-85ZM227 -0.999992V7.62939e-06H228V-0.999992H227ZM201 -0.999992V-1.99999V-0.999992ZM201 115V116V115ZM259 31V30H258V31H259ZM285 31V30V31ZM227 57H226H227ZM227 31H228V30H227V31ZM259 -0.999992H258V7.62939e-06H259V-0.999992ZM285 -86C269.352 -86 254.345 -79.784 243.281 -68.7193L244.695 -67.3051C255.384 -77.9947 269.883 -84 285 -84V-86ZM243.281 -68.7193C232.216 -57.6547 226 -42.6478 226 -27H228C228 -42.1173 234.005 -56.6155 244.695 -67.3051L243.281 -68.7193ZM226 -27V-0.999992H228V-27H226ZM227 -1.99999H201V7.62939e-06H227V-1.99999ZM201 -1.99999C185.352 -1.99999 170.345 4.21605 159.281 15.2807L160.695 16.6949C171.384 6.00533 185.883 7.62939e-06 201 7.62939e-06V-1.99999ZM159.281 15.2807C148.216 26.3453 142 41.3522 142 57H144C144 41.8827 150.005 27.3845 160.695 16.6949L159.281 15.2807ZM142 57C142 64.748 143.526 72.4201 146.491 79.5783L148.339 78.813C145.474 71.8974 144 64.4853 144 57H142ZM146.491 79.5783C149.456 86.7365 153.802 93.2406 159.281 98.7193L160.695 97.3051C155.402 92.0121 151.203 85.7285 148.339 78.813L146.491 79.5783ZM159.281 98.7193C164.759 104.198 171.264 108.544 178.422 111.509L179.187 109.661C172.272 106.797 165.988 102.598 160.695 97.3051L159.281 98.7193ZM178.422 111.509C185.58 114.474 193.252 116 201 116V114C193.515 114 186.103 112.526 179.187 109.661L178.422 111.509ZM201 116C216.648 116 231.655 109.784 242.719 98.7193L241.305 97.3051C230.616 107.995 216.117 114 201 114V116ZM242.719 98.7193C253.784 87.6546 260 72.6478 260 57H258C258 72.1173 251.995 86.6155 241.305 97.3051L242.719 98.7193ZM260 57V31H258V57H260ZM259 32H285V30H259V32ZM285 32C300.648 32 315.655 25.784 326.719 14.7193L325.305 13.3051C314.616 23.9947 300.117 30 285 30V32ZM326.719 14.7193C337.784 3.65466 344 -11.3522 344 -27H342C342 -11.8827 335.995 2.61552 325.305 13.3051L326.719 14.7193ZM344 -27C344 -34.748 342.474 -42.4201 339.509 -49.5783L337.661 -48.813C340.526 -41.8974 342 -34.4853 342 -27H344ZM339.509 -49.5783C336.544 -56.7365 332.198 -63.2406 326.719 -68.7193L325.305 -67.3051C330.598 -62.0122 334.797 -55.7285 337.661 -48.813L339.509 -49.5783ZM326.719 -68.7193C321.241 -74.198 314.737 -78.5439 307.578 -81.5089L306.813 -79.6611C313.729 -76.7966 320.012 -72.598 325.305 -67.3051L326.719 -68.7193ZM307.578 -81.5089C300.42 -84.4739 292.748 -86 285 -86V-84C292.485 -84 299.897 -82.5257 306.813 -79.6611L307.578 -81.5089ZM226 57C226 63.6304 223.366 69.9892 218.678 74.6777L220.092 76.0919C225.155 71.0284 228 64.1608 228 57H226ZM218.678 74.6777C213.989 79.3661 207.63 82 201 82V84C208.161 84 215.028 81.1553 220.092 76.0919L218.678 74.6777ZM201 82C194.37 82 188.011 79.3661 183.322 74.6777L181.908 76.0919C186.972 81.1553 193.839 84 201 84V82ZM183.322 74.6777C178.634 69.9892 176 63.6304 176 57H174C174 64.1608 176.845 71.0284 181.908 76.0919L183.322 74.6777ZM176 57C176 50.3696 178.634 44.0107 183.322 39.3223L181.908 37.9081C176.845 42.9716 174 49.8392 174 57H176ZM183.322 39.3223C188.011 34.6339 194.37 32 201 32V30C193.839 30 186.972 32.8446 181.908 37.9081L183.322 39.3223ZM201 32H227V30H201V32ZM226 31V57H228V31H226ZM285 -1.99999H259V7.62939e-06H285V-1.99999ZM260 -0.999992V-27H258V-0.999992H260ZM260 -27C260 -33.6304 262.634 -39.9893 267.322 -44.6777L265.908 -46.0919C260.845 -41.0284 258 -34.1608 258 -27H260ZM267.322 -44.6777C272.011 -49.3661 278.37 -52 285 -52V-54C277.839 -54 270.972 -51.1554 265.908 -46.0919L267.322 -44.6777ZM285 -52C291.63 -52 297.989 -49.3661 302.678 -44.6777L304.092 -46.0919C299.028 -51.1554 292.161 -54 285 -54V-52ZM302.678 -44.6777C307.366 -39.9893 310 -33.6304 310 -27H312C312 -34.1608 309.155 -41.0284 304.092 -46.0919L302.678 -44.6777ZM310 -27C310 -20.3696 307.366 -14.0107 302.678 -9.32233L304.092 -7.90812C309.155 -12.9716 312 -19.8391 312 -27H310ZM302.678 -9.32233C297.989 -4.63393 291.63 -1.99999 285 -1.99999V7.62939e-06C292.161 7.62939e-06 299.028 -2.84464 304.092 -7.90812L302.678 -9.32233Z" fill="#17171CA6" mask="url(#path-5-inside-3_4_10)"/>
<mask id="path-7-inside-4_4_10" fill="white">
<path d="M285 143C269.617 143 254.865 149.111 243.988 159.988C233.111 170.865 227 185.617 227 201V227H201C185.617 227 170.865 233.111 159.988 243.988C149.111 254.865 143 269.617 143 285C143 292.617 144.5 300.159 147.415 307.196C150.33 314.233 154.602 320.626 159.988 326.012C165.374 331.398 171.768 335.67 178.804 338.585C185.841 341.5 193.383 343 201 343C216.383 343 231.135 336.889 242.012 326.012C252.889 315.135 259 300.383 259 285V259H285C300.383 259 315.135 252.889 326.012 242.012C336.889 231.135 343 216.383 343 201C343 193.383 341.5 185.841 338.585 178.804C335.67 171.767 331.398 165.374 326.012 159.988C320.626 154.602 314.233 150.33 307.196 147.415C300.159 144.5 292.617 143 285 143ZM227 285C227 291.896 224.261 298.509 219.385 303.385C214.509 308.261 207.896 311 201 311C194.104 311 187.491 308.261 182.615 303.385C177.739 298.509 175 291.896 175 285C175 278.104 177.739 271.491 182.615 266.615C187.491 261.739 194.104 259 201 259H227V285ZM285 227H259V201C259 194.104 261.739 187.491 266.615 182.615C271.491 177.739 278.104 175 285 175C291.896 175 298.509 177.739 303.385 182.615C308.261 187.491 311 194.104 311 201C311 207.896 308.261 214.509 303.385 219.385C298.509 224.261 291.896 227 285 227Z"/>
</mask>
<path d="M264.56 227H217.89V228H264.56V227ZM218.29 259H266.09V258H218.29V259ZM285 143V142V143ZM227 227V228H228V227H227ZM201 227V226V227ZM201 343V344V343ZM259 259V258H258V259H259ZM285 259V258V259ZM227 285H226H227ZM227 259H228V258H227V259ZM259 227H258V228H259V227ZM285 142C269.352 142 254.345 148.216 243.281 159.281L244.695 160.695C255.384 150.005 269.883 144 285 144V142ZM243.281 159.281C232.216 170.345 226 185.352 226 201H228C228 185.883 234.005 171.384 244.695 160.695L243.281 159.281ZM226 201V227H228V201H226ZM227 226H201V228H227V226ZM201 226C185.352 226 170.345 232.216 159.281 243.281L160.695 244.695C171.384 234.005 185.883 228 201 228V226ZM159.281 243.281C148.216 254.345 142 269.352 142 285H144C144 269.883 150.005 255.384 160.695 244.695L159.281 243.281ZM142 285C142 292.748 143.526 300.42 146.491 307.578L148.339 306.813C145.474 299.897 144 292.485 144 285H142ZM146.491 307.578C149.456 314.737 153.802 321.241 159.281 326.719L160.695 325.305C155.402 320.012 151.203 313.729 148.339 306.813L146.491 307.578ZM159.281 326.719C164.759 332.198 171.264 336.544 178.422 339.509L179.187 337.661C172.272 334.797 165.988 330.598 160.695 325.305L159.281 326.719ZM178.422 339.509C185.58 342.474 193.252 344 201 344V342C193.515 342 186.103 340.526 179.187 337.661L178.422 339.509ZM201 344C216.648 344 231.655 337.784 242.719 326.719L241.305 325.305C230.616 335.995 216.117 342 201 342V344ZM242.719 326.719C253.784 315.655 260 300.648 260 285H258C258 300.117 251.995 314.615 241.305 325.305L242.719 326.719ZM260 285V259H258V285H260ZM259 260H285V258H259V260ZM285 260C300.648 260 315.655 253.784 326.719 242.719L325.305 241.305C314.616 251.995 300.117 258 285 258V260ZM326.719 242.719C337.784 231.655 344 216.648 344 201H342C342 216.117 335.995 230.616 325.305 241.305L326.719 242.719ZM344 201C344 193.252 342.474 185.58 339.509 178.422L337.661 179.187C340.526 186.103 342 193.515 342 201H344ZM339.509 178.422C336.544 171.263 332.198 164.759 326.719 159.281L325.305 160.695C330.598 165.988 334.797 172.271 337.661 179.187L339.509 178.422ZM326.719 159.281C321.241 153.802 314.737 149.456 307.578 146.491L306.813 148.339C313.729 151.203 320.012 155.402 325.305 160.695L326.719 159.281ZM307.578 146.491C300.42 143.526 292.748 142 285 142V144C292.485 144 299.897 145.474 306.813 148.339L307.578 146.491ZM226 285C226 291.63 223.366 297.989 218.678 302.678L220.092 304.092C225.155 299.028 228 292.161 228 285H226ZM218.678 302.678C213.989 307.366 207.63 310 201 310V312C208.161 312 215.028 309.155 220.092 304.092L218.678 302.678ZM201 310C194.37 310 188.011 307.366 183.322 302.678L181.908 304.092C186.972 309.155 193.839 312 201 312V310ZM183.322 302.678C178.634 297.989 176 291.63 176 285H174C174 292.161 176.845 299.028 181.908 304.092L183.322 302.678ZM176 285C176 278.37 178.634 272.011 183.322 267.322L181.908 265.908C176.845 270.972 174 277.839 174 285H176ZM183.322 267.322C188.011 262.634 194.37 260 201 260V258C193.839 258 186.972 260.845 181.908 265.908L183.322 267.322ZM201 260H227V258H201V260ZM226 259V285H228V259H226ZM285 226H259V228H285V226ZM260 227V201H258V227H260ZM260 201C260 194.37 262.634 188.011 267.322 183.322L265.908 181.908C260.845 186.972 258 193.839 258 201H260ZM267.322 183.322C272.011 178.634 278.37 176 285 176V174C277.839 174 270.972 176.845 265.908 181.908L267.322 183.322ZM285 176C291.63 176 297.989 178.634 302.678 183.322L304.092 181.908C299.028 176.845 292.161 174 285 174V176ZM302.678 183.322C307.366 188.011 310 194.37 310 201H312C312 193.839 309.155 186.972 304.092 181.908L302.678 183.322ZM310 201C310 207.63 307.366 213.989 302.678 218.678L304.092 220.092C309.155 215.028 312 208.161 312 201H310ZM302.678 218.678C297.989 223.366 291.63 226 285 226V228C292.161 228 299.028 225.155 304.092 220.092L302.678 218.678Z" fill="#17171CA6" mask="url(#path-7-inside-4_4_10)"/>
<mask id="path-9-inside-5_4_10" fill="white">
<path d="M228 170C228 154.617 221.889 139.865 211.012 128.988C200.135 118.111 185.383 112 170 112L144 112L144 86C144 70.6174 137.889 55.8649 127.012 44.9878C116.135 34.1107 101.383 28 86 28C78.3833 28 70.8412 29.5003 63.8044 32.415C56.7675 35.3298 50.3736 39.602 44.9878 44.9878C39.602 50.3736 35.3297 56.7676 32.415 63.8044C29.5002 70.8413 28 78.3833 28 86C28 101.383 34.1107 116.135 44.9878 127.012C55.8649 137.889 70.6174 144 86 144L112 144L112 170C112 185.383 118.111 200.135 128.988 211.012C139.865 221.889 154.617 228 170 228C177.617 228 185.159 226.5 192.196 223.585C199.233 220.67 205.626 216.398 211.012 211.012C216.398 205.626 220.67 199.233 223.585 192.196C226.5 185.159 228 177.617 228 170ZM86 112C79.1044 112 72.4912 109.261 67.6152 104.385C62.7393 99.5088 60 92.8956 60 86C60 79.1044 62.7393 72.4912 67.6152 67.6152C72.4912 62.7393 79.1044 60 86 60C92.8956 60 99.5088 62.7393 104.385 67.6152C109.261 72.4912 112 79.1044 112 86L112 112L86 112ZM144 170L144 144L170 144C176.896 144 183.509 146.739 188.385 151.615C193.261 156.491 196 163.104 196 170C196 176.896 193.261 183.509 188.385 188.385C183.509 193.261 176.896 196 170 196C163.104 196 156.491 193.261 151.615 188.385C146.739 183.509 144 176.896 144 170Z"/>
</mask>
<path d="M144 149.56L144 102.89L143 102.89L143 149.56L144 149.56ZM112 103.29L112 151.09L113 151.09L113 103.29L112 103.29ZM228 170L229 170L228 170ZM144 112L143 112L143 113L144 113L144 112ZM144 86L145 86L144 86ZM28 86L27 86L28 86ZM112 144L113 144L113 143L112 143L112 144ZM112 170L113 170L112 170ZM86 112L86 111L86 112ZM112 112L112 113L113 113L113 112L112 112ZM144 144L144 143L143 143L143 144L144 144ZM229 170C229 154.352 222.784 139.345 211.719 128.281L210.305 129.695C220.995 140.384 227 154.883 227 170L229 170ZM211.719 128.281C200.655 117.216 185.648 111 170 111L170 113C185.117 113 199.616 119.005 210.305 129.695L211.719 128.281ZM170 111L144 111L144 113L170 113L170 111ZM145 112L145 86L143 86L143 112L145 112ZM145 86C145 70.3522 138.784 55.3453 127.719 44.2807L126.305 45.6949C136.995 56.3845 143 70.8827 143 86L145 86ZM127.719 44.2807C116.655 33.216 101.648 27 86 27L86 29C101.117 29 115.616 35.0053 126.305 45.6949L127.719 44.2807ZM86 27C78.252 27 70.5799 28.5261 63.4217 31.4912L64.187 33.3389C71.1026 30.4744 78.5147 29 86 29L86 27ZM63.4217 31.4912C56.2635 34.4562 49.7594 38.802 44.2807 44.2807L45.6949 45.6949C50.9879 40.402 57.2715 36.2034 64.187 33.3389L63.4217 31.4912ZM44.2807 44.2807C38.8021 49.7593 34.4561 56.2635 31.4911 63.4218L33.3389 64.1871C36.2034 57.2716 40.402 50.9878 45.6949 45.6949L44.2807 44.2807ZM31.4911 63.4218C28.5261 70.58 27 78.252 27 86L29 86C29 78.5146 30.4743 71.1027 33.3389 64.1871L31.4911 63.4218ZM27 86C27 101.648 33.2161 116.655 44.2807 127.719L45.6949 126.305C35.0054 115.616 29 101.117 29 86L27 86ZM44.2807 127.719C55.3454 138.784 70.3522 145 86 145L86 143C70.8827 143 56.3845 136.995 45.6949 126.305L44.2807 127.719ZM86 145L112 145L112 143L86 143L86 145ZM111 144L111 170L113 170L113 144L111 144ZM111 170C111 185.648 117.216 200.655 128.281 211.719L129.695 210.305C119.005 199.616 113 185.117 113 170L111 170ZM128.281 211.719C139.345 222.784 154.352 229 170 229L170 227C154.883 227 140.384 220.995 129.695 210.305L128.281 211.719ZM170 229C177.748 229 185.42 227.474 192.578 224.509L191.813 222.661C184.897 225.526 177.485 227 170 227L170 229ZM192.578 224.509C199.737 221.544 206.241 217.198 211.719 211.719L210.305 210.305C205.012 215.598 198.729 219.797 191.813 222.661L192.578 224.509ZM211.719 211.719C217.198 206.241 221.544 199.737 224.509 192.578L222.661 191.813C219.797 198.729 215.598 205.012 210.305 210.305L211.719 211.719ZM224.509 192.578C227.474 185.42 229 177.748 229 170L227 170C227 177.485 225.526 184.897 222.661 191.813L224.509 192.578ZM86 111C79.3696 111 73.0108 108.366 68.3223 103.678L66.9081 105.092C71.9716 110.155 78.8392 113 86 113L86 111ZM68.3223 103.678C63.6339 98.9892 61 92.6304 61 86L59 86C59 93.1608 61.8446 100.028 66.9081 105.092L68.3223 103.678ZM61 86C61 79.3696 63.6339 73.0107 68.3223 68.3223L66.9081 66.9081C61.8446 71.9716 59 78.8391 59 86L61 86ZM68.3223 68.3223C73.0108 63.6339 79.3696 61 86 61L86 59C78.8392 59 71.9716 61.8446 66.9081 66.9081L68.3223 68.3223ZM86 61C92.6304 61 98.9893 63.6339 103.678 68.3223L105.092 66.9081C100.028 61.8446 93.1608 59 86 59L86 61ZM103.678 68.3223C108.366 73.0107 111 79.3696 111 86L113 86C113 78.8391 110.155 71.9716 105.092 66.9081L103.678 68.3223ZM111 86L111 112L113 112L113 86L111 86ZM112 111L86 111L86 113L112 113L112 111ZM145 170L145 144L143 144L143 170L145 170ZM144 145L170 145L170 143L144 143L144 145ZM170 145C176.63 145 182.989 147.634 187.678 152.322L189.092 150.908C184.028 145.845 177.161 143 170 143L170 145ZM187.678 152.322C192.366 157.011 195 163.37 195 170L197 170C197 162.839 194.155 155.972 189.092 150.908L187.678 152.322ZM195 170C195 176.63 192.366 182.989 187.678 187.678L189.092 189.092C194.155 184.028 197 177.161 197 170L195 170ZM187.678 187.678C182.989 192.366 176.63 195 170 195L170 197C177.161 197 184.028 194.155 189.092 189.092L187.678 187.678ZM170 195C163.37 195 157.011 192.366 152.322 187.678L150.908 189.092C155.972 194.155 162.839 197 170 197L170 195ZM152.322 187.678C147.634 182.989 145 176.63 145 170L143 170C143 177.161 145.845 184.028 150.908 189.092L152.322 187.678Z" fill="#17171CA6" mask="url(#path-9-inside-5_4_10)"/>
</g>
</svg>
