<svg width="645" height="215" viewBox="0 0 645 215" fill="none" xmlns="http://www.w3.org/2000/svg">
<rect x="101.5" y="9" width="459" height="178" rx="10.9607" fill="#17171C"/>
<rect x="125" y="32.5" width="115" height="23" rx="4" fill="#23232A"/>
<path d="M133.876 48.5V40.1H139.06V41.276H135.172V43.7H138.748V44.876H135.172V48.5H133.876ZM141.521 48.5V40.1H146.813V41.276H142.817V43.688H146.477V44.864H142.817V47.324H146.873V48.5H141.521ZM148.8 48.5L151.2 40.1H153.48L155.868 48.5H154.536L153.984 46.52H150.696L150.144 48.5H148.8ZM151.02 45.32H153.66L152.436 40.904H152.244L151.02 45.32ZM159.367 48.5V41.276H156.787V40.1H163.243V41.276H160.663V48.5H159.367ZM168.761 48.668C168.097 48.668 167.525 48.548 167.045 48.308C166.573 48.068 166.205 47.724 165.941 47.276C165.685 46.82 165.557 46.268 165.557 45.62V40.1H166.865V45.656C166.865 46.248 167.029 46.704 167.357 47.024C167.685 47.344 168.153 47.504 168.761 47.504C169.369 47.504 169.837 47.344 170.165 47.024C170.493 46.704 170.657 46.248 170.657 45.656V40.1H171.953V45.62C171.953 46.268 171.825 46.82 171.569 47.276C171.313 47.724 170.945 48.068 170.465 48.308C169.985 48.548 169.417 48.668 168.761 48.668ZM174.845 48.5V40.1H178.373C178.893 40.1 179.349 40.192 179.741 40.376C180.141 40.552 180.449 40.808 180.665 41.144C180.889 41.48 181.001 41.88 181.001 42.344V42.476C181.001 43.004 180.873 43.428 180.617 43.748C180.369 44.06 180.065 44.28 179.705 44.408V44.6C180.009 44.616 180.253 44.72 180.437 44.912C180.621 45.096 180.713 45.364 180.713 45.716V48.5H179.405V45.896C179.405 45.68 179.349 45.508 179.237 45.38C179.125 45.252 178.945 45.188 178.697 45.188H176.141V48.5H174.845ZM176.141 44.012H178.229C178.693 44.012 179.053 43.896 179.309 43.664C179.565 43.424 179.693 43.1 179.693 42.692V42.596C179.693 42.188 179.565 41.868 179.309 41.636C179.061 41.396 178.701 41.276 178.229 41.276H176.141V44.012ZM183.627 48.5V40.1H188.919V41.276H184.923V43.688H188.583V44.864H184.923V47.324H188.979V48.5H183.627Z" fill="#454654"/>
<path d="M199.896 48.5V46.16H198.492V45.092H199.896V43.508H198.492V42.44H199.896V40.1H201.024V42.44H202.56V40.1H203.676V42.44H205.092V43.508H203.676V45.092H205.092V46.16H203.676V48.5H202.56V46.16H201.024V48.5H199.896ZM201.024 45.092H202.56V43.508H201.024V45.092ZM210.502 48.668C209.886 48.668 209.338 48.556 208.858 48.332C208.378 48.108 208.002 47.784 207.73 47.36C207.466 46.936 207.334 46.432 207.334 45.848V45.632H208.594V45.824C208.594 46.352 208.766 46.772 209.11 47.084C209.462 47.388 209.926 47.54 210.502 47.54C211.078 47.54 211.526 47.396 211.846 47.108C212.166 46.82 212.326 46.456 212.326 46.016V45.908C212.326 45.596 212.25 45.344 212.098 45.152C211.946 44.96 211.742 44.82 211.486 44.732C211.23 44.636 210.942 44.588 210.622 44.588H209.098V43.136L212.05 41.396V41.228H207.538V40.1H213.418V41.804L210.598 43.484V43.652H211.114C211.538 43.652 211.938 43.732 212.314 43.892C212.69 44.052 212.994 44.296 213.226 44.624C213.466 44.952 213.586 45.368 213.586 45.872V46.016C213.586 46.552 213.458 47.02 213.202 47.42C212.946 47.812 212.586 48.12 212.122 48.344C211.658 48.56 211.118 48.668 210.502 48.668ZM219.191 48.668C218.583 48.668 218.047 48.552 217.583 48.32C217.119 48.08 216.759 47.748 216.503 47.324C216.247 46.9 216.119 46.408 216.119 45.848V42.944C216.119 42.288 216.247 41.736 216.503 41.288C216.767 40.84 217.135 40.504 217.607 40.28C218.079 40.048 218.627 39.932 219.251 39.932C219.867 39.932 220.399 40.04 220.847 40.256C221.295 40.464 221.639 40.764 221.879 41.156C222.119 41.54 222.239 41.992 222.239 42.512H220.967C220.967 42.096 220.827 41.752 220.547 41.48C220.275 41.2 219.843 41.06 219.251 41.06C218.651 41.06 218.187 41.22 217.859 41.54C217.539 41.852 217.379 42.288 217.379 42.848V43.856H217.571C217.707 43.664 217.927 43.48 218.231 43.304C218.543 43.128 218.983 43.04 219.551 43.04C220.047 43.04 220.503 43.148 220.919 43.364C221.335 43.58 221.667 43.888 221.915 44.288C222.171 44.688 222.299 45.172 222.299 45.74V45.884C222.299 46.436 222.167 46.924 221.903 47.348C221.639 47.764 221.271 48.088 220.799 48.32C220.335 48.552 219.799 48.668 219.191 48.668ZM219.203 47.54C219.763 47.54 220.207 47.388 220.535 47.084C220.871 46.78 221.039 46.372 221.039 45.86V45.764C221.039 45.42 220.963 45.124 220.811 44.876C220.659 44.62 220.443 44.42 220.163 44.276C219.891 44.132 219.571 44.06 219.203 44.06C218.843 44.06 218.523 44.132 218.243 44.276C217.971 44.42 217.759 44.62 217.607 44.876C217.455 45.124 217.379 45.42 217.379 45.764V45.86C217.379 46.372 217.543 46.78 217.871 47.084C218.207 47.388 218.651 47.54 219.203 47.54ZM226.081 48.5V48.2C226.081 47.896 226.101 47.644 226.141 47.444C226.181 47.236 226.285 46.996 226.453 46.724L229.669 41.408V41.24H224.545V40.1H231.013V41.612L227.629 47.252C227.525 47.428 227.453 47.588 227.413 47.732C227.381 47.868 227.365 48.04 227.365 48.248V48.5H226.081Z" fill="#73758C"/>
<rect x="473" y="32.5" width="64" height="23" rx="11.5" fill="#104334"/>
<circle cx="484" cy="44" r="3" fill="#35E0AD"/>
<path d="M499.032 48.668C498 48.668 497.18 48.38 496.572 47.804C495.964 47.22 495.66 46.38 495.66 45.284V43.316C495.66 42.22 495.964 41.384 496.572 40.808C497.18 40.224 498 39.932 499.032 39.932C500.064 39.932 500.884 40.224 501.492 40.808C502.108 41.384 502.416 42.22 502.416 43.316V45.284C502.416 46.38 502.108 47.22 501.492 47.804C500.884 48.38 500.064 48.668 499.032 48.668ZM499.032 47.504C499.696 47.504 500.208 47.312 500.568 46.928C500.928 46.536 501.108 46.004 501.108 45.332V43.268C501.108 42.596 500.928 42.068 500.568 41.684C500.208 41.292 499.696 41.096 499.032 41.096C498.384 41.096 497.876 41.292 497.508 41.684C497.14 42.068 496.956 42.596 496.956 43.268V45.332C496.956 46.004 497.14 46.536 497.508 46.928C497.876 47.312 498.384 47.504 499.032 47.504ZM505.15 48.5V40.1H508.486C508.998 40.1 509.454 40.204 509.854 40.412C510.262 40.612 510.578 40.9 510.802 41.276C511.034 41.644 511.15 42.088 511.15 42.608V42.764C511.15 43.284 511.03 43.732 510.79 44.108C510.558 44.484 510.242 44.772 509.842 44.972C509.442 45.172 508.99 45.272 508.486 45.272H506.446V48.5H505.15ZM506.446 44.096H508.354C508.81 44.096 509.174 43.976 509.446 43.736C509.718 43.496 509.854 43.168 509.854 42.752V42.632C509.854 42.208 509.718 41.876 509.446 41.636C509.174 41.396 508.81 41.276 508.354 41.276H506.446V44.096ZM513.581 48.5V40.1H518.873V41.276H514.877V43.688H518.537V44.864H514.877V47.324H518.933V48.5H513.581ZM521.484 48.5V40.1H523.98L526.26 47.636H526.452V40.1H527.736V48.5H525.24L522.96 40.952H522.768V48.5H521.484Z" fill="#35E0AD"/>
<rect x="125" y="79.5" width="353" height="12" rx="6" fill="#23232A"/>
<rect x="125" y="115.5" width="266.461" height="12" rx="6" fill="#23232A"/>
<rect x="125" y="151.5" width="231" height="12" rx="6" fill="#23232A"/>
<rect x="101.5" y="9" width="459" height="178" rx="10.9607" stroke="url(#paint0_linear_289_2631)"/>
<g filter="url(#filter0_d_289_2631)">
<rect x="46" y="135.5" width="140" height="33" rx="16.5" fill="#23232A" shape-rendering="crispEdges"/>
<path d="M66.9637 156.5V147.764H66.7397L65.5497 151.04H64.0517L65.6617 146.7H68.4477V156.5H66.9637ZM63.6877 156.5V155.128H70.8277V156.5H63.6877ZM77.1853 156.696C76.0466 156.696 75.1366 156.374 74.4553 155.73C73.7833 155.077 73.4473 154.097 73.4473 152.79V150.41C73.4473 149.131 73.7833 148.161 74.4553 147.498C75.1366 146.835 76.0466 146.504 77.1853 146.504C78.3333 146.504 79.2433 146.835 79.9153 147.498C80.5966 148.161 80.9373 149.131 80.9373 150.41V152.79C80.9373 154.097 80.5966 155.077 79.9153 155.73C79.2433 156.374 78.3333 156.696 77.1853 156.696ZM77.1853 155.38C77.96 155.38 78.534 155.161 78.9073 154.722C79.2806 154.274 79.4673 153.649 79.4673 152.846V150.326C79.4673 149.523 79.2666 148.907 78.8653 148.478C78.464 148.039 77.904 147.82 77.1853 147.82C76.4573 147.82 75.8973 148.044 75.5053 148.492C75.1133 148.931 74.9173 149.542 74.9173 150.326V152.846C74.9173 153.667 75.104 154.297 75.4773 154.736C75.86 155.165 76.4293 155.38 77.1853 155.38ZM84.005 158.404V157.578H84.481C84.8636 157.578 85.055 157.387 85.055 157.004V156.556H84.845C84.5183 156.556 84.2476 156.458 84.033 156.262C83.8183 156.066 83.711 155.819 83.711 155.52C83.711 155.193 83.8183 154.932 84.033 154.736C84.2476 154.531 84.5183 154.428 84.845 154.428C85.1716 154.428 85.4376 154.535 85.643 154.75C85.8576 154.955 85.965 155.226 85.965 155.562V157.018C85.965 157.942 85.503 158.404 84.579 158.404H84.005ZM92.4951 156.696C91.3564 156.696 90.4464 156.374 89.7651 155.73C89.0931 155.077 88.7571 154.097 88.7571 152.79V150.41C88.7571 149.131 89.0931 148.161 89.7651 147.498C90.4464 146.835 91.3564 146.504 92.4951 146.504C93.6431 146.504 94.5531 146.835 95.2251 147.498C95.9064 148.161 96.2471 149.131 96.2471 150.41V152.79C96.2471 154.097 95.9064 155.077 95.2251 155.73C94.5531 156.374 93.6431 156.696 92.4951 156.696ZM92.4951 155.38C93.2698 155.38 93.8438 155.161 94.2171 154.722C94.5904 154.274 94.7771 153.649 94.7771 152.846V150.326C94.7771 149.523 94.5764 148.907 94.1751 148.478C93.7738 148.039 93.2138 147.82 92.4951 147.82C91.7671 147.82 91.2071 148.044 90.8151 148.492C90.4231 148.931 90.2271 149.542 90.2271 150.326V152.846C90.2271 153.667 90.4138 154.297 90.7871 154.736C91.1698 155.165 91.7391 155.38 92.4951 155.38ZM102.577 156.696C101.438 156.696 100.528 156.374 99.8467 155.73C99.1747 155.077 98.8387 154.097 98.8387 152.79V150.41C98.8387 149.131 99.1747 148.161 99.8467 147.498C100.528 146.835 101.438 146.504 102.577 146.504C103.725 146.504 104.635 146.835 105.307 147.498C105.988 148.161 106.329 149.131 106.329 150.41V152.79C106.329 154.097 105.988 155.077 105.307 155.73C104.635 156.374 103.725 156.696 102.577 156.696ZM102.577 155.38C103.351 155.38 103.925 155.161 104.299 154.722C104.672 154.274 104.859 153.649 104.859 152.846V150.326C104.859 149.523 104.658 148.907 104.257 148.478C103.855 148.039 103.295 147.82 102.577 147.82C101.849 147.82 101.289 148.044 100.897 148.492C100.505 148.931 100.309 149.542 100.309 150.326V152.846C100.309 153.667 100.495 154.297 100.869 154.736C101.251 155.165 101.821 155.38 102.577 155.38ZM112.658 156.696C111.52 156.696 110.61 156.374 109.928 155.73C109.256 155.077 108.92 154.097 108.92 152.79V150.41C108.92 149.131 109.256 148.161 109.928 147.498C110.61 146.835 111.52 146.504 112.658 146.504C113.806 146.504 114.716 146.835 115.388 147.498C116.07 148.161 116.41 149.131 116.41 150.41V152.79C116.41 154.097 116.07 155.077 115.388 155.73C114.716 156.374 113.806 156.696 112.658 156.696ZM112.658 155.38C113.433 155.38 114.007 155.161 114.38 154.722C114.754 154.274 114.94 153.649 114.94 152.846V150.326C114.94 149.523 114.74 148.907 114.338 148.478C113.937 148.039 113.377 147.82 112.658 147.82C111.93 147.82 111.37 148.044 110.978 148.492C110.586 148.931 110.39 149.542 110.39 150.326V152.846C110.39 153.667 110.577 154.297 110.95 154.736C111.333 155.165 111.902 155.38 112.658 155.38Z" fill="white"/>
<path d="M122.12 156.5V146.7H126.194C126.763 146.7 127.267 146.803 127.706 147.008C128.145 147.213 128.485 147.503 128.728 147.876C128.98 148.24 129.106 148.669 129.106 149.164V149.276C129.106 149.733 129.017 150.111 128.84 150.41C128.672 150.699 128.462 150.928 128.21 151.096C127.967 151.255 127.729 151.371 127.496 151.446V151.642C127.729 151.698 127.972 151.81 128.224 151.978C128.476 152.137 128.686 152.365 128.854 152.664C129.031 152.963 129.12 153.341 129.12 153.798V153.938C129.12 154.47 128.994 154.932 128.742 155.324C128.49 155.707 128.14 156.001 127.692 156.206C127.253 156.402 126.749 156.5 126.18 156.5H122.12ZM123.296 155.436H126.054C126.67 155.436 127.141 155.291 127.468 155.002C127.795 154.713 127.958 154.321 127.958 153.826V153.7C127.958 153.205 127.795 152.813 127.468 152.524C127.141 152.235 126.67 152.09 126.054 152.09H123.296V155.436ZM123.296 151.026H126.082C126.651 151.026 127.104 150.886 127.44 150.606C127.776 150.317 127.944 149.939 127.944 149.472V149.332C127.944 148.856 127.776 148.478 127.44 148.198C127.104 147.909 126.651 147.764 126.082 147.764H123.296V151.026ZM132.393 156.5V146.7H138.427V147.764H133.569V151.04H138.035V152.104H133.569V155.436H138.497V156.5H132.393ZM141.682 156.5V146.7H145.434C146.022 146.7 146.544 146.817 147.002 147.05C147.468 147.274 147.837 147.596 148.108 148.016C148.378 148.436 148.514 148.945 148.514 149.542V149.724C148.514 150.312 148.374 150.821 148.094 151.25C147.823 151.67 147.454 151.992 146.988 152.216C146.521 152.44 146.003 152.552 145.434 152.552H142.858V156.5H141.682ZM142.858 151.488H145.308C145.933 151.488 146.428 151.334 146.792 151.026C147.156 150.709 147.338 150.265 147.338 149.696V149.556C147.338 148.987 147.156 148.548 146.792 148.24C146.437 147.923 145.942 147.764 145.308 147.764H142.858V151.488ZM151.49 156.5V146.7H155.452C156.059 146.7 156.591 146.807 157.048 147.022C157.515 147.227 157.879 147.526 158.14 147.918C158.401 148.301 158.532 148.763 158.532 149.304V149.458C158.532 150.102 158.378 150.611 158.07 150.984C157.762 151.357 157.398 151.609 156.978 151.74V151.936C157.314 151.945 157.589 152.057 157.804 152.272C158.028 152.477 158.14 152.79 158.14 153.21V156.5H156.978V153.35C156.978 153.07 156.899 152.855 156.74 152.706C156.591 152.557 156.362 152.482 156.054 152.482H152.666V156.5H151.49ZM152.666 151.418H155.34C155.984 151.418 156.479 151.264 156.824 150.956C157.179 150.639 157.356 150.2 157.356 149.64V149.542C157.356 148.982 157.183 148.548 156.838 148.24C156.493 147.923 155.993 147.764 155.34 147.764H152.666V151.418ZM165.278 156.696C164.111 156.696 163.178 156.36 162.478 155.688C161.787 155.007 161.442 154.017 161.442 152.72V150.48C161.442 149.183 161.787 148.198 162.478 147.526C163.178 146.845 164.111 146.504 165.278 146.504C166.454 146.504 167.387 146.845 168.078 147.526C168.778 148.198 169.128 149.183 169.128 150.48V152.72C169.128 154.017 168.778 155.007 168.078 155.688C167.387 156.36 166.454 156.696 165.278 156.696ZM165.278 155.646C166.127 155.646 166.785 155.394 167.252 154.89C167.719 154.377 167.952 153.667 167.952 152.762V150.438C167.952 149.533 167.719 148.828 167.252 148.324C166.785 147.811 166.127 147.554 165.278 147.554C164.438 147.554 163.785 147.811 163.318 148.324C162.851 148.828 162.618 149.533 162.618 150.438V152.762C162.618 153.667 162.851 154.377 163.318 154.89C163.785 155.394 164.438 155.646 165.278 155.646Z" fill="#73758C"/>
<rect x="45.5" y="135" width="141" height="34" rx="17" stroke="#2E2F38" shape-rendering="crispEdges"/>
</g>
<g filter="url(#filter1_d_289_2631)">
<rect x="540" y="45.5" width="60" height="60" rx="30" fill="#23232A"/>
<path d="M570 79.5833C571.933 79.5833 573.5 78.0163 573.5 76.0833C573.5 74.1503 571.933 72.5833 570 72.5833C568.067 72.5833 566.5 74.1503 566.5 76.0833C566.5 78.0163 568.067 79.5833 570 79.5833Z" stroke="#ABACBA" stroke-width="1.2" stroke-linecap="round" stroke-linejoin="round"/>
<path d="M565.333 69.0833C567.266 69.0833 568.833 67.5163 568.833 65.5833C568.833 63.6503 567.266 62.0833 565.333 62.0833C563.4 62.0833 561.833 63.6503 561.833 65.5833C561.833 67.5163 563.4 69.0833 565.333 69.0833Z" stroke="#ABACBA" stroke-width="1.2" stroke-linecap="round" stroke-linejoin="round"/>
<path d="M580.5 76.0833C582.433 76.0833 584 74.5163 584 72.5833C584 70.6503 582.433 69.0833 580.5 69.0833C578.567 69.0833 577 70.6503 577 72.5833C577 74.5163 578.567 76.0833 580.5 76.0833Z" stroke="#ABACBA" stroke-width="1.2" stroke-linecap="round" stroke-linejoin="round"/>
<path d="M580.5 87.7501C582.433 87.7501 584 86.1831 584 84.2501C584 82.3171 582.433 80.7501 580.5 80.7501C578.567 80.7501 577 82.3171 577 84.2501C577 86.1831 578.567 87.7501 580.5 87.7501Z" stroke="#ABACBA" stroke-width="1.2" stroke-linecap="round" stroke-linejoin="round"/>
<path d="M559.5 88.9165C561.433 88.9165 563 87.3495 563 85.4165C563 83.4835 561.433 81.9165 559.5 81.9165C557.567 81.9165 556 83.4835 556 85.4165C556 87.3495 557.567 88.9165 559.5 88.9165Z" stroke="#ABACBA" stroke-width="1.2" stroke-linecap="round" stroke-linejoin="round"/>
<path d="M568.586 72.8895L566.748 68.777" stroke="#ABACBA" stroke-width="1.2" stroke-linecap="round" stroke-linejoin="round"/>
<path d="M577.175 73.692L573.325 74.9754" stroke="#ABACBA" stroke-width="1.2" stroke-linecap="round" stroke-linejoin="round"/>
<path d="M577.744 82.106L572.756 78.2268" stroke="#ABACBA" stroke-width="1.2" stroke-linecap="round" stroke-linejoin="round"/>
<path d="M567.39 78.402L562.11 83.0978" stroke="#ABACBA" stroke-width="1.2" stroke-linecap="round" stroke-linejoin="round"/>
<rect x="540.5" y="46" width="59" height="59" rx="29.5" stroke="#2E2F38"/>
</g>
<defs>
<filter id="filter0_d_289_2631" x="0" y="89.5" width="232" height="125" filterUnits="userSpaceOnUse" color-interpolation-filters="sRGB">
<feFlood flood-opacity="0" result="BackgroundImageFix"/>
<feColorMatrix in="SourceAlpha" type="matrix" values="0 0 0 0 0 0 0 0 0 0 0 0 0 0 0 0 0 0 127 0" result="hardAlpha"/>
<feOffset/>
<feGaussianBlur stdDeviation="22.5"/>
<feComposite in2="hardAlpha" operator="out"/>
<feColorMatrix type="matrix" values="0 0 0 0 0.0470588 0 0 0 0 0.0470588 0 0 0 0 0.054902 0 0 0 1 0"/>
<feBlend mode="normal" in2="BackgroundImageFix" result="effect1_dropShadow_289_2631"/>
<feBlend mode="normal" in="SourceGraphic" in2="effect1_dropShadow_289_2631" result="shape"/>
</filter>
<filter id="filter1_d_289_2631" x="495" y="0.5" width="150" height="150" filterUnits="userSpaceOnUse" color-interpolation-filters="sRGB">
<feFlood flood-opacity="0" result="BackgroundImageFix"/>
<feColorMatrix in="SourceAlpha" type="matrix" values="0 0 0 0 0 0 0 0 0 0 0 0 0 0 0 0 0 0 127 0" result="hardAlpha"/>
<feOffset/>
<feGaussianBlur stdDeviation="22.5"/>
<feComposite in2="hardAlpha" operator="out"/>
<feColorMatrix type="matrix" values="0 0 0 0 0.0470588 0 0 0 0 0.0470588 0 0 0 0 0.054902 0 0 0 1 0"/>
<feBlend mode="normal" in2="BackgroundImageFix" result="effect1_dropShadow_289_2631"/>
<feBlend mode="normal" in="SourceGraphic" in2="effect1_dropShadow_289_2631" result="shape"/>
</filter>
<linearGradient id="paint0_linear_289_2631" x1="345.011" y1="8.5" x2="345.011" y2="187.5" gradientUnits="userSpaceOnUse">
<stop stop-color="#454654"/>
<stop offset="1" stop-color="#22232A"/>
</linearGradient>
</defs>
</svg>
