<svg width="652" height="309" viewBox="0 0 652 309" fill="none" xmlns="http://www.w3.org/2000/svg">
<rect x="94.5" y="91" width="459" height="123" rx="7.5" fill="#17171C"/>
<path d="M121.72 126.668C121.08 126.668 120.512 126.556 120.016 126.332C119.528 126.1 119.144 125.768 118.864 125.336C118.584 124.904 118.444 124.376 118.444 123.752V123.44H119.872V123.752C119.872 124.304 120.04 124.716 120.376 124.988C120.712 125.26 121.16 125.396 121.72 125.396C122.288 125.396 122.716 125.28 123.004 125.048C123.292 124.816 123.436 124.516 123.436 124.148C123.436 123.9 123.368 123.7 123.232 123.548C123.096 123.388 122.896 123.26 122.632 123.164C122.376 123.068 122.064 122.976 121.696 122.888L121.336 122.816C120.784 122.688 120.304 122.528 119.896 122.336C119.496 122.136 119.188 121.88 118.972 121.568C118.756 121.256 118.648 120.848 118.648 120.344C118.648 119.84 118.768 119.408 119.008 119.048C119.248 118.688 119.588 118.412 120.028 118.22C120.468 118.028 120.984 117.932 121.576 117.932C122.168 117.932 122.696 118.032 123.16 118.232C123.624 118.432 123.988 118.732 124.252 119.132C124.524 119.532 124.66 120.032 124.66 120.632V121.028H123.232V120.632C123.232 120.288 123.164 120.012 123.028 119.804C122.892 119.596 122.7 119.444 122.452 119.348C122.204 119.252 121.912 119.204 121.576 119.204C121.08 119.204 120.704 119.3 120.448 119.492C120.192 119.684 120.064 119.956 120.064 120.308C120.064 120.532 120.12 120.724 120.232 120.884C120.352 121.036 120.524 121.164 120.748 121.268C120.98 121.364 121.268 121.448 121.612 121.52L121.972 121.604C122.548 121.732 123.052 121.896 123.484 122.096C123.916 122.288 124.252 122.544 124.492 122.864C124.74 123.184 124.864 123.6 124.864 124.112C124.864 124.616 124.732 125.06 124.468 125.444C124.212 125.828 123.848 126.128 123.376 126.344C122.912 126.56 122.36 126.668 121.72 126.668ZM127.329 126.5V118.1H132.681V119.408H128.781V121.616H132.345V122.924H128.781V125.192H132.741V126.5H127.329ZM137.177 126.5V119.408H134.669V118.1H141.125V119.408H138.617V126.5H137.177ZM147.358 126.5V118.1H151.066C151.57 118.1 152.01 118.188 152.386 118.364C152.77 118.532 153.066 118.776 153.274 119.096C153.49 119.408 153.598 119.784 153.598 120.224V120.332C153.598 120.716 153.526 121.032 153.382 121.28C153.238 121.528 153.066 121.72 152.866 121.856C152.666 121.992 152.474 122.088 152.29 122.144V122.348C152.474 122.396 152.67 122.488 152.878 122.624C153.086 122.752 153.262 122.944 153.406 123.2C153.558 123.448 153.634 123.772 153.634 124.172V124.292C153.634 124.748 153.526 125.144 153.31 125.48C153.094 125.808 152.794 126.06 152.41 126.236C152.034 126.412 151.598 126.5 151.102 126.5H147.358ZM148.81 125.192H150.922C151.314 125.192 151.622 125.1 151.846 124.916C152.078 124.724 152.194 124.456 152.194 124.112V124.004C152.194 123.66 152.082 123.396 151.858 123.212C151.634 123.02 151.322 122.924 150.922 122.924H148.81V125.192ZM148.81 121.616H150.91C151.278 121.616 151.578 121.524 151.81 121.34C152.042 121.156 152.158 120.9 152.158 120.572V120.452C152.158 120.124 152.042 119.868 151.81 119.684C151.586 119.5 151.286 119.408 150.91 119.408H148.81V121.616ZM159.415 126.668C158.375 126.668 157.543 126.38 156.919 125.804C156.303 125.22 155.995 124.384 155.995 123.296V121.304C155.995 120.216 156.303 119.384 156.919 118.808C157.543 118.224 158.375 117.932 159.415 117.932C160.463 117.932 161.295 118.224 161.911 118.808C162.527 119.384 162.835 120.216 162.835 121.304V123.296C162.835 124.384 162.527 125.22 161.911 125.804C161.295 126.38 160.463 126.668 159.415 126.668ZM159.415 125.372C160.039 125.372 160.523 125.192 160.867 124.832C161.219 124.464 161.395 123.968 161.395 123.344V121.256C161.395 120.632 161.219 120.14 160.867 119.78C160.523 119.412 160.039 119.228 159.415 119.228C158.799 119.228 158.315 119.412 157.963 119.78C157.619 120.14 157.447 120.632 157.447 121.256V123.344C157.447 123.968 157.619 124.464 157.963 124.832C158.315 125.192 158.799 125.372 159.415 125.372ZM168.677 126.668C168.005 126.668 167.425 126.548 166.937 126.308C166.457 126.06 166.085 125.704 165.821 125.24C165.565 124.776 165.437 124.224 165.437 123.584V118.1H166.877V123.62C166.877 124.18 167.033 124.612 167.345 124.916C167.657 125.22 168.101 125.372 168.677 125.372C169.261 125.372 169.705 125.22 170.009 124.916C170.321 124.612 170.477 124.18 170.477 123.62V118.1H171.917V123.584C171.917 124.224 171.789 124.776 171.533 125.24C171.277 125.704 170.905 126.06 170.417 126.308C169.929 126.548 169.349 126.668 168.677 126.668ZM174.736 126.5V118.1H177.496L179.476 125.528H179.668V118.1H181.096V126.5H178.348L176.368 119.072H176.164V126.5H174.736ZM185.931 126.5V119.408H183.423V118.1H189.879V119.408H187.371V126.5H185.931ZM194.378 126.5V123.536L191.486 118.1H193.106L195.002 121.808H195.206L197.102 118.1H198.71L195.818 123.536V126.5H194.378ZM206.617 126.5V119.408H204.109V118.1H210.565V119.408H208.057V126.5H206.617ZM215.757 126.668C214.717 126.668 213.885 126.38 213.261 125.804C212.645 125.22 212.337 124.384 212.337 123.296V121.304C212.337 120.216 212.645 119.384 213.261 118.808C213.885 118.224 214.717 117.932 215.757 117.932C216.805 117.932 217.637 118.224 218.253 118.808C218.869 119.384 219.177 120.216 219.177 121.304V123.296C219.177 124.384 218.869 125.22 218.253 125.804C217.637 126.38 216.805 126.668 215.757 126.668ZM215.757 125.372C216.381 125.372 216.865 125.192 217.209 124.832C217.561 124.464 217.737 123.968 217.737 123.344V121.256C217.737 120.632 217.561 120.14 217.209 119.78C216.865 119.412 216.381 119.228 215.757 119.228C215.141 119.228 214.657 119.412 214.305 119.78C213.961 120.14 213.789 120.632 213.789 121.256V123.344C213.789 123.968 213.961 124.464 214.305 124.832C214.657 125.192 215.141 125.372 215.757 125.372ZM221.826 126.5V118.1H223.278V121.52H223.482L226.41 118.1H228.27L224.61 122.24L228.39 126.5H226.482L223.482 123.008H223.278V126.5H221.826ZM230.491 126.5V118.1H235.843V119.408H231.943V121.616H235.507V122.924H231.943V125.192H235.903V126.5H230.491ZM238.359 126.5V118.1H241.119L243.099 125.528H243.291V118.1H244.719V126.5H241.971L239.991 119.072H239.787V126.5H238.359Z" fill="#454654"/>
<rect x="118.5" y="142" width="411" height="48" rx="7.5" fill="#23232A"/>
<path d="M143.75 168.25C149.135 168.25 153.5 166.235 153.5 163.75C153.5 161.265 149.135 159.25 143.75 159.25C138.365 159.25 134 161.265 134 163.75C134 166.235 138.365 168.25 143.75 168.25Z" stroke="#5C5E70" strokeWidth="1.5" stroke-linecap="round" stroke-linejoin="round"/>
<path d="M143.75 168.25V172.75" stroke="#5C5E70" strokeWidth="1.5" stroke-linecap="round" stroke-linejoin="round"/>
<path d="M134 163.75V168.25C134 170.5 137.75 172.75 143.75 172.75C149.75 172.75 153.5 170.5 153.5 168.25V163.75" stroke="#5C5E70" strokeWidth="1.5" stroke-linecap="round" stroke-linejoin="round"/>
<path d="M149.75 167.322V171.822" stroke="#5C5E70" strokeWidth="1.5" stroke-linecap="round" stroke-linejoin="round"/>
<path d="M137.75 167.322V171.822" stroke="#5C5E70" strokeWidth="1.5" stroke-linecap="round" stroke-linejoin="round"/>
<path d="M164.86 170.5V162.072H161.85V160.7H169.382V162.072H166.372V170.5H164.86ZM175.424 170.696C174.22 170.696 173.264 170.36 172.554 169.688C171.845 169.007 171.49 168.027 171.49 166.748V164.452C171.49 163.173 171.845 162.198 172.554 161.526C173.264 160.845 174.22 160.504 175.424 160.504C176.628 160.504 177.585 160.845 178.294 161.526C179.013 162.198 179.372 163.173 179.372 164.452V166.748C179.372 168.027 179.013 169.007 178.294 169.688C177.585 170.36 176.628 170.696 175.424 170.696ZM175.424 169.338C176.199 169.338 176.796 169.114 177.216 168.666C177.636 168.209 177.846 167.588 177.846 166.804V164.396C177.846 163.612 177.636 162.996 177.216 162.548C176.796 162.091 176.199 161.862 175.424 161.862C174.668 161.862 174.076 162.091 173.646 162.548C173.217 162.996 173.002 163.612 173.002 164.396V166.804C173.002 167.588 173.217 168.209 173.646 168.666C174.076 169.114 174.668 169.338 175.424 169.338ZM182.562 170.5V160.7H184.074V164.774H184.298L187.952 160.7H189.926L185.502 165.53L190.08 170.5H188.05L184.298 166.342H184.074V170.5H182.562ZM192.617 170.5V160.7H198.791V162.072H194.129V164.886H198.399V166.258H194.129V169.128H198.861V170.5H192.617ZM201.837 170.5V160.7H204.749L207.409 169.492H207.633V160.7H209.131V170.5H206.219L203.559 161.694H203.335V170.5H201.837ZM217.543 170.5V160.7H220.455L223.115 169.492H223.339V160.7H224.837V170.5H221.925L219.265 161.694H219.041V170.5H217.543ZM227.553 170.5L230.353 160.7H233.013L235.799 170.5H234.245L233.601 168.19H229.765L229.121 170.5H227.553ZM230.143 166.79H233.223L231.795 161.638H231.571L230.143 166.79ZM238.527 170.5V160.7H241.369L243.511 169.492H243.735L245.877 160.7H248.719V170.5H247.249V161.764H247.025L244.897 170.5H242.349L240.221 161.764H239.997V170.5H238.527ZM252.163 170.5V160.7H258.337V162.072H253.675V164.886H257.945V166.258H253.675V169.128H258.407V170.5H252.163Z" fill="#5C5E70"/>
<rect x="118.5" y="142" width="411" height="48" rx="7.5" stroke="#2E2F38"/>
<rect x="94.5" y="91" width="459" height="123" rx="7.5" stroke="url(#paint0_linear_95_4149)"/>
<g filter="url(#filter0_d_95_4149)">
<rect x="421" y="45.5" width="60" height="60" rx="30" fill="#6873E9" shape-rendering="geometricPrecision"/>
<path d="M450.996 57.586L450.755 58.4025V82.0948L450.996 82.3346L461.993 75.8339L450.996 57.586Z" fill="#B3B9F4"/>
<path d="M450.998 57.586L440 75.8339L450.998 82.3346V70.8351V57.586Z" fill="#ECEEFC"/>
<path d="M450.996 84.4138L450.86 84.579V93.0185L450.996 93.414L462 77.9164L450.996 84.4138Z" fill="#B3B9F4"/>
<path d="M450.998 93.414V84.4138L440 77.9164L450.998 93.414Z" fill="#ECEEFC"/>
<path d="M450.996 82.3459L461.994 75.8452L450.996 70.8464V82.3459Z" fill="#8E96EF"/>
<path d="M440 75.8452L450.998 82.3459V70.8464L440 75.8452Z" fill="#B3B9F4"/>
<rect x="421.5" y="46" width="59" height="59" rx="29.5" stroke="#4250E4" shape-rendering="geometricPrecision"/>
</g>
<g filter="url(#filter1_d_95_4149)">
<rect x="149" y="203.5" width="60" height="60" rx="30" fill="#298F6A" shape-rendering="geometricPrecision"/>
<path fillRule="evenodd" clip-rule="evenodd" d="M181.849 234.46C181.689 234.472 180.867 234.521 179.034 234.521C177.575 234.521 176.54 234.477 176.177 234.46C170.541 234.214 166.334 233.242 166.334 232.077C166.334 230.912 170.541 229.941 176.177 229.691V233.491C176.545 233.518 177.601 233.58 179.059 233.58C180.809 233.58 181.685 233.507 181.843 233.493V229.694C187.467 229.942 191.665 230.915 191.665 232.077C191.665 233.239 187.469 234.212 181.843 234.459L181.849 234.46ZM181.849 229.301V225.9H189.697V220.714H168.328V225.9H176.175V229.299C169.797 229.59 165 230.843 165 232.344C165 233.845 169.797 235.097 176.175 235.388V246.286H181.847V235.384C188.211 235.094 193 233.842 193 232.343C193 230.843 188.215 229.591 181.847 229.299L181.849 229.301Z" fill="white"/>
<rect x="149.5" y="204" width="59" height="59" rx="29.5" stroke="#1A5C44" shape-rendering="geometricPrecision"/>
</g>
<g filter="url(#filter2_d_95_4149)">
<rect x="547" y="144.5" width="60" height="60" rx="30" fill="#2775CA" shape-rendering="geometricPrecision"/>
<path d="M582.12 177.215C582.12 174.5 580.491 173.569 577.233 173.181C574.906 172.871 574.44 172.251 574.44 171.165C574.44 170.079 575.216 169.381 576.767 169.381C578.164 169.381 578.939 169.846 579.327 171.01C579.405 171.242 579.637 171.397 579.87 171.397H581.111C581.421 171.397 581.654 171.165 581.654 170.854V170.777C581.344 169.07 579.948 167.752 578.164 167.597V165.735C578.164 165.425 577.931 165.192 577.543 165.114H576.38C576.069 165.114 575.837 165.347 575.759 165.735V167.519C573.432 167.829 571.958 169.381 571.958 171.32C571.958 173.88 573.51 174.888 576.767 175.276C578.939 175.664 579.637 176.129 579.637 177.37C579.637 178.611 578.551 179.464 577.078 179.464C575.061 179.464 574.363 178.611 574.13 177.448C574.053 177.137 573.82 176.982 573.587 176.982H572.268C571.958 176.982 571.726 177.215 571.726 177.525V177.603C572.036 179.542 573.277 180.938 575.837 181.326V183.188C575.837 183.498 576.069 183.73 576.457 183.808H577.621C577.931 183.808 578.164 183.575 578.241 183.188V181.326C580.568 180.938 582.12 179.309 582.12 177.215Z" fill="white"/>
<path d="M573.044 185.359C566.994 183.188 563.891 176.439 566.141 170.466C567.304 167.209 569.864 164.727 573.044 163.563C573.354 163.408 573.509 163.175 573.509 162.787V161.701C573.509 161.391 573.354 161.158 573.044 161.081C572.966 161.081 572.811 161.081 572.734 161.158C565.365 163.485 561.331 171.32 563.658 178.689C565.055 183.032 568.39 186.368 572.734 187.764C573.044 187.919 573.354 187.764 573.432 187.454C573.509 187.376 573.509 187.299 573.509 187.144V186.057C573.509 185.825 573.277 185.515 573.044 185.359ZM581.266 161.158C580.956 161.003 580.646 161.158 580.568 161.469C580.491 161.546 580.491 161.624 580.491 161.779V162.865C580.491 163.175 580.723 163.485 580.956 163.641C587.006 165.812 590.109 172.561 587.859 178.534C586.696 181.791 584.136 184.273 580.956 185.437C580.646 185.592 580.491 185.825 580.491 186.213V187.299C580.491 187.609 580.646 187.842 580.956 187.919C581.034 187.919 581.189 187.919 581.266 187.842C588.635 185.515 592.669 177.68 590.342 170.311C588.945 165.89 585.532 162.555 581.266 161.158Z" fill="white"/>
<rect x="547.5" y="145" width="59" height="59" rx="29.5" stroke="#1D5796" shape-rendering="geometricPrecision"/>
</g>
<g filter="url(#filter3_d_95_4149)">
<rect x="45" y="101.5" width="60" height="60" rx="30" fill="#F5AC37" shape-rendering="geometricPrecision"/>
<path d="M75.3344 133.016H83.472C83.6455 133.016 83.7274 133.016 83.7399 132.788C83.8064 131.96 83.8064 131.128 83.7399 130.299C83.7399 130.138 83.6599 130.071 83.4855 130.071H67.2902C67.0897 130.071 67.0358 130.138 67.0358 130.326V132.708C67.0358 133.016 67.0358 133.016 67.3567 133.016H75.3344ZM82.8311 127.287C82.8543 127.227 82.8543 127.16 82.8311 127.1C82.6952 126.804 82.5343 126.522 82.3473 126.257C82.0659 125.804 81.7344 125.387 81.3566 125.012C81.1783 124.785 80.9721 124.582 80.7408 124.41C79.5824 123.424 78.2053 122.726 76.725 122.375C75.9781 122.207 75.2149 122.128 74.4497 122.134H67.2622C67.0618 122.134 67.0348 122.214 67.0348 122.389V127.14C67.0348 127.34 67.0348 127.394 67.2892 127.394H82.7348C82.7348 127.394 82.8687 127.367 82.8957 127.287H82.8302H82.8311ZM82.8311 135.8C82.6037 135.775 82.3743 135.775 82.1469 135.8H67.3037C67.1032 135.8 67.0358 135.8 67.0358 136.068V140.713C67.0358 140.927 67.0358 140.981 67.3037 140.981H74.1567C74.4844 141.006 74.812 140.983 75.1329 140.914C76.1275 140.843 77.1057 140.627 78.0386 140.271C78.3778 140.154 78.7054 140.001 79.0148 139.817H79.1083C80.7148 138.981 82.0197 137.668 82.8427 136.057C82.8427 136.057 82.9362 135.855 82.8311 135.802V135.8ZM64.346 143.389V143.309V140.19V139.133V135.988C64.346 135.813 64.346 135.787 64.1321 135.787H61.2274C61.0665 135.787 61 135.787 61 135.573V133.03H64.1051C64.2786 133.03 64.346 133.03 64.346 132.803V130.286C64.346 130.125 64.346 130.086 64.1321 130.086H61.2274C61.0665 130.086 61 130.086 61 129.872V127.517C61 127.369 61 127.33 61.2139 127.33H64.0916C64.2921 127.33 64.346 127.33 64.346 127.075V119.861C64.346 119.647 64.346 119.593 64.6139 119.593H74.652C75.3806 119.622 76.1044 119.702 76.8204 119.834C78.2959 120.107 79.7135 120.634 81.0097 121.386C81.8693 121.892 82.6605 122.503 83.365 123.207C83.8951 123.757 84.3731 124.353 84.7971 124.987C85.2183 125.63 85.5681 126.317 85.8428 127.035C85.8765 127.222 86.0557 127.348 86.2427 127.316H88.6385C88.9459 127.316 88.9459 127.316 88.9594 127.611V129.806C88.9594 130.02 88.8794 130.074 88.6645 130.074H86.8171C86.6301 130.074 86.5761 130.074 86.5896 130.315C86.6629 131.131 86.6629 131.949 86.5896 132.764C86.5896 132.992 86.5896 133.018 86.845 133.018H88.9585C89.0519 133.139 88.9585 133.259 88.9585 133.381C88.9719 133.536 88.9719 133.693 88.9585 133.848V135.468C88.9585 135.696 88.892 135.763 88.6905 135.763H86.1608C85.9844 135.729 85.8129 135.842 85.7724 136.018C85.1701 137.584 84.2064 138.988 82.9612 140.113C82.5064 140.523 82.0283 140.908 81.5291 141.264C80.9933 141.572 80.4719 141.893 79.9226 142.148C78.9117 142.603 77.8516 142.938 76.7636 143.151C75.7304 143.336 74.6829 143.42 73.6315 143.405H64.3422V143.392L64.346 143.389Z" fill="#FEFEFD"/>
<rect x="45.5" y="102" width="59" height="59" rx="29.5" stroke="#C2882C" shape-rendering="geometricPrecision"/>
</g>
<defs>
<filter id="filter0_d_95_4149" x="376" y="0.5" width="150" height="150" filterUnits="userSpaceOnUse" color-interpolation-filters="sRGB">
<feFlood flood-opacity="0" result="BackgroundImageFix"/>
<feColorMatrix in="SourceAlpha" type="matrix" values="0 0 0 0 0 0 0 0 0 0 0 0 0 0 0 0 0 0 127 0" result="hardAlpha"/>
<feOffset/>
<feGaussianBlur stdDeviation="22.5"/>
<feComposite in2="hardAlpha" operator="out"/>
<feColorMatrix type="matrix" values="0 0 0 0 0.0470588 0 0 0 0 0.0470588 0 0 0 0 0.054902 0 0 0 1 0"/>
<feBlend mode="normal" in2="BackgroundImageFix" result="effect1_dropShadow_95_4149"/>
<feBlend mode="normal" in="SourceGraphic" in2="effect1_dropShadow_95_4149" result="shape"/>
</filter>
<filter id="filter1_d_95_4149" x="104" y="158.5" width="150" height="150" filterUnits="userSpaceOnUse" color-interpolation-filters="sRGB">
<feFlood flood-opacity="0" result="BackgroundImageFix"/>
<feColorMatrix in="SourceAlpha" type="matrix" values="0 0 0 0 0 0 0 0 0 0 0 0 0 0 0 0 0 0 127 0" result="hardAlpha"/>
<feOffset/>
<feGaussianBlur stdDeviation="22.5"/>
<feComposite in2="hardAlpha" operator="out"/>
<feColorMatrix type="matrix" values="0 0 0 0 0.0470588 0 0 0 0 0.0470588 0 0 0 0 0.054902 0 0 0 1 0"/>
<feBlend mode="normal" in2="BackgroundImageFix" result="effect1_dropShadow_95_4149"/>
<feBlend mode="normal" in="SourceGraphic" in2="effect1_dropShadow_95_4149" result="shape"/>
</filter>
<filter id="filter2_d_95_4149" x="502" y="99.5" width="150" height="150" filterUnits="userSpaceOnUse" color-interpolation-filters="sRGB">
<feFlood flood-opacity="0" result="BackgroundImageFix"/>
<feColorMatrix in="SourceAlpha" type="matrix" values="0 0 0 0 0 0 0 0 0 0 0 0 0 0 0 0 0 0 127 0" result="hardAlpha"/>
<feOffset/>
<feGaussianBlur stdDeviation="22.5"/>
<feComposite in2="hardAlpha" operator="out"/>
<feColorMatrix type="matrix" values="0 0 0 0 0.0470588 0 0 0 0 0.0470588 0 0 0 0 0.054902 0 0 0 1 0"/>
<feBlend mode="normal" in2="BackgroundImageFix" result="effect1_dropShadow_95_4149"/>
<feBlend mode="normal" in="SourceGraphic" in2="effect1_dropShadow_95_4149" result="shape"/>
</filter>
<filter id="filter3_d_95_4149" x="0" y="56.5" width="150" height="150" filterUnits="userSpaceOnUse" color-interpolation-filters="sRGB">
<feFlood flood-opacity="0" result="BackgroundImageFix"/>
<feColorMatrix in="SourceAlpha" type="matrix" values="0 0 0 0 0 0 0 0 0 0 0 0 0 0 0 0 0 0 127 0" result="hardAlpha"/>
<feOffset/>
<feGaussianBlur stdDeviation="22.5"/>
<feComposite in2="hardAlpha" operator="out"/>
<feColorMatrix type="matrix" values="0 0 0 0 0.0470588 0 0 0 0 0.0470588 0 0 0 0 0.054902 0 0 0 1 0"/>
<feBlend mode="normal" in2="BackgroundImageFix" result="effect1_dropShadow_95_4149"/>
<feBlend mode="normal" in="SourceGraphic" in2="effect1_dropShadow_95_4149" result="shape"/>
</filter>
<linearGradient id="paint0_linear_95_4149" x1="338.011" y1="90.5" x2="338.011" y2="214.5" gradientUnits="userSpaceOnUse">
<stop stop-color="#454654"/>
<stop offset="1" stop-color="#22232A"/>
</linearGradient>
</defs>
</svg>
