<svg width="644" height="290" viewBox="0 0 644 290" fill="none" xmlns="http://www.w3.org/2000/svg">
<g clip-path="url(#clip0_317_6763)">
<rect x="93" y="10" width="460" height="263" rx="8" fill="#17171C"/>
<path d="M129.96 56.5003V48.1003H135.132V49.0123H130.968V51.8203H134.796V52.7323H130.968V55.5883H135.192V56.5003H129.96ZM137.346 56.5003L140.058 52.2643L137.382 48.1003H138.57L140.706 51.5683H140.862L143.01 48.1003H144.186L141.522 52.2643L144.234 56.5003H143.058L140.862 52.9603H140.706L138.522 56.5003H137.346ZM146.774 56.5003V48.1003H149.99C150.494 48.1003 150.942 48.2003 151.334 48.4003C151.734 48.5923 152.05 48.8683 152.282 49.2283C152.514 49.5883 152.63 50.0243 152.63 50.5363V50.6923C152.63 51.1963 152.51 51.6323 152.27 52.0003C152.038 52.3603 151.722 52.6363 151.322 52.8283C150.922 53.0203 150.478 53.1163 149.99 53.1163H147.782V56.5003H146.774ZM147.782 52.2043H149.882C150.418 52.2043 150.842 52.0723 151.154 51.8083C151.466 51.5363 151.622 51.1563 151.622 50.6683V50.5483C151.622 50.0603 151.466 49.6843 151.154 49.4203C150.85 49.1483 150.426 49.0123 149.882 49.0123H147.782V52.2043ZM155.181 56.5003V48.1003H156.189V55.5883H160.437V56.5003H155.181ZM165.746 56.6683C164.746 56.6683 163.946 56.3803 163.346 55.8043C162.754 55.2203 162.458 54.3723 162.458 53.2603V51.3403C162.458 50.2283 162.754 49.3843 163.346 48.8083C163.946 48.2243 164.746 47.9323 165.746 47.9323C166.754 47.9323 167.554 48.2243 168.146 48.8083C168.746 49.3843 169.046 50.2283 169.046 51.3403V53.2603C169.046 54.3723 168.746 55.2203 168.146 55.8043C167.554 56.3803 166.754 56.6683 165.746 56.6683ZM165.746 55.7683C166.474 55.7683 167.038 55.5523 167.438 55.1203C167.838 54.6803 168.038 54.0723 168.038 53.2963V51.3043C168.038 50.5283 167.838 49.9243 167.438 49.4923C167.038 49.0523 166.474 48.8323 165.746 48.8323C165.026 48.8323 164.466 49.0523 164.066 49.4923C163.666 49.9243 163.466 50.5283 163.466 51.3043V53.2963C163.466 54.0723 163.666 54.6803 164.066 55.1203C164.466 55.5523 165.026 55.7683 165.746 55.7683ZM171.925 56.5003V48.1003H175.321C175.841 48.1003 176.297 48.1923 176.689 48.3763C177.089 48.5523 177.401 48.8083 177.625 49.1443C177.849 49.4723 177.961 49.8683 177.961 50.3323V50.4643C177.961 51.0163 177.829 51.4523 177.565 51.7723C177.301 52.0923 176.989 52.3083 176.629 52.4203V52.5883C176.917 52.5963 177.153 52.6923 177.337 52.8763C177.529 53.0523 177.625 53.3203 177.625 53.6803V56.5003H176.629V53.8003C176.629 53.5603 176.561 53.3763 176.425 53.2483C176.297 53.1203 176.101 53.0563 175.837 53.0563H172.933V56.5003H171.925ZM172.933 52.1443H175.225C175.777 52.1443 176.201 52.0123 176.497 51.7483C176.801 51.4763 176.953 51.1003 176.953 50.6203V50.5363C176.953 50.0563 176.805 49.6843 176.509 49.4203C176.213 49.1483 175.785 49.0123 175.225 49.0123H172.933V52.1443ZM180.695 56.5003V48.1003H185.867V49.0123H181.703V51.8203H185.531V52.7323H181.703V55.5883H185.927V56.5003H180.695ZM192.939 56.5003V48.1003H196.155C196.659 48.1003 197.107 48.2003 197.499 48.4003C197.899 48.5923 198.215 48.8683 198.447 49.2283C198.679 49.5883 198.795 50.0243 198.795 50.5363V50.6923C198.795 51.1963 198.675 51.6323 198.435 52.0003C198.203 52.3603 197.887 52.6363 197.487 52.8283C197.087 53.0203 196.643 53.1163 196.155 53.1163H193.947V56.5003H192.939ZM193.947 52.2043H196.047C196.583 52.2043 197.007 52.0723 197.319 51.8083C197.631 51.5363 197.787 51.1563 197.787 50.6683V50.5483C197.787 50.0603 197.631 49.6843 197.319 49.4203C197.015 49.1483 196.591 49.0123 196.047 49.0123H193.947V52.2043ZM201.346 56.5003V48.1003H204.742C205.262 48.1003 205.718 48.1923 206.11 48.3763C206.51 48.5523 206.822 48.8083 207.046 49.1443C207.27 49.4723 207.382 49.8683 207.382 50.3323V50.4643C207.382 51.0163 207.25 51.4523 206.986 51.7723C206.722 52.0923 206.41 52.3083 206.05 52.4203V52.5883C206.338 52.5963 206.574 52.6923 206.758 52.8763C206.95 53.0523 207.046 53.3203 207.046 53.6803V56.5003H206.05V53.8003C206.05 53.5603 205.982 53.3763 205.846 53.2483C205.718 53.1203 205.522 53.0563 205.258 53.0563H202.354V56.5003H201.346ZM202.354 52.1443H204.646C205.198 52.1443 205.622 52.0123 205.918 51.7483C206.222 51.4763 206.374 51.1003 206.374 50.6203V50.5363C206.374 50.0563 206.226 49.6843 205.93 49.4203C205.634 49.1483 205.206 49.0123 204.646 49.0123H202.354V52.1443ZM213.164 56.6683C212.164 56.6683 211.364 56.3803 210.764 55.8043C210.172 55.2203 209.876 54.3723 209.876 53.2603V51.3403C209.876 50.2283 210.172 49.3843 210.764 48.8083C211.364 48.2243 212.164 47.9323 213.164 47.9323C214.172 47.9323 214.972 48.2243 215.564 48.8083C216.164 49.3843 216.464 50.2283 216.464 51.3403V53.2603C216.464 54.3723 216.164 55.2203 215.564 55.8043C214.972 56.3803 214.172 56.6683 213.164 56.6683ZM213.164 55.7683C213.892 55.7683 214.456 55.5523 214.856 55.1203C215.256 54.6803 215.456 54.0723 215.456 53.2963V51.3043C215.456 50.5283 215.256 49.9243 214.856 49.4923C214.456 49.0523 213.892 48.8323 213.164 48.8323C212.444 48.8323 211.884 49.0523 211.484 49.4923C211.084 49.9243 210.884 50.5283 210.884 51.3043V53.2963C210.884 54.0723 211.084 54.6803 211.484 55.1203C211.884 55.5523 212.444 55.7683 213.164 55.7683ZM221.54 56.6683C220.716 56.6683 220.064 56.4363 219.584 55.9723C219.112 55.5083 218.876 54.8443 218.876 53.9803V53.3323H219.872V53.9803C219.872 54.5083 220.008 54.9363 220.28 55.2643C220.56 55.5923 220.976 55.7563 221.528 55.7563C222.088 55.7563 222.484 55.5923 222.716 55.2643C222.948 54.9363 223.064 54.5083 223.064 53.9803V48.1003H224.072V53.9803C224.072 54.8523 223.856 55.5203 223.424 55.9843C222.992 56.4403 222.364 56.6683 221.54 56.6683ZM227.13 56.5003V48.1003H232.302V49.0123H228.138V51.8203H231.966V52.7323H228.138V55.5883H232.362V56.5003H227.13ZM238.127 56.6683C237.127 56.6683 236.331 56.3803 235.739 55.8043C235.147 55.2203 234.851 54.3723 234.851 53.2603V51.3403C234.851 50.2283 235.147 49.3843 235.739 48.8083C236.331 48.2243 237.127 47.9323 238.127 47.9323C239.119 47.9323 239.879 48.2083 240.407 48.7603C240.943 49.3123 241.211 50.0683 241.211 51.0283V51.0883H240.215V50.9923C240.215 50.3603 240.043 49.8443 239.699 49.4443C239.363 49.0363 238.839 48.8323 238.127 48.8323C237.415 48.8323 236.859 49.0523 236.459 49.4923C236.059 49.9243 235.859 50.5323 235.859 51.3163V53.2843C235.859 54.0683 236.059 54.6803 236.459 55.1203C236.859 55.5523 237.415 55.7683 238.127 55.7683C238.839 55.7683 239.363 55.5683 239.699 55.1683C240.043 54.7603 240.215 54.2403 240.215 53.6083V53.4163H241.211V53.5723C241.211 54.5323 240.943 55.2883 240.407 55.8403C239.879 56.3923 239.119 56.6683 238.127 56.6683ZM245.855 56.5003V49.0123H243.155V48.1003H249.563V49.0123H246.863V56.5003H245.855ZM254.619 56.6683C254.011 56.6683 253.467 56.5603 252.987 56.3443C252.507 56.1283 252.127 55.8043 251.847 55.3723C251.575 54.9323 251.439 54.3843 251.439 53.7283V53.4763H252.435V53.7283C252.435 54.4243 252.639 54.9443 253.047 55.2883C253.455 55.6243 253.979 55.7923 254.619 55.7923C255.275 55.7923 255.775 55.6443 256.119 55.3483C256.463 55.0523 256.635 54.6803 256.635 54.2323C256.635 53.9203 256.555 53.6723 256.395 53.4883C256.243 53.3043 256.027 53.1563 255.747 53.0443C255.467 52.9243 255.139 52.8203 254.763 52.7323L254.139 52.5763C253.651 52.4483 253.219 52.2923 252.843 52.1083C252.467 51.9243 252.171 51.6843 251.955 51.3883C251.747 51.0843 251.643 50.6963 251.643 50.2243C251.643 49.7523 251.759 49.3443 251.991 49.0003C252.231 48.6563 252.563 48.3923 252.987 48.2083C253.419 48.0243 253.915 47.9323 254.475 47.9323C255.043 47.9323 255.551 48.0323 255.999 48.2323C256.455 48.4243 256.811 48.7123 257.067 49.0963C257.331 49.4723 257.463 49.9483 257.463 50.5243V51.0283H256.467V50.5243C256.467 50.1163 256.379 49.7883 256.203 49.5403C256.035 49.2923 255.799 49.1083 255.495 48.9883C255.199 48.8683 254.859 48.8083 254.475 48.8083C253.923 48.8083 253.479 48.9323 253.143 49.1803C252.807 49.4203 252.639 49.7643 252.639 50.2123C252.639 50.5083 252.711 50.7483 252.855 50.9323C252.999 51.1163 253.203 51.2683 253.467 51.3883C253.731 51.5003 254.047 51.6003 254.415 51.6883L255.039 51.8443C255.527 51.9483 255.963 52.0923 256.347 52.2763C256.739 52.4523 257.051 52.6963 257.283 53.0083C257.515 53.3123 257.631 53.7123 257.631 54.2083C257.631 54.7043 257.507 55.1363 257.259 55.5043C257.011 55.8723 256.659 56.1603 256.203 56.3683C255.755 56.5683 255.227 56.6683 254.619 56.6683Z" fill="#5C5E70"/>
<rect x="117.5" y="34.5" width="363" height="35.0006" rx="3.5" stroke="#2E2F38"/>
<rect x="493.5" y="34.5" width="35" height="35.0006" rx="3.5" fill="#141844"/>
<path d="M510.25 56.4999C513.149 56.4999 515.5 54.1495 515.5 51.25C515.5 48.3505 513.149 46 510.25 46C507.35 46 505 48.3505 505 51.25C505 54.1495 507.35 56.4999 510.25 56.4999Z" stroke="#4250E4" strokeWidth="1.4" stroke-linecap="round" stroke-linejoin="round"/>
<path d="M513.962 54.9631L517 58.0006" stroke="#4250E4" strokeWidth="1.4" stroke-linecap="round" stroke-linejoin="round"/>
<rect x="493.5" y="34.5" width="35" height="35.0006" rx="3.5" stroke="#283089"/>
<rect x="129" y="110.501" width="156" height="8" rx="4" fill="#23232A"/>
<path d="M419.584 119.001V117.013H414.866V115.123L418.254 109.201H421.222V115.557H422.832V117.013H421.222V119.001H419.584ZM416.406 115.557H419.584V110.237H419.346L416.406 115.347V115.557ZM428.812 119.197C428.084 119.197 427.435 119.066 426.866 118.805C426.306 118.543 425.867 118.17 425.55 117.685C425.233 117.19 425.074 116.602 425.074 115.921V115.669H426.698V115.879C426.698 116.448 426.889 116.901 427.272 117.237C427.664 117.573 428.177 117.741 428.812 117.741C429.447 117.741 429.941 117.587 430.296 117.279C430.651 116.961 430.828 116.565 430.828 116.089V115.963C430.828 115.627 430.744 115.356 430.576 115.151C430.417 114.945 430.198 114.796 429.918 114.703C429.647 114.6 429.339 114.549 428.994 114.549H427.118V112.729L430.436 110.867V110.657H425.312V109.201H432.228V111.385L429.092 113.149V113.359H429.666C430.133 113.359 430.576 113.452 430.996 113.639C431.425 113.816 431.775 114.091 432.046 114.465C432.317 114.838 432.452 115.323 432.452 115.921V116.075C432.452 116.709 432.298 117.26 431.99 117.727C431.691 118.193 431.267 118.557 430.716 118.819C430.175 119.071 429.54 119.197 428.812 119.197ZM435.38 119.001V117.867C435.38 117.176 435.492 116.611 435.716 116.173C435.949 115.725 436.28 115.361 436.71 115.081C437.139 114.791 437.662 114.553 438.278 114.367L439.174 114.087C439.538 113.965 439.846 113.821 440.098 113.653C440.35 113.485 440.546 113.279 440.686 113.037C440.826 112.785 440.896 112.491 440.896 112.155V112.099C440.896 111.595 440.723 111.198 440.378 110.909C440.032 110.61 439.57 110.461 438.992 110.461C438.413 110.461 437.942 110.619 437.578 110.937C437.214 111.245 437.032 111.702 437.032 112.309V112.547H435.408V112.337C435.408 111.627 435.566 111.025 435.884 110.531C436.201 110.036 436.63 109.658 437.172 109.397C437.713 109.135 438.32 109.005 438.992 109.005C439.664 109.005 440.266 109.135 440.798 109.397C441.339 109.649 441.759 110.003 442.058 110.461C442.366 110.918 442.52 111.455 442.52 112.071V112.211C442.52 112.836 442.394 113.363 442.142 113.793C441.89 114.222 441.54 114.577 441.092 114.857C440.653 115.127 440.154 115.351 439.594 115.529L438.726 115.795C438.306 115.925 437.97 116.065 437.718 116.215C437.475 116.364 437.302 116.537 437.2 116.733C437.097 116.919 437.046 117.157 437.046 117.447V117.545H442.436V119.001H435.38Z" fill="#5C5E70"/>
<path d="M452.96 119.001V110.601H456.452C456.94 110.601 457.372 110.689 457.748 110.865C458.124 111.041 458.416 111.289 458.624 111.609C458.84 111.921 458.948 112.289 458.948 112.713V112.809C458.948 113.201 458.872 113.525 458.72 113.781C458.576 114.029 458.396 114.225 458.18 114.369C457.972 114.505 457.768 114.605 457.568 114.669V114.837C457.768 114.885 457.976 114.981 458.192 115.125C458.408 115.261 458.588 115.457 458.732 115.713C458.884 115.969 458.96 116.293 458.96 116.685V116.805C458.96 117.261 458.852 117.657 458.636 117.993C458.42 118.321 458.12 118.573 457.736 118.749C457.36 118.917 456.928 119.001 456.44 119.001H452.96ZM453.968 118.089H456.332C456.86 118.089 457.264 117.965 457.544 117.717C457.824 117.469 457.964 117.133 457.964 116.709V116.601C457.964 116.177 457.824 115.841 457.544 115.593C457.264 115.345 456.86 115.221 456.332 115.221H453.968V118.089ZM453.968 114.309H456.356C456.844 114.309 457.232 114.189 457.52 113.949C457.808 113.701 457.952 113.377 457.952 112.977V112.857C457.952 112.449 457.808 112.125 457.52 111.885C457.232 111.637 456.844 111.513 456.356 111.513H453.968V114.309ZM464.813 119.169C463.813 119.169 463.013 118.881 462.413 118.305C461.821 117.721 461.525 116.873 461.525 115.761V113.841C461.525 112.729 461.821 111.885 462.413 111.309C463.013 110.725 463.813 110.433 464.813 110.433C465.821 110.433 466.621 110.725 467.213 111.309C467.813 111.885 468.113 112.729 468.113 113.841V115.761C468.113 116.873 467.813 117.721 467.213 118.305C466.621 118.881 465.821 119.169 464.813 119.169ZM464.813 118.269C465.541 118.269 466.105 118.053 466.505 117.621C466.905 117.181 467.105 116.573 467.105 115.797V113.805C467.105 113.029 466.905 112.425 466.505 111.993C466.105 111.553 465.541 111.333 464.813 111.333C464.093 111.333 463.533 111.553 463.133 111.993C462.733 112.425 462.533 113.029 462.533 113.805V115.797C462.533 116.573 462.733 117.181 463.133 117.621C463.533 118.053 464.093 118.269 464.813 118.269ZM474.029 119.169C473.405 119.169 472.861 119.057 472.397 118.833C471.933 118.609 471.573 118.277 471.317 117.837C471.061 117.389 470.933 116.841 470.933 116.193V110.601H471.929V116.205C471.929 116.893 472.113 117.409 472.481 117.753C472.849 118.097 473.365 118.269 474.029 118.269C474.693 118.269 475.209 118.097 475.577 117.753C475.945 117.409 476.129 116.893 476.129 116.205V110.601H477.137V116.193C477.137 116.841 477.009 117.389 476.753 117.837C476.497 118.277 476.133 118.609 475.661 118.833C475.197 119.057 474.653 119.169 474.029 119.169ZM480.185 119.001V110.601H482.141L485.069 118.365H485.225V110.601H486.221V119.001H484.265L481.349 111.225H481.181V119.001H480.185ZM491.418 119.001V111.513H488.718V110.601H495.126V111.513H492.426V119.001H491.418ZM497.608 119.001V110.601H498.616V119.001H497.608ZM501.738 119.001V110.601H506.91V111.513H502.746V114.321H506.574V115.233H502.746V118.089H506.97V119.001H501.738ZM512.496 119.169C511.888 119.169 511.344 119.061 510.864 118.845C510.384 118.629 510.004 118.305 509.724 117.873C509.452 117.433 509.316 116.885 509.316 116.229V115.977H510.312V116.229C510.312 116.925 510.516 117.445 510.924 117.789C511.332 118.125 511.856 118.293 512.496 118.293C513.152 118.293 513.652 118.145 513.996 117.849C514.34 117.553 514.512 117.181 514.512 116.733C514.512 116.421 514.432 116.173 514.272 115.989C514.12 115.805 513.904 115.657 513.624 115.545C513.344 115.425 513.016 115.321 512.64 115.233L512.016 115.077C511.528 114.949 511.096 114.793 510.72 114.609C510.344 114.425 510.048 114.185 509.832 113.889C509.624 113.585 509.52 113.197 509.52 112.725C509.52 112.253 509.636 111.845 509.868 111.501C510.108 111.157 510.44 110.893 510.864 110.709C511.296 110.525 511.792 110.433 512.352 110.433C512.92 110.433 513.428 110.533 513.876 110.733C514.332 110.925 514.688 111.213 514.944 111.597C515.208 111.973 515.34 112.449 515.34 113.025V113.529H514.344V113.025C514.344 112.617 514.256 112.289 514.08 112.041C513.912 111.793 513.676 111.609 513.372 111.489C513.076 111.369 512.736 111.309 512.352 111.309C511.8 111.309 511.356 111.433 511.02 111.681C510.684 111.921 510.516 112.265 510.516 112.713C510.516 113.009 510.588 113.249 510.732 113.433C510.876 113.617 511.08 113.769 511.344 113.889C511.608 114.001 511.924 114.101 512.292 114.189L512.916 114.345C513.404 114.449 513.84 114.593 514.224 114.777C514.616 114.953 514.928 115.197 515.16 115.509C515.392 115.813 515.508 116.213 515.508 116.709C515.508 117.205 515.384 117.637 515.136 118.005C514.888 118.373 514.536 118.661 514.08 118.869C513.632 119.069 513.104 119.169 512.496 119.169Z" fill="#2E2F38"/>
<rect x="117.5" y="94.5006" width="411" height="40" rx="7.5" stroke="#2E2F38"/>
<g opacity="0.6">
<rect x="129" y="163.501" width="95" height="8" rx="4" fill="#23232A"/>
<path d="M415.216 172.001V170.867C415.216 170.176 415.328 169.611 415.552 169.173C415.786 168.725 416.117 168.361 416.546 168.081C416.976 167.791 417.498 167.553 418.114 167.367L419.01 167.087C419.374 166.965 419.682 166.821 419.934 166.653C420.186 166.485 420.382 166.279 420.522 166.037C420.662 165.785 420.732 165.491 420.732 165.155V165.099C420.732 164.595 420.56 164.198 420.214 163.909C419.869 163.61 419.407 163.461 418.828 163.461C418.25 163.461 417.778 163.619 417.414 163.937C417.05 164.245 416.868 164.702 416.868 165.309V165.547H415.244V165.337C415.244 164.627 415.403 164.025 415.72 163.531C416.038 163.036 416.467 162.658 417.008 162.397C417.55 162.135 418.156 162.005 418.828 162.005C419.5 162.005 420.102 162.135 420.634 162.397C421.176 162.649 421.596 163.003 421.894 163.461C422.202 163.918 422.356 164.455 422.356 165.071V165.211C422.356 165.836 422.23 166.363 421.978 166.793C421.726 167.222 421.376 167.577 420.928 167.857C420.49 168.127 419.99 168.351 419.43 168.529L418.562 168.795C418.142 168.925 417.806 169.065 417.554 169.215C417.312 169.364 417.139 169.537 417.036 169.733C416.934 169.919 416.882 170.157 416.882 170.447V170.545H422.272V172.001H415.216ZM426.782 172.001V171.637C426.782 171.282 426.805 170.983 426.852 170.741C426.899 170.489 427.025 170.199 427.23 169.873L430.884 163.881V163.685H425.032V162.201H432.606V164.161L428.77 170.531C428.639 170.745 428.551 170.937 428.504 171.105C428.467 171.263 428.448 171.464 428.448 171.707V172.001H426.782ZM438.782 172.197C438.054 172.197 437.424 172.075 436.892 171.833C436.369 171.581 435.963 171.231 435.674 170.783C435.384 170.325 435.24 169.789 435.24 169.173H436.892C436.892 169.602 437.041 169.971 437.34 170.279C437.648 170.587 438.128 170.741 438.782 170.741C439.444 170.741 439.953 170.568 440.308 170.223C440.672 169.868 440.854 169.383 440.854 168.767V167.675H440.616C440.448 167.889 440.196 168.09 439.86 168.277C439.524 168.454 439.029 168.543 438.376 168.543C437.806 168.543 437.279 168.421 436.794 168.179C436.308 167.936 435.916 167.581 435.618 167.115C435.328 166.648 435.184 166.088 435.184 165.435V165.267C435.184 164.604 435.338 164.03 435.646 163.545C435.954 163.059 436.383 162.681 436.934 162.411C437.484 162.14 438.124 162.005 438.852 162.005C439.58 162.005 440.214 162.145 440.756 162.425C441.306 162.695 441.731 163.078 442.03 163.573C442.328 164.067 442.478 164.641 442.478 165.295V168.669C442.478 169.443 442.319 170.092 442.002 170.615C441.694 171.137 441.26 171.534 440.7 171.805C440.149 172.066 439.51 172.197 438.782 172.197ZM438.824 167.241C439.244 167.241 439.603 167.166 439.902 167.017C440.2 166.858 440.434 166.643 440.602 166.373C440.77 166.093 440.854 165.766 440.854 165.393V165.281C440.854 164.721 440.672 164.277 440.308 163.951C439.944 163.624 439.449 163.461 438.824 163.461C438.208 163.461 437.718 163.624 437.354 163.951C436.99 164.277 436.808 164.721 436.808 165.281V165.393C436.808 165.766 436.892 166.093 437.06 166.373C437.228 166.643 437.461 166.858 437.76 167.017C438.068 167.166 438.422 167.241 438.824 167.241Z" fill="#5C5E70"/>
<path d="M452.96 172.001V163.601H456.452C456.94 163.601 457.372 163.689 457.748 163.865C458.124 164.041 458.416 164.289 458.624 164.609C458.84 164.921 458.948 165.289 458.948 165.713V165.809C458.948 166.201 458.872 166.525 458.72 166.781C458.576 167.029 458.396 167.225 458.18 167.369C457.972 167.505 457.768 167.605 457.568 167.669V167.837C457.768 167.885 457.976 167.981 458.192 168.125C458.408 168.261 458.588 168.457 458.732 168.713C458.884 168.969 458.96 169.293 458.96 169.685V169.805C458.96 170.261 458.852 170.657 458.636 170.993C458.42 171.321 458.12 171.573 457.736 171.749C457.36 171.917 456.928 172.001 456.44 172.001H452.96ZM453.968 171.089H456.332C456.86 171.089 457.264 170.965 457.544 170.717C457.824 170.469 457.964 170.133 457.964 169.709V169.601C457.964 169.177 457.824 168.841 457.544 168.593C457.264 168.345 456.86 168.221 456.332 168.221H453.968V171.089ZM453.968 167.309H456.356C456.844 167.309 457.232 167.189 457.52 166.949C457.808 166.701 457.952 166.377 457.952 165.977V165.857C457.952 165.449 457.808 165.125 457.52 164.885C457.232 164.637 456.844 164.513 456.356 164.513H453.968V167.309ZM464.813 172.169C463.813 172.169 463.013 171.881 462.413 171.305C461.821 170.721 461.525 169.873 461.525 168.761V166.841C461.525 165.729 461.821 164.885 462.413 164.309C463.013 163.725 463.813 163.433 464.813 163.433C465.821 163.433 466.621 163.725 467.213 164.309C467.813 164.885 468.113 165.729 468.113 166.841V168.761C468.113 169.873 467.813 170.721 467.213 171.305C466.621 171.881 465.821 172.169 464.813 172.169ZM464.813 171.269C465.541 171.269 466.105 171.053 466.505 170.621C466.905 170.181 467.105 169.573 467.105 168.797V166.805C467.105 166.029 466.905 165.425 466.505 164.993C466.105 164.553 465.541 164.333 464.813 164.333C464.093 164.333 463.533 164.553 463.133 164.993C462.733 165.425 462.533 166.029 462.533 166.805V168.797C462.533 169.573 462.733 170.181 463.133 170.621C463.533 171.053 464.093 171.269 464.813 171.269ZM474.029 172.169C473.405 172.169 472.861 172.057 472.397 171.833C471.933 171.609 471.573 171.277 471.317 170.837C471.061 170.389 470.933 169.841 470.933 169.193V163.601H471.929V169.205C471.929 169.893 472.113 170.409 472.481 170.753C472.849 171.097 473.365 171.269 474.029 171.269C474.693 171.269 475.209 171.097 475.577 170.753C475.945 170.409 476.129 169.893 476.129 169.205V163.601H477.137V169.193C477.137 169.841 477.009 170.389 476.753 170.837C476.497 171.277 476.133 171.609 475.661 171.833C475.197 172.057 474.653 172.169 474.029 172.169ZM480.185 172.001V163.601H482.141L485.069 171.365H485.225V163.601H486.221V172.001H484.265L481.349 164.225H481.181V172.001H480.185ZM491.418 172.001V164.513H488.718V163.601H495.126V164.513H492.426V172.001H491.418ZM497.608 172.001V163.601H498.616V172.001H497.608ZM501.738 172.001V163.601H506.91V164.513H502.746V167.321H506.574V168.233H502.746V171.089H506.97V172.001H501.738ZM512.496 172.169C511.888 172.169 511.344 172.061 510.864 171.845C510.384 171.629 510.004 171.305 509.724 170.873C509.452 170.433 509.316 169.885 509.316 169.229V168.977H510.312V169.229C510.312 169.925 510.516 170.445 510.924 170.789C511.332 171.125 511.856 171.293 512.496 171.293C513.152 171.293 513.652 171.145 513.996 170.849C514.34 170.553 514.512 170.181 514.512 169.733C514.512 169.421 514.432 169.173 514.272 168.989C514.12 168.805 513.904 168.657 513.624 168.545C513.344 168.425 513.016 168.321 512.64 168.233L512.016 168.077C511.528 167.949 511.096 167.793 510.72 167.609C510.344 167.425 510.048 167.185 509.832 166.889C509.624 166.585 509.52 166.197 509.52 165.725C509.52 165.253 509.636 164.845 509.868 164.501C510.108 164.157 510.44 163.893 510.864 163.709C511.296 163.525 511.792 163.433 512.352 163.433C512.92 163.433 513.428 163.533 513.876 163.733C514.332 163.925 514.688 164.213 514.944 164.597C515.208 164.973 515.34 165.449 515.34 166.025V166.529H514.344V166.025C514.344 165.617 514.256 165.289 514.08 165.041C513.912 164.793 513.676 164.609 513.372 164.489C513.076 164.369 512.736 164.309 512.352 164.309C511.8 164.309 511.356 164.433 511.02 164.681C510.684 164.921 510.516 165.265 510.516 165.713C510.516 166.009 510.588 166.249 510.732 166.433C510.876 166.617 511.08 166.769 511.344 166.889C511.608 167.001 511.924 167.101 512.292 167.189L512.916 167.345C513.404 167.449 513.84 167.593 514.224 167.777C514.616 167.953 514.928 168.197 515.16 168.509C515.392 168.813 515.508 169.213 515.508 169.709C515.508 170.205 515.384 170.637 515.136 171.005C514.888 171.373 514.536 171.661 514.08 171.869C513.632 172.069 513.104 172.169 512.496 172.169Z" fill="#2E2F38"/>
<rect x="117.5" y="147.501" width="411" height="40" rx="7.5" stroke="#2E2F38"/>
</g>
<g opacity="0.4">
<rect x="129" y="216.501" width="125" height="8" rx="4" fill="#23232A"/>
<path d="M418.73 225.197C418.002 225.197 417.354 225.066 416.784 224.805C416.224 224.543 415.786 224.17 415.468 223.685C415.151 223.19 414.992 222.602 414.992 221.921V221.669H416.616V221.879C416.616 222.448 416.808 222.901 417.19 223.237C417.582 223.573 418.096 223.741 418.73 223.741C419.365 223.741 419.86 223.587 420.214 223.279C420.569 222.961 420.746 222.565 420.746 222.089V221.963C420.746 221.627 420.662 221.356 420.494 221.151C420.336 220.945 420.116 220.796 419.836 220.703C419.566 220.6 419.258 220.549 418.912 220.549H417.036V218.729L420.354 216.867V216.657H415.23V215.201H422.146V217.385L419.01 219.149V219.359H419.584C420.051 219.359 420.494 219.452 420.914 219.639C421.344 219.816 421.694 220.091 421.964 220.465C422.235 220.838 422.37 221.323 422.37 221.921V222.075C422.37 222.709 422.216 223.26 421.908 223.727C421.61 224.193 421.185 224.557 420.634 224.819C420.093 225.071 419.458 225.197 418.73 225.197ZM425.298 225.001V223.867C425.298 223.176 425.41 222.611 425.634 222.173C425.867 221.725 426.199 221.361 426.628 221.081C427.057 220.791 427.58 220.553 428.196 220.367L429.092 220.087C429.456 219.965 429.764 219.821 430.016 219.653C430.268 219.485 430.464 219.279 430.604 219.037C430.744 218.785 430.814 218.491 430.814 218.155V218.099C430.814 217.595 430.641 217.198 430.296 216.909C429.951 216.61 429.489 216.461 428.91 216.461C428.331 216.461 427.86 216.619 427.496 216.937C427.132 217.245 426.95 217.702 426.95 218.309V218.547H425.326V218.337C425.326 217.627 425.485 217.025 425.802 216.531C426.119 216.036 426.549 215.658 427.09 215.397C427.631 215.135 428.238 215.005 428.91 215.005C429.582 215.005 430.184 215.135 430.716 215.397C431.257 215.649 431.677 216.003 431.976 216.461C432.284 216.918 432.438 217.455 432.438 218.071V218.211C432.438 218.836 432.312 219.363 432.06 219.793C431.808 220.222 431.458 220.577 431.01 220.857C430.571 221.127 430.072 221.351 429.512 221.529L428.644 221.795C428.224 221.925 427.888 222.065 427.636 222.215C427.393 222.364 427.221 222.537 427.118 222.733C427.015 222.919 426.964 223.157 426.964 223.447V223.545H432.354V225.001H425.298ZM438.908 225.197C437.76 225.197 436.84 224.875 436.15 224.231C435.459 223.587 435.114 222.616 435.114 221.319V218.883C435.114 217.613 435.459 216.652 436.15 215.999C436.84 215.336 437.76 215.005 438.908 215.005C440.065 215.005 440.984 215.336 441.666 215.999C442.356 216.652 442.702 217.613 442.702 218.883V221.319C442.702 222.616 442.356 223.587 441.666 224.231C440.984 224.875 440.065 225.197 438.908 225.197ZM438.908 223.741C439.645 223.741 440.186 223.535 440.532 223.125C440.886 222.714 441.064 222.131 441.064 221.375V218.813C441.064 218.047 440.872 217.464 440.49 217.063C440.107 216.661 439.58 216.461 438.908 216.461C438.217 216.461 437.685 216.666 437.312 217.077C436.938 217.487 436.752 218.066 436.752 218.813V221.375C436.752 222.149 436.929 222.737 437.284 223.139C437.648 223.54 438.189 223.741 438.908 223.741Z" fill="#5C5E70"/>
<path d="M452.96 225.001V216.601H456.452C456.94 216.601 457.372 216.689 457.748 216.865C458.124 217.041 458.416 217.289 458.624 217.609C458.84 217.921 458.948 218.289 458.948 218.713V218.809C458.948 219.201 458.872 219.525 458.72 219.781C458.576 220.029 458.396 220.225 458.18 220.369C457.972 220.505 457.768 220.605 457.568 220.669V220.837C457.768 220.885 457.976 220.981 458.192 221.125C458.408 221.261 458.588 221.457 458.732 221.713C458.884 221.969 458.96 222.293 458.96 222.685V222.805C458.96 223.261 458.852 223.657 458.636 223.993C458.42 224.321 458.12 224.573 457.736 224.749C457.36 224.917 456.928 225.001 456.44 225.001H452.96ZM453.968 224.089H456.332C456.86 224.089 457.264 223.965 457.544 223.717C457.824 223.469 457.964 223.133 457.964 222.709V222.601C457.964 222.177 457.824 221.841 457.544 221.593C457.264 221.345 456.86 221.221 456.332 221.221H453.968V224.089ZM453.968 220.309H456.356C456.844 220.309 457.232 220.189 457.52 219.949C457.808 219.701 457.952 219.377 457.952 218.977V218.857C457.952 218.449 457.808 218.125 457.52 217.885C457.232 217.637 456.844 217.513 456.356 217.513H453.968V220.309ZM464.813 225.169C463.813 225.169 463.013 224.881 462.413 224.305C461.821 223.721 461.525 222.873 461.525 221.761V219.841C461.525 218.729 461.821 217.885 462.413 217.309C463.013 216.725 463.813 216.433 464.813 216.433C465.821 216.433 466.621 216.725 467.213 217.309C467.813 217.885 468.113 218.729 468.113 219.841V221.761C468.113 222.873 467.813 223.721 467.213 224.305C466.621 224.881 465.821 225.169 464.813 225.169ZM464.813 224.269C465.541 224.269 466.105 224.053 466.505 223.621C466.905 223.181 467.105 222.573 467.105 221.797V219.805C467.105 219.029 466.905 218.425 466.505 217.993C466.105 217.553 465.541 217.333 464.813 217.333C464.093 217.333 463.533 217.553 463.133 217.993C462.733 218.425 462.533 219.029 462.533 219.805V221.797C462.533 222.573 462.733 223.181 463.133 223.621C463.533 224.053 464.093 224.269 464.813 224.269ZM474.029 225.169C473.405 225.169 472.861 225.057 472.397 224.833C471.933 224.609 471.573 224.277 471.317 223.837C471.061 223.389 470.933 222.841 470.933 222.193V216.601H471.929V222.205C471.929 222.893 472.113 223.409 472.481 223.753C472.849 224.097 473.365 224.269 474.029 224.269C474.693 224.269 475.209 224.097 475.577 223.753C475.945 223.409 476.129 222.893 476.129 222.205V216.601H477.137V222.193C477.137 222.841 477.009 223.389 476.753 223.837C476.497 224.277 476.133 224.609 475.661 224.833C475.197 225.057 474.653 225.169 474.029 225.169ZM480.185 225.001V216.601H482.141L485.069 224.365H485.225V216.601H486.221V225.001H484.265L481.349 217.225H481.181V225.001H480.185ZM491.418 225.001V217.513H488.718V216.601H495.126V217.513H492.426V225.001H491.418ZM497.608 225.001V216.601H498.616V225.001H497.608ZM501.738 225.001V216.601H506.91V217.513H502.746V220.321H506.574V221.233H502.746V224.089H506.97V225.001H501.738ZM512.496 225.169C511.888 225.169 511.344 225.061 510.864 224.845C510.384 224.629 510.004 224.305 509.724 223.873C509.452 223.433 509.316 222.885 509.316 222.229V221.977H510.312V222.229C510.312 222.925 510.516 223.445 510.924 223.789C511.332 224.125 511.856 224.293 512.496 224.293C513.152 224.293 513.652 224.145 513.996 223.849C514.34 223.553 514.512 223.181 514.512 222.733C514.512 222.421 514.432 222.173 514.272 221.989C514.12 221.805 513.904 221.657 513.624 221.545C513.344 221.425 513.016 221.321 512.64 221.233L512.016 221.077C511.528 220.949 511.096 220.793 510.72 220.609C510.344 220.425 510.048 220.185 509.832 219.889C509.624 219.585 509.52 219.197 509.52 218.725C509.52 218.253 509.636 217.845 509.868 217.501C510.108 217.157 510.44 216.893 510.864 216.709C511.296 216.525 511.792 216.433 512.352 216.433C512.92 216.433 513.428 216.533 513.876 216.733C514.332 216.925 514.688 217.213 514.944 217.597C515.208 217.973 515.34 218.449 515.34 219.025V219.529H514.344V219.025C514.344 218.617 514.256 218.289 514.08 218.041C513.912 217.793 513.676 217.609 513.372 217.489C513.076 217.369 512.736 217.309 512.352 217.309C511.8 217.309 511.356 217.433 511.02 217.681C510.684 217.921 510.516 218.265 510.516 218.713C510.516 219.009 510.588 219.249 510.732 219.433C510.876 219.617 511.08 219.769 511.344 219.889C511.608 220.001 511.924 220.101 512.292 220.189L512.916 220.345C513.404 220.449 513.84 220.593 514.224 220.777C514.616 220.953 514.928 221.197 515.16 221.509C515.392 221.813 515.508 222.213 515.508 222.709C515.508 223.205 515.384 223.637 515.136 224.005C514.888 224.373 514.536 224.661 514.08 224.869C513.632 225.069 513.104 225.169 512.496 225.169Z" fill="#2E2F38"/>
<rect x="117.5" y="200.501" width="411" height="40" rx="7.5" stroke="#2E2F38"/>
</g>
<g opacity="0.2">
<rect x="129" y="269.501" width="125" height="8" rx="4" fill="#23232A"/>
<path d="M418.8 278.197C418.072 278.197 417.438 278.061 416.896 277.791C416.355 277.511 415.93 277.123 415.622 276.629C415.324 276.134 415.174 275.56 415.174 274.907V271.533C415.174 270.758 415.333 270.109 415.65 269.587C415.968 269.064 416.402 268.672 416.952 268.411C417.512 268.14 418.156 268.005 418.884 268.005C419.612 268.005 420.238 268.131 420.76 268.383C421.292 268.625 421.698 268.975 421.978 269.433C422.268 269.881 422.412 270.413 422.412 271.029H420.76C420.76 270.599 420.611 270.231 420.312 269.923C420.023 269.615 419.547 269.461 418.884 269.461C418.222 269.461 417.708 269.638 417.344 269.993C416.99 270.338 416.812 270.819 416.812 271.435V272.527H417.05C417.209 272.312 417.461 272.116 417.806 271.939C418.152 271.752 418.642 271.659 419.276 271.659C419.855 271.659 420.382 271.78 420.858 272.023C421.344 272.265 421.736 272.62 422.034 273.087C422.333 273.553 422.482 274.113 422.482 274.767V274.935C422.482 275.588 422.328 276.162 422.02 276.657C421.712 277.142 421.283 277.52 420.732 277.791C420.182 278.061 419.538 278.197 418.8 278.197ZM418.828 276.741C419.444 276.741 419.934 276.577 420.298 276.251C420.662 275.915 420.844 275.471 420.844 274.921V274.809C420.844 274.426 420.76 274.099 420.592 273.829C420.434 273.558 420.2 273.348 419.892 273.199C419.594 273.04 419.239 272.961 418.828 272.961C418.427 272.961 418.072 273.04 417.764 273.199C417.456 273.348 417.218 273.558 417.05 273.829C416.892 274.099 416.812 274.426 416.812 274.809V274.921C416.812 275.471 416.994 275.915 417.358 276.251C417.722 276.577 418.212 276.741 418.828 276.741ZM428.602 278.001V269.419H428.364L427.384 272.583H425.746L427.16 268.201H430.254V278.001H428.602ZM425.424 278.001V276.475H432.522V278.001H425.424ZM438.908 278.197C437.76 278.197 436.84 277.875 436.15 277.231C435.459 276.587 435.114 275.616 435.114 274.319V271.883C435.114 270.613 435.459 269.652 436.15 268.999C436.84 268.336 437.76 268.005 438.908 268.005C440.065 268.005 440.984 268.336 441.666 268.999C442.356 269.652 442.702 270.613 442.702 271.883V274.319C442.702 275.616 442.356 276.587 441.666 277.231C440.984 277.875 440.065 278.197 438.908 278.197ZM438.908 276.741C439.645 276.741 440.186 276.535 440.532 276.125C440.886 275.714 441.064 275.131 441.064 274.375V271.813C441.064 271.047 440.872 270.464 440.49 270.063C440.107 269.661 439.58 269.461 438.908 269.461C438.217 269.461 437.685 269.666 437.312 270.077C436.938 270.487 436.752 271.066 436.752 271.813V274.375C436.752 275.149 436.929 275.737 437.284 276.139C437.648 276.54 438.189 276.741 438.908 276.741Z" fill="#5C5E70"/>
<path d="M452.96 278.001V269.601H456.452C456.94 269.601 457.372 269.689 457.748 269.865C458.124 270.041 458.416 270.289 458.624 270.609C458.84 270.921 458.948 271.289 458.948 271.713V271.809C458.948 272.201 458.872 272.525 458.72 272.781C458.576 273.029 458.396 273.225 458.18 273.369C457.972 273.505 457.768 273.605 457.568 273.669V273.837C457.768 273.885 457.976 273.981 458.192 274.125C458.408 274.261 458.588 274.457 458.732 274.713C458.884 274.969 458.96 275.293 458.96 275.685V275.805C458.96 276.261 458.852 276.657 458.636 276.993C458.42 277.321 458.12 277.573 457.736 277.749C457.36 277.917 456.928 278.001 456.44 278.001H452.96ZM453.968 277.089H456.332C456.86 277.089 457.264 276.965 457.544 276.717C457.824 276.469 457.964 276.133 457.964 275.709V275.601C457.964 275.177 457.824 274.841 457.544 274.593C457.264 274.345 456.86 274.221 456.332 274.221H453.968V277.089ZM453.968 273.309H456.356C456.844 273.309 457.232 273.189 457.52 272.949C457.808 272.701 457.952 272.377 457.952 271.977V271.857C457.952 271.449 457.808 271.125 457.52 270.885C457.232 270.637 456.844 270.513 456.356 270.513H453.968V273.309ZM464.813 278.169C463.813 278.169 463.013 277.881 462.413 277.305C461.821 276.721 461.525 275.873 461.525 274.761V272.841C461.525 271.729 461.821 270.885 462.413 270.309C463.013 269.725 463.813 269.433 464.813 269.433C465.821 269.433 466.621 269.725 467.213 270.309C467.813 270.885 468.113 271.729 468.113 272.841V274.761C468.113 275.873 467.813 276.721 467.213 277.305C466.621 277.881 465.821 278.169 464.813 278.169ZM464.813 277.269C465.541 277.269 466.105 277.053 466.505 276.621C466.905 276.181 467.105 275.573 467.105 274.797V272.805C467.105 272.029 466.905 271.425 466.505 270.993C466.105 270.553 465.541 270.333 464.813 270.333C464.093 270.333 463.533 270.553 463.133 270.993C462.733 271.425 462.533 272.029 462.533 272.805V274.797C462.533 275.573 462.733 276.181 463.133 276.621C463.533 277.053 464.093 277.269 464.813 277.269ZM474.029 278.169C473.405 278.169 472.861 278.057 472.397 277.833C471.933 277.609 471.573 277.277 471.317 276.837C471.061 276.389 470.933 275.841 470.933 275.193V269.601H471.929V275.205C471.929 275.893 472.113 276.409 472.481 276.753C472.849 277.097 473.365 277.269 474.029 277.269C474.693 277.269 475.209 277.097 475.577 276.753C475.945 276.409 476.129 275.893 476.129 275.205V269.601H477.137V275.193C477.137 275.841 477.009 276.389 476.753 276.837C476.497 277.277 476.133 277.609 475.661 277.833C475.197 278.057 474.653 278.169 474.029 278.169ZM480.185 278.001V269.601H482.141L485.069 277.365H485.225V269.601H486.221V278.001H484.265L481.349 270.225H481.181V278.001H480.185ZM491.418 278.001V270.513H488.718V269.601H495.126V270.513H492.426V278.001H491.418ZM497.608 278.001V269.601H498.616V278.001H497.608ZM501.738 278.001V269.601H506.91V270.513H502.746V273.321H506.574V274.233H502.746V277.089H506.97V278.001H501.738ZM512.496 278.169C511.888 278.169 511.344 278.061 510.864 277.845C510.384 277.629 510.004 277.305 509.724 276.873C509.452 276.433 509.316 275.885 509.316 275.229V274.977H510.312V275.229C510.312 275.925 510.516 276.445 510.924 276.789C511.332 277.125 511.856 277.293 512.496 277.293C513.152 277.293 513.652 277.145 513.996 276.849C514.34 276.553 514.512 276.181 514.512 275.733C514.512 275.421 514.432 275.173 514.272 274.989C514.12 274.805 513.904 274.657 513.624 274.545C513.344 274.425 513.016 274.321 512.64 274.233L512.016 274.077C511.528 273.949 511.096 273.793 510.72 273.609C510.344 273.425 510.048 273.185 509.832 272.889C509.624 272.585 509.52 272.197 509.52 271.725C509.52 271.253 509.636 270.845 509.868 270.501C510.108 270.157 510.44 269.893 510.864 269.709C511.296 269.525 511.792 269.433 512.352 269.433C512.92 269.433 513.428 269.533 513.876 269.733C514.332 269.925 514.688 270.213 514.944 270.597C515.208 270.973 515.34 271.449 515.34 272.025V272.529H514.344V272.025C514.344 271.617 514.256 271.289 514.08 271.041C513.912 270.793 513.676 270.609 513.372 270.489C513.076 270.369 512.736 270.309 512.352 270.309C511.8 270.309 511.356 270.433 511.02 270.681C510.684 270.921 510.516 271.265 510.516 271.713C510.516 272.009 510.588 272.249 510.732 272.433C510.876 272.617 511.08 272.769 511.344 272.889C511.608 273.001 511.924 273.101 512.292 273.189L512.916 273.345C513.404 273.449 513.84 273.593 514.224 273.777C514.616 273.953 514.928 274.197 515.16 274.509C515.392 274.813 515.508 275.213 515.508 275.709C515.508 276.205 515.384 276.637 515.136 277.005C514.888 277.373 514.536 277.661 514.08 277.869C513.632 278.069 513.104 278.169 512.496 278.169Z" fill="#2E2F38"/>
<rect x="117.5" y="253.501" width="411" height="40" rx="7.5" stroke="#2E2F38"/>
</g>
</g>
<rect x="93.5" y="10.5" width="459" height="262" rx="7.5" stroke="url(#paint0_linear_317_6763)"/>
<g filter="url(#filter0_d_317_6763)">
<rect x="45.625" y="45.2236" width="60" height="60" rx="30" fill="#23232A" shape-rendering="crispEdges"/>
<path d="M72.394 70.3745H78.8556" stroke="#ABACBA" strokeWidth="1.4" stroke-linecap="round" stroke-linejoin="round"/>
<path d="M89.3021 78.7615L83.4194 65.3942C82.812 64.7932 81.9921 64.4562 81.1377 64.4562C80.2833 64.4562 79.4633 64.7932 78.856 65.3942V80.6057" stroke="#ABACBA" strokeWidth="1.4" stroke-linecap="round" stroke-linejoin="round"/>
<path d="M72.3944 80.6057V65.3942C71.787 64.7932 70.9671 64.4562 70.1127 64.4562C69.2582 64.4562 68.4383 64.7932 67.8309 65.3942L61.9482 78.7615" stroke="#ABACBA" strokeWidth="1.4" stroke-linecap="round" stroke-linejoin="round"/>
<path d="M67.0096 85.991C69.9835 85.991 72.3942 83.5803 72.3942 80.6064C72.3942 77.6326 69.9835 75.2218 67.0096 75.2218C64.0358 75.2218 61.625 77.6326 61.625 80.6064C61.625 83.5803 64.0358 85.991 67.0096 85.991Z" stroke="#ABACBA" strokeWidth="1.4" stroke-linecap="round" stroke-linejoin="round"/>
<path d="M84.2406 85.991C87.2144 85.991 89.6252 83.5803 89.6252 80.6064C89.6252 77.6326 87.2144 75.2218 84.2406 75.2218C81.2667 75.2218 78.856 77.6326 78.856 80.6064C78.856 83.5803 81.2667 85.991 84.2406 85.991Z" stroke="#ABACBA" strokeWidth="1.4" stroke-linecap="round" stroke-linejoin="round"/>
<rect x="46.125" y="45.7236" width="59" height="59" rx="29.5" stroke="#2E2F38" shape-rendering="crispEdges"/>
</g>
<g filter="url(#filter1_d_317_6763)">
<rect x="539" y="184.302" width="60" height="60" rx="30" fill="#23232A" shape-rendering="crispEdges"/>
<path d="M563.996 222.724C562.279 227.828 555.473 227.828 555.473 227.828C555.473 227.828 555.473 221.022 560.577 219.305" stroke="#ABACBA" strokeWidth="1.4" stroke-linecap="round" stroke-linejoin="round"/>
<path d="M579.325 210.798L569.1 221.023L562.279 214.201L572.503 203.977C576.373 200.107 580.243 200.152 581.899 200.393C582.155 200.427 582.392 200.545 582.575 200.727C582.757 200.909 582.874 201.146 582.908 201.402C583.149 203.058 583.194 206.928 579.325 210.798Z" stroke="#ABACBA" strokeWidth="1.4" stroke-linecap="round" stroke-linejoin="round"/>
<path d="M577.623 212.5V222.227C577.618 222.545 577.489 222.848 577.262 223.071L572.398 227.949C572.243 228.104 572.05 228.213 571.839 228.266C571.627 228.319 571.405 228.313 571.196 228.25C570.988 228.186 570.8 228.068 570.654 227.906C570.507 227.744 570.408 227.546 570.365 227.332L569.1 221.023" stroke="#ABACBA" strokeWidth="1.4" stroke-linecap="round" stroke-linejoin="round"/>
<path d="M570.802 205.678H561.074C560.757 205.682 560.454 205.812 560.231 206.039L555.352 210.903C555.198 211.057 555.089 211.251 555.036 211.462C554.983 211.674 554.989 211.896 555.052 212.104C555.115 212.313 555.234 212.501 555.396 212.647C555.557 212.794 555.756 212.893 555.97 212.936L562.279 214.201" stroke="#ABACBA" strokeWidth="1.4" stroke-linecap="round" stroke-linejoin="round"/>
<rect x="539.5" y="184.802" width="59" height="59" rx="29.5" stroke="#2E2F38" shape-rendering="crispEdges"/>
</g>
<defs>
<filter id="filter0_d_317_6763" x="0.625" y="0.223633" width="150" height="150" filterUnits="userSpaceOnUse" color-interpolation-filters="sRGB">
<feFlood flood-opacity="0" result="BackgroundImageFix"/>
<feColorMatrix in="SourceAlpha" type="matrix" values="0 0 0 0 0 0 0 0 0 0 0 0 0 0 0 0 0 0 127 0" result="hardAlpha"/>
<feOffset/>
<feGaussianBlur stdDeviation="22.5"/>
<feComposite in2="hardAlpha" operator="out"/>
<feColorMatrix type="matrix" values="0 0 0 0 0.0470588 0 0 0 0 0.0470588 0 0 0 0 0.054902 0 0 0 1 0"/>
<feBlend mode="normal" in2="BackgroundImageFix" result="effect1_dropShadow_317_6763"/>
<feBlend mode="normal" in="SourceGraphic" in2="effect1_dropShadow_317_6763" result="shape"/>
</filter>
<filter id="filter1_d_317_6763" x="494" y="139.302" width="150" height="150" filterUnits="userSpaceOnUse" color-interpolation-filters="sRGB">
<feFlood flood-opacity="0" result="BackgroundImageFix"/>
<feColorMatrix in="SourceAlpha" type="matrix" values="0 0 0 0 0 0 0 0 0 0 0 0 0 0 0 0 0 0 127 0" result="hardAlpha"/>
<feOffset/>
<feGaussianBlur stdDeviation="22.5"/>
<feComposite in2="hardAlpha" operator="out"/>
<feColorMatrix type="matrix" values="0 0 0 0 0.0470588 0 0 0 0 0.0470588 0 0 0 0 0.054902 0 0 0 1 0"/>
<feBlend mode="normal" in2="BackgroundImageFix" result="effect1_dropShadow_317_6763"/>
<feBlend mode="normal" in="SourceGraphic" in2="effect1_dropShadow_317_6763" result="shape"/>
</filter>
<linearGradient id="paint0_linear_317_6763" x1="337.011" y1="10" x2="337.011" y2="273" gradientUnits="userSpaceOnUse">
<stop stop-color="#454654"/>
<stop offset="1" stop-color="#22232A"/>
</linearGradient>
<clipPath id="clip0_317_6763">
<rect x="93" y="10" width="460" height="263" rx="8" fill="white"/>
</clipPath>
</defs>
</svg>
