<svg width="451" height="249" viewBox="0 0 451 249" fill="none" xmlns="http://www.w3.org/2000/svg">
<rect x="0.5" y="1" width="449.002" height="247" rx="7.5" fill="#17171C"/>
<path d="M123.997 124.49V24.5C169.768 24.5 209.697 55.5757 220.933 99.9442L123.997 124.49Z" fill="#4250E4" stroke="#17171C"/>
<path d="M123.997 124.49L220.933 99.9442C232.169 144.313 211.845 190.646 171.59 212.429L123.997 124.49Z" fill="#D9DCFA" stroke="#17171C"/>
<path d="M123.996 124.49L171.589 212.429C123.019 238.713 62.3372 220.648 36.0523 172.081C18.5795 139.796 20.2035 100.533 40.2829 69.8008L123.996 124.49Z" fill="#B3B9F4" stroke="#17171C"/>
<path d="M123.997 124.49L40.2832 69.8009C46.3258 60.5525 53.8594 52.3693 62.5778 45.584L123.997 124.49Z" fill="#8E96EF" stroke="#17171C"/>
<path d="M123.997 124.49L62.5776 45.5839C80.1349 31.9194 101.748 24.5 123.997 24.5V124.49Z" fill="#6873E9" stroke="#17171C"/>
<path d="M177.894 124.49C177.894 154.256 153.763 178.385 123.996 178.385C94.2291 178.385 70.0981 154.256 70.0981 124.49C70.0981 94.7251 94.2291 70.5956 123.996 70.5956C153.763 70.5956 177.894 94.7251 177.894 124.49Z" fill="#17171C" stroke="#17171C"/>
<path d="M97.8 122.5V112.516H97.544L96.184 116.26H94.472L96.312 111.3H99.496V122.5H97.8ZM94.056 122.5V120.932H102.216V122.5H94.056ZM109.482 122.724C108.181 122.724 107.141 122.356 106.362 121.62C105.594 120.873 105.21 119.753 105.21 118.26V115.54C105.21 114.079 105.594 112.969 106.362 112.212C107.141 111.455 108.181 111.076 109.482 111.076C110.794 111.076 111.834 111.455 112.602 112.212C113.381 112.969 113.77 114.079 113.77 115.54V118.26C113.77 119.753 113.381 120.873 112.602 121.62C111.834 122.356 110.794 122.724 109.482 122.724ZM109.482 121.22C110.367 121.22 111.023 120.969 111.45 120.468C111.877 119.956 112.09 119.241 112.09 118.324V115.444C112.09 114.527 111.861 113.823 111.402 113.332C110.943 112.831 110.303 112.58 109.482 112.58C108.65 112.58 108.01 112.836 107.562 113.348C107.114 113.849 106.89 114.548 106.89 115.444V118.324C106.89 119.263 107.103 119.983 107.53 120.484C107.967 120.975 108.618 121.22 109.482 121.22ZM117.276 124.676V123.732H117.82C118.257 123.732 118.476 123.513 118.476 123.076V122.564H118.236C117.862 122.564 117.553 122.452 117.308 122.228C117.062 122.004 116.94 121.721 116.94 121.38C116.94 121.007 117.062 120.708 117.308 120.484C117.553 120.249 117.862 120.132 118.236 120.132C118.609 120.132 118.913 120.255 119.148 120.5C119.393 120.735 119.516 121.044 119.516 121.428V123.092C119.516 124.148 118.988 124.676 117.932 124.676H117.276ZM126.979 122.724C125.677 122.724 124.637 122.356 123.859 121.62C123.091 120.873 122.707 119.753 122.707 118.26V115.54C122.707 114.079 123.091 112.969 123.859 112.212C124.637 111.455 125.677 111.076 126.979 111.076C128.291 111.076 129.331 111.455 130.099 112.212C130.877 112.969 131.267 114.079 131.267 115.54V118.26C131.267 119.753 130.877 120.873 130.099 121.62C129.331 122.356 128.291 122.724 126.979 122.724ZM126.979 121.22C127.864 121.22 128.52 120.969 128.947 120.468C129.373 119.956 129.587 119.241 129.587 118.324V115.444C129.587 114.527 129.357 113.823 128.899 113.332C128.44 112.831 127.8 112.58 126.979 112.58C126.147 112.58 125.507 112.836 125.059 113.348C124.611 113.849 124.387 114.548 124.387 115.444V118.324C124.387 119.263 124.6 119.983 125.027 120.484C125.464 120.975 126.115 121.22 126.979 121.22ZM138.501 122.724C137.199 122.724 136.159 122.356 135.381 121.62C134.613 120.873 134.229 119.753 134.229 118.26V115.54C134.229 114.079 134.613 112.969 135.381 112.212C136.159 111.455 137.199 111.076 138.501 111.076C139.813 111.076 140.853 111.455 141.621 112.212C142.399 112.969 142.789 114.079 142.789 115.54V118.26C142.789 119.753 142.399 120.873 141.621 121.62C140.853 122.356 139.813 122.724 138.501 122.724ZM138.501 121.22C139.386 121.22 140.042 120.969 140.469 120.468C140.895 119.956 141.109 119.241 141.109 118.324V115.444C141.109 114.527 140.879 113.823 140.421 113.332C139.962 112.831 139.322 112.58 138.501 112.58C137.669 112.58 137.029 112.836 136.581 113.348C136.133 113.849 135.909 114.548 135.909 115.444V118.324C135.909 119.263 136.122 119.983 136.549 120.484C136.986 120.975 137.637 121.22 138.501 121.22ZM150.023 122.724C148.721 122.724 147.681 122.356 146.903 121.62C146.135 120.873 145.751 119.753 145.751 118.26V115.54C145.751 114.079 146.135 112.969 146.903 112.212C147.681 111.455 148.721 111.076 150.023 111.076C151.335 111.076 152.375 111.455 153.142 112.212C153.921 112.969 154.311 114.079 154.311 115.54V118.26C154.311 119.753 153.921 120.873 153.142 121.62C152.375 122.356 151.335 122.724 150.023 122.724ZM150.023 121.22C150.908 121.22 151.564 120.969 151.991 120.468C152.417 119.956 152.631 119.241 152.631 118.324V115.444C152.631 114.527 152.401 113.823 151.943 113.332C151.484 112.831 150.844 112.58 150.023 112.58C149.191 112.58 148.551 112.836 148.103 113.348C147.655 113.849 147.431 114.548 147.431 115.444V118.324C147.431 119.263 147.644 119.983 148.071 120.484C148.508 120.975 149.159 121.22 150.023 121.22Z" fill="white"/>
<path d="M102.256 138.668C101.648 138.668 101.104 138.56 100.624 138.344C100.144 138.128 99.764 137.804 99.484 137.372C99.212 136.932 99.076 136.384 99.076 135.728V135.476H100.072V135.728C100.072 136.424 100.276 136.944 100.684 137.288C101.092 137.624 101.616 137.792 102.256 137.792C102.912 137.792 103.412 137.644 103.756 137.348C104.1 137.052 104.272 136.68 104.272 136.232C104.272 135.92 104.196 135.672 104.044 135.488C103.892 135.304 103.676 135.156 103.396 135.044C103.116 134.924 102.788 134.82 102.412 134.732L101.776 134.576C101.288 134.448 100.856 134.292 100.48 134.108C100.104 133.924 99.808 133.684 99.592 133.388C99.384 133.084 99.28 132.696 99.28 132.224C99.28 131.752 99.4 131.344 99.64 131C99.88 130.656 100.212 130.392 100.636 130.208C101.06 130.024 101.556 129.932 102.124 129.932C102.692 129.932 103.2 130.032 103.648 130.232C104.096 130.424 104.452 130.712 104.716 131.096C104.98 131.472 105.112 131.948 105.112 132.524V133.028H104.116V132.524C104.116 132.116 104.028 131.788 103.852 131.54C103.684 131.292 103.448 131.108 103.144 130.988C102.848 130.868 102.508 130.808 102.124 130.808C101.572 130.808 101.128 130.932 100.792 131.18C100.456 131.42 100.288 131.764 100.288 132.212C100.288 132.508 100.356 132.748 100.492 132.932C100.636 133.116 100.84 133.268 101.104 133.388C101.368 133.5 101.684 133.6 102.052 133.688L102.688 133.844C103.168 133.948 103.604 134.092 103.996 134.276C104.388 134.452 104.696 134.696 104.92 135.008C105.152 135.312 105.268 135.712 105.268 136.208C105.268 136.704 105.144 137.136 104.896 137.504C104.648 137.872 104.296 138.16 103.84 138.368C103.392 138.568 102.864 138.668 102.256 138.668ZM101.8 139.892V128.708H102.724V139.892H101.8ZM108.019 138.5V130.1H111.511C111.999 130.1 112.431 130.188 112.807 130.364C113.183 130.54 113.475 130.788 113.683 131.108C113.899 131.42 114.007 131.788 114.007 132.212V132.308C114.007 132.7 113.931 133.024 113.779 133.28C113.635 133.528 113.455 133.724 113.239 133.868C113.031 134.004 112.827 134.104 112.627 134.168V134.336C112.827 134.384 113.035 134.48 113.251 134.624C113.467 134.76 113.647 134.956 113.791 135.212C113.943 135.468 114.019 135.792 114.019 136.184V136.304C114.019 136.76 113.911 137.156 113.695 137.492C113.479 137.82 113.179 138.072 112.795 138.248C112.419 138.416 111.987 138.5 111.499 138.5H108.019ZM109.027 137.588H111.391C111.919 137.588 112.323 137.464 112.603 137.216C112.883 136.968 113.023 136.632 113.023 136.208V136.1C113.023 135.676 112.883 135.34 112.603 135.092C112.323 134.844 111.919 134.72 111.391 134.72H109.027V137.588ZM109.027 133.808H111.415C111.903 133.808 112.291 133.688 112.579 133.448C112.867 133.2 113.011 132.876 113.011 132.476V132.356C113.011 131.948 112.867 131.624 112.579 131.384C112.291 131.136 111.903 131.012 111.415 131.012H109.027V133.808ZM116.825 138.5V130.1H121.997V131.012H117.833V133.82H121.661V134.732H117.833V137.588H122.057V138.5H116.825ZM124.787 138.5V130.1H128.003C128.507 130.1 128.955 130.2 129.347 130.4C129.747 130.592 130.063 130.868 130.295 131.228C130.527 131.588 130.643 132.024 130.643 132.536V132.692C130.643 133.196 130.523 133.632 130.283 134C130.051 134.36 129.735 134.636 129.335 134.828C128.935 135.02 128.491 135.116 128.003 135.116H125.795V138.5H124.787ZM125.795 134.204H127.895C128.431 134.204 128.855 134.072 129.167 133.808C129.479 133.536 129.635 133.156 129.635 132.668V132.548C129.635 132.06 129.479 131.684 129.167 131.42C128.863 131.148 128.439 131.012 127.895 131.012H125.795V134.204ZM133.194 138.5V130.1H136.59C137.11 130.1 137.566 130.192 137.958 130.376C138.358 130.552 138.67 130.808 138.894 131.144C139.118 131.472 139.23 131.868 139.23 132.332V132.464C139.23 133.016 139.098 133.452 138.834 133.772C138.57 134.092 138.258 134.308 137.898 134.42V134.588C138.186 134.596 138.422 134.692 138.606 134.876C138.798 135.052 138.894 135.32 138.894 135.68V138.5H137.898V135.8C137.898 135.56 137.83 135.376 137.694 135.248C137.566 135.12 137.37 135.056 137.106 135.056H134.202V138.5H133.194ZM134.202 134.144H136.494C137.046 134.144 137.47 134.012 137.766 133.748C138.07 133.476 138.222 133.1 138.222 132.62V132.536C138.222 132.056 138.074 131.684 137.778 131.42C137.482 131.148 137.054 131.012 136.494 131.012H134.202V134.144ZM145.012 138.668C144.012 138.668 143.212 138.38 142.612 137.804C142.02 137.22 141.724 136.372 141.724 135.26V133.34C141.724 132.228 142.02 131.384 142.612 130.808C143.212 130.224 144.012 129.932 145.012 129.932C146.02 129.932 146.82 130.224 147.412 130.808C148.012 131.384 148.312 132.228 148.312 133.34V135.26C148.312 136.372 148.012 137.22 147.412 137.804C146.82 138.38 146.02 138.668 145.012 138.668ZM145.012 137.768C145.74 137.768 146.304 137.552 146.704 137.12C147.104 136.68 147.304 136.072 147.304 135.296V133.304C147.304 132.528 147.104 131.924 146.704 131.492C146.304 131.052 145.74 130.832 145.012 130.832C144.292 130.832 143.732 131.052 143.332 131.492C142.932 131.924 142.732 132.528 142.732 133.304V135.296C142.732 136.072 142.932 136.68 143.332 137.12C143.732 137.552 144.292 137.768 145.012 137.768Z" fill="#454654"/>
<rect x="264.002" y="55.5" width="18" height="18" rx="4" fill="#4250E4"/>
<path d="M291.024 69V59.2H294.23C295.527 59.2 296.526 59.5313 297.226 60.194C297.926 60.8567 298.276 61.8553 298.276 63.19V65.024C298.276 66.3587 297.926 67.3573 297.226 68.02C296.526 68.6733 295.527 69 294.23 69H291.024ZM292.536 67.628H294.244C295.093 67.628 295.723 67.4133 296.134 66.984C296.545 66.5547 296.75 65.9153 296.75 65.066V63.134C296.75 62.2753 296.545 61.636 296.134 61.216C295.723 60.796 295.093 60.586 294.244 60.586H292.536V67.628ZM301.447 69V59.2H307.621V60.572H302.959V63.386H307.229V64.758H302.959V67.628H307.691V69H301.447ZM312.67 69L309.94 59.2H311.508L313.888 68.048H314.07L316.436 59.2H318.004L315.288 69H312.67ZM320.736 69V59.2H326.91V60.572H322.248V63.386H326.518V64.758H322.248V67.628H326.98V69H320.736ZM329.956 69V59.2H331.468V67.628H336.186V69H329.956ZM342.352 69.196C341.148 69.196 340.192 68.86 339.482 68.188C338.773 67.5067 338.418 66.5267 338.418 65.248V62.952C338.418 61.6733 338.773 60.698 339.482 60.026C340.192 59.3447 341.148 59.004 342.352 59.004C343.556 59.004 344.513 59.3447 345.222 60.026C345.941 60.698 346.3 61.6733 346.3 62.952V65.248C346.3 66.5267 345.941 67.5067 345.222 68.188C344.513 68.86 343.556 69.196 342.352 69.196ZM342.352 67.838C343.127 67.838 343.724 67.614 344.144 67.166C344.564 66.7087 344.774 66.088 344.774 65.304V62.896C344.774 62.112 344.564 61.496 344.144 61.048C343.724 60.5907 343.127 60.362 342.352 60.362C341.596 60.362 341.004 60.5907 340.574 61.048C340.145 61.496 339.93 62.112 339.93 62.896V65.304C339.93 66.088 340.145 66.7087 340.574 67.166C341.004 67.614 341.596 67.838 342.352 67.838ZM349.49 69V59.2H353.382C353.98 59.2 354.512 59.3213 354.978 59.564C355.454 59.7973 355.823 60.1333 356.084 60.572C356.355 61.0013 356.49 61.5193 356.49 62.126V62.308C356.49 62.9147 356.35 63.4373 356.07 63.876C355.8 64.3147 355.431 64.6507 354.964 64.884C354.498 65.1173 353.97 65.234 353.382 65.234H351.002V69H349.49ZM351.002 63.862H353.228C353.76 63.862 354.185 63.722 354.502 63.442C354.82 63.162 354.978 62.7793 354.978 62.294V62.154C354.978 61.6593 354.82 61.272 354.502 60.992C354.185 60.712 353.76 60.572 353.228 60.572H351.002V63.862ZM359.326 69V59.2H365.5V60.572H360.838V63.386H365.108V64.758H360.838V67.628H365.57V69H359.326ZM368.546 69V59.2H372.662C373.269 59.2 373.801 59.3073 374.258 59.522C374.725 59.7273 375.084 60.026 375.336 60.418C375.598 60.81 375.728 61.2767 375.728 61.818V61.972C375.728 62.588 375.579 63.0827 375.28 63.456C374.991 63.82 374.636 64.0767 374.216 64.226V64.45C374.571 64.4687 374.856 64.59 375.07 64.814C375.285 65.0287 375.392 65.3413 375.392 65.752V69H373.866V65.962C373.866 65.71 373.801 65.5093 373.67 65.36C373.54 65.2107 373.33 65.136 373.04 65.136H370.058V69H368.546ZM370.058 63.764H372.494C373.036 63.764 373.456 63.6287 373.754 63.358C374.053 63.078 374.202 62.7 374.202 62.224V62.112C374.202 61.636 374.053 61.2627 373.754 60.992C373.465 60.712 373.045 60.572 372.494 60.572H370.058V63.764Z" fill="white"/>
<path d="M389.742 69V67.284H385.434V66.132L388.89 60.6H390.714V66.408H392.142V67.284H390.714V69H389.742ZM386.394 66.408H389.742V61.188H389.574L386.394 66.264V66.408ZM397.363 69.168C396.411 69.168 395.651 68.888 395.083 68.328C394.523 67.76 394.243 66.912 394.243 65.784V63.816C394.243 62.696 394.523 61.852 395.083 61.284C395.651 60.716 396.411 60.432 397.363 60.432C398.323 60.432 399.083 60.716 399.643 61.284C400.211 61.852 400.495 62.696 400.495 63.816V65.784C400.495 66.912 400.211 67.76 399.643 68.328C399.083 68.888 398.323 69.168 397.363 69.168ZM397.363 68.292C398.083 68.292 398.623 68.076 398.983 67.644C399.343 67.212 399.523 66.608 399.523 65.832V63.756C399.523 62.98 399.339 62.38 398.971 61.956C398.603 61.524 398.067 61.308 397.363 61.308C396.659 61.308 396.123 61.524 395.755 61.956C395.395 62.388 395.215 62.988 395.215 63.756V65.832C395.215 66.616 395.395 67.224 395.755 67.656C396.115 68.08 396.651 68.292 397.363 68.292ZM403.905 69.168L403.257 68.652L409.941 60.432L410.577 60.948L403.905 69.168ZM409.233 69.156C408.649 69.156 408.181 68.988 407.829 68.652C407.485 68.308 407.313 67.844 407.313 67.26V67.188C407.313 66.604 407.485 66.144 407.829 65.808C408.181 65.464 408.649 65.292 409.233 65.292C409.801 65.292 410.261 65.464 410.613 65.808C410.965 66.144 411.141 66.604 411.141 67.188V67.26C411.141 67.844 410.965 68.308 410.613 68.652C410.269 68.988 409.809 69.156 409.233 69.156ZM409.233 68.46C409.569 68.46 409.833 68.352 410.025 68.136C410.225 67.92 410.325 67.64 410.325 67.296V67.152C410.325 66.8 410.225 66.52 410.025 66.312C409.833 66.096 409.569 65.988 409.233 65.988C408.889 65.988 408.617 66.096 408.417 66.312C408.225 66.52 408.129 66.8 408.129 67.152V67.296C408.129 67.64 408.225 67.92 408.417 68.136C408.617 68.352 408.889 68.46 409.233 68.46ZM404.613 64.308C404.029 64.308 403.565 64.136 403.221 63.792C402.877 63.448 402.705 62.988 402.705 62.412V62.34C402.705 61.756 402.877 61.296 403.221 60.96C403.565 60.616 404.029 60.444 404.613 60.444C405.189 60.444 405.649 60.616 405.993 60.96C406.345 61.296 406.521 61.756 406.521 62.34V62.412C406.521 62.988 406.345 63.448 405.993 63.792C405.649 64.136 405.189 64.308 404.613 64.308ZM404.613 63.612C404.949 63.612 405.217 63.504 405.417 63.288C405.617 63.072 405.717 62.792 405.717 62.448V62.304C405.717 61.952 405.617 61.672 405.417 61.464C405.217 61.248 404.949 61.14 404.613 61.14C404.269 61.14 403.997 61.248 403.797 61.464C403.605 61.672 403.509 61.952 403.509 62.304V62.448C403.509 62.792 403.605 63.072 403.797 63.288C403.997 63.504 404.269 63.612 404.613 63.612Z" fill="#454654"/>
<rect x="264.002" y="85.5" width="18" height="18" rx="4" fill="#4250E4"/>
<path d="M291.024 99V89.2H295.14C295.747 89.2 296.279 89.3073 296.736 89.522C297.203 89.7273 297.562 90.026 297.814 90.418C298.075 90.81 298.206 91.2767 298.206 91.818V91.972C298.206 92.588 298.057 93.0827 297.758 93.456C297.469 93.82 297.114 94.0767 296.694 94.226V94.45C297.049 94.4687 297.333 94.59 297.548 94.814C297.763 95.0287 297.87 95.3413 297.87 95.752V99H296.344V95.962C296.344 95.71 296.279 95.5093 296.148 95.36C296.017 95.2107 295.807 95.136 295.518 95.136H292.536V99H291.024ZM292.536 93.764H294.972C295.513 93.764 295.933 93.6287 296.232 93.358C296.531 93.078 296.68 92.7 296.68 92.224V92.112C296.68 91.636 296.531 91.2627 296.232 90.992C295.943 90.712 295.523 90.572 294.972 90.572H292.536V93.764ZM301.27 99V89.2H307.444V90.572H302.782V93.386H307.052V94.758H302.782V97.628H307.514V99H301.27ZM312.492 99L309.762 89.2H311.33L313.71 98.048H313.892L316.258 89.2H317.826L315.11 99H312.492ZM320.558 99V89.2H322.07V99H320.558ZM325.513 99V89.2H331.687V90.572H327.025V93.386H331.295V94.758H327.025V97.628H331.757V99H325.513ZM335.615 99L334.173 89.2H335.685L336.861 97.978H337.085L338.597 89.2H341.243L342.755 97.978H342.979L344.141 89.2H345.653L344.211 99H341.565L340.025 90.096H339.801L338.275 99H335.615ZM348.547 99V89.2H354.721V90.572H350.059V93.386H354.329V94.758H350.059V97.628H354.791V99H348.547ZM357.767 99V89.2H361.883C362.49 89.2 363.022 89.3073 363.479 89.522C363.946 89.7273 364.305 90.026 364.557 90.418C364.819 90.81 364.949 91.2767 364.949 91.818V91.972C364.949 92.588 364.8 93.0827 364.501 93.456C364.212 93.82 363.857 94.0767 363.437 94.226V94.45C363.792 94.4687 364.077 94.59 364.291 94.814C364.506 95.0287 364.613 95.3413 364.613 95.752V99H363.087V95.962C363.087 95.71 363.022 95.5093 362.891 95.36C362.761 95.2107 362.551 95.136 362.261 95.136H359.279V99H357.767ZM359.279 93.764H361.715C362.257 93.764 362.677 93.6287 362.975 93.358C363.274 93.078 363.423 92.7 363.423 92.224V92.112C363.423 91.636 363.274 91.2627 362.975 90.992C362.686 90.712 362.266 90.572 361.715 90.572H359.279V93.764ZM374.171 99V96.27H372.533V95.024H374.171V93.176H372.533V91.93H374.171V89.2H375.487V91.93H377.279V89.2H378.581V91.93H380.233V93.176H378.581V95.024H380.233V96.27H378.581V99H377.279V96.27H375.487V99H374.171ZM375.487 95.024H377.279V93.176H375.487V95.024ZM386.405 99V90.264H386.181L384.991 93.54H383.493L385.103 89.2H387.889V99H386.405ZM383.129 99V97.628H390.269V99H383.129Z" fill="white"/>
<path d="M402.746 99.168C402.154 99.168 401.622 99.056 401.15 98.832C400.686 98.608 400.318 98.284 400.046 97.86C399.782 97.436 399.65 96.924 399.65 96.324V96.096H400.622V96.312C400.622 96.928 400.818 97.412 401.21 97.764C401.602 98.116 402.114 98.292 402.746 98.292C403.386 98.292 403.882 98.128 404.234 97.8C404.594 97.464 404.774 97.044 404.774 96.54V96.444C404.774 96.076 404.686 95.78 404.51 95.556C404.334 95.324 404.094 95.156 403.79 95.052C403.494 94.94 403.166 94.884 402.806 94.884H401.438V93.672L404.642 91.62V91.476H399.854V90.6H405.674V91.956L402.542 93.972V94.116H403.142C403.614 94.116 404.046 94.204 404.438 94.38C404.838 94.548 405.154 94.804 405.386 95.148C405.626 95.484 405.746 95.908 405.746 96.42V96.552C405.746 97.08 405.622 97.54 405.374 97.932C405.126 98.324 404.778 98.628 404.33 98.844C403.882 99.06 403.354 99.168 402.746 99.168ZM411.363 99.168C410.411 99.168 409.651 98.888 409.083 98.328C408.523 97.76 408.243 96.912 408.243 95.784V93.816C408.243 92.696 408.523 91.852 409.083 91.284C409.651 90.716 410.411 90.432 411.363 90.432C412.323 90.432 413.083 90.716 413.643 91.284C414.211 91.852 414.495 92.696 414.495 93.816V95.784C414.495 96.912 414.211 97.76 413.643 98.328C413.083 98.888 412.323 99.168 411.363 99.168ZM411.363 98.292C412.083 98.292 412.623 98.076 412.983 97.644C413.343 97.212 413.523 96.608 413.523 95.832V93.756C413.523 92.98 413.339 92.38 412.971 91.956C412.603 91.524 412.067 91.308 411.363 91.308C410.659 91.308 410.123 91.524 409.755 91.956C409.395 92.388 409.215 92.988 409.215 93.756V95.832C409.215 96.616 409.395 97.224 409.755 97.656C410.115 98.08 410.651 98.292 411.363 98.292ZM417.905 99.168L417.257 98.652L423.941 90.432L424.577 90.948L417.905 99.168ZM423.233 99.156C422.649 99.156 422.181 98.988 421.829 98.652C421.485 98.308 421.313 97.844 421.313 97.26V97.188C421.313 96.604 421.485 96.144 421.829 95.808C422.181 95.464 422.649 95.292 423.233 95.292C423.801 95.292 424.261 95.464 424.613 95.808C424.965 96.144 425.141 96.604 425.141 97.188V97.26C425.141 97.844 424.965 98.308 424.613 98.652C424.269 98.988 423.809 99.156 423.233 99.156ZM423.233 98.46C423.569 98.46 423.833 98.352 424.025 98.136C424.225 97.92 424.325 97.64 424.325 97.296V97.152C424.325 96.8 424.225 96.52 424.025 96.312C423.833 96.096 423.569 95.988 423.233 95.988C422.889 95.988 422.617 96.096 422.417 96.312C422.225 96.52 422.129 96.8 422.129 97.152V97.296C422.129 97.64 422.225 97.92 422.417 98.136C422.617 98.352 422.889 98.46 423.233 98.46ZM418.613 94.308C418.029 94.308 417.565 94.136 417.221 93.792C416.877 93.448 416.705 92.988 416.705 92.412V92.34C416.705 91.756 416.877 91.296 417.221 90.96C417.565 90.616 418.029 90.444 418.613 90.444C419.189 90.444 419.649 90.616 419.993 90.96C420.345 91.296 420.521 91.756 420.521 92.34V92.412C420.521 92.988 420.345 93.448 419.993 93.792C419.649 94.136 419.189 94.308 418.613 94.308ZM418.613 93.612C418.949 93.612 419.217 93.504 419.417 93.288C419.617 93.072 419.717 92.792 419.717 92.448V92.304C419.717 91.952 419.617 91.672 419.417 91.464C419.217 91.248 418.949 91.14 418.613 91.14C418.269 91.14 417.997 91.248 417.797 91.464C417.605 91.672 417.509 91.952 417.509 92.304V92.448C417.509 92.792 417.605 93.072 417.797 93.288C417.997 93.504 418.269 93.612 418.613 93.612Z" fill="#454654"/>
<rect x="264.002" y="115.5" width="18" height="18" rx="4" fill="#4250E4"/>
<path d="M291.024 129V119.2H295.14C295.747 119.2 296.279 119.307 296.736 119.522C297.203 119.727 297.562 120.026 297.814 120.418C298.075 120.81 298.206 121.277 298.206 121.818V121.972C298.206 122.588 298.057 123.083 297.758 123.456C297.469 123.82 297.114 124.077 296.694 124.226V124.45C297.049 124.469 297.333 124.59 297.548 124.814C297.763 125.029 297.87 125.341 297.87 125.752V129H296.344V125.962C296.344 125.71 296.279 125.509 296.148 125.36C296.017 125.211 295.807 125.136 295.518 125.136H292.536V129H291.024ZM292.536 123.764H294.972C295.513 123.764 295.933 123.629 296.232 123.358C296.531 123.078 296.68 122.7 296.68 122.224V122.112C296.68 121.636 296.531 121.263 296.232 120.992C295.943 120.712 295.523 120.572 294.972 120.572H292.536V123.764ZM301.27 129V119.2H307.444V120.572H302.782V123.386H307.052V124.758H302.782V127.628H307.514V129H301.27ZM312.492 129L309.762 119.2H311.33L313.71 128.048H313.892L316.258 119.2H317.826L315.11 129H312.492ZM320.558 129V119.2H322.07V129H320.558ZM325.513 129V119.2H331.687V120.572H327.025V123.386H331.295V124.758H327.025V127.628H331.757V129H325.513ZM335.615 129L334.173 119.2H335.685L336.861 127.978H337.085L338.597 119.2H341.243L342.755 127.978H342.979L344.141 119.2H345.653L344.211 129H341.565L340.025 120.096H339.801L338.275 129H335.615ZM348.547 129V119.2H354.721V120.572H350.059V123.386H354.329V124.758H350.059V127.628H354.791V129H348.547ZM357.767 129V119.2H361.883C362.49 119.2 363.022 119.307 363.479 119.522C363.946 119.727 364.305 120.026 364.557 120.418C364.819 120.81 364.949 121.277 364.949 121.818V121.972C364.949 122.588 364.8 123.083 364.501 123.456C364.212 123.82 363.857 124.077 363.437 124.226V124.45C363.792 124.469 364.077 124.59 364.291 124.814C364.506 125.029 364.613 125.341 364.613 125.752V129H363.087V125.962C363.087 125.71 363.022 125.509 362.891 125.36C362.761 125.211 362.551 125.136 362.261 125.136H359.279V129H357.767ZM359.279 123.764H361.715C362.257 123.764 362.677 123.629 362.975 123.358C363.274 123.078 363.423 122.7 363.423 122.224V122.112C363.423 121.636 363.274 121.263 362.975 120.992C362.686 120.712 362.266 120.572 361.715 120.572H359.279V123.764ZM374.171 129V126.27H372.533V125.024H374.171V123.176H372.533V121.93H374.171V119.2H375.487V121.93H377.279V119.2H378.581V121.93H380.233V123.176H378.581V125.024H380.233V126.27H378.581V129H377.279V126.27H375.487V129H374.171ZM375.487 125.024H377.279V123.176H375.487V125.024ZM383.045 129V127.894C383.045 127.213 383.162 126.653 383.395 126.214C383.628 125.775 383.96 125.421 384.389 125.15C384.828 124.87 385.355 124.637 385.971 124.45L386.825 124.184C387.208 124.063 387.534 123.913 387.805 123.736C388.085 123.559 388.3 123.339 388.449 123.078C388.598 122.807 388.673 122.495 388.673 122.14V122.084C388.673 121.533 388.486 121.104 388.113 120.796C387.74 120.479 387.25 120.32 386.643 120.32C386.018 120.32 385.509 120.488 385.117 120.824C384.734 121.16 384.543 121.655 384.543 122.308V122.532H383.087V122.322C383.087 121.613 383.241 121.015 383.549 120.53C383.857 120.035 384.282 119.657 384.823 119.396C385.364 119.135 385.971 119.004 386.643 119.004C387.315 119.004 387.912 119.13 388.435 119.382C388.967 119.634 389.382 119.989 389.681 120.446C389.989 120.903 390.143 121.44 390.143 122.056V122.182C390.143 122.817 390.017 123.344 389.765 123.764C389.513 124.184 389.163 124.529 388.715 124.8C388.276 125.071 387.768 125.299 387.189 125.486L386.363 125.738C385.924 125.869 385.57 126.013 385.299 126.172C385.038 126.321 384.842 126.503 384.711 126.718C384.59 126.933 384.529 127.208 384.529 127.544V127.684H390.059V129H383.045Z" fill="white"/>
<path d="M402.746 129.168C402.154 129.168 401.622 129.056 401.15 128.832C400.686 128.608 400.318 128.284 400.046 127.86C399.782 127.436 399.65 126.924 399.65 126.324V126.096H400.622V126.312C400.622 126.928 400.818 127.412 401.21 127.764C401.602 128.116 402.114 128.292 402.746 128.292C403.386 128.292 403.882 128.128 404.234 127.8C404.594 127.464 404.774 127.044 404.774 126.54V126.444C404.774 126.076 404.686 125.78 404.51 125.556C404.334 125.324 404.094 125.156 403.79 125.052C403.494 124.94 403.166 124.884 402.806 124.884H401.438V123.672L404.642 121.62V121.476H399.854V120.6H405.674V121.956L402.542 123.972V124.116H403.142C403.614 124.116 404.046 124.204 404.438 124.38C404.838 124.548 405.154 124.804 405.386 125.148C405.626 125.484 405.746 125.908 405.746 126.42V126.552C405.746 127.08 405.622 127.54 405.374 127.932C405.126 128.324 404.778 128.628 404.33 128.844C403.882 129.06 403.354 129.168 402.746 129.168ZM411.363 129.168C410.411 129.168 409.651 128.888 409.083 128.328C408.523 127.76 408.243 126.912 408.243 125.784V123.816C408.243 122.696 408.523 121.852 409.083 121.284C409.651 120.716 410.411 120.432 411.363 120.432C412.323 120.432 413.083 120.716 413.643 121.284C414.211 121.852 414.495 122.696 414.495 123.816V125.784C414.495 126.912 414.211 127.76 413.643 128.328C413.083 128.888 412.323 129.168 411.363 129.168ZM411.363 128.292C412.083 128.292 412.623 128.076 412.983 127.644C413.343 127.212 413.523 126.608 413.523 125.832V123.756C413.523 122.98 413.339 122.38 412.971 121.956C412.603 121.524 412.067 121.308 411.363 121.308C410.659 121.308 410.123 121.524 409.755 121.956C409.395 122.388 409.215 122.988 409.215 123.756V125.832C409.215 126.616 409.395 127.224 409.755 127.656C410.115 128.08 410.651 128.292 411.363 128.292ZM417.905 129.168L417.257 128.652L423.941 120.432L424.577 120.948L417.905 129.168ZM423.233 129.156C422.649 129.156 422.181 128.988 421.829 128.652C421.485 128.308 421.313 127.844 421.313 127.26V127.188C421.313 126.604 421.485 126.144 421.829 125.808C422.181 125.464 422.649 125.292 423.233 125.292C423.801 125.292 424.261 125.464 424.613 125.808C424.965 126.144 425.141 126.604 425.141 127.188V127.26C425.141 127.844 424.965 128.308 424.613 128.652C424.269 128.988 423.809 129.156 423.233 129.156ZM423.233 128.46C423.569 128.46 423.833 128.352 424.025 128.136C424.225 127.92 424.325 127.64 424.325 127.296V127.152C424.325 126.8 424.225 126.52 424.025 126.312C423.833 126.096 423.569 125.988 423.233 125.988C422.889 125.988 422.617 126.096 422.417 126.312C422.225 126.52 422.129 126.8 422.129 127.152V127.296C422.129 127.64 422.225 127.92 422.417 128.136C422.617 128.352 422.889 128.46 423.233 128.46ZM418.613 124.308C418.029 124.308 417.565 124.136 417.221 123.792C416.877 123.448 416.705 122.988 416.705 122.412V122.34C416.705 121.756 416.877 121.296 417.221 120.96C417.565 120.616 418.029 120.444 418.613 120.444C419.189 120.444 419.649 120.616 419.993 120.96C420.345 121.296 420.521 121.756 420.521 122.34V122.412C420.521 122.988 420.345 123.448 419.993 123.792C419.649 124.136 419.189 124.308 418.613 124.308ZM418.613 123.612C418.949 123.612 419.217 123.504 419.417 123.288C419.617 123.072 419.717 122.792 419.717 122.448V122.304C419.717 121.952 419.617 121.672 419.417 121.464C419.217 121.248 418.949 121.14 418.613 121.14C418.269 121.14 417.997 121.248 417.797 121.464C417.605 121.672 417.509 121.952 417.509 122.304V122.448C417.509 122.792 417.605 123.072 417.797 123.288C417.997 123.504 418.269 123.612 418.613 123.612Z" fill="#454654"/>
<rect x="264.002" y="145.5" width="18" height="18" rx="4" fill="#4250E4"/>
<path d="M291.024 159V149.2H294.916C295.513 149.2 296.045 149.321 296.512 149.564C296.988 149.797 297.357 150.133 297.618 150.572C297.889 151.001 298.024 151.519 298.024 152.126V152.308C298.024 152.915 297.884 153.437 297.604 153.876C297.333 154.315 296.965 154.651 296.498 154.884C296.031 155.117 295.504 155.234 294.916 155.234H292.536V159H291.024ZM292.536 153.862H294.762C295.294 153.862 295.719 153.722 296.036 153.442C296.353 153.162 296.512 152.779 296.512 152.294V152.154C296.512 151.659 296.353 151.272 296.036 150.992C295.719 150.712 295.294 150.572 294.762 150.572H292.536V153.862ZM300.859 159V149.2H304.975C305.582 149.2 306.114 149.307 306.572 149.522C307.038 149.727 307.397 150.026 307.65 150.418C307.911 150.81 308.041 151.277 308.041 151.818V151.972C308.041 152.588 307.892 153.083 307.593 153.456C307.304 153.82 306.949 154.077 306.529 154.226V154.45C306.884 154.469 307.169 154.59 307.384 154.814C307.598 155.029 307.706 155.341 307.706 155.752V159H306.179V155.962C306.179 155.71 306.114 155.509 305.983 155.36C305.853 155.211 305.643 155.136 305.353 155.136H302.371V159H300.859ZM302.371 153.764H304.807C305.349 153.764 305.769 153.629 306.067 153.358C306.366 153.078 306.516 152.7 306.516 152.224V152.112C306.516 151.636 306.366 151.263 306.067 150.992C305.778 150.712 305.358 150.572 304.807 150.572H302.371V153.764ZM314.787 159.196C313.583 159.196 312.627 158.86 311.917 158.188C311.208 157.507 310.853 156.527 310.853 155.248V152.952C310.853 151.673 311.208 150.698 311.917 150.026C312.627 149.345 313.583 149.004 314.787 149.004C315.991 149.004 316.948 149.345 317.657 150.026C318.376 150.698 318.735 151.673 318.735 152.952V155.248C318.735 156.527 318.376 157.507 317.657 158.188C316.948 158.86 315.991 159.196 314.787 159.196ZM314.787 157.838C315.562 157.838 316.159 157.614 316.579 157.166C316.999 156.709 317.209 156.088 317.209 155.304V152.896C317.209 152.112 316.999 151.496 316.579 151.048C316.159 150.591 315.562 150.362 314.787 150.362C314.031 150.362 313.439 150.591 313.009 151.048C312.58 151.496 312.365 152.112 312.365 152.896V155.304C312.365 156.088 312.58 156.709 313.009 157.166C313.439 157.614 314.031 157.838 314.787 157.838ZM321.925 159V149.2H325.817C326.414 149.2 326.946 149.321 327.413 149.564C327.889 149.797 328.258 150.133 328.519 150.572C328.79 151.001 328.925 151.519 328.925 152.126V152.308C328.925 152.915 328.785 153.437 328.505 153.876C328.234 154.315 327.866 154.651 327.399 154.884C326.932 155.117 326.405 155.234 325.817 155.234H323.437V159H321.925ZM323.437 153.862H325.663C326.195 153.862 326.62 153.722 326.937 153.442C327.254 153.162 327.413 152.779 327.413 152.294V152.154C327.413 151.659 327.254 151.272 326.937 150.992C326.62 150.712 326.195 150.572 325.663 150.572H323.437V153.862ZM335.443 159.196C334.239 159.196 333.282 158.86 332.573 158.188C331.863 157.507 331.509 156.527 331.509 155.248V152.952C331.509 151.673 331.863 150.698 332.573 150.026C333.282 149.345 334.239 149.004 335.443 149.004C336.647 149.004 337.603 149.345 338.313 150.026C339.031 150.698 339.391 151.673 339.391 152.952V155.248C339.391 156.527 339.031 157.507 338.313 158.188C337.603 158.86 336.647 159.196 335.443 159.196ZM335.443 157.838C336.217 157.838 336.815 157.614 337.235 157.166C337.655 156.709 337.865 156.088 337.865 155.304V152.896C337.865 152.112 337.655 151.496 337.235 151.048C336.815 150.591 336.217 150.362 335.443 150.362C334.687 150.362 334.094 150.591 333.665 151.048C333.235 151.496 333.021 152.112 333.021 152.896V155.304C333.021 156.088 333.235 156.709 333.665 157.166C334.094 157.614 334.687 157.838 335.443 157.838ZM345.913 159.196C345.175 159.196 344.522 159.065 343.953 158.804C343.383 158.543 342.935 158.16 342.609 157.656C342.291 157.143 342.133 156.522 342.133 155.794V155.444H343.631V155.794C343.631 156.485 343.836 157.003 344.247 157.348C344.667 157.693 345.222 157.866 345.913 157.866C346.613 157.866 347.14 157.721 347.495 157.432C347.849 157.133 348.027 156.751 348.027 156.284C348.027 155.976 347.943 155.724 347.775 155.528C347.607 155.332 347.369 155.178 347.061 155.066C346.753 154.945 346.384 154.833 345.955 154.73L345.437 154.604C344.811 154.455 344.265 154.273 343.799 154.058C343.341 153.834 342.987 153.54 342.735 153.176C342.483 152.812 342.357 152.345 342.357 151.776C342.357 151.197 342.497 150.703 342.777 150.292C343.066 149.881 343.463 149.564 343.967 149.34C344.471 149.116 345.063 149.004 345.745 149.004C346.426 149.004 347.033 149.121 347.565 149.354C348.106 149.587 348.531 149.933 348.839 150.39C349.147 150.847 349.301 151.421 349.301 152.112V152.616H347.803V152.112C347.803 151.692 347.714 151.351 347.537 151.09C347.369 150.829 347.131 150.637 346.823 150.516C346.515 150.395 346.155 150.334 345.745 150.334C345.147 150.334 344.681 150.46 344.345 150.712C344.018 150.955 343.855 151.295 343.855 151.734C343.855 152.033 343.925 152.28 344.065 152.476C344.214 152.663 344.429 152.817 344.709 152.938C344.989 153.059 345.339 153.167 345.759 153.26L346.277 153.386C346.911 153.526 347.471 153.708 347.957 153.932C348.442 154.147 348.825 154.441 349.105 154.814C349.385 155.187 349.525 155.668 349.525 156.256C349.525 156.844 349.375 157.357 349.077 157.796C348.787 158.235 348.372 158.58 347.831 158.832C347.289 159.075 346.65 159.196 345.913 159.196ZM352.512 159V149.2H358.686V150.572H354.024V153.386H358.294V154.758H354.024V157.628H358.756V159H352.512ZM361.732 159V149.2H365.848C366.455 149.2 366.987 149.307 367.444 149.522C367.911 149.727 368.27 150.026 368.522 150.418C368.783 150.81 368.914 151.277 368.914 151.818V151.972C368.914 152.588 368.765 153.083 368.466 153.456C368.177 153.82 367.822 154.077 367.402 154.226V154.45C367.757 154.469 368.041 154.59 368.256 154.814C368.471 155.029 368.578 155.341 368.578 155.752V159H367.052V155.962C367.052 155.71 366.987 155.509 366.856 155.36C366.725 155.211 366.515 155.136 366.226 155.136H363.244V159H361.732ZM363.244 153.764H365.68C366.221 153.764 366.641 153.629 366.94 153.358C367.239 153.078 367.388 152.7 367.388 152.224V152.112C367.388 151.636 367.239 151.263 366.94 150.992C366.651 150.712 366.231 150.572 365.68 150.572H363.244V153.764Z" fill="white"/>
<path d="M381.746 159.168C381.154 159.168 380.622 159.056 380.15 158.832C379.686 158.608 379.318 158.284 379.046 157.86C378.782 157.436 378.65 156.924 378.65 156.324V156.096H379.622V156.312C379.622 156.928 379.818 157.412 380.21 157.764C380.602 158.116 381.114 158.292 381.746 158.292C382.386 158.292 382.882 158.128 383.234 157.8C383.594 157.464 383.774 157.044 383.774 156.54V156.444C383.774 156.076 383.686 155.78 383.51 155.556C383.334 155.324 383.094 155.156 382.79 155.052C382.494 154.94 382.166 154.884 381.806 154.884H380.438V153.672L383.642 151.62V151.476H378.854V150.6H384.674V151.956L381.542 153.972V154.116H382.142C382.614 154.116 383.046 154.204 383.438 154.38C383.838 154.548 384.154 154.804 384.386 155.148C384.626 155.484 384.746 155.908 384.746 156.42V156.552C384.746 157.08 384.622 157.54 384.374 157.932C384.126 158.324 383.778 158.628 383.33 158.844C382.882 159.06 382.354 159.168 381.746 159.168ZM390.363 159.168C389.411 159.168 388.651 158.888 388.083 158.328C387.523 157.76 387.243 156.912 387.243 155.784V153.816C387.243 152.696 387.523 151.852 388.083 151.284C388.651 150.716 389.411 150.432 390.363 150.432C391.323 150.432 392.083 150.716 392.643 151.284C393.211 151.852 393.495 152.696 393.495 153.816V155.784C393.495 156.912 393.211 157.76 392.643 158.328C392.083 158.888 391.323 159.168 390.363 159.168ZM390.363 158.292C391.083 158.292 391.623 158.076 391.983 157.644C392.343 157.212 392.523 156.608 392.523 155.832V153.756C392.523 152.98 392.339 152.38 391.971 151.956C391.603 151.524 391.067 151.308 390.363 151.308C389.659 151.308 389.123 151.524 388.755 151.956C388.395 152.388 388.215 152.988 388.215 153.756V155.832C388.215 156.616 388.395 157.224 388.755 157.656C389.115 158.08 389.651 158.292 390.363 158.292ZM396.905 159.168L396.257 158.652L402.941 150.432L403.577 150.948L396.905 159.168ZM402.233 159.156C401.649 159.156 401.181 158.988 400.829 158.652C400.485 158.308 400.313 157.844 400.313 157.26V157.188C400.313 156.604 400.485 156.144 400.829 155.808C401.181 155.464 401.649 155.292 402.233 155.292C402.801 155.292 403.261 155.464 403.613 155.808C403.965 156.144 404.141 156.604 404.141 157.188V157.26C404.141 157.844 403.965 158.308 403.613 158.652C403.269 158.988 402.809 159.156 402.233 159.156ZM402.233 158.46C402.569 158.46 402.833 158.352 403.025 158.136C403.225 157.92 403.325 157.64 403.325 157.296V157.152C403.325 156.8 403.225 156.52 403.025 156.312C402.833 156.096 402.569 155.988 402.233 155.988C401.889 155.988 401.617 156.096 401.417 156.312C401.225 156.52 401.129 156.8 401.129 157.152V157.296C401.129 157.64 401.225 157.92 401.417 158.136C401.617 158.352 401.889 158.46 402.233 158.46ZM397.613 154.308C397.029 154.308 396.565 154.136 396.221 153.792C395.877 153.448 395.705 152.988 395.705 152.412V152.34C395.705 151.756 395.877 151.296 396.221 150.96C396.565 150.616 397.029 150.444 397.613 150.444C398.189 150.444 398.649 150.616 398.993 150.96C399.345 151.296 399.521 151.756 399.521 152.34V152.412C399.521 152.988 399.345 153.448 398.993 153.792C398.649 154.136 398.189 154.308 397.613 154.308ZM397.613 153.612C397.949 153.612 398.217 153.504 398.417 153.288C398.617 153.072 398.717 152.792 398.717 152.448V152.304C398.717 151.952 398.617 151.672 398.417 151.464C398.217 151.248 397.949 151.14 397.613 151.14C397.269 151.14 396.997 151.248 396.797 151.464C396.605 151.672 396.509 151.952 396.509 152.304V152.448C396.509 152.792 396.605 153.072 396.797 153.288C396.997 153.504 397.269 153.612 397.613 153.612Z" fill="#454654"/>
<rect x="264.002" y="175.5" width="18" height="18" rx="4" fill="#4250E4"/>
<path d="M291.024 189V179.2H293.866L296.008 187.992H296.232L298.374 179.2H301.216V189H299.746V180.264H299.522L297.394 189H294.846L292.718 180.264H292.494V189H291.024ZM304.66 189V179.2H310.834V180.572H306.172V183.386H310.442V184.758H306.172V187.628H310.904V189H304.66ZM313.881 189V179.2H317.997C318.603 179.2 319.135 179.307 319.593 179.522C320.059 179.727 320.419 180.026 320.671 180.418C320.932 180.81 321.063 181.277 321.063 181.818V181.972C321.063 182.588 320.913 183.083 320.615 183.456C320.325 183.82 319.971 184.077 319.551 184.226V184.45C319.905 184.469 320.19 184.59 320.405 184.814C320.619 185.029 320.727 185.341 320.727 185.752V189H319.201V185.962C319.201 185.71 319.135 185.509 319.005 185.36C318.874 185.211 318.664 185.136 318.375 185.136H315.393V189H313.881ZM315.393 183.764H317.829C318.37 183.764 318.79 183.629 319.089 183.358C319.387 183.078 319.537 182.7 319.537 182.224V182.112C319.537 181.636 319.387 181.263 319.089 180.992C318.799 180.712 318.379 180.572 317.829 180.572H315.393V183.764ZM327.528 189.196C326.828 189.196 326.203 189.047 325.652 188.748C325.102 188.44 324.668 187.992 324.35 187.404C324.033 186.816 323.874 186.097 323.874 185.248V182.952C323.874 181.673 324.224 180.698 324.924 180.026C325.624 179.345 326.572 179.004 327.766 179.004C328.942 179.004 329.848 179.326 330.482 179.97C331.117 180.605 331.434 181.459 331.434 182.532V182.602H329.936V182.49C329.936 182.089 329.857 181.729 329.698 181.412C329.54 181.085 329.302 180.829 328.984 180.642C328.667 180.455 328.261 180.362 327.766 180.362C327.02 180.362 326.436 180.591 326.016 181.048C325.596 181.496 325.386 182.121 325.386 182.924V185.276C325.386 186.069 325.596 186.699 326.016 187.166C326.436 187.623 327.024 187.852 327.78 187.852C328.527 187.852 329.073 187.647 329.418 187.236C329.764 186.825 329.936 186.293 329.936 185.64V185.458H327.304V184.156H331.434V189H330.034V188.006H329.81C329.726 188.183 329.6 188.365 329.432 188.552C329.274 188.739 329.04 188.893 328.732 189.014C328.434 189.135 328.032 189.196 327.528 189.196ZM334.782 189V179.2H340.956V180.572H336.294V183.386H340.564V184.758H336.294V187.628H341.026V189H334.782ZM344.002 189V179.2H348.118C348.725 179.2 349.257 179.307 349.714 179.522C350.181 179.727 350.54 180.026 350.792 180.418C351.054 180.81 351.184 181.277 351.184 181.818V181.972C351.184 182.588 351.035 183.083 350.736 183.456C350.447 183.82 350.092 184.077 349.672 184.226V184.45C350.027 184.469 350.312 184.59 350.526 184.814C350.741 185.029 350.848 185.341 350.848 185.752V189H349.322V185.962C349.322 185.71 349.257 185.509 349.126 185.36C348.996 185.211 348.786 185.136 348.496 185.136H345.514V189H344.002ZM345.514 183.764H347.95C348.492 183.764 348.912 183.629 349.21 183.358C349.509 183.078 349.658 182.7 349.658 182.224V182.112C349.658 181.636 349.509 181.263 349.21 180.992C348.921 180.712 348.501 180.572 347.95 180.572H345.514V183.764Z" fill="white"/>
<path d="M363.746 189.168C363.154 189.168 362.622 189.056 362.15 188.832C361.686 188.608 361.318 188.284 361.046 187.86C360.782 187.436 360.65 186.924 360.65 186.324V186.096H361.622V186.312C361.622 186.928 361.818 187.412 362.21 187.764C362.602 188.116 363.114 188.292 363.746 188.292C364.386 188.292 364.882 188.128 365.234 187.8C365.594 187.464 365.774 187.044 365.774 186.54V186.444C365.774 186.076 365.686 185.78 365.51 185.556C365.334 185.324 365.094 185.156 364.79 185.052C364.494 184.94 364.166 184.884 363.806 184.884H362.438V183.672L365.642 181.62V181.476H360.854V180.6H366.674V181.956L363.542 183.972V184.116H364.142C364.614 184.116 365.046 184.204 365.438 184.38C365.838 184.548 366.154 184.804 366.386 185.148C366.626 185.484 366.746 185.908 366.746 186.42V186.552C366.746 187.08 366.622 187.54 366.374 187.932C366.126 188.324 365.778 188.628 365.33 188.844C364.882 189.06 364.354 189.168 363.746 189.168ZM372.363 189.168C371.411 189.168 370.651 188.888 370.083 188.328C369.523 187.76 369.243 186.912 369.243 185.784V183.816C369.243 182.696 369.523 181.852 370.083 181.284C370.651 180.716 371.411 180.432 372.363 180.432C373.323 180.432 374.083 180.716 374.643 181.284C375.211 181.852 375.495 182.696 375.495 183.816V185.784C375.495 186.912 375.211 187.76 374.643 188.328C374.083 188.888 373.323 189.168 372.363 189.168ZM372.363 188.292C373.083 188.292 373.623 188.076 373.983 187.644C374.343 187.212 374.523 186.608 374.523 185.832V183.756C374.523 182.98 374.339 182.38 373.971 181.956C373.603 181.524 373.067 181.308 372.363 181.308C371.659 181.308 371.123 181.524 370.755 181.956C370.395 182.388 370.215 182.988 370.215 183.756V185.832C370.215 186.616 370.395 187.224 370.755 187.656C371.115 188.08 371.651 188.292 372.363 188.292ZM378.905 189.168L378.257 188.652L384.941 180.432L385.577 180.948L378.905 189.168ZM384.233 189.156C383.649 189.156 383.181 188.988 382.829 188.652C382.485 188.308 382.313 187.844 382.313 187.26V187.188C382.313 186.604 382.485 186.144 382.829 185.808C383.181 185.464 383.649 185.292 384.233 185.292C384.801 185.292 385.261 185.464 385.613 185.808C385.965 186.144 386.141 186.604 386.141 187.188V187.26C386.141 187.844 385.965 188.308 385.613 188.652C385.269 188.988 384.809 189.156 384.233 189.156ZM384.233 188.46C384.569 188.46 384.833 188.352 385.025 188.136C385.225 187.92 385.325 187.64 385.325 187.296V187.152C385.325 186.8 385.225 186.52 385.025 186.312C384.833 186.096 384.569 185.988 384.233 185.988C383.889 185.988 383.617 186.096 383.417 186.312C383.225 186.52 383.129 186.8 383.129 187.152V187.296C383.129 187.64 383.225 187.92 383.417 188.136C383.617 188.352 383.889 188.46 384.233 188.46ZM379.613 184.308C379.029 184.308 378.565 184.136 378.221 183.792C377.877 183.448 377.705 182.988 377.705 182.412V182.34C377.705 181.756 377.877 181.296 378.221 180.96C378.565 180.616 379.029 180.444 379.613 180.444C380.189 180.444 380.649 180.616 380.993 180.96C381.345 181.296 381.521 181.756 381.521 182.34V182.412C381.521 182.988 381.345 183.448 380.993 183.792C380.649 184.136 380.189 184.308 379.613 184.308ZM379.613 183.612C379.949 183.612 380.217 183.504 380.417 183.288C380.617 183.072 380.717 182.792 380.717 182.448V182.304C380.717 181.952 380.617 181.672 380.417 181.464C380.217 181.248 379.949 181.14 379.613 181.14C379.269 181.14 378.997 181.248 378.797 181.464C378.605 181.672 378.509 181.952 378.509 182.304V182.448C378.509 182.792 378.605 183.072 378.797 183.288C378.997 183.504 379.269 183.612 379.613 183.612Z" fill="#454654"/>
<rect x="0.5" y="1" width="449.002" height="247" rx="7.5" stroke="url(#paint0_linear_182_5006)"/>
<defs>
<linearGradient id="paint0_linear_182_5006" x1="238.708" y1="0.5" x2="238.708" y2="248.5" gradientUnits="userSpaceOnUse">
<stop stop-color="#454654"/>
<stop offset="1" stop-color="#22232A"/>
</linearGradient>
</defs>
</svg>
