<svg width="549" height="193" viewBox="0 0 549 193" fill="none" xmlns="http://www.w3.org/2000/svg">
<rect x="0.5" y="39.5" width="459" height="153" rx="7.5" fill="#17171C"/>
<rect x="24" y="63" width="115" height="23" rx="4" fill="#23232A"/>
<path d="M32.876 79V70.6H38.06V71.776H34.172V74.2H37.748V75.376H34.172V79H32.876ZM40.5213 79V70.6H45.8133V71.776H41.8173V74.188H45.4773V75.364H41.8173V77.824H45.8733V79H40.5213ZM47.8004 79L50.2004 70.6H52.4804L54.8684 79H53.5364L52.9844 77.02H49.6964L49.1444 79H47.8004ZM50.0204 75.82H52.6604L51.4364 71.404H51.2444L50.0204 75.82ZM58.3784 79V71.776H55.7984V70.6H62.2544V71.776H59.6744V79H58.3784ZM67.7731 79.168C67.1091 79.168 66.5371 79.048 66.0571 78.808C65.5851 78.568 65.2171 78.224 64.9531 77.776C64.6971 77.32 64.5691 76.768 64.5691 76.12V70.6H65.8771V76.156C65.8771 76.748 66.0411 77.204 66.3691 77.524C66.6971 77.844 67.1651 78.004 67.7731 78.004C68.3811 78.004 68.8491 77.844 69.1771 77.524C69.5051 77.204 69.6691 76.748 69.6691 76.156V70.6H70.9651V76.12C70.9651 76.768 70.8371 77.32 70.5811 77.776C70.3251 78.224 69.9571 78.568 69.4771 78.808C68.9971 79.048 68.4291 79.168 67.7731 79.168ZM73.8565 79V70.6H77.3845C77.9045 70.6 78.3605 70.692 78.7525 70.876C79.1525 71.052 79.4605 71.308 79.6765 71.644C79.9005 71.98 80.0125 72.38 80.0125 72.844V72.976C80.0125 73.504 79.8845 73.928 79.6285 74.248C79.3805 74.56 79.0765 74.78 78.7165 74.908V75.1C79.0205 75.116 79.2645 75.22 79.4485 75.412C79.6325 75.596 79.7245 75.864 79.7245 76.216V79H78.4165V76.396C78.4165 76.18 78.3605 76.008 78.2485 75.88C78.1365 75.752 77.9565 75.688 77.7085 75.688H75.1525V79H73.8565ZM75.1525 74.512H77.2405C77.7045 74.512 78.0645 74.396 78.3205 74.164C78.5765 73.924 78.7045 73.6 78.7045 73.192V73.096C78.7045 72.688 78.5765 72.368 78.3205 72.136C78.0725 71.896 77.7125 71.776 77.2405 71.776H75.1525V74.512ZM82.6385 79V70.6H87.9305V71.776H83.9345V74.188H87.5945V75.364H83.9345V77.824H87.9905V79H82.6385Z" fill="#454654"/>
<path d="M98.896 79V76.66H97.492V75.592H98.896V74.008H97.492V72.94H98.896V70.6H100.024V72.94H101.56V70.6H102.676V72.94H104.092V74.008H102.676V75.592H104.092V76.66H102.676V79H101.56V76.66H100.024V79H98.896ZM100.024 75.592H101.56V74.008H100.024V75.592ZM109.574 79.168C108.942 79.168 108.394 79.052 107.93 78.82C107.466 78.588 107.106 78.26 106.85 77.836C106.602 77.412 106.478 76.92 106.478 76.36V76.228H107.762V76.348C107.762 76.86 107.918 77.272 108.23 77.584C108.55 77.888 108.994 78.04 109.562 78.04C110.146 78.04 110.598 77.88 110.918 77.56C111.238 77.24 111.398 76.808 111.398 76.264V76.156C111.398 75.636 111.238 75.22 110.918 74.908C110.606 74.596 110.206 74.44 109.718 74.44C109.446 74.44 109.218 74.484 109.034 74.572C108.858 74.652 108.714 74.752 108.602 74.872C108.498 74.992 108.41 75.108 108.338 75.22H106.742V70.6H112.37V71.74H108.002V74.212H108.194C108.274 74.076 108.386 73.948 108.53 73.828C108.682 73.7 108.878 73.596 109.118 73.516C109.358 73.436 109.646 73.396 109.982 73.396C110.478 73.396 110.926 73.504 111.326 73.72C111.734 73.928 112.058 74.24 112.298 74.656C112.538 75.064 112.658 75.56 112.658 76.144V76.276C112.658 76.86 112.534 77.368 112.286 77.8C112.038 78.232 111.682 78.568 111.218 78.808C110.762 79.048 110.214 79.168 109.574 79.168ZM118.143 79.168C117.167 79.168 116.387 78.892 115.803 78.34C115.227 77.78 114.939 76.94 114.939 75.82V73.78C114.939 72.684 115.227 71.852 115.803 71.284C116.387 70.716 117.167 70.432 118.143 70.432C119.127 70.432 119.907 70.716 120.483 71.284C121.067 71.852 121.359 72.684 121.359 73.78V75.82C121.359 76.94 121.067 77.78 120.483 78.34C119.907 78.892 119.127 79.168 118.143 79.168ZM118.143 78.04C118.807 78.04 119.299 77.852 119.619 77.476C119.939 77.092 120.099 76.556 120.099 75.868V73.708C120.099 73.02 119.927 72.492 119.583 72.124C119.239 71.748 118.759 71.56 118.143 71.56C117.519 71.56 117.039 71.752 116.703 72.136C116.367 72.512 116.199 73.036 116.199 73.708V75.868C116.199 76.572 116.359 77.112 116.679 77.488C117.007 77.856 117.495 78.04 118.143 78.04ZM126.833 79.168C126.225 79.168 125.689 79.052 125.225 78.82C124.761 78.58 124.401 78.248 124.145 77.824C123.889 77.4 123.761 76.908 123.761 76.348V73.444C123.761 72.788 123.889 72.236 124.145 71.788C124.409 71.34 124.777 71.004 125.249 70.78C125.721 70.548 126.269 70.432 126.893 70.432C127.509 70.432 128.041 70.54 128.489 70.756C128.937 70.964 129.281 71.264 129.521 71.656C129.761 72.04 129.881 72.492 129.881 73.012H128.609C128.609 72.596 128.469 72.252 128.189 71.98C127.917 71.7 127.485 71.56 126.893 71.56C126.293 71.56 125.829 71.72 125.501 72.04C125.181 72.352 125.021 72.788 125.021 73.348V74.356H125.213C125.349 74.164 125.569 73.98 125.873 73.804C126.185 73.628 126.625 73.54 127.193 73.54C127.689 73.54 128.145 73.648 128.561 73.864C128.977 74.08 129.309 74.388 129.557 74.788C129.813 75.188 129.941 75.672 129.941 76.24V76.384C129.941 76.936 129.809 77.424 129.545 77.848C129.281 78.264 128.913 78.588 128.441 78.82C127.977 79.052 127.441 79.168 126.833 79.168ZM126.845 78.04C127.405 78.04 127.849 77.888 128.177 77.584C128.513 77.28 128.681 76.872 128.681 76.36V76.264C128.681 75.92 128.605 75.624 128.453 75.376C128.301 75.12 128.085 74.92 127.805 74.776C127.533 74.632 127.213 74.56 126.845 74.56C126.485 74.56 126.165 74.632 125.885 74.776C125.613 74.92 125.401 75.12 125.249 75.376C125.097 75.624 125.021 75.92 125.021 76.264V76.36C125.021 76.872 125.185 77.28 125.513 77.584C125.849 77.888 126.293 78.04 126.845 78.04Z" fill="#73758C"/>
<path d="M27.984 110.168C26.96 110.168 26.144 109.88 25.536 109.304C24.928 108.72 24.624 107.884 24.624 106.796V104.804C24.624 103.716 24.928 102.884 25.536 102.308C26.144 101.724 26.96 101.432 27.984 101.432C29.008 101.432 29.796 101.712 30.348 102.272C30.908 102.832 31.188 103.6 31.188 104.576V104.648H29.772V104.54C29.772 104.012 29.624 103.58 29.328 103.244C29.04 102.9 28.592 102.728 27.984 102.728C27.392 102.728 26.924 102.912 26.58 103.28C26.244 103.64 26.076 104.14 26.076 104.78V106.82C26.076 107.452 26.244 107.952 26.58 108.32C26.924 108.688 27.392 108.872 27.984 108.872C28.592 108.872 29.04 108.704 29.328 108.368C29.624 108.024 29.772 107.588 29.772 107.06V106.856H31.188V107.024C31.188 108 30.908 108.768 30.348 109.328C29.796 109.888 29.008 110.168 27.984 110.168ZM36.9309 110.168C36.2589 110.168 35.6789 110.048 35.1909 109.808C34.7109 109.56 34.3389 109.204 34.0749 108.74C33.8189 108.276 33.6909 107.724 33.6909 107.084V101.6H35.1309V107.12C35.1309 107.68 35.2869 108.112 35.5989 108.416C35.9109 108.72 36.3549 108.872 36.9309 108.872C37.5149 108.872 37.9589 108.72 38.2629 108.416C38.5749 108.112 38.7309 107.68 38.7309 107.12V101.6H40.1709V107.084C40.1709 107.724 40.0429 108.276 39.7869 108.74C39.5309 109.204 39.1589 109.56 38.6709 109.808C38.1829 110.048 37.6029 110.168 36.9309 110.168ZM42.9897 110V101.6H46.5777C47.1057 101.6 47.5657 101.692 47.9577 101.876C48.3497 102.06 48.6537 102.32 48.8697 102.656C49.0937 102.984 49.2057 103.38 49.2057 103.844V103.976C49.2057 104.496 49.0817 104.912 48.8337 105.224C48.5857 105.536 48.2857 105.764 47.9337 105.908V106.1C48.2457 106.116 48.4897 106.224 48.6657 106.424C48.8497 106.624 48.9417 106.892 48.9417 107.228V110H47.5017V107.432C47.5017 107.232 47.4457 107.072 47.3337 106.952C47.2297 106.824 47.0577 106.76 46.8177 106.76H44.4417V110H42.9897ZM44.4417 105.452H46.4337C46.8497 105.452 47.1737 105.344 47.4057 105.128C47.6457 104.904 47.7657 104.608 47.7657 104.24V104.132C47.7657 103.756 47.6497 103.46 47.4177 103.244C47.1857 103.02 46.8577 102.908 46.4337 102.908H44.4417V105.452ZM51.7718 110V101.6H55.3598C55.8878 101.6 56.3478 101.692 56.7398 101.876C57.1318 102.06 57.4358 102.32 57.6518 102.656C57.8758 102.984 57.9878 103.38 57.9878 103.844V103.976C57.9878 104.496 57.8638 104.912 57.6158 105.224C57.3678 105.536 57.0678 105.764 56.7158 105.908V106.1C57.0278 106.116 57.2718 106.224 57.4478 106.424C57.6318 106.624 57.7238 106.892 57.7238 107.228V110H56.2838V107.432C56.2838 107.232 56.2278 107.072 56.1158 106.952C56.0118 106.824 55.8398 106.76 55.5998 106.76H53.2238V110H51.7718ZM53.2238 105.452H55.2158C55.6318 105.452 55.9558 105.344 56.1878 105.128C56.4278 104.904 56.5478 104.608 56.5478 104.24V104.132C56.5478 103.756 56.4318 103.46 56.1998 103.244C55.9678 103.02 55.6398 102.908 55.2158 102.908H53.2238V105.452ZM60.5538 110V101.6H65.9058V102.908H62.0058V105.116H65.5698V106.424H62.0058V108.692H65.9658V110H60.5538ZM68.4218 110V101.6H71.1818L73.1618 109.028H73.3538V101.6H74.7818V110H72.0338L70.0538 102.572H69.8498V110H68.4218ZM79.6174 110V102.908H77.1094V101.6H83.5654V102.908H81.0574V110H79.6174ZM89.7991 110V101.6H95.0311V102.908H91.2511V105.128H94.7311V106.448H91.2511V110H89.7991ZM100.613 110.168C99.941 110.168 99.361 110.048 98.873 109.808C98.393 109.56 98.021 109.204 97.757 108.74C97.501 108.276 97.373 107.724 97.373 107.084V101.6H98.813V107.12C98.813 107.68 98.969 108.112 99.281 108.416C99.593 108.72 100.037 108.872 100.613 108.872C101.197 108.872 101.641 108.72 101.945 108.416C102.257 108.112 102.413 107.68 102.413 107.12V101.6H103.853V107.084C103.853 107.724 103.725 108.276 103.469 108.74C103.213 109.204 102.841 109.56 102.353 109.808C101.865 110.048 101.285 110.168 100.613 110.168ZM106.672 110V101.6H109.432L111.412 109.028H111.604V101.6H113.032V110H110.284L108.304 102.572H108.1V110H106.672ZM115.887 110V101.6H118.707C119.827 101.6 120.683 101.884 121.275 102.452C121.867 103.02 122.163 103.872 122.163 105.008V106.592C122.163 107.728 121.867 108.58 121.275 109.148C120.683 109.716 119.827 110 118.707 110H115.887ZM117.339 108.692H118.731C119.411 108.692 119.911 108.516 120.231 108.164C120.559 107.812 120.723 107.304 120.723 106.64V104.972C120.723 104.292 120.559 103.78 120.231 103.436C119.911 103.084 119.411 102.908 118.731 102.908H117.339V108.692ZM124.822 110V101.6H126.274V110H124.822ZM129.127 110V101.6H131.887L133.867 109.028H134.059V101.6H135.487V110H132.739L130.759 102.572H130.555V110H129.127ZM141.259 110.168C140.667 110.168 140.135 110.04 139.663 109.784C139.199 109.52 138.827 109.14 138.547 108.644C138.275 108.14 138.139 107.524 138.139 106.796V104.804C138.139 103.716 138.443 102.884 139.051 102.308C139.659 101.724 140.475 101.432 141.499 101.432C142.523 101.432 143.311 101.708 143.863 102.26C144.415 102.804 144.691 103.54 144.691 104.468V104.516H143.275V104.42C143.275 104.1 143.211 103.812 143.083 103.556C142.955 103.3 142.759 103.1 142.495 102.956C142.231 102.804 141.899 102.728 141.499 102.728C140.907 102.728 140.439 102.912 140.095 103.28C139.759 103.64 139.591 104.14 139.591 104.78V106.82C139.591 107.452 139.759 107.956 140.095 108.332C140.439 108.708 140.915 108.896 141.523 108.896C142.131 108.896 142.575 108.732 142.855 108.404C143.135 108.076 143.275 107.656 143.275 107.144V107H141.151V105.776H144.691V110H143.371V109.172H143.167C143.103 109.316 143.003 109.468 142.867 109.628C142.731 109.78 142.535 109.908 142.279 110.012C142.031 110.116 141.691 110.168 141.259 110.168Z" fill="#454654"/>
<path d="M338.808 110V102.908H336.3V101.6H342.756V102.908H340.248V110H338.808ZM347.947 110.168C346.907 110.168 346.075 109.88 345.451 109.304C344.835 108.72 344.527 107.884 344.527 106.796V104.804C344.527 103.716 344.835 102.884 345.451 102.308C346.075 101.724 346.907 101.432 347.947 101.432C348.995 101.432 349.827 101.724 350.443 102.308C351.059 102.884 351.367 103.716 351.367 104.804V106.796C351.367 107.884 351.059 108.72 350.443 109.304C349.827 109.88 348.995 110.168 347.947 110.168ZM347.947 108.872C348.571 108.872 349.055 108.692 349.399 108.332C349.751 107.964 349.927 107.468 349.927 106.844V104.756C349.927 104.132 349.751 103.64 349.399 103.28C349.055 102.912 348.571 102.728 347.947 102.728C347.331 102.728 346.847 102.912 346.495 103.28C346.151 103.64 345.979 104.132 345.979 104.756V106.844C345.979 107.468 346.151 107.964 346.495 108.332C346.847 108.692 347.331 108.872 347.947 108.872ZM355.645 110V102.908H353.137V101.6H359.593V102.908H357.085V110H355.645ZM360.524 110L362.828 101.6H365.336L367.64 110H366.152L365.648 108.08H362.516L362.012 110H360.524ZM362.852 106.76H365.312L364.184 102.5H363.98L362.852 106.76ZM369.905 110V101.6H371.357V108.692H375.293V110H369.905ZM380.799 110L383.103 101.6H385.611L387.915 110H386.427L385.923 108.08H382.791L382.287 110H380.799ZM383.127 106.76H385.587L384.459 102.5H384.255L383.127 106.76ZM390.181 110V101.6H392.881L394.513 109.028H394.717L396.361 101.6H399.049V110H397.657V102.644H397.453L395.821 110H393.421L391.789 102.644H391.585V110H390.181ZM405.132 110.168C404.092 110.168 403.26 109.88 402.636 109.304C402.02 108.72 401.712 107.884 401.712 106.796V104.804C401.712 103.716 402.02 102.884 402.636 102.308C403.26 101.724 404.092 101.432 405.132 101.432C406.18 101.432 407.012 101.724 407.628 102.308C408.244 102.884 408.552 103.716 408.552 104.804V106.796C408.552 107.884 408.244 108.72 407.628 109.304C407.012 109.88 406.18 110.168 405.132 110.168ZM405.132 108.872C405.756 108.872 406.24 108.692 406.584 108.332C406.936 107.964 407.112 107.468 407.112 106.844V104.756C407.112 104.132 406.936 103.64 406.584 103.28C406.24 102.912 405.756 102.728 405.132 102.728C404.516 102.728 404.032 102.912 403.68 103.28C403.336 103.64 403.164 104.132 403.164 104.756V106.844C403.164 107.468 403.336 107.964 403.68 108.332C404.032 108.692 404.516 108.872 405.132 108.872ZM414.394 110.168C413.722 110.168 413.142 110.048 412.654 109.808C412.174 109.56 411.802 109.204 411.538 108.74C411.282 108.276 411.154 107.724 411.154 107.084V101.6H412.594V107.12C412.594 107.68 412.75 108.112 413.062 108.416C413.374 108.72 413.818 108.872 414.394 108.872C414.978 108.872 415.422 108.72 415.726 108.416C416.038 108.112 416.194 107.68 416.194 107.12V101.6H417.634V107.084C417.634 107.724 417.506 108.276 417.25 108.74C416.994 109.204 416.622 109.56 416.134 109.808C415.646 110.048 415.066 110.168 414.394 110.168ZM420.453 110V101.6H423.213L425.193 109.028H425.385V101.6H426.813V110H424.065L422.085 102.572H421.881V110H420.453ZM431.649 110V102.908H429.141V101.6H435.597V102.908H433.089V110H431.649Z" fill="#454654"/>
<path d="M24.84 138V136.894C24.84 136.213 24.9567 135.653 25.19 135.214C25.4233 134.775 25.7547 134.421 26.184 134.15C26.6227 133.87 27.15 133.637 27.766 133.45L28.62 133.184C29.0027 133.063 29.3293 132.913 29.6 132.736C29.88 132.559 30.0947 132.339 30.244 132.078C30.3933 131.807 30.468 131.495 30.468 131.14V131.084C30.468 130.533 30.2813 130.104 29.908 129.796C29.5347 129.479 29.0447 129.32 28.438 129.32C27.8127 129.32 27.304 129.488 26.912 129.824C26.5293 130.16 26.338 130.655 26.338 131.308V131.532H24.882V131.322C24.882 130.613 25.036 130.015 25.344 129.53C25.652 129.035 26.0767 128.657 26.618 128.396C27.1593 128.135 27.766 128.004 28.438 128.004C29.11 128.004 29.7073 128.13 30.23 128.382C30.762 128.634 31.1773 128.989 31.476 129.446C31.784 129.903 31.938 130.44 31.938 131.056V131.182C31.938 131.817 31.812 132.344 31.56 132.764C31.308 133.184 30.958 133.529 30.51 133.8C30.0713 134.071 29.5627 134.299 28.984 134.486L28.158 134.738C27.7193 134.869 27.3647 135.013 27.094 135.172C26.8327 135.321 26.6367 135.503 26.506 135.718C26.3847 135.933 26.324 136.208 26.324 136.544V136.684H31.854V138H24.84ZM38.4216 138.196C37.283 138.196 36.373 137.874 35.6916 137.23C35.0196 136.577 34.6836 135.597 34.6836 134.29V131.91C34.6836 130.631 35.0196 129.661 35.6916 128.998C36.373 128.335 37.283 128.004 38.4216 128.004C39.5696 128.004 40.4796 128.335 41.1516 128.998C41.833 129.661 42.1736 130.631 42.1736 131.91V134.29C42.1736 135.597 41.833 136.577 41.1516 137.23C40.4796 137.874 39.5696 138.196 38.4216 138.196ZM38.4216 136.88C39.1963 136.88 39.7703 136.661 40.1436 136.222C40.517 135.774 40.7036 135.149 40.7036 134.346V131.826C40.7036 131.023 40.503 130.407 40.1016 129.978C39.7003 129.539 39.1403 129.32 38.4216 129.32C37.6936 129.32 37.1336 129.544 36.7416 129.992C36.3496 130.431 36.1536 131.042 36.1536 131.826V134.346C36.1536 135.167 36.3403 135.797 36.7136 136.236C37.0963 136.665 37.6656 136.88 38.4216 136.88ZM48.5033 138.196C47.3646 138.196 46.4546 137.874 45.7733 137.23C45.1013 136.577 44.7653 135.597 44.7653 134.29V131.91C44.7653 130.631 45.1013 129.661 45.7733 128.998C46.4546 128.335 47.3646 128.004 48.5033 128.004C49.6513 128.004 50.5613 128.335 51.2333 128.998C51.9146 129.661 52.2553 130.631 52.2553 131.91V134.29C52.2553 135.597 51.9146 136.577 51.2333 137.23C50.5613 137.874 49.6513 138.196 48.5033 138.196ZM48.5033 136.88C49.2779 136.88 49.8519 136.661 50.2253 136.222C50.5986 135.774 50.7853 135.149 50.7853 134.346V131.826C50.7853 131.023 50.5846 130.407 50.1833 129.978C49.7819 129.539 49.2219 129.32 48.5033 129.32C47.7753 129.32 47.2153 129.544 46.8233 129.992C46.4313 130.431 46.2353 131.042 46.2353 131.826V134.346C46.2353 135.167 46.4219 135.797 46.7953 136.236C47.1779 136.665 47.7473 136.88 48.5033 136.88ZM55.3229 139.904V139.078H55.7989C56.1816 139.078 56.3729 138.887 56.3729 138.504V138.056H56.1629C55.8363 138.056 55.5656 137.958 55.3509 137.762C55.1363 137.566 55.0289 137.319 55.0289 137.02C55.0289 136.693 55.1363 136.432 55.3509 136.236C55.5656 136.031 55.8363 135.928 56.1629 135.928C56.4896 135.928 56.7556 136.035 56.9609 136.25C57.1756 136.455 57.2829 136.726 57.2829 137.062V138.518C57.2829 139.442 56.8209 139.904 55.8969 139.904H55.3229ZM63.813 138.196C62.6744 138.196 61.7644 137.874 61.083 137.23C60.411 136.577 60.075 135.597 60.075 134.29V131.91C60.075 130.631 60.411 129.661 61.083 128.998C61.7644 128.335 62.6744 128.004 63.813 128.004C64.961 128.004 65.871 128.335 66.543 128.998C67.2244 129.661 67.565 130.631 67.565 131.91V134.29C67.565 135.597 67.2244 136.577 66.543 137.23C65.871 137.874 64.961 138.196 63.813 138.196ZM63.813 136.88C64.5877 136.88 65.1617 136.661 65.535 136.222C65.9084 135.774 66.095 135.149 66.095 134.346V131.826C66.095 131.023 65.8944 130.407 65.493 129.978C65.0917 129.539 64.5317 129.32 63.813 129.32C63.085 129.32 62.525 129.544 62.133 129.992C61.741 130.431 61.545 131.042 61.545 131.826V134.346C61.545 135.167 61.7317 135.797 62.105 136.236C62.4877 136.665 63.057 136.88 63.813 136.88ZM73.8947 138.196C72.756 138.196 71.846 137.874 71.1647 137.23C70.4927 136.577 70.1567 135.597 70.1567 134.29V131.91C70.1567 130.631 70.4927 129.661 71.1647 128.998C71.846 128.335 72.756 128.004 73.8947 128.004C75.0427 128.004 75.9527 128.335 76.6247 128.998C77.306 129.661 77.6467 130.631 77.6467 131.91V134.29C77.6467 135.597 77.306 136.577 76.6247 137.23C75.9527 137.874 75.0427 138.196 73.8947 138.196ZM73.8947 136.88C74.6694 136.88 75.2434 136.661 75.6167 136.222C75.99 135.774 76.1767 135.149 76.1767 134.346V131.826C76.1767 131.023 75.976 130.407 75.5747 129.978C75.1734 129.539 74.6134 129.32 73.8947 129.32C73.1667 129.32 72.6067 129.544 72.2147 129.992C71.8227 130.431 71.6267 131.042 71.6267 131.826V134.346C71.6267 135.167 71.8134 135.797 72.1867 136.236C72.5694 136.665 73.1387 136.88 73.8947 136.88ZM83.9763 138.196C82.8377 138.196 81.9277 137.874 81.2463 137.23C80.5743 136.577 80.2383 135.597 80.2383 134.29V131.91C80.2383 130.631 80.5743 129.661 81.2463 128.998C81.9277 128.335 82.8377 128.004 83.9763 128.004C85.1243 128.004 86.0343 128.335 86.7063 128.998C87.3877 129.661 87.7283 130.631 87.7283 131.91V134.29C87.7283 135.597 87.3877 136.577 86.7063 137.23C86.0343 137.874 85.1243 138.196 83.9763 138.196ZM83.9763 136.88C84.751 136.88 85.325 136.661 85.6983 136.222C86.0717 135.774 86.2583 135.149 86.2583 134.346V131.826C86.2583 131.023 86.0577 130.407 85.6563 129.978C85.255 129.539 84.695 129.32 83.9763 129.32C83.2483 129.32 82.6883 129.544 82.2963 129.992C81.9043 130.431 81.7083 131.042 81.7083 131.826V134.346C81.7083 135.167 81.895 135.797 82.2683 136.236C82.651 136.665 83.2203 136.88 83.9763 136.88Z" fill="white"/>
<path d="M295.2 138V129.264H294.976L293.786 132.54H292.288L293.898 128.2H296.684V138H295.2ZM291.924 138V136.628H299.064V138H291.924ZM302.16 139.904V139.078H302.636C303.018 139.078 303.21 138.887 303.21 138.504V138.056H303C302.673 138.056 302.402 137.958 302.188 137.762C301.973 137.566 301.866 137.319 301.866 137.02C301.866 136.693 301.973 136.432 302.188 136.236C302.402 136.031 302.673 135.928 303 135.928C303.326 135.928 303.592 136.035 303.798 136.25C304.012 136.455 304.12 136.726 304.12 137.062V138.518C304.12 139.442 303.658 139.904 302.734 139.904H302.16ZM310.65 138.196C309.511 138.196 308.601 137.874 307.92 137.23C307.248 136.577 306.912 135.597 306.912 134.29V131.91C306.912 130.631 307.248 129.661 307.92 128.998C308.601 128.335 309.511 128.004 310.65 128.004C311.798 128.004 312.708 128.335 313.38 128.998C314.061 129.661 314.402 130.631 314.402 131.91V134.29C314.402 135.597 314.061 136.577 313.38 137.23C312.708 137.874 311.798 138.196 310.65 138.196ZM310.65 136.88C311.424 136.88 311.998 136.661 312.372 136.222C312.745 135.774 312.932 135.149 312.932 134.346V131.826C312.932 131.023 312.731 130.407 312.33 129.978C311.928 129.539 311.368 129.32 310.65 129.32C309.922 129.32 309.362 129.544 308.97 129.992C308.578 130.431 308.382 131.042 308.382 131.826V134.346C308.382 135.167 308.568 135.797 308.942 136.236C309.324 136.665 309.894 136.88 310.65 136.88ZM320.731 138.196C319.593 138.196 318.683 137.874 318.001 137.23C317.329 136.577 316.993 135.597 316.993 134.29V131.91C316.993 130.631 317.329 129.661 318.001 128.998C318.683 128.335 319.593 128.004 320.731 128.004C321.879 128.004 322.789 128.335 323.461 128.998C324.143 129.661 324.483 130.631 324.483 131.91V134.29C324.483 135.597 324.143 136.577 323.461 137.23C322.789 137.874 321.879 138.196 320.731 138.196ZM320.731 136.88C321.506 136.88 322.08 136.661 322.453 136.222C322.827 135.774 323.013 135.149 323.013 134.346V131.826C323.013 131.023 322.813 130.407 322.411 129.978C322.01 129.539 321.45 129.32 320.731 129.32C320.003 129.32 319.443 129.544 319.051 129.992C318.659 130.431 318.463 131.042 318.463 131.826V134.346C318.463 135.167 318.65 135.797 319.023 136.236C319.406 136.665 319.975 136.88 320.731 136.88ZM330.813 138.196C329.674 138.196 328.764 137.874 328.083 137.23C327.411 136.577 327.075 135.597 327.075 134.29V131.91C327.075 130.631 327.411 129.661 328.083 128.998C328.764 128.335 329.674 128.004 330.813 128.004C331.961 128.004 332.871 128.335 333.543 128.998C334.224 129.661 334.565 130.631 334.565 131.91V134.29C334.565 135.597 334.224 136.577 333.543 137.23C332.871 137.874 331.961 138.196 330.813 138.196ZM330.813 136.88C331.588 136.88 332.162 136.661 332.535 136.222C332.908 135.774 333.095 135.149 333.095 134.346V131.826C333.095 131.023 332.894 130.407 332.493 129.978C332.092 129.539 331.532 129.32 330.813 129.32C330.085 129.32 329.525 129.544 329.133 129.992C328.741 130.431 328.545 131.042 328.545 131.826V134.346C328.545 135.167 328.732 135.797 329.105 136.236C329.488 136.665 330.057 136.88 330.813 136.88ZM337.633 139.904V139.078H338.109C338.491 139.078 338.683 138.887 338.683 138.504V138.056H338.473C338.146 138.056 337.875 137.958 337.661 137.762C337.446 137.566 337.339 137.319 337.339 137.02C337.339 136.693 337.446 136.432 337.661 136.236C337.875 136.031 338.146 135.928 338.473 135.928C338.799 135.928 339.065 136.035 339.271 136.25C339.485 136.455 339.593 136.726 339.593 137.062V138.518C339.593 139.442 339.131 139.904 338.207 139.904H337.633ZM346.123 138.196C344.984 138.196 344.074 137.874 343.393 137.23C342.721 136.577 342.385 135.597 342.385 134.29V131.91C342.385 130.631 342.721 129.661 343.393 128.998C344.074 128.335 344.984 128.004 346.123 128.004C347.271 128.004 348.181 128.335 348.853 128.998C349.534 129.661 349.875 130.631 349.875 131.91V134.29C349.875 135.597 349.534 136.577 348.853 137.23C348.181 137.874 347.271 138.196 346.123 138.196ZM346.123 136.88C346.897 136.88 347.471 136.661 347.845 136.222C348.218 135.774 348.405 135.149 348.405 134.346V131.826C348.405 131.023 348.204 130.407 347.803 129.978C347.401 129.539 346.841 129.32 346.123 129.32C345.395 129.32 344.835 129.544 344.443 129.992C344.051 130.431 343.855 131.042 343.855 131.826V134.346C343.855 135.167 344.041 135.797 344.415 136.236C344.797 136.665 345.367 136.88 346.123 136.88ZM356.204 138.196C355.066 138.196 354.156 137.874 353.474 137.23C352.802 136.577 352.466 135.597 352.466 134.29V131.91C352.466 130.631 352.802 129.661 353.474 128.998C354.156 128.335 355.066 128.004 356.204 128.004C357.352 128.004 358.262 128.335 358.934 128.998C359.616 129.661 359.956 130.631 359.956 131.91V134.29C359.956 135.597 359.616 136.577 358.934 137.23C358.262 137.874 357.352 138.196 356.204 138.196ZM356.204 136.88C356.979 136.88 357.553 136.661 357.926 136.222C358.3 135.774 358.486 135.149 358.486 134.346V131.826C358.486 131.023 358.286 130.407 357.884 129.978C357.483 129.539 356.923 129.32 356.204 129.32C355.476 129.32 354.916 129.544 354.524 129.992C354.132 130.431 353.936 131.042 353.936 131.826V134.346C353.936 135.167 354.123 135.797 354.496 136.236C354.879 136.665 355.448 136.88 356.204 136.88ZM366.286 138.196C365.147 138.196 364.237 137.874 363.556 137.23C362.884 136.577 362.548 135.597 362.548 134.29V131.91C362.548 130.631 362.884 129.661 363.556 128.998C364.237 128.335 365.147 128.004 366.286 128.004C367.434 128.004 368.344 128.335 369.016 128.998C369.697 129.661 370.038 130.631 370.038 131.91V134.29C370.038 135.597 369.697 136.577 369.016 137.23C368.344 137.874 367.434 138.196 366.286 138.196ZM366.286 136.88C367.061 136.88 367.635 136.661 368.008 136.222C368.381 135.774 368.568 135.149 368.568 134.346V131.826C368.568 131.023 368.367 130.407 367.966 129.978C367.565 129.539 367.005 129.32 366.286 129.32C365.558 129.32 364.998 129.544 364.606 129.992C364.214 130.431 364.018 131.042 364.018 131.826V134.346C364.018 135.167 364.205 135.797 364.578 136.236C364.961 136.665 365.53 136.88 366.286 136.88Z" fill="white"/>
<path d="M381.354 138.196C380.617 138.196 379.963 138.065 379.394 137.804C378.825 137.543 378.377 137.16 378.05 136.656C377.733 136.143 377.574 135.522 377.574 134.794V134.444H379.072V134.794C379.072 135.485 379.277 136.003 379.688 136.348C380.108 136.693 380.663 136.866 381.354 136.866C382.054 136.866 382.581 136.721 382.936 136.432C383.291 136.133 383.468 135.751 383.468 135.284C383.468 134.976 383.384 134.724 383.216 134.528C383.057 134.332 382.824 134.178 382.516 134.066C382.208 133.945 381.839 133.833 381.41 133.73L380.892 133.604C380.267 133.455 379.725 133.273 379.268 133.058C378.811 132.834 378.456 132.54 378.204 132.176C377.952 131.812 377.826 131.345 377.826 130.776C377.826 130.197 377.966 129.703 378.246 129.292C378.526 128.881 378.918 128.564 379.422 128.34C379.926 128.116 380.519 128.004 381.2 128.004C381.881 128.004 382.488 128.121 383.02 128.354C383.561 128.587 383.986 128.933 384.294 129.39C384.611 129.847 384.77 130.421 384.77 131.112V131.616H383.272V131.112C383.272 130.692 383.183 130.351 383.006 130.09C382.838 129.829 382.595 129.637 382.278 129.516C381.97 129.395 381.611 129.334 381.2 129.334C380.603 129.334 380.141 129.46 379.814 129.712C379.487 129.955 379.324 130.295 379.324 130.734C379.324 131.033 379.394 131.28 379.534 131.476C379.683 131.663 379.898 131.817 380.178 131.938C380.458 132.059 380.803 132.167 381.214 132.26L381.732 132.386C382.367 132.526 382.927 132.708 383.412 132.932C383.897 133.147 384.275 133.441 384.546 133.814C384.826 134.187 384.966 134.668 384.966 135.256C384.966 135.844 384.817 136.357 384.518 136.796C384.229 137.235 383.813 137.58 383.272 137.832C382.731 138.075 382.091 138.196 381.354 138.196ZM380.654 139.624V126.576H382.04V139.624H380.654ZM390.291 138V129.572H387.281V128.2H394.813V129.572H391.803V138H390.291ZM400.856 138.196C399.652 138.196 398.695 137.86 397.986 137.188C397.276 136.507 396.922 135.527 396.922 134.248V131.952C396.922 130.673 397.276 129.698 397.986 129.026C398.695 128.345 399.652 128.004 400.856 128.004C402.06 128.004 403.016 128.345 403.726 129.026C404.444 129.698 404.804 130.673 404.804 131.952V134.248C404.804 135.527 404.444 136.507 403.726 137.188C403.016 137.86 402.06 138.196 400.856 138.196ZM400.856 136.838C401.63 136.838 402.228 136.614 402.648 136.166C403.068 135.709 403.278 135.088 403.278 134.304V131.896C403.278 131.112 403.068 130.496 402.648 130.048C402.228 129.591 401.63 129.362 400.856 129.362C400.1 129.362 399.507 129.591 399.078 130.048C398.648 130.496 398.434 131.112 398.434 131.896V134.304C398.434 135.088 398.648 135.709 399.078 136.166C399.507 136.614 400.1 136.838 400.856 136.838ZM407.993 138V128.2H409.505V132.274H409.729L413.383 128.2H415.357L410.933 133.03L415.511 138H413.481L409.729 133.842H409.505V138H407.993ZM418.048 138V128.2H424.222V129.572H419.56V132.386H423.83V133.758H419.56V136.628H424.292V138H418.048ZM427.268 138V128.2H430.18L432.84 136.992H433.064V128.2H434.562V138H431.65L428.99 129.194H428.766V138H427.268Z" fill="#FFD646"/>
<rect x="24" y="159.5" width="373" height="4" rx="2" fill="#2E2F38"/>
<rect x="24" y="159.5" width="64" height="4" rx="2" fill="#FFD646"/>
<path d="M409.72 166V165.052C409.72 164.468 409.82 163.988 410.02 163.612C410.22 163.236 410.504 162.932 410.872 162.7C411.248 162.46 411.7 162.26 412.228 162.1L412.96 161.872C413.288 161.768 413.568 161.64 413.8 161.488C414.04 161.336 414.224 161.148 414.352 160.924C414.48 160.692 414.544 160.424 414.544 160.12V160.072C414.544 159.6 414.384 159.232 414.064 158.968C413.744 158.696 413.324 158.56 412.804 158.56C412.268 158.56 411.832 158.704 411.496 158.992C411.168 159.28 411.004 159.704 411.004 160.264V160.456H409.756V160.276C409.756 159.668 409.888 159.156 410.152 158.74C410.416 158.316 410.78 157.992 411.244 157.768C411.708 157.544 412.228 157.432 412.804 157.432C413.38 157.432 413.892 157.54 414.34 157.756C414.796 157.972 415.152 158.276 415.408 158.668C415.672 159.06 415.804 159.52 415.804 160.048V160.156C415.804 160.7 415.696 161.152 415.48 161.512C415.264 161.872 414.964 162.168 414.58 162.4C414.204 162.632 413.768 162.828 413.272 162.988L412.564 163.204C412.188 163.316 411.884 163.44 411.652 163.576C411.428 163.704 411.26 163.86 411.148 164.044C411.044 164.228 410.992 164.464 410.992 164.752V164.872H415.732V166H409.72ZM421.361 166.168C420.385 166.168 419.605 165.892 419.021 165.34C418.445 164.78 418.157 163.94 418.157 162.82V160.78C418.157 159.684 418.445 158.852 419.021 158.284C419.605 157.716 420.385 157.432 421.361 157.432C422.345 157.432 423.125 157.716 423.701 158.284C424.285 158.852 424.577 159.684 424.577 160.78V162.82C424.577 163.94 424.285 164.78 423.701 165.34C423.125 165.892 422.345 166.168 421.361 166.168ZM421.361 165.04C422.025 165.04 422.517 164.852 422.837 164.476C423.157 164.092 423.317 163.556 423.317 162.868V160.708C423.317 160.02 423.145 159.492 422.801 159.124C422.457 158.748 421.977 158.56 421.361 158.56C420.737 158.56 420.257 158.752 419.921 159.136C419.585 159.512 419.417 160.036 419.417 160.708V162.868C419.417 163.572 419.577 164.112 419.897 164.488C420.225 164.856 420.713 165.04 421.361 165.04ZM427.975 166.156L427.207 165.532L433.771 157.444L434.539 158.068L427.975 166.156ZM433.171 166.132C432.579 166.132 432.111 165.968 431.767 165.64C431.423 165.304 431.251 164.852 431.251 164.284V164.212C431.251 163.636 431.423 163.184 431.767 162.856C432.111 162.52 432.579 162.352 433.171 162.352C433.755 162.352 434.223 162.52 434.575 162.856C434.927 163.184 435.103 163.636 435.103 164.212V164.284C435.103 164.852 434.927 165.304 434.575 165.64C434.231 165.968 433.763 166.132 433.171 166.132ZM433.171 165.292C433.459 165.292 433.683 165.204 433.843 165.028C434.011 164.852 434.095 164.62 434.095 164.332V164.164C434.095 163.868 434.011 163.632 433.843 163.456C433.683 163.28 433.459 163.192 433.171 163.192C432.891 163.192 432.667 163.28 432.499 163.456C432.339 163.632 432.259 163.868 432.259 164.164V164.332C432.259 164.62 432.339 164.852 432.499 165.028C432.667 165.204 432.891 165.292 433.171 165.292ZM428.575 161.248C427.983 161.248 427.511 161.084 427.159 160.756C426.815 160.42 426.643 159.968 426.643 159.4V159.316C426.643 158.74 426.815 158.288 427.159 157.96C427.511 157.632 427.983 157.468 428.575 157.468C429.159 157.468 429.623 157.632 429.967 157.96C430.319 158.288 430.495 158.74 430.495 159.316V159.4C430.495 159.968 430.323 160.42 429.979 160.756C429.635 161.084 429.167 161.248 428.575 161.248ZM428.575 160.408C428.855 160.408 429.075 160.32 429.235 160.144C429.403 159.96 429.487 159.724 429.487 159.436V159.268C429.487 158.98 429.403 158.748 429.235 158.572C429.075 158.396 428.855 158.308 428.575 158.308C428.287 158.308 428.059 158.396 427.891 158.572C427.731 158.748 427.651 158.98 427.651 159.268V159.436C427.651 159.724 427.731 159.96 427.891 160.144C428.059 160.32 428.287 160.408 428.575 160.408Z" fill="white"/>
<rect x="0.5" y="39.5" width="459" height="153" rx="7.5" stroke="url(#paint0_linear_375_6827)"/>
<g filter="url(#filter0_d_375_6827)">
<rect x="444" y="45" width="60" height="60" rx="30" fill="#FFD646" shape-rendering="geometricPrecision"/>
<path d="M486.326 75.5898L483.625 76.9351L480.125 70.2413L482.859 68.8742C483.062 68.7706 483.298 68.7515 483.515 68.8212C483.733 68.8909 483.913 69.0436 484.019 69.246L486.709 74.3976C486.764 74.5007 486.797 74.6137 486.807 74.7299C486.818 74.8461 486.804 74.9632 486.769 75.0743C486.733 75.1854 486.676 75.2882 486.6 75.3767C486.524 75.4653 486.431 75.5377 486.326 75.5898V75.5898Z" stroke="#1A1507" stroke-width="1.4" stroke-linecap="round" stroke-linejoin="round"/>
<path d="M464.375 76.8256L461.673 75.4694C461.569 75.4184 461.477 75.347 461.401 75.2595C461.325 75.172 461.267 75.0701 461.232 74.9599C461.196 74.8497 461.183 74.7334 461.193 74.618C461.203 74.5026 461.236 74.3904 461.29 74.2881L463.981 69.1366C464.086 68.9343 464.266 68.781 464.483 68.7095C464.7 68.638 464.935 68.6539 465.14 68.7538L467.875 70.1209L464.375 76.8256Z" stroke="#1A1507" stroke-width="1.4" stroke-linecap="round" stroke-linejoin="round"/>
<path d="M483.625 76.9348L481.875 78.991L477.85 83.016C477.74 83.1186 477.607 83.1931 477.462 83.2331C477.318 83.2731 477.165 83.2774 477.019 83.2457L470.675 81.6598C470.559 81.6275 470.451 81.5716 470.358 81.4957L464.375 76.8254" stroke="#1A1507" stroke-width="1.4" stroke-linecap="round" stroke-linejoin="round"/>
<path d="M481.875 78.9911L477.062 75.4911L475.662 76.5411C475.056 76.9938 474.319 77.2384 473.562 77.2384C472.805 77.2384 472.069 76.9938 471.462 76.5411L470.872 76.0927C470.772 76.0167 470.689 75.9204 470.629 75.8102C470.569 75.6999 470.534 75.5782 470.524 75.4531C470.515 75.328 470.532 75.2023 470.575 75.0844C470.618 74.9665 470.686 74.8591 470.773 74.7692L475.061 70.4927C475.141 70.4125 475.237 70.349 475.342 70.3059C475.447 70.2627 475.56 70.2407 475.673 70.2411H480.125" stroke="#1A1507" stroke-width="1.4" stroke-linecap="round" stroke-linejoin="round"/>
<path d="M467.94 70.1208L473.551 68.4801C473.751 68.423 473.964 68.4385 474.153 68.5239L477.937 70.2411" stroke="#1A1507" stroke-width="1.4" stroke-linecap="round" stroke-linejoin="round"/>
<path d="M472.25 85.5538L468.958 84.7225C468.823 84.6922 468.699 84.6282 468.597 84.5366L466.125 82.3928" stroke="#1A1507" stroke-width="1.4" stroke-linecap="round" stroke-linejoin="round"/>
<rect x="444.5" y="45.5" width="59" height="59" rx="29.5" stroke="#CCAB38" shape-rendering="geometricPrecision"/>
</g>
<defs>
<filter id="filter0_d_375_6827" x="399" y="0" width="150" height="150" filterUnits="userSpaceOnUse" color-interpolation-filters="sRGB">
<feFlood flood-opacity="0" result="BackgroundImageFix"/>
<feColorMatrix in="SourceAlpha" type="matrix" values="0 0 0 0 0 0 0 0 0 0 0 0 0 0 0 0 0 0 127 0" result="hardAlpha"/>
<feOffset/>
<feGaussianBlur stdDeviation="22.5"/>
<feComposite in2="hardAlpha" operator="out"/>
<feColorMatrix type="matrix" values="0 0 0 0 0.0470588 0 0 0 0 0.0470588 0 0 0 0 0.054902 0 0 0 1 0"/>
<feBlend mode="normal" in2="BackgroundImageFix" result="effect1_dropShadow_375_6827"/>
<feBlend mode="normal" in="SourceGraphic" in2="effect1_dropShadow_375_6827" result="shape"/>
</filter>
<linearGradient id="paint0_linear_375_6827" x1="244.011" y1="39" x2="244.011" y2="193" gradientUnits="userSpaceOnUse">
<stop stop-color="#454654"/>
<stop offset="1" stop-color="#22232A"/>
</linearGradient>
</defs>
</svg>
