<svg width="549" height="192" viewBox="0 0 549 192" fill="none" xmlns="http://www.w3.org/2000/svg">
<rect x="0.5" y="38" width="459" height="153" rx="7.5" fill="#17171C"/>
<rect x="24" y="61.5" width="115" height="23" rx="4" fill="#23232A"/>
<path d="M32.876 77.5V69.1H38.06V70.276H34.172V72.7H37.748V73.876H34.172V77.5H32.876ZM40.5213 77.5V69.1H45.8133V70.276H41.8173V72.688H45.4773V73.864H41.8173V76.324H45.8733V77.5H40.5213ZM47.8004 77.5L50.2004 69.1H52.4804L54.8684 77.5H53.5364L52.9844 75.52H49.6964L49.1444 77.5H47.8004ZM50.0204 74.32H52.6604L51.4364 69.904H51.2444L50.0204 74.32ZM58.3784 77.5V70.276H55.7984V69.1H62.2544V70.276H59.6744V77.5H58.3784ZM67.7731 77.668C67.1091 77.668 66.5371 77.548 66.0571 77.308C65.5851 77.068 65.2171 76.724 64.9531 76.276C64.6971 75.82 64.5691 75.268 64.5691 74.62V69.1H65.8771V74.656C65.8771 75.248 66.0411 75.704 66.3691 76.024C66.6971 76.344 67.1651 76.504 67.7731 76.504C68.3811 76.504 68.8491 76.344 69.1771 76.024C69.5051 75.704 69.6691 75.248 69.6691 74.656V69.1H70.9651V74.62C70.9651 75.268 70.8371 75.82 70.5811 76.276C70.3251 76.724 69.9571 77.068 69.4771 77.308C68.9971 77.548 68.4291 77.668 67.7731 77.668ZM73.8565 77.5V69.1H77.3845C77.9045 69.1 78.3605 69.192 78.7525 69.376C79.1525 69.552 79.4605 69.808 79.6765 70.144C79.9005 70.48 80.0125 70.88 80.0125 71.344V71.476C80.0125 72.004 79.8845 72.428 79.6285 72.748C79.3805 73.06 79.0765 73.28 78.7165 73.408V73.6C79.0205 73.616 79.2645 73.72 79.4485 73.912C79.6325 74.096 79.7245 74.364 79.7245 74.716V77.5H78.4165V74.896C78.4165 74.68 78.3605 74.508 78.2485 74.38C78.1365 74.252 77.9565 74.188 77.7085 74.188H75.1525V77.5H73.8565ZM75.1525 73.012H77.2405C77.7045 73.012 78.0645 72.896 78.3205 72.664C78.5765 72.424 78.7045 72.1 78.7045 71.692V71.596C78.7045 71.188 78.5765 70.868 78.3205 70.636C78.0725 70.396 77.7125 70.276 77.2405 70.276H75.1525V73.012ZM82.6385 77.5V69.1H87.9305V70.276H83.9345V72.688H87.5945V73.864H83.9345V76.324H87.9905V77.5H82.6385Z" fill="#454654"/>
<path d="M98.896 77.5V75.16H97.492V74.092H98.896V72.508H97.492V71.44H98.896V69.1H100.024V71.44H101.56V69.1H102.676V71.44H104.092V72.508H102.676V74.092H104.092V75.16H102.676V77.5H101.56V75.16H100.024V77.5H98.896ZM100.024 74.092H101.56V72.508H100.024V74.092ZM109.574 77.668C108.942 77.668 108.394 77.552 107.93 77.32C107.466 77.088 107.106 76.76 106.85 76.336C106.602 75.912 106.478 75.42 106.478 74.86V74.728H107.762V74.848C107.762 75.36 107.918 75.772 108.23 76.084C108.55 76.388 108.994 76.54 109.562 76.54C110.146 76.54 110.598 76.38 110.918 76.06C111.238 75.74 111.398 75.308 111.398 74.764V74.656C111.398 74.136 111.238 73.72 110.918 73.408C110.606 73.096 110.206 72.94 109.718 72.94C109.446 72.94 109.218 72.984 109.034 73.072C108.858 73.152 108.714 73.252 108.602 73.372C108.498 73.492 108.41 73.608 108.338 73.72H106.742V69.1H112.37V70.24H108.002V72.712H108.194C108.274 72.576 108.386 72.448 108.53 72.328C108.682 72.2 108.878 72.096 109.118 72.016C109.358 71.936 109.646 71.896 109.982 71.896C110.478 71.896 110.926 72.004 111.326 72.22C111.734 72.428 112.058 72.74 112.298 73.156C112.538 73.564 112.658 74.06 112.658 74.644V74.776C112.658 75.36 112.534 75.868 112.286 76.3C112.038 76.732 111.682 77.068 111.218 77.308C110.762 77.548 110.214 77.668 109.574 77.668ZM118.143 77.668C117.167 77.668 116.387 77.392 115.803 76.84C115.227 76.28 114.939 75.44 114.939 74.32V72.28C114.939 71.184 115.227 70.352 115.803 69.784C116.387 69.216 117.167 68.932 118.143 68.932C119.127 68.932 119.907 69.216 120.483 69.784C121.067 70.352 121.359 71.184 121.359 72.28V74.32C121.359 75.44 121.067 76.28 120.483 76.84C119.907 77.392 119.127 77.668 118.143 77.668ZM118.143 76.54C118.807 76.54 119.299 76.352 119.619 75.976C119.939 75.592 120.099 75.056 120.099 74.368V72.208C120.099 71.52 119.927 70.992 119.583 70.624C119.239 70.248 118.759 70.06 118.143 70.06C117.519 70.06 117.039 70.252 116.703 70.636C116.367 71.012 116.199 71.536 116.199 72.208V74.368C116.199 75.072 116.359 75.612 116.679 75.988C117.007 76.356 117.495 76.54 118.143 76.54ZM126.833 77.668C126.225 77.668 125.689 77.552 125.225 77.32C124.761 77.08 124.401 76.748 124.145 76.324C123.889 75.9 123.761 75.408 123.761 74.848V71.944C123.761 71.288 123.889 70.736 124.145 70.288C124.409 69.84 124.777 69.504 125.249 69.28C125.721 69.048 126.269 68.932 126.893 68.932C127.509 68.932 128.041 69.04 128.489 69.256C128.937 69.464 129.281 69.764 129.521 70.156C129.761 70.54 129.881 70.992 129.881 71.512H128.609C128.609 71.096 128.469 70.752 128.189 70.48C127.917 70.2 127.485 70.06 126.893 70.06C126.293 70.06 125.829 70.22 125.501 70.54C125.181 70.852 125.021 71.288 125.021 71.848V72.856H125.213C125.349 72.664 125.569 72.48 125.873 72.304C126.185 72.128 126.625 72.04 127.193 72.04C127.689 72.04 128.145 72.148 128.561 72.364C128.977 72.58 129.309 72.888 129.557 73.288C129.813 73.688 129.941 74.172 129.941 74.74V74.884C129.941 75.436 129.809 75.924 129.545 76.348C129.281 76.764 128.913 77.088 128.441 77.32C127.977 77.552 127.441 77.668 126.833 77.668ZM126.845 76.54C127.405 76.54 127.849 76.388 128.177 76.084C128.513 75.78 128.681 75.372 128.681 74.86V74.764C128.681 74.42 128.605 74.124 128.453 73.876C128.301 73.62 128.085 73.42 127.805 73.276C127.533 73.132 127.213 73.06 126.845 73.06C126.485 73.06 126.165 73.132 125.885 73.276C125.613 73.42 125.401 73.62 125.249 73.876C125.097 74.124 125.021 74.42 125.021 74.764V74.86C125.021 75.372 125.185 75.78 125.513 76.084C125.849 76.388 126.293 76.54 126.845 76.54Z" fill="#73758C"/>
<path d="M27.984 108.668C26.96 108.668 26.144 108.38 25.536 107.804C24.928 107.22 24.624 106.384 24.624 105.296V103.304C24.624 102.216 24.928 101.384 25.536 100.808C26.144 100.224 26.96 99.932 27.984 99.932C29.008 99.932 29.796 100.212 30.348 100.772C30.908 101.332 31.188 102.1 31.188 103.076V103.148H29.772V103.04C29.772 102.512 29.624 102.08 29.328 101.744C29.04 101.4 28.592 101.228 27.984 101.228C27.392 101.228 26.924 101.412 26.58 101.78C26.244 102.14 26.076 102.64 26.076 103.28V105.32C26.076 105.952 26.244 106.452 26.58 106.82C26.924 107.188 27.392 107.372 27.984 107.372C28.592 107.372 29.04 107.204 29.328 106.868C29.624 106.524 29.772 106.088 29.772 105.56V105.356H31.188V105.524C31.188 106.5 30.908 107.268 30.348 107.828C29.796 108.388 29.008 108.668 27.984 108.668ZM36.9309 108.668C36.2589 108.668 35.6789 108.548 35.1909 108.308C34.7109 108.06 34.3389 107.704 34.0749 107.24C33.8189 106.776 33.6909 106.224 33.6909 105.584V100.1H35.1309V105.62C35.1309 106.18 35.2869 106.612 35.5989 106.916C35.9109 107.22 36.3549 107.372 36.9309 107.372C37.5149 107.372 37.9589 107.22 38.2629 106.916C38.5749 106.612 38.7309 106.18 38.7309 105.62V100.1H40.1709V105.584C40.1709 106.224 40.0429 106.776 39.7869 107.24C39.5309 107.704 39.1589 108.06 38.6709 108.308C38.1829 108.548 37.6029 108.668 36.9309 108.668ZM42.9897 108.5V100.1H46.5777C47.1057 100.1 47.5657 100.192 47.9577 100.376C48.3497 100.56 48.6537 100.82 48.8697 101.156C49.0937 101.484 49.2057 101.88 49.2057 102.344V102.476C49.2057 102.996 49.0817 103.412 48.8337 103.724C48.5857 104.036 48.2857 104.264 47.9337 104.408V104.6C48.2457 104.616 48.4897 104.724 48.6657 104.924C48.8497 105.124 48.9417 105.392 48.9417 105.728V108.5H47.5017V105.932C47.5017 105.732 47.4457 105.572 47.3337 105.452C47.2297 105.324 47.0577 105.26 46.8177 105.26H44.4417V108.5H42.9897ZM44.4417 103.952H46.4337C46.8497 103.952 47.1737 103.844 47.4057 103.628C47.6457 103.404 47.7657 103.108 47.7657 102.74V102.632C47.7657 102.256 47.6497 101.96 47.4177 101.744C47.1857 101.52 46.8577 101.408 46.4337 101.408H44.4417V103.952ZM51.7718 108.5V100.1H55.3598C55.8878 100.1 56.3478 100.192 56.7398 100.376C57.1318 100.56 57.4358 100.82 57.6518 101.156C57.8758 101.484 57.9878 101.88 57.9878 102.344V102.476C57.9878 102.996 57.8638 103.412 57.6158 103.724C57.3678 104.036 57.0678 104.264 56.7158 104.408V104.6C57.0278 104.616 57.2718 104.724 57.4478 104.924C57.6318 105.124 57.7238 105.392 57.7238 105.728V108.5H56.2838V105.932C56.2838 105.732 56.2278 105.572 56.1158 105.452C56.0118 105.324 55.8398 105.26 55.5998 105.26H53.2238V108.5H51.7718ZM53.2238 103.952H55.2158C55.6318 103.952 55.9558 103.844 56.1878 103.628C56.4278 103.404 56.5478 103.108 56.5478 102.74V102.632C56.5478 102.256 56.4318 101.96 56.1998 101.744C55.9678 101.52 55.6398 101.408 55.2158 101.408H53.2238V103.952ZM60.5538 108.5V100.1H65.9058V101.408H62.0058V103.616H65.5698V104.924H62.0058V107.192H65.9658V108.5H60.5538ZM68.4218 108.5V100.1H71.1818L73.1618 107.528H73.3538V100.1H74.7818V108.5H72.0338L70.0538 101.072H69.8498V108.5H68.4218ZM79.6174 108.5V101.408H77.1094V100.1H83.5654V101.408H81.0574V108.5H79.6174ZM89.7991 108.5V100.1H95.0311V101.408H91.2511V103.628H94.7311V104.948H91.2511V108.5H89.7991ZM100.613 108.668C99.941 108.668 99.361 108.548 98.873 108.308C98.393 108.06 98.021 107.704 97.757 107.24C97.501 106.776 97.373 106.224 97.373 105.584V100.1H98.813V105.62C98.813 106.18 98.969 106.612 99.281 106.916C99.593 107.22 100.037 107.372 100.613 107.372C101.197 107.372 101.641 107.22 101.945 106.916C102.257 106.612 102.413 106.18 102.413 105.62V100.1H103.853V105.584C103.853 106.224 103.725 106.776 103.469 107.24C103.213 107.704 102.841 108.06 102.353 108.308C101.865 108.548 101.285 108.668 100.613 108.668ZM106.672 108.5V100.1H109.432L111.412 107.528H111.604V100.1H113.032V108.5H110.284L108.304 101.072H108.1V108.5H106.672ZM115.887 108.5V100.1H118.707C119.827 100.1 120.683 100.384 121.275 100.952C121.867 101.52 122.163 102.372 122.163 103.508V105.092C122.163 106.228 121.867 107.08 121.275 107.648C120.683 108.216 119.827 108.5 118.707 108.5H115.887ZM117.339 107.192H118.731C119.411 107.192 119.911 107.016 120.231 106.664C120.559 106.312 120.723 105.804 120.723 105.14V103.472C120.723 102.792 120.559 102.28 120.231 101.936C119.911 101.584 119.411 101.408 118.731 101.408H117.339V107.192ZM124.822 108.5V100.1H126.274V108.5H124.822ZM129.127 108.5V100.1H131.887L133.867 107.528H134.059V100.1H135.487V108.5H132.739L130.759 101.072H130.555V108.5H129.127ZM141.259 108.668C140.667 108.668 140.135 108.54 139.663 108.284C139.199 108.02 138.827 107.64 138.547 107.144C138.275 106.64 138.139 106.024 138.139 105.296V103.304C138.139 102.216 138.443 101.384 139.051 100.808C139.659 100.224 140.475 99.932 141.499 99.932C142.523 99.932 143.311 100.208 143.863 100.76C144.415 101.304 144.691 102.04 144.691 102.968V103.016H143.275V102.92C143.275 102.6 143.211 102.312 143.083 102.056C142.955 101.8 142.759 101.6 142.495 101.456C142.231 101.304 141.899 101.228 141.499 101.228C140.907 101.228 140.439 101.412 140.095 101.78C139.759 102.14 139.591 102.64 139.591 103.28V105.32C139.591 105.952 139.759 106.456 140.095 106.832C140.439 107.208 140.915 107.396 141.523 107.396C142.131 107.396 142.575 107.232 142.855 106.904C143.135 106.576 143.275 106.156 143.275 105.644V105.5H141.151V104.276H144.691V108.5H143.371V107.672H143.167C143.103 107.816 143.003 107.968 142.867 108.128C142.731 108.28 142.535 108.408 142.279 108.512C142.031 108.616 141.691 108.668 141.259 108.668Z" fill="#454654"/>
<path d="M338.808 108.5V101.408H336.3V100.1H342.756V101.408H340.248V108.5H338.808ZM347.947 108.668C346.907 108.668 346.075 108.38 345.451 107.804C344.835 107.22 344.527 106.384 344.527 105.296V103.304C344.527 102.216 344.835 101.384 345.451 100.808C346.075 100.224 346.907 99.932 347.947 99.932C348.995 99.932 349.827 100.224 350.443 100.808C351.059 101.384 351.367 102.216 351.367 103.304V105.296C351.367 106.384 351.059 107.22 350.443 107.804C349.827 108.38 348.995 108.668 347.947 108.668ZM347.947 107.372C348.571 107.372 349.055 107.192 349.399 106.832C349.751 106.464 349.927 105.968 349.927 105.344V103.256C349.927 102.632 349.751 102.14 349.399 101.78C349.055 101.412 348.571 101.228 347.947 101.228C347.331 101.228 346.847 101.412 346.495 101.78C346.151 102.14 345.979 102.632 345.979 103.256V105.344C345.979 105.968 346.151 106.464 346.495 106.832C346.847 107.192 347.331 107.372 347.947 107.372ZM355.645 108.5V101.408H353.137V100.1H359.593V101.408H357.085V108.5H355.645ZM360.524 108.5L362.828 100.1H365.336L367.64 108.5H366.152L365.648 106.58H362.516L362.012 108.5H360.524ZM362.852 105.26H365.312L364.184 101H363.98L362.852 105.26ZM369.905 108.5V100.1H371.357V107.192H375.293V108.5H369.905ZM380.799 108.5L383.103 100.1H385.611L387.915 108.5H386.427L385.923 106.58H382.791L382.287 108.5H380.799ZM383.127 105.26H385.587L384.459 101H384.255L383.127 105.26ZM390.181 108.5V100.1H392.881L394.513 107.528H394.717L396.361 100.1H399.049V108.5H397.657V101.144H397.453L395.821 108.5H393.421L391.789 101.144H391.585V108.5H390.181ZM405.132 108.668C404.092 108.668 403.26 108.38 402.636 107.804C402.02 107.22 401.712 106.384 401.712 105.296V103.304C401.712 102.216 402.02 101.384 402.636 100.808C403.26 100.224 404.092 99.932 405.132 99.932C406.18 99.932 407.012 100.224 407.628 100.808C408.244 101.384 408.552 102.216 408.552 103.304V105.296C408.552 106.384 408.244 107.22 407.628 107.804C407.012 108.38 406.18 108.668 405.132 108.668ZM405.132 107.372C405.756 107.372 406.24 107.192 406.584 106.832C406.936 106.464 407.112 105.968 407.112 105.344V103.256C407.112 102.632 406.936 102.14 406.584 101.78C406.24 101.412 405.756 101.228 405.132 101.228C404.516 101.228 404.032 101.412 403.68 101.78C403.336 102.14 403.164 102.632 403.164 103.256V105.344C403.164 105.968 403.336 106.464 403.68 106.832C404.032 107.192 404.516 107.372 405.132 107.372ZM414.394 108.668C413.722 108.668 413.142 108.548 412.654 108.308C412.174 108.06 411.802 107.704 411.538 107.24C411.282 106.776 411.154 106.224 411.154 105.584V100.1H412.594V105.62C412.594 106.18 412.75 106.612 413.062 106.916C413.374 107.22 413.818 107.372 414.394 107.372C414.978 107.372 415.422 107.22 415.726 106.916C416.038 106.612 416.194 106.18 416.194 105.62V100.1H417.634V105.584C417.634 106.224 417.506 106.776 417.25 107.24C416.994 107.704 416.622 108.06 416.134 108.308C415.646 108.548 415.066 108.668 414.394 108.668ZM420.453 108.5V100.1H423.213L425.193 107.528H425.385V100.1H426.813V108.5H424.065L422.085 101.072H421.881V108.5H420.453ZM431.649 108.5V101.408H429.141V100.1H435.597V101.408H433.089V108.5H431.649Z" fill="#454654"/>
<path d="M24.84 136.5V135.394C24.84 134.713 24.9567 134.153 25.19 133.714C25.4233 133.275 25.7547 132.921 26.184 132.65C26.6227 132.37 27.15 132.137 27.766 131.95L28.62 131.684C29.0027 131.563 29.3293 131.413 29.6 131.236C29.88 131.059 30.0947 130.839 30.244 130.578C30.3933 130.307 30.468 129.995 30.468 129.64V129.584C30.468 129.033 30.2813 128.604 29.908 128.296C29.5347 127.979 29.0447 127.82 28.438 127.82C27.8127 127.82 27.304 127.988 26.912 128.324C26.5293 128.66 26.338 129.155 26.338 129.808V130.032H24.882V129.822C24.882 129.113 25.036 128.515 25.344 128.03C25.652 127.535 26.0767 127.157 26.618 126.896C27.1593 126.635 27.766 126.504 28.438 126.504C29.11 126.504 29.7073 126.63 30.23 126.882C30.762 127.134 31.1773 127.489 31.476 127.946C31.784 128.403 31.938 128.94 31.938 129.556V129.682C31.938 130.317 31.812 130.844 31.56 131.264C31.308 131.684 30.958 132.029 30.51 132.3C30.0713 132.571 29.5627 132.799 28.984 132.986L28.158 133.238C27.7193 133.369 27.3647 133.513 27.094 133.672C26.8327 133.821 26.6367 134.003 26.506 134.218C26.3847 134.433 26.324 134.708 26.324 135.044V135.184H31.854V136.5H24.84ZM38.4216 136.696C37.283 136.696 36.373 136.374 35.6916 135.73C35.0196 135.077 34.6836 134.097 34.6836 132.79V130.41C34.6836 129.131 35.0196 128.161 35.6916 127.498C36.373 126.835 37.283 126.504 38.4216 126.504C39.5696 126.504 40.4796 126.835 41.1516 127.498C41.833 128.161 42.1736 129.131 42.1736 130.41V132.79C42.1736 134.097 41.833 135.077 41.1516 135.73C40.4796 136.374 39.5696 136.696 38.4216 136.696ZM38.4216 135.38C39.1963 135.38 39.7703 135.161 40.1436 134.722C40.517 134.274 40.7036 133.649 40.7036 132.846V130.326C40.7036 129.523 40.503 128.907 40.1016 128.478C39.7003 128.039 39.1403 127.82 38.4216 127.82C37.6936 127.82 37.1336 128.044 36.7416 128.492C36.3496 128.931 36.1536 129.542 36.1536 130.326V132.846C36.1536 133.667 36.3403 134.297 36.7136 134.736C37.0963 135.165 37.6656 135.38 38.4216 135.38ZM48.5033 136.696C47.3646 136.696 46.4546 136.374 45.7733 135.73C45.1013 135.077 44.7653 134.097 44.7653 132.79V130.41C44.7653 129.131 45.1013 128.161 45.7733 127.498C46.4546 126.835 47.3646 126.504 48.5033 126.504C49.6513 126.504 50.5613 126.835 51.2333 127.498C51.9146 128.161 52.2553 129.131 52.2553 130.41V132.79C52.2553 134.097 51.9146 135.077 51.2333 135.73C50.5613 136.374 49.6513 136.696 48.5033 136.696ZM48.5033 135.38C49.2779 135.38 49.8519 135.161 50.2253 134.722C50.5986 134.274 50.7853 133.649 50.7853 132.846V130.326C50.7853 129.523 50.5846 128.907 50.1833 128.478C49.7819 128.039 49.2219 127.82 48.5033 127.82C47.7753 127.82 47.2153 128.044 46.8233 128.492C46.4313 128.931 46.2353 129.542 46.2353 130.326V132.846C46.2353 133.667 46.4219 134.297 46.7953 134.736C47.1779 135.165 47.7473 135.38 48.5033 135.38ZM55.3229 138.404V137.578H55.7989C56.1816 137.578 56.3729 137.387 56.3729 137.004V136.556H56.1629C55.8363 136.556 55.5656 136.458 55.3509 136.262C55.1363 136.066 55.0289 135.819 55.0289 135.52C55.0289 135.193 55.1363 134.932 55.3509 134.736C55.5656 134.531 55.8363 134.428 56.1629 134.428C56.4896 134.428 56.7556 134.535 56.9609 134.75C57.1756 134.955 57.2829 135.226 57.2829 135.562V137.018C57.2829 137.942 56.8209 138.404 55.8969 138.404H55.3229ZM63.813 136.696C62.6744 136.696 61.7644 136.374 61.083 135.73C60.411 135.077 60.075 134.097 60.075 132.79V130.41C60.075 129.131 60.411 128.161 61.083 127.498C61.7644 126.835 62.6744 126.504 63.813 126.504C64.961 126.504 65.871 126.835 66.543 127.498C67.2244 128.161 67.565 129.131 67.565 130.41V132.79C67.565 134.097 67.2244 135.077 66.543 135.73C65.871 136.374 64.961 136.696 63.813 136.696ZM63.813 135.38C64.5877 135.38 65.1617 135.161 65.535 134.722C65.9084 134.274 66.095 133.649 66.095 132.846V130.326C66.095 129.523 65.8944 128.907 65.493 128.478C65.0917 128.039 64.5317 127.82 63.813 127.82C63.085 127.82 62.525 128.044 62.133 128.492C61.741 128.931 61.545 129.542 61.545 130.326V132.846C61.545 133.667 61.7317 134.297 62.105 134.736C62.4877 135.165 63.057 135.38 63.813 135.38ZM73.8947 136.696C72.756 136.696 71.846 136.374 71.1647 135.73C70.4927 135.077 70.1567 134.097 70.1567 132.79V130.41C70.1567 129.131 70.4927 128.161 71.1647 127.498C71.846 126.835 72.756 126.504 73.8947 126.504C75.0427 126.504 75.9527 126.835 76.6247 127.498C77.306 128.161 77.6467 129.131 77.6467 130.41V132.79C77.6467 134.097 77.306 135.077 76.6247 135.73C75.9527 136.374 75.0427 136.696 73.8947 136.696ZM73.8947 135.38C74.6694 135.38 75.2434 135.161 75.6167 134.722C75.99 134.274 76.1767 133.649 76.1767 132.846V130.326C76.1767 129.523 75.976 128.907 75.5747 128.478C75.1734 128.039 74.6134 127.82 73.8947 127.82C73.1667 127.82 72.6067 128.044 72.2147 128.492C71.8227 128.931 71.6267 129.542 71.6267 130.326V132.846C71.6267 133.667 71.8134 134.297 72.1867 134.736C72.5694 135.165 73.1387 135.38 73.8947 135.38ZM83.9763 136.696C82.8377 136.696 81.9277 136.374 81.2463 135.73C80.5743 135.077 80.2383 134.097 80.2383 132.79V130.41C80.2383 129.131 80.5743 128.161 81.2463 127.498C81.9277 126.835 82.8377 126.504 83.9763 126.504C85.1243 126.504 86.0343 126.835 86.7063 127.498C87.3877 128.161 87.7283 129.131 87.7283 130.41V132.79C87.7283 134.097 87.3877 135.077 86.7063 135.73C86.0343 136.374 85.1243 136.696 83.9763 136.696ZM83.9763 135.38C84.751 135.38 85.325 135.161 85.6983 134.722C86.0717 134.274 86.2583 133.649 86.2583 132.846V130.326C86.2583 129.523 86.0577 128.907 85.6563 128.478C85.255 128.039 84.695 127.82 83.9763 127.82C83.2483 127.82 82.6883 128.044 82.2963 128.492C81.9043 128.931 81.7083 129.542 81.7083 130.326V132.846C81.7083 133.667 81.895 134.297 82.2683 134.736C82.651 135.165 83.2203 135.38 83.9763 135.38Z" fill="white"/>
<path d="M295.2 136.5V127.764H294.976L293.786 131.04H292.288L293.898 126.7H296.684V136.5H295.2ZM291.924 136.5V135.128H299.064V136.5H291.924ZM302.16 138.404V137.578H302.636C303.018 137.578 303.21 137.387 303.21 137.004V136.556H303C302.673 136.556 302.402 136.458 302.188 136.262C301.973 136.066 301.866 135.819 301.866 135.52C301.866 135.193 301.973 134.932 302.188 134.736C302.402 134.531 302.673 134.428 303 134.428C303.326 134.428 303.592 134.535 303.798 134.75C304.012 134.955 304.12 135.226 304.12 135.562V137.018C304.12 137.942 303.658 138.404 302.734 138.404H302.16ZM310.65 136.696C309.511 136.696 308.601 136.374 307.92 135.73C307.248 135.077 306.912 134.097 306.912 132.79V130.41C306.912 129.131 307.248 128.161 307.92 127.498C308.601 126.835 309.511 126.504 310.65 126.504C311.798 126.504 312.708 126.835 313.38 127.498C314.061 128.161 314.402 129.131 314.402 130.41V132.79C314.402 134.097 314.061 135.077 313.38 135.73C312.708 136.374 311.798 136.696 310.65 136.696ZM310.65 135.38C311.424 135.38 311.998 135.161 312.372 134.722C312.745 134.274 312.932 133.649 312.932 132.846V130.326C312.932 129.523 312.731 128.907 312.33 128.478C311.928 128.039 311.368 127.82 310.65 127.82C309.922 127.82 309.362 128.044 308.97 128.492C308.578 128.931 308.382 129.542 308.382 130.326V132.846C308.382 133.667 308.568 134.297 308.942 134.736C309.324 135.165 309.894 135.38 310.65 135.38ZM320.731 136.696C319.593 136.696 318.683 136.374 318.001 135.73C317.329 135.077 316.993 134.097 316.993 132.79V130.41C316.993 129.131 317.329 128.161 318.001 127.498C318.683 126.835 319.593 126.504 320.731 126.504C321.879 126.504 322.789 126.835 323.461 127.498C324.143 128.161 324.483 129.131 324.483 130.41V132.79C324.483 134.097 324.143 135.077 323.461 135.73C322.789 136.374 321.879 136.696 320.731 136.696ZM320.731 135.38C321.506 135.38 322.08 135.161 322.453 134.722C322.827 134.274 323.013 133.649 323.013 132.846V130.326C323.013 129.523 322.813 128.907 322.411 128.478C322.01 128.039 321.45 127.82 320.731 127.82C320.003 127.82 319.443 128.044 319.051 128.492C318.659 128.931 318.463 129.542 318.463 130.326V132.846C318.463 133.667 318.65 134.297 319.023 134.736C319.406 135.165 319.975 135.38 320.731 135.38ZM330.813 136.696C329.674 136.696 328.764 136.374 328.083 135.73C327.411 135.077 327.075 134.097 327.075 132.79V130.41C327.075 129.131 327.411 128.161 328.083 127.498C328.764 126.835 329.674 126.504 330.813 126.504C331.961 126.504 332.871 126.835 333.543 127.498C334.224 128.161 334.565 129.131 334.565 130.41V132.79C334.565 134.097 334.224 135.077 333.543 135.73C332.871 136.374 331.961 136.696 330.813 136.696ZM330.813 135.38C331.588 135.38 332.162 135.161 332.535 134.722C332.908 134.274 333.095 133.649 333.095 132.846V130.326C333.095 129.523 332.894 128.907 332.493 128.478C332.092 128.039 331.532 127.82 330.813 127.82C330.085 127.82 329.525 128.044 329.133 128.492C328.741 128.931 328.545 129.542 328.545 130.326V132.846C328.545 133.667 328.732 134.297 329.105 134.736C329.488 135.165 330.057 135.38 330.813 135.38ZM337.633 138.404V137.578H338.109C338.491 137.578 338.683 137.387 338.683 137.004V136.556H338.473C338.146 136.556 337.875 136.458 337.661 136.262C337.446 136.066 337.339 135.819 337.339 135.52C337.339 135.193 337.446 134.932 337.661 134.736C337.875 134.531 338.146 134.428 338.473 134.428C338.799 134.428 339.065 134.535 339.271 134.75C339.485 134.955 339.593 135.226 339.593 135.562V137.018C339.593 137.942 339.131 138.404 338.207 138.404H337.633ZM346.123 136.696C344.984 136.696 344.074 136.374 343.393 135.73C342.721 135.077 342.385 134.097 342.385 132.79V130.41C342.385 129.131 342.721 128.161 343.393 127.498C344.074 126.835 344.984 126.504 346.123 126.504C347.271 126.504 348.181 126.835 348.853 127.498C349.534 128.161 349.875 129.131 349.875 130.41V132.79C349.875 134.097 349.534 135.077 348.853 135.73C348.181 136.374 347.271 136.696 346.123 136.696ZM346.123 135.38C346.897 135.38 347.471 135.161 347.845 134.722C348.218 134.274 348.405 133.649 348.405 132.846V130.326C348.405 129.523 348.204 128.907 347.803 128.478C347.401 128.039 346.841 127.82 346.123 127.82C345.395 127.82 344.835 128.044 344.443 128.492C344.051 128.931 343.855 129.542 343.855 130.326V132.846C343.855 133.667 344.041 134.297 344.415 134.736C344.797 135.165 345.367 135.38 346.123 135.38ZM356.204 136.696C355.066 136.696 354.156 136.374 353.474 135.73C352.802 135.077 352.466 134.097 352.466 132.79V130.41C352.466 129.131 352.802 128.161 353.474 127.498C354.156 126.835 355.066 126.504 356.204 126.504C357.352 126.504 358.262 126.835 358.934 127.498C359.616 128.161 359.956 129.131 359.956 130.41V132.79C359.956 134.097 359.616 135.077 358.934 135.73C358.262 136.374 357.352 136.696 356.204 136.696ZM356.204 135.38C356.979 135.38 357.553 135.161 357.926 134.722C358.3 134.274 358.486 133.649 358.486 132.846V130.326C358.486 129.523 358.286 128.907 357.884 128.478C357.483 128.039 356.923 127.82 356.204 127.82C355.476 127.82 354.916 128.044 354.524 128.492C354.132 128.931 353.936 129.542 353.936 130.326V132.846C353.936 133.667 354.123 134.297 354.496 134.736C354.879 135.165 355.448 135.38 356.204 135.38ZM366.286 136.696C365.147 136.696 364.237 136.374 363.556 135.73C362.884 135.077 362.548 134.097 362.548 132.79V130.41C362.548 129.131 362.884 128.161 363.556 127.498C364.237 126.835 365.147 126.504 366.286 126.504C367.434 126.504 368.344 126.835 369.016 127.498C369.697 128.161 370.038 129.131 370.038 130.41V132.79C370.038 134.097 369.697 135.077 369.016 135.73C368.344 136.374 367.434 136.696 366.286 136.696ZM366.286 135.38C367.061 135.38 367.635 135.161 368.008 134.722C368.381 134.274 368.568 133.649 368.568 132.846V130.326C368.568 129.523 368.367 128.907 367.966 128.478C367.565 128.039 367.005 127.82 366.286 127.82C365.558 127.82 364.998 128.044 364.606 128.492C364.214 128.931 364.018 129.542 364.018 130.326V132.846C364.018 133.667 364.205 134.297 364.578 134.736C364.961 135.165 365.53 135.38 366.286 135.38Z" fill="white"/>
<path d="M381.354 136.696C380.617 136.696 379.963 136.565 379.394 136.304C378.825 136.043 378.377 135.66 378.05 135.156C377.733 134.643 377.574 134.022 377.574 133.294V132.944H379.072V133.294C379.072 133.985 379.277 134.503 379.688 134.848C380.108 135.193 380.663 135.366 381.354 135.366C382.054 135.366 382.581 135.221 382.936 134.932C383.291 134.633 383.468 134.251 383.468 133.784C383.468 133.476 383.384 133.224 383.216 133.028C383.057 132.832 382.824 132.678 382.516 132.566C382.208 132.445 381.839 132.333 381.41 132.23L380.892 132.104C380.267 131.955 379.725 131.773 379.268 131.558C378.811 131.334 378.456 131.04 378.204 130.676C377.952 130.312 377.826 129.845 377.826 129.276C377.826 128.697 377.966 128.203 378.246 127.792C378.526 127.381 378.918 127.064 379.422 126.84C379.926 126.616 380.519 126.504 381.2 126.504C381.881 126.504 382.488 126.621 383.02 126.854C383.561 127.087 383.986 127.433 384.294 127.89C384.611 128.347 384.77 128.921 384.77 129.612V130.116H383.272V129.612C383.272 129.192 383.183 128.851 383.006 128.59C382.838 128.329 382.595 128.137 382.278 128.016C381.97 127.895 381.611 127.834 381.2 127.834C380.603 127.834 380.141 127.96 379.814 128.212C379.487 128.455 379.324 128.795 379.324 129.234C379.324 129.533 379.394 129.78 379.534 129.976C379.683 130.163 379.898 130.317 380.178 130.438C380.458 130.559 380.803 130.667 381.214 130.76L381.732 130.886C382.367 131.026 382.927 131.208 383.412 131.432C383.897 131.647 384.275 131.941 384.546 132.314C384.826 132.687 384.966 133.168 384.966 133.756C384.966 134.344 384.817 134.857 384.518 135.296C384.229 135.735 383.813 136.08 383.272 136.332C382.731 136.575 382.091 136.696 381.354 136.696ZM380.654 138.124V125.076H382.04V138.124H380.654ZM390.291 136.5V128.072H387.281V126.7H394.813V128.072H391.803V136.5H390.291ZM400.856 136.696C399.652 136.696 398.695 136.36 397.986 135.688C397.276 135.007 396.922 134.027 396.922 132.748V130.452C396.922 129.173 397.276 128.198 397.986 127.526C398.695 126.845 399.652 126.504 400.856 126.504C402.06 126.504 403.016 126.845 403.726 127.526C404.444 128.198 404.804 129.173 404.804 130.452V132.748C404.804 134.027 404.444 135.007 403.726 135.688C403.016 136.36 402.06 136.696 400.856 136.696ZM400.856 135.338C401.63 135.338 402.228 135.114 402.648 134.666C403.068 134.209 403.278 133.588 403.278 132.804V130.396C403.278 129.612 403.068 128.996 402.648 128.548C402.228 128.091 401.63 127.862 400.856 127.862C400.1 127.862 399.507 128.091 399.078 128.548C398.648 128.996 398.434 129.612 398.434 130.396V132.804C398.434 133.588 398.648 134.209 399.078 134.666C399.507 135.114 400.1 135.338 400.856 135.338ZM407.993 136.5V126.7H409.505V130.774H409.729L413.383 126.7H415.357L410.933 131.53L415.511 136.5H413.481L409.729 132.342H409.505V136.5H407.993ZM418.048 136.5V126.7H424.222V128.072H419.56V130.886H423.83V132.258H419.56V135.128H424.292V136.5H418.048ZM427.268 136.5V126.7H430.18L432.84 135.492H433.064V126.7H434.562V136.5H431.65L428.99 127.694H428.766V136.5H427.268Z" fill="#FFD646"/>
<rect x="24" y="158" width="373" height="4" rx="2" fill="#2E2F38"/>
<rect x="24" y="158" width="64" height="4" rx="2" fill="#FFD646"/>
<path d="M409.72 164.5V163.552C409.72 162.968 409.82 162.488 410.02 162.112C410.22 161.736 410.504 161.432 410.872 161.2C411.248 160.96 411.7 160.76 412.228 160.6L412.96 160.372C413.288 160.268 413.568 160.14 413.8 159.988C414.04 159.836 414.224 159.648 414.352 159.424C414.48 159.192 414.544 158.924 414.544 158.62V158.572C414.544 158.1 414.384 157.732 414.064 157.468C413.744 157.196 413.324 157.06 412.804 157.06C412.268 157.06 411.832 157.204 411.496 157.492C411.168 157.78 411.004 158.204 411.004 158.764V158.956H409.756V158.776C409.756 158.168 409.888 157.656 410.152 157.24C410.416 156.816 410.78 156.492 411.244 156.268C411.708 156.044 412.228 155.932 412.804 155.932C413.38 155.932 413.892 156.04 414.34 156.256C414.796 156.472 415.152 156.776 415.408 157.168C415.672 157.56 415.804 158.02 415.804 158.548V158.656C415.804 159.2 415.696 159.652 415.48 160.012C415.264 160.372 414.964 160.668 414.58 160.9C414.204 161.132 413.768 161.328 413.272 161.488L412.564 161.704C412.188 161.816 411.884 161.94 411.652 162.076C411.428 162.204 411.26 162.36 411.148 162.544C411.044 162.728 410.992 162.964 410.992 163.252V163.372H415.732V164.5H409.72ZM421.361 164.668C420.385 164.668 419.605 164.392 419.021 163.84C418.445 163.28 418.157 162.44 418.157 161.32V159.28C418.157 158.184 418.445 157.352 419.021 156.784C419.605 156.216 420.385 155.932 421.361 155.932C422.345 155.932 423.125 156.216 423.701 156.784C424.285 157.352 424.577 158.184 424.577 159.28V161.32C424.577 162.44 424.285 163.28 423.701 163.84C423.125 164.392 422.345 164.668 421.361 164.668ZM421.361 163.54C422.025 163.54 422.517 163.352 422.837 162.976C423.157 162.592 423.317 162.056 423.317 161.368V159.208C423.317 158.52 423.145 157.992 422.801 157.624C422.457 157.248 421.977 157.06 421.361 157.06C420.737 157.06 420.257 157.252 419.921 157.636C419.585 158.012 419.417 158.536 419.417 159.208V161.368C419.417 162.072 419.577 162.612 419.897 162.988C420.225 163.356 420.713 163.54 421.361 163.54ZM427.975 164.656L427.207 164.032L433.771 155.944L434.539 156.568L427.975 164.656ZM433.171 164.632C432.579 164.632 432.111 164.468 431.767 164.14C431.423 163.804 431.251 163.352 431.251 162.784V162.712C431.251 162.136 431.423 161.684 431.767 161.356C432.111 161.02 432.579 160.852 433.171 160.852C433.755 160.852 434.223 161.02 434.575 161.356C434.927 161.684 435.103 162.136 435.103 162.712V162.784C435.103 163.352 434.927 163.804 434.575 164.14C434.231 164.468 433.763 164.632 433.171 164.632ZM433.171 163.792C433.459 163.792 433.683 163.704 433.843 163.528C434.011 163.352 434.095 163.12 434.095 162.832V162.664C434.095 162.368 434.011 162.132 433.843 161.956C433.683 161.78 433.459 161.692 433.171 161.692C432.891 161.692 432.667 161.78 432.499 161.956C432.339 162.132 432.259 162.368 432.259 162.664V162.832C432.259 163.12 432.339 163.352 432.499 163.528C432.667 163.704 432.891 163.792 433.171 163.792ZM428.575 159.748C427.983 159.748 427.511 159.584 427.159 159.256C426.815 158.92 426.643 158.468 426.643 157.9V157.816C426.643 157.24 426.815 156.788 427.159 156.46C427.511 156.132 427.983 155.968 428.575 155.968C429.159 155.968 429.623 156.132 429.967 156.46C430.319 156.788 430.495 157.24 430.495 157.816V157.9C430.495 158.468 430.323 158.92 429.979 159.256C429.635 159.584 429.167 159.748 428.575 159.748ZM428.575 158.908C428.855 158.908 429.075 158.82 429.235 158.644C429.403 158.46 429.487 158.224 429.487 157.936V157.768C429.487 157.48 429.403 157.248 429.235 157.072C429.075 156.896 428.855 156.808 428.575 156.808C428.287 156.808 428.059 156.896 427.891 157.072C427.731 157.248 427.651 157.48 427.651 157.768V157.936C427.651 158.224 427.731 158.46 427.891 158.644C428.059 158.82 428.287 158.908 428.575 158.908Z" fill="white"/>
<rect x="0.5" y="38" width="459" height="153" rx="7.5" stroke="url(#paint0_linear_317_6591)"/>
<g filter="url(#filter0_d_317_6591)">
<rect x="444" y="45.5" width="60" height="60" rx="30" fill="#FFD646" shape-rendering="crispEdges"/>
<path d="M486.326 76.0898L483.625 77.4351L480.125 70.7413L482.859 69.3742C483.062 69.2706 483.298 69.2515 483.515 69.3212C483.733 69.3909 483.913 69.5436 484.019 69.746L486.709 74.8976C486.764 75.0007 486.797 75.1137 486.807 75.2299C486.818 75.3461 486.804 75.4632 486.769 75.5743C486.733 75.6854 486.676 75.7882 486.6 75.8767C486.524 75.9653 486.431 76.0377 486.326 76.0898V76.0898Z" stroke="#1A1507" strokeWidth="1.4" stroke-linecap="round" stroke-linejoin="round"/>
<path d="M464.375 77.3256L461.673 75.9694C461.569 75.9184 461.477 75.847 461.401 75.7595C461.325 75.672 461.267 75.5701 461.232 75.4599C461.196 75.3497 461.183 75.2334 461.193 75.118C461.203 75.0026 461.236 74.8904 461.29 74.7881L463.981 69.6366C464.086 69.4343 464.266 69.281 464.483 69.2095C464.7 69.138 464.935 69.1539 465.14 69.2538L467.875 70.6209L464.375 77.3256Z" stroke="#1A1507" strokeWidth="1.4" stroke-linecap="round" stroke-linejoin="round"/>
<path d="M483.625 77.4348L481.875 79.491L477.85 83.516C477.74 83.6186 477.607 83.6931 477.462 83.7331C477.318 83.7731 477.165 83.7774 477.019 83.7457L470.675 82.1598C470.559 82.1275 470.451 82.0716 470.358 81.9957L464.375 77.3254" stroke="#1A1507" strokeWidth="1.4" stroke-linecap="round" stroke-linejoin="round"/>
<path d="M481.875 79.4911L477.062 75.9911L475.662 77.0411C475.056 77.4938 474.319 77.7384 473.562 77.7384C472.805 77.7384 472.069 77.4938 471.462 77.0411L470.872 76.5927C470.772 76.5167 470.689 76.4204 470.629 76.3102C470.569 76.1999 470.534 76.0782 470.524 75.9531C470.515 75.828 470.532 75.7023 470.575 75.5844C470.618 75.4665 470.686 75.3591 470.773 75.2692L475.061 70.9927C475.141 70.9125 475.237 70.849 475.342 70.8059C475.447 70.7627 475.56 70.7407 475.673 70.7411H480.125" stroke="#1A1507" strokeWidth="1.4" stroke-linecap="round" stroke-linejoin="round"/>
<path d="M467.94 70.6208L473.551 68.9801C473.751 68.923 473.964 68.9385 474.153 69.0239L477.937 70.7411" stroke="#1A1507" strokeWidth="1.4" stroke-linecap="round" stroke-linejoin="round"/>
<path d="M472.25 86.0538L468.958 85.2225C468.823 85.1922 468.699 85.1282 468.597 85.0366L466.125 82.8928" stroke="#1A1507" strokeWidth="1.4" stroke-linecap="round" stroke-linejoin="round"/>
<rect x="444.5" y="46" width="59" height="59" rx="29.5" stroke="#CCAB38" shape-rendering="crispEdges"/>
</g>
<defs>
<filter id="filter0_d_317_6591" x="399" y="0.5" width="150" height="150" filterUnits="userSpaceOnUse" color-interpolation-filters="sRGB">
<feFlood flood-opacity="0" result="BackgroundImageFix"/>
<feColorMatrix in="SourceAlpha" type="matrix" values="0 0 0 0 0 0 0 0 0 0 0 0 0 0 0 0 0 0 127 0" result="hardAlpha"/>
<feOffset/>
<feGaussianBlur stdDeviation="22.5"/>
<feComposite in2="hardAlpha" operator="out"/>
<feColorMatrix type="matrix" values="0 0 0 0 0.0470588 0 0 0 0 0.0470588 0 0 0 0 0.054902 0 0 0 1 0"/>
<feBlend mode="normal" in2="BackgroundImageFix" result="effect1_dropShadow_317_6591"/>
<feBlend mode="normal" in="SourceGraphic" in2="effect1_dropShadow_317_6591" result="shape"/>
</filter>
<linearGradient id="paint0_linear_317_6591" x1="244.011" y1="37.5" x2="244.011" y2="191.5" gradientUnits="userSpaceOnUse">
<stop stop-color="#454654"/>
<stop offset="1" stop-color="#22232A"/>
</linearGradient>
</defs>
</svg>
