<svg width="581" height="204" viewBox="0 0 581 204" fill="none" xmlns="http://www.w3.org/2000/svg">
<rect x="93.5" y="44.5" width="399" height="92" rx="7.5" fill="#17171C"/>
<path d="M121.704 81.196C120.5 81.196 119.543 80.86 118.834 80.188C118.125 79.5067 117.77 78.5267 117.77 77.248V74.952C117.77 73.6733 118.125 72.698 118.834 72.026C119.543 71.3447 120.5 71.004 121.704 71.004C122.908 71.004 123.865 71.3447 124.574 72.026C125.293 72.698 125.652 73.6733 125.652 74.952V77.248C125.652 78.5267 125.293 79.5067 124.574 80.188C123.865 80.86 122.908 81.196 121.704 81.196ZM121.704 79.838C122.479 79.838 123.076 79.614 123.496 79.166C123.916 78.7087 124.126 78.088 124.126 77.304V74.896C124.126 74.112 123.916 73.496 123.496 73.048C123.076 72.5907 122.479 72.362 121.704 72.362C120.948 72.362 120.355 72.5907 119.926 73.048C119.497 73.496 119.282 74.112 119.282 74.896V77.304C119.282 78.088 119.497 78.7087 119.926 79.166C120.355 79.614 120.948 79.838 121.704 79.838ZM128.842 81V71.2H132.734C133.331 71.2 133.863 71.3213 134.33 71.564C134.806 71.7973 135.175 72.1333 135.436 72.572C135.707 73.0013 135.842 73.5193 135.842 74.126V74.308C135.842 74.9147 135.702 75.4373 135.422 75.876C135.151 76.3147 134.783 76.6507 134.316 76.884C133.849 77.1173 133.322 77.234 132.734 77.234H130.354V81H128.842ZM130.354 75.862H132.58C133.112 75.862 133.537 75.722 133.854 75.442C134.171 75.162 134.33 74.7793 134.33 74.294V74.154C134.33 73.6593 134.171 73.272 133.854 72.992C133.537 72.712 133.112 72.572 132.58 72.572H130.354V75.862ZM138.677 81V71.2H144.851V72.572H140.189V75.386H144.459V76.758H140.189V79.628H144.921V81H138.677ZM147.898 81V71.2H150.81L153.47 79.992H153.694V71.2H155.192V81H152.28L149.62 72.194H149.396V81H147.898ZM163.604 81V71.2H169.652V72.572H165.116V75.4H169.288V76.772H165.116V81H163.604ZM176.11 81.196C174.906 81.196 173.949 80.86 173.24 80.188C172.531 79.5067 172.176 78.5267 172.176 77.248V74.952C172.176 73.6733 172.531 72.698 173.24 72.026C173.949 71.3447 174.906 71.004 176.11 71.004C177.314 71.004 178.271 71.3447 178.98 72.026C179.699 72.698 180.058 73.6733 180.058 74.952V77.248C180.058 78.5267 179.699 79.5067 178.98 80.188C178.271 80.86 177.314 81.196 176.11 81.196ZM176.11 79.838C176.885 79.838 177.482 79.614 177.902 79.166C178.322 78.7087 178.532 78.088 178.532 77.304V74.896C178.532 74.112 178.322 73.496 177.902 73.048C177.482 72.5907 176.885 72.362 176.11 72.362C175.354 72.362 174.761 72.5907 174.332 73.048C173.903 73.496 173.688 74.112 173.688 74.896V77.304C173.688 78.088 173.903 78.7087 174.332 79.166C174.761 79.614 175.354 79.838 176.11 79.838ZM183.248 81V71.2H187.364C187.97 71.2 188.502 71.3073 188.96 71.522C189.426 71.7273 189.786 72.026 190.038 72.418C190.299 72.81 190.43 73.2767 190.43 73.818V73.972C190.43 74.588 190.28 75.0827 189.982 75.456C189.692 75.82 189.338 76.0767 188.918 76.226V76.45C189.272 76.4687 189.557 76.59 189.772 76.814C189.986 77.0287 190.094 77.3413 190.094 77.752V81H188.568V77.962C188.568 77.71 188.502 77.5093 188.372 77.36C188.241 77.2107 188.031 77.136 187.742 77.136H184.76V81H183.248ZM184.76 75.764H187.196C187.737 75.764 188.157 75.6287 188.456 75.358C188.754 75.078 188.904 74.7 188.904 74.224V74.112C188.904 73.636 188.754 73.2627 188.456 72.992C188.166 72.712 187.746 72.572 187.196 72.572H184.76V75.764ZM198.462 81V71.2H201.668C202.965 71.2 203.964 71.5313 204.664 72.194C205.364 72.8567 205.714 73.8553 205.714 75.19V77.024C205.714 78.3587 205.364 79.3573 204.664 80.02C203.964 80.6733 202.965 81 201.668 81H198.462ZM199.974 79.628H201.682C202.531 79.628 203.161 79.4133 203.572 78.984C203.983 78.5547 204.188 77.9153 204.188 77.066V75.134C204.188 74.2753 203.983 73.636 203.572 73.216C203.161 72.796 202.531 72.586 201.682 72.586H199.974V79.628ZM208.885 81V71.2H210.397V81H208.885ZM217.172 81.196C216.435 81.196 215.781 81.0653 215.212 80.804C214.643 80.5427 214.195 80.16 213.868 79.656C213.551 79.1427 213.392 78.522 213.392 77.794V77.444H214.89V77.794C214.89 78.4847 215.095 79.0027 215.506 79.348C215.926 79.6933 216.481 79.866 217.172 79.866C217.872 79.866 218.399 79.7213 218.754 79.432C219.109 79.1333 219.286 78.7507 219.286 78.284C219.286 77.976 219.202 77.724 219.034 77.528C218.866 77.332 218.628 77.178 218.32 77.066C218.012 76.9447 217.643 76.8327 217.214 76.73L216.696 76.604C216.071 76.4547 215.525 76.2727 215.058 76.058C214.601 75.834 214.246 75.54 213.994 75.176C213.742 74.812 213.616 74.3453 213.616 73.776C213.616 73.1973 213.756 72.7027 214.036 72.292C214.325 71.8813 214.722 71.564 215.226 71.34C215.73 71.116 216.323 71.004 217.004 71.004C217.685 71.004 218.292 71.1207 218.824 71.354C219.365 71.5873 219.79 71.9327 220.098 72.39C220.406 72.8473 220.56 73.4213 220.56 74.112V74.616H219.062V74.112C219.062 73.692 218.973 73.3513 218.796 73.09C218.628 72.8287 218.39 72.6373 218.082 72.516C217.774 72.3947 217.415 72.334 217.004 72.334C216.407 72.334 215.94 72.46 215.604 72.712C215.277 72.9547 215.114 73.2953 215.114 73.734C215.114 74.0327 215.184 74.28 215.324 74.476C215.473 74.6627 215.688 74.8167 215.968 74.938C216.248 75.0593 216.598 75.1667 217.018 75.26L217.536 75.386C218.171 75.526 218.731 75.708 219.216 75.932C219.701 76.1467 220.084 76.4407 220.364 76.814C220.644 77.1873 220.784 77.668 220.784 78.256C220.784 78.844 220.635 79.3573 220.336 79.796C220.047 80.2347 219.631 80.58 219.09 80.832C218.549 81.0747 217.909 81.196 217.172 81.196ZM223.771 81V71.2H227.663C228.261 71.2 228.793 71.3213 229.259 71.564C229.735 71.7973 230.104 72.1333 230.365 72.572C230.636 73.0013 230.771 73.5193 230.771 74.126V74.308C230.771 74.9147 230.631 75.4373 230.351 75.876C230.081 76.3147 229.712 76.6507 229.245 76.884C228.779 77.1173 228.251 77.234 227.663 77.234H225.283V81H223.771ZM225.283 75.862H227.509C228.041 75.862 228.466 75.722 228.783 75.442C229.101 75.162 229.259 74.7793 229.259 74.294V74.154C229.259 73.6593 229.101 73.272 228.783 72.992C228.466 72.712 228.041 72.572 227.509 72.572H225.283V75.862ZM237.275 81.196C236.5 81.196 235.833 81.056 235.273 80.776C234.722 80.496 234.293 80.0947 233.985 79.572C233.686 79.04 233.537 78.396 233.537 77.64V71.2H235.063V77.682C235.063 78.3727 235.254 78.9047 235.637 79.278C236.019 79.6513 236.565 79.838 237.275 79.838C237.984 79.838 238.53 79.6513 238.913 79.278C239.295 78.9047 239.487 78.3727 239.487 77.682V71.2H240.999V77.64C240.999 78.396 240.849 79.04 240.551 79.572C240.252 80.0947 239.823 80.496 239.263 80.776C238.703 81.056 238.04 81.196 237.275 81.196ZM246.71 81V72.572H243.7V71.2H251.232V72.572H248.222V81H246.71ZM254.002 81V71.2H260.176V72.572H255.514V75.386H259.784V76.758H255.514V79.628H260.246V81H254.002Z" fill="#9669ED"/>
<path d="M330.969 81V80.65C330.969 80.2953 330.993 80.0013 331.039 79.768C331.086 79.5253 331.207 79.2453 331.403 78.928L335.155 72.726V72.53H329.177V71.2H336.723V72.964L332.775 79.544C332.654 79.7493 332.57 79.936 332.523 80.104C332.486 80.2627 332.467 80.4633 332.467 80.706V81H330.969ZM343.039 81.196C341.9 81.196 340.99 80.874 340.309 80.23C339.637 79.5767 339.301 78.5967 339.301 77.29V74.91C339.301 73.6313 339.637 72.6607 340.309 71.998C340.99 71.3353 341.9 71.004 343.039 71.004C344.187 71.004 345.097 71.3353 345.769 71.998C346.45 72.6607 346.791 73.6313 346.791 74.91V77.29C346.791 78.5967 346.45 79.5767 345.769 80.23C345.097 80.874 344.187 81.196 343.039 81.196ZM343.039 79.88C343.813 79.88 344.387 79.6607 344.761 79.222C345.134 78.774 345.321 78.1487 345.321 77.346V74.826C345.321 74.0233 345.12 73.4073 344.719 72.978C344.317 72.5393 343.757 72.32 343.039 72.32C342.311 72.32 341.751 72.544 341.359 72.992C340.967 73.4307 340.771 74.042 340.771 74.826V77.346C340.771 78.1673 340.957 78.7973 341.331 79.236C341.713 79.6653 342.283 79.88 343.039 79.88Z" fill="#9669ED"/>
<path d="M353.637 83.8L357.753 71.2H359.195L355.079 83.8H353.637ZM369.846 81.196C369.109 81.196 368.469 81.0607 367.928 80.79C367.387 80.5193 366.967 80.1367 366.668 79.642C366.379 79.1473 366.234 78.5733 366.234 77.92V77.766H367.732V77.906C367.732 78.5033 367.914 78.984 368.278 79.348C368.651 79.7027 369.169 79.88 369.832 79.88C370.513 79.88 371.041 79.6933 371.414 79.32C371.787 78.9467 371.974 78.4427 371.974 77.808V77.682C371.974 77.0753 371.787 76.59 371.414 76.226C371.05 75.862 370.583 75.68 370.014 75.68C369.697 75.68 369.431 75.7313 369.216 75.834C369.011 75.9273 368.843 76.044 368.712 76.184C368.591 76.324 368.488 76.4593 368.404 76.59H366.542V71.2H373.108V72.53H368.012V75.414H368.236C368.329 75.2553 368.46 75.106 368.628 74.966C368.805 74.8167 369.034 74.6953 369.314 74.602C369.594 74.5087 369.93 74.462 370.322 74.462C370.901 74.462 371.423 74.588 371.89 74.84C372.366 75.0827 372.744 75.4467 373.024 75.932C373.304 76.408 373.444 76.9867 373.444 77.668V77.822C373.444 78.5033 373.299 79.096 373.01 79.6C372.721 80.104 372.305 80.496 371.764 80.776C371.232 81.056 370.593 81.196 369.846 81.196ZM379.844 81.196C378.705 81.196 377.795 80.874 377.114 80.23C376.442 79.5767 376.106 78.5967 376.106 77.29V74.91C376.106 73.6313 376.442 72.6607 377.114 71.998C377.795 71.3353 378.705 71.004 379.844 71.004C380.992 71.004 381.902 71.3353 382.574 71.998C383.255 72.6607 383.596 73.6313 383.596 74.91V77.29C383.596 78.5967 383.255 79.5767 382.574 80.23C381.902 80.874 380.992 81.196 379.844 81.196ZM379.844 79.88C380.618 79.88 381.192 79.6607 381.566 79.222C381.939 78.774 382.126 78.1487 382.126 77.346V74.826C382.126 74.0233 381.925 73.4073 381.524 72.978C381.122 72.5393 380.562 72.32 379.844 72.32C379.116 72.32 378.556 72.544 378.164 72.992C377.772 73.4307 377.576 74.042 377.576 74.826V77.346C377.576 78.1673 377.762 78.7973 378.136 79.236C378.518 79.6653 379.088 79.88 379.844 79.88ZM389.925 81.196C388.786 81.196 387.876 80.874 387.195 80.23C386.523 79.5767 386.187 78.5967 386.187 77.29V74.91C386.187 73.6313 386.523 72.6607 387.195 71.998C387.876 71.3353 388.786 71.004 389.925 71.004C391.073 71.004 391.983 71.3353 392.655 71.998C393.336 72.6607 393.677 73.6313 393.677 74.91V77.29C393.677 78.5967 393.336 79.5767 392.655 80.23C391.983 80.874 391.073 81.196 389.925 81.196ZM389.925 79.88C390.7 79.88 391.274 79.6607 391.647 79.222C392.02 78.774 392.207 78.1487 392.207 77.346V74.826C392.207 74.0233 392.006 73.4073 391.605 72.978C391.204 72.5393 390.644 72.32 389.925 72.32C389.197 72.32 388.637 72.544 388.245 72.992C387.853 73.4307 387.657 74.042 387.657 74.826V77.346C387.657 78.1673 387.844 78.7973 388.217 79.236C388.6 79.6653 389.169 79.88 389.925 79.88ZM405.339 81.196C404.135 81.196 403.178 80.86 402.469 80.188C401.76 79.5067 401.405 78.5267 401.405 77.248V74.952C401.405 73.6733 401.76 72.698 402.469 72.026C403.178 71.3447 404.135 71.004 405.339 71.004C406.543 71.004 407.5 71.3447 408.209 72.026C408.928 72.698 409.287 73.6733 409.287 74.952V77.248C409.287 78.5267 408.928 79.5067 408.209 80.188C407.5 80.86 406.543 81.196 405.339 81.196ZM405.339 79.838C406.114 79.838 406.711 79.614 407.131 79.166C407.551 78.7087 407.761 78.088 407.761 77.304V74.896C407.761 74.112 407.551 73.496 407.131 73.048C406.711 72.5907 406.114 72.362 405.339 72.362C404.583 72.362 403.99 72.5907 403.561 73.048C403.132 73.496 402.917 74.112 402.917 74.896V77.304C402.917 78.088 403.132 78.7087 403.561 79.166C403.99 79.614 404.583 79.838 405.339 79.838ZM412.477 81V71.2H416.593C417.2 71.2 417.732 71.3073 418.189 71.522C418.656 71.7273 419.015 72.026 419.267 72.418C419.528 72.81 419.659 73.2767 419.659 73.818V73.972C419.659 74.588 419.51 75.0827 419.211 75.456C418.922 75.82 418.567 76.0767 418.147 76.226V76.45C418.502 76.4687 418.786 76.59 419.001 76.814C419.216 77.0287 419.323 77.3413 419.323 77.752V81H417.797V77.962C417.797 77.71 417.732 77.5093 417.601 77.36C417.47 77.2107 417.26 77.136 416.971 77.136H413.989V81H412.477ZM413.989 75.764H416.425C416.966 75.764 417.386 75.6287 417.685 75.358C417.984 75.078 418.133 74.7 418.133 74.224V74.112C418.133 73.636 417.984 73.2627 417.685 72.992C417.396 72.712 416.976 72.572 416.425 72.572H413.989V75.764ZM421.995 81L424.795 71.2H427.455L430.241 81H428.687L428.043 78.69H424.207L423.563 81H421.995ZM424.585 77.29H427.665L426.237 72.138H426.013L424.585 77.29ZM436.499 81.196C435.304 81.196 434.357 80.86 433.657 80.188C432.957 79.5067 432.607 78.5267 432.607 77.248V74.952C432.607 73.6733 432.957 72.698 433.657 72.026C434.357 71.3447 435.304 71.004 436.499 71.004C437.675 71.004 438.58 71.3307 439.215 71.984C439.859 72.6373 440.181 73.5287 440.181 74.658V74.742H438.683V74.616C438.683 73.9533 438.501 73.412 438.137 72.992C437.782 72.572 437.236 72.362 436.499 72.362C435.752 72.362 435.169 72.5907 434.749 73.048C434.329 73.496 434.119 74.1213 434.119 74.924V77.276C434.119 78.0693 434.329 78.6947 434.749 79.152C435.169 79.6093 435.752 79.838 436.499 79.838C437.236 79.838 437.782 79.628 438.137 79.208C438.501 78.7787 438.683 78.2373 438.683 77.584V77.346H440.181V77.542C440.181 78.6713 439.859 79.5627 439.215 80.216C438.58 80.8693 437.675 81.196 436.499 81.196ZM443.255 81V71.2H444.767V79.628H449.485V81H443.255ZM452.27 81V71.2H458.444V72.572H453.782V75.386H458.052V76.758H453.782V79.628H458.514V81H452.27ZM464.823 81.196C464.085 81.196 463.432 81.0653 462.863 80.804C462.293 80.5427 461.845 80.16 461.519 79.656C461.201 79.1427 461.043 78.522 461.043 77.794V77.444H462.541V77.794C462.541 78.4847 462.746 79.0027 463.157 79.348C463.577 79.6933 464.132 79.866 464.823 79.866C465.523 79.866 466.05 79.7213 466.405 79.432C466.759 79.1333 466.937 78.7507 466.937 78.284C466.937 77.976 466.853 77.724 466.685 77.528C466.517 77.332 466.279 77.178 465.971 77.066C465.663 76.9447 465.294 76.8327 464.865 76.73L464.347 76.604C463.721 76.4547 463.175 76.2727 462.709 76.058C462.251 75.834 461.897 75.54 461.645 75.176C461.393 74.812 461.267 74.3453 461.267 73.776C461.267 73.1973 461.407 72.7027 461.687 72.292C461.976 71.8813 462.373 71.564 462.877 71.34C463.381 71.116 463.973 71.004 464.655 71.004C465.336 71.004 465.943 71.1207 466.475 71.354C467.016 71.5873 467.441 71.9327 467.749 72.39C468.057 72.8473 468.211 73.4213 468.211 74.112V74.616H466.713V74.112C466.713 73.692 466.624 73.3513 466.447 73.09C466.279 72.8287 466.041 72.6373 465.733 72.516C465.425 72.3947 465.065 72.334 464.655 72.334C464.057 72.334 463.591 72.46 463.255 72.712C462.928 72.9547 462.765 73.2953 462.765 73.734C462.765 74.0327 462.835 74.28 462.975 74.476C463.124 74.6627 463.339 74.8167 463.619 74.938C463.899 75.0593 464.249 75.1667 464.669 75.26L465.187 75.386C465.821 75.526 466.381 75.708 466.867 75.932C467.352 76.1467 467.735 76.4407 468.015 76.814C468.295 77.1873 468.435 77.668 468.435 78.256C468.435 78.844 468.285 79.3573 467.987 79.796C467.697 80.2347 467.282 80.58 466.741 80.832C466.199 81.0747 465.56 81.196 464.823 81.196Z" fill="#454654"/>
<rect x="116.938" y="103" width="352.125" height="4" rx="2" fill="#2E2F38"/>
<rect x="117" y="103" width="70" height="4" rx="2" fill="#9669ED"/>
<rect x="449" y="97" width="16" height="4" transform="rotate(90 449 97)" fill="#2E2F38"/>
<rect x="93.5" y="44.5" width="399" height="92" rx="7.5" stroke="url(#paint0_linear_317_6497)"/>
<g filter="url(#filter0_d_317_6497)">
<rect x="476" y="98.5" width="60" height="60" rx="30" fill="#9669ED" shape-rendering="geometricPrecision"/>
<path d="M506.35 115.894L506 115.692L505.65 115.894L495.258 121.894L494.908 122.096V122.5V134.5V134.904L495.258 135.106L505.65 141.106L506 141.308L506.35 141.106L516.742 135.106L517.092 134.904V134.5V122.5V122.096L516.742 121.894L506.35 115.894Z" fill="#9669ED" stroke="white" strokeWidth="1.4"/>
<rect x="476.5" y="99" width="59" height="59" rx="29.5" stroke="#AB87F1" shape-rendering="geometricPrecision"/>
</g>
<g filter="url(#filter1_d_317_6497)">
<rect x="45" y="45.7402" width="60" height="60" rx="30" fill="#23232A" shape-rendering="geometricPrecision"/>
<path d="M64.7296 77.1291C63.7489 75.4768 63.4052 73.5233 63.7629 71.6356C64.1207 69.7478 65.1554 68.0556 66.6726 66.8767C68.1899 65.6979 70.0853 65.1135 72.003 65.2334C73.9206 65.3533 75.7285 66.1691 77.0872 67.5278C78.4458 68.8864 79.2617 70.6943 79.3815 72.6119C79.5014 74.5296 78.9171 76.425 77.7382 77.9423C76.5594 79.4595 74.8671 80.4942 72.9794 80.852C71.0916 81.2098 69.1381 80.866 67.4859 79.8853L64.7624 80.6619C64.6502 80.6934 64.5316 80.6945 64.4188 80.665C64.3061 80.6356 64.2032 80.5766 64.1208 80.4942C64.0383 80.4117 63.9794 80.3088 63.9499 80.1961C63.9204 80.0833 63.9215 79.9647 63.953 79.8525L64.7296 77.1291Z" stroke="#ABACBA" strokeWidth="1.4" stroke-linecap="round" stroke-linejoin="round"/>
<path d="M71.0734 80.979C71.4589 82.0781 72.0836 83.0778 72.9026 83.9059C73.7216 84.7341 74.7143 85.37 75.809 85.7677C76.9037 86.1653 78.0731 86.3149 79.2326 86.2056C80.3922 86.0962 81.5129 85.7306 82.514 85.1353V85.1353L85.2374 85.9119C85.3496 85.9434 85.4682 85.9445 85.581 85.915C85.6938 85.8855 85.7967 85.8266 85.8791 85.7441C85.9615 85.6617 86.0205 85.5588 86.05 85.4461C86.0794 85.3333 86.0783 85.2147 86.0468 85.1025L85.2702 82.379C85.9635 81.2153 86.3445 79.8922 86.3761 78.538C86.4078 77.1838 86.0891 75.8443 85.451 74.6495C84.8128 73.4546 83.8769 72.4448 82.7338 71.718C81.5907 70.9912 80.2792 70.5719 78.9265 70.5009" stroke="#ABACBA" strokeWidth="1.4" stroke-linecap="round" stroke-linejoin="round"/>
<rect x="45.5" y="46.2402" width="59" height="59" rx="29.5" stroke="#2E2F38" shape-rendering="geometricPrecision"/>
</g>
<defs>
<filter id="filter0_d_317_6497" x="431" y="53.5" width="150" height="150" filterUnits="userSpaceOnUse" color-interpolation-filters="sRGB">
<feFlood flood-opacity="0" result="BackgroundImageFix"/>
<feColorMatrix in="SourceAlpha" type="matrix" values="0 0 0 0 0 0 0 0 0 0 0 0 0 0 0 0 0 0 127 0" result="hardAlpha"/>
<feOffset/>
<feGaussianBlur stdDeviation="22.5"/>
<feComposite in2="hardAlpha" operator="out"/>
<feColorMatrix type="matrix" values="0 0 0 0 0.0470588 0 0 0 0 0.0470588 0 0 0 0 0.054902 0 0 0 1 0"/>
<feBlend mode="normal" in2="BackgroundImageFix" result="effect1_dropShadow_317_6497"/>
<feBlend mode="normal" in="SourceGraphic" in2="effect1_dropShadow_317_6497" result="shape"/>
</filter>
<filter id="filter1_d_317_6497" x="0" y="0.740234" width="150" height="150" filterUnits="userSpaceOnUse" color-interpolation-filters="sRGB">
<feFlood flood-opacity="0" result="BackgroundImageFix"/>
<feColorMatrix in="SourceAlpha" type="matrix" values="0 0 0 0 0 0 0 0 0 0 0 0 0 0 0 0 0 0 127 0" result="hardAlpha"/>
<feOffset/>
<feGaussianBlur stdDeviation="22.5"/>
<feComposite in2="hardAlpha" operator="out"/>
<feColorMatrix type="matrix" values="0 0 0 0 0.0470588 0 0 0 0 0.0470588 0 0 0 0 0.054902 0 0 0 1 0"/>
<feBlend mode="normal" in2="BackgroundImageFix" result="effect1_dropShadow_317_6497"/>
<feBlend mode="normal" in="SourceGraphic" in2="effect1_dropShadow_317_6497" result="shape"/>
</filter>
<linearGradient id="paint0_linear_317_6497" x1="305.184" y1="44" x2="305.184" y2="137" gradientUnits="userSpaceOnUse">
<stop stop-color="#454654"/>
<stop offset="1" stop-color="#22232A"/>
</linearGradient>
</defs>
</svg>
