<svg width="500" height="190" viewBox="0 0 500 190" fill="none" xmlns="http://www.w3.org/2000/svg">
<rect x="0.5" y="1" width="243" height="55" rx="7.5" fill="#17171C"/>
<path d="M25 36.7499H20.5C20.3011 36.7499 20.1103 36.6709 19.9697 36.5302C19.829 36.3896 19.75 36.1988 19.75 35.9999V31.8093C19.7497 31.7119 19.7685 31.6154 19.8055 31.5253C19.8425 31.4352 19.8969 31.3533 19.9656 31.2843L31.2156 20.0343C31.2854 19.9634 31.3686 19.9072 31.4603 19.8687C31.5521 19.8303 31.6505 19.8105 31.75 19.8105C31.8495 19.8105 31.9479 19.8303 32.0397 19.8687C32.1314 19.9072 32.2146 19.9634 32.2844 20.0343L36.4656 24.2155C36.5365 24.2853 36.5928 24.3685 36.6312 24.4603C36.6696 24.552 36.6894 24.6505 36.6894 24.7499C36.6894 24.8494 36.6696 24.9478 36.6312 25.0396C36.5928 25.1313 36.5365 25.2145 36.4656 25.2843L25 36.7499Z" stroke="#454654" strokeWidth="1.5" stroke-linecap="round" stroke-linejoin="round"/>
<path d="M36.25 36.75H25" stroke="#454654" strokeWidth="1.5" stroke-linecap="round" stroke-linejoin="round"/>
<path d="M28.75 22.5L34 27.75" stroke="#454654" strokeWidth="1.5" stroke-linecap="round" stroke-linejoin="round"/>
<path d="M49.022 33V23.2H53.25C53.838 23.2 54.3513 23.3027 54.79 23.508C55.238 23.704 55.5833 23.9887 55.826 24.362C56.078 24.726 56.204 25.16 56.204 25.664V25.804C56.204 26.252 56.1153 26.6207 55.938 26.91C55.77 27.1993 55.5647 27.4233 55.322 27.582C55.0887 27.7407 54.8647 27.8527 54.65 27.918V28.142C54.8647 28.198 55.0933 28.31 55.336 28.478C55.588 28.6367 55.798 28.8607 55.966 29.15C56.1433 29.4393 56.232 29.8173 56.232 30.284V30.424C56.232 30.9653 56.106 31.4273 55.854 31.81C55.602 32.1927 55.252 32.4867 54.804 32.692C54.3653 32.8973 53.8567 33 53.278 33H49.022ZM50.534 31.628H53.11C53.614 31.628 54.006 31.5067 54.286 31.264C54.5753 31.0213 54.72 30.6853 54.72 30.256V30.13C54.72 29.7007 54.5753 29.3647 54.286 29.122C54.006 28.8793 53.614 28.758 53.11 28.758H50.534V31.628ZM50.534 27.372H53.11C53.5767 27.372 53.9547 27.2553 54.244 27.022C54.5333 26.7793 54.678 26.4527 54.678 26.042V25.902C54.678 25.4913 54.5333 25.1693 54.244 24.936C53.964 24.6933 53.586 24.572 53.11 24.572H50.534V27.372ZM63.0044 33.196C61.8004 33.196 60.8437 32.86 60.1344 32.188C59.4251 31.5067 59.0704 30.5267 59.0704 29.248V26.952C59.0704 25.6733 59.4251 24.698 60.1344 24.026C60.8437 23.3447 61.8004 23.004 63.0044 23.004C64.2084 23.004 65.1651 23.3447 65.8744 24.026C66.5931 24.698 66.9524 25.6733 66.9524 26.952V29.248C66.9524 30.5267 66.5931 31.5067 65.8744 32.188C65.1651 32.86 64.2084 33.196 63.0044 33.196ZM63.0044 31.838C63.7791 31.838 64.3764 31.614 64.7964 31.166C65.2164 30.7087 65.4264 30.088 65.4264 29.304V26.896C65.4264 26.112 65.2164 25.496 64.7964 25.048C64.3764 24.5907 63.7791 24.362 63.0044 24.362C62.2484 24.362 61.6557 24.5907 61.2264 25.048C60.7971 25.496 60.5824 26.112 60.5824 26.896V29.304C60.5824 30.088 60.7971 30.7087 61.2264 31.166C61.6557 31.614 62.2484 31.838 63.0044 31.838ZM73.8103 33.196C73.0356 33.196 72.3683 33.056 71.8083 32.776C71.2576 32.496 70.8283 32.0947 70.5203 31.572C70.2216 31.04 70.0723 30.396 70.0723 29.64V23.2H71.5983V29.682C71.5983 30.3727 71.7896 30.9047 72.1723 31.278C72.555 31.6513 73.101 31.838 73.8103 31.838C74.5196 31.838 75.0656 31.6513 75.4483 31.278C75.831 30.9047 76.0223 30.3727 76.0223 29.682V23.2H77.5343V29.64C77.5343 30.396 77.385 31.04 77.0863 31.572C76.7876 32.0947 76.3583 32.496 75.7983 32.776C75.2383 33.056 74.5756 33.196 73.8103 33.196ZM80.9075 33V23.2H83.8195L86.4795 31.992H86.7035V23.2H88.2015V33H85.2895L82.6295 24.194H82.4055V33H80.9075ZM93.9834 33V24.572H90.9734V23.2H98.5054V24.572H95.4954V33H93.9834ZM103.81 33V29.444L100.408 23.2H102.116L104.468 27.638H104.678L107.03 23.2H108.738L105.336 29.444V33H103.81ZM118.076 33V24.572H115.066V23.2H122.598V24.572H119.588V33H118.076ZM125.368 33V23.2H126.88V33H125.368ZM132.661 33V24.572H129.651V23.2H137.183V24.572H134.173V33H132.661ZM139.954 33V23.2H141.466V31.628H146.184V33H139.954ZM148.969 33V23.2H155.143V24.572H150.481V27.386H154.751V28.758H150.481V31.628H155.213V33H148.969Z" fill="#454654"/>
<rect x="0.5" y="1" width="243" height="55" rx="7.5" stroke="url(#paint0_linear_317_2329)"/>
<rect x="256.5" y="1" width="243" height="55" rx="7.5" fill="#17171C"/>
<path d="M287.75 32.25H292.25V20.25H280.25V24.75" stroke="#454654" strokeWidth="1.5" stroke-linecap="round" stroke-linejoin="round"/>
<path d="M287.75 24.75H275.75V36.75H287.75V24.75Z" stroke="#454654" strokeWidth="1.5" stroke-linecap="round" stroke-linejoin="round"/>
<path d="M305.022 33V23.2H308.228C309.525 23.2 310.524 23.5313 311.224 24.194C311.924 24.8567 312.274 25.8553 312.274 27.19V29.024C312.274 30.3587 311.924 31.3573 311.224 32.02C310.524 32.6733 309.525 33 308.228 33H305.022ZM306.534 31.628H308.242C309.091 31.628 309.721 31.4133 310.132 30.984C310.543 30.5547 310.748 29.9153 310.748 29.066V27.134C310.748 26.2753 310.543 25.636 310.132 25.216C309.721 24.796 309.091 24.586 308.242 24.586H306.534V31.628ZM315.445 33V23.2H316.957V33H315.445ZM323.732 33.196C322.995 33.196 322.341 33.0653 321.772 32.804C321.203 32.5427 320.755 32.16 320.428 31.656C320.111 31.1427 319.952 30.522 319.952 29.794V29.444H321.45V29.794C321.45 30.4847 321.655 31.0027 322.066 31.348C322.486 31.6933 323.041 31.866 323.732 31.866C324.432 31.866 324.959 31.7213 325.314 31.432C325.669 31.1333 325.846 30.7507 325.846 30.284C325.846 29.976 325.762 29.724 325.594 29.528C325.426 29.332 325.188 29.178 324.88 29.066C324.572 28.9447 324.203 28.8327 323.774 28.73L323.256 28.604C322.631 28.4547 322.085 28.2727 321.618 28.058C321.161 27.834 320.806 27.54 320.554 27.176C320.302 26.812 320.176 26.3453 320.176 25.776C320.176 25.1973 320.316 24.7027 320.596 24.292C320.885 23.8813 321.282 23.564 321.786 23.34C322.29 23.116 322.883 23.004 323.564 23.004C324.245 23.004 324.852 23.1207 325.384 23.354C325.925 23.5873 326.35 23.9327 326.658 24.39C326.966 24.8473 327.12 25.4213 327.12 26.112V26.616H325.622V26.112C325.622 25.692 325.533 25.3513 325.356 25.09C325.188 24.8287 324.95 24.6373 324.642 24.516C324.334 24.3947 323.975 24.334 323.564 24.334C322.967 24.334 322.5 24.46 322.164 24.712C321.837 24.9547 321.674 25.2953 321.674 25.734C321.674 26.0327 321.744 26.28 321.884 26.476C322.033 26.6627 322.248 26.8167 322.528 26.938C322.808 27.0593 323.158 27.1667 323.578 27.26L324.096 27.386C324.731 27.526 325.291 27.708 325.776 27.932C326.261 28.1467 326.644 28.4407 326.924 28.814C327.204 29.1873 327.344 29.668 327.344 30.256C327.344 30.844 327.195 31.3573 326.896 31.796C326.607 32.2347 326.191 32.58 325.65 32.832C325.109 33.0747 324.469 33.196 323.732 33.196ZM333.971 33.196C332.777 33.196 331.829 32.86 331.129 32.188C330.429 31.5067 330.079 30.5267 330.079 29.248V26.952C330.079 25.6733 330.429 24.698 331.129 24.026C331.829 23.3447 332.777 23.004 333.971 23.004C335.147 23.004 336.053 23.3307 336.687 23.984C337.331 24.6373 337.653 25.5287 337.653 26.658V26.742H336.155V26.616C336.155 25.9533 335.973 25.412 335.609 24.992C335.255 24.572 334.709 24.362 333.971 24.362C333.225 24.362 332.641 24.5907 332.221 25.048C331.801 25.496 331.591 26.1213 331.591 26.924V29.276C331.591 30.0693 331.801 30.6947 332.221 31.152C332.641 31.6093 333.225 31.838 333.971 31.838C334.709 31.838 335.255 31.628 335.609 31.208C335.973 30.7787 336.155 30.2373 336.155 29.584V29.346H337.653V29.542C337.653 30.6713 337.331 31.5627 336.687 32.216C336.053 32.8693 335.147 33.196 333.971 33.196ZM340.727 33V23.2H344.843C345.45 23.2 345.982 23.3073 346.439 23.522C346.906 23.7273 347.265 24.026 347.517 24.418C347.779 24.81 347.909 25.2767 347.909 25.818V25.972C347.909 26.588 347.76 27.0827 347.461 27.456C347.172 27.82 346.817 28.0767 346.397 28.226V28.45C346.752 28.4687 347.037 28.59 347.251 28.814C347.466 29.0287 347.573 29.3413 347.573 29.752V33H346.047V29.962C346.047 29.71 345.982 29.5093 345.851 29.36C345.721 29.2107 345.511 29.136 345.221 29.136H342.239V33H340.727ZM342.239 27.764H344.675C345.217 27.764 345.637 27.6287 345.935 27.358C346.234 27.078 346.383 26.7 346.383 26.224V26.112C346.383 25.636 346.234 25.2627 345.935 24.992C345.646 24.712 345.226 24.572 344.675 24.572H342.239V27.764ZM350.973 33V23.2H352.485V33H350.973ZM355.928 33V23.2H359.82C360.417 23.2 360.949 23.3213 361.416 23.564C361.892 23.7973 362.261 24.1333 362.522 24.572C362.793 25.0013 362.928 25.5193 362.928 26.126V26.308C362.928 26.9147 362.788 27.4373 362.508 27.876C362.237 28.3147 361.869 28.6507 361.402 28.884C360.935 29.1173 360.408 29.234 359.82 29.234H357.44V33H355.928ZM357.44 27.862H359.666C360.198 27.862 360.623 27.722 360.94 27.442C361.257 27.162 361.416 26.7793 361.416 26.294V26.154C361.416 25.6593 361.257 25.272 360.94 24.992C360.623 24.712 360.198 24.572 359.666 24.572H357.44V27.862ZM368.074 33V24.572H365.064V23.2H372.596V24.572H369.586V33H368.074ZM375.367 33V23.2H376.879V33H375.367ZM384.003 33.196C382.799 33.196 381.843 32.86 381.133 32.188C380.424 31.5067 380.069 30.5267 380.069 29.248V26.952C380.069 25.6733 380.424 24.698 381.133 24.026C381.843 23.3447 382.799 23.004 384.003 23.004C385.207 23.004 386.164 23.3447 386.873 24.026C387.592 24.698 387.951 25.6733 387.951 26.952V29.248C387.951 30.5267 387.592 31.5067 386.873 32.188C386.164 32.86 385.207 33.196 384.003 33.196ZM384.003 31.838C384.778 31.838 385.375 31.614 385.795 31.166C386.215 30.7087 386.425 30.088 386.425 29.304V26.896C386.425 26.112 386.215 25.496 385.795 25.048C385.375 24.5907 384.778 24.362 384.003 24.362C383.247 24.362 382.655 24.5907 382.225 25.048C381.796 25.496 381.581 26.112 381.581 26.896V29.304C381.581 30.088 381.796 30.7087 382.225 31.166C382.655 31.614 383.247 31.838 384.003 31.838ZM391.141 33V23.2H394.053L396.713 31.992H396.937V23.2H398.435V33H395.523L392.863 24.194H392.639V33H391.141Z" fill="#454654"/>
<rect x="256.5" y="1" width="243" height="55" rx="7.5" stroke="url(#paint1_linear_317_2329)"/>
<rect x="0.5" y="71" width="243" height="55" rx="7.5" fill="#17171C"/>
<path d="M28 100.75C33.3848 100.75 37.75 98.7353 37.75 96.25C37.75 93.7647 33.3848 91.75 28 91.75C22.6152 91.75 18.25 93.7647 18.25 96.25C18.25 98.7353 22.6152 100.75 28 100.75Z" stroke="#454654" strokeWidth="1.5" stroke-linecap="round" stroke-linejoin="round"/>
<path d="M28 100.75V105.25" stroke="#454654" strokeWidth="1.5" stroke-linecap="round" stroke-linejoin="round"/>
<path d="M18.25 96.25V100.75C18.25 103 22 105.25 28 105.25C34 105.25 37.75 103 37.75 100.75V96.25" stroke="#454654" strokeWidth="1.5" stroke-linecap="round" stroke-linejoin="round"/>
<path d="M34 99.8221V104.322" stroke="#454654" strokeWidth="1.5" stroke-linecap="round" stroke-linejoin="round"/>
<path d="M22 99.8221V104.322" stroke="#454654" strokeWidth="1.5" stroke-linecap="round" stroke-linejoin="round"/>
<path d="M51.36 103V94.572H48.35V93.2H55.882V94.572H52.872V103H51.36ZM61.9243 103.196C60.7203 103.196 59.7636 102.86 59.0543 102.188C58.345 101.507 57.9903 100.527 57.9903 99.248V96.952C57.9903 95.6733 58.345 94.698 59.0543 94.026C59.7636 93.3447 60.7203 93.004 61.9243 93.004C63.1283 93.004 64.085 93.3447 64.7943 94.026C65.513 94.698 65.8723 95.6733 65.8723 96.952V99.248C65.8723 100.527 65.513 101.507 64.7943 102.188C64.085 102.86 63.1283 103.196 61.9243 103.196ZM61.9243 101.838C62.699 101.838 63.2963 101.614 63.7163 101.166C64.1363 100.709 64.3463 100.088 64.3463 99.304V96.896C64.3463 96.112 64.1363 95.496 63.7163 95.048C63.2963 94.5907 62.699 94.362 61.9243 94.362C61.1683 94.362 60.5756 94.5907 60.1463 95.048C59.717 95.496 59.5023 96.112 59.5023 96.896V99.304C59.5023 100.088 59.717 100.709 60.1463 101.166C60.5756 101.614 61.1683 101.838 61.9243 101.838ZM69.0622 103V93.2H70.5742V97.274H70.7982L74.4522 93.2H76.4262L72.0022 98.03L76.5802 103H74.5502L70.7982 98.842H70.5742V103H69.0622ZM79.1165 103V93.2H85.2905V94.572H80.6285V97.386H84.8985V98.758H80.6285V101.628H85.3605V103H79.1165ZM88.3368 103V93.2H91.2488L93.9088 101.992H94.1328V93.2H95.6308V103H92.7188L90.0588 94.194H89.8348V103H88.3368Z" fill="#454654"/>
<rect x="0.5" y="71" width="243" height="55" rx="7.5" stroke="url(#paint2_linear_317_2329)"/>
<rect x="256.5" y="71" width="243" height="55" rx="7.5" fill="#17171C"/>
<path d="M284 93.25V94.75" stroke="#454654" strokeWidth="1.5" stroke-linecap="round" stroke-linejoin="round"/>
<path d="M284 102.25V103.75" stroke="#454654" strokeWidth="1.5" stroke-linecap="round" stroke-linejoin="round"/>
<path d="M284 107.5C288.971 107.5 293 103.471 293 98.5C293 93.5294 288.971 89.5 284 89.5C279.029 89.5 275 93.5294 275 98.5C275 103.471 279.029 107.5 284 107.5Z" stroke="#454654" strokeWidth="1.5" stroke-linecap="round" stroke-linejoin="round"/>
<path d="M281.75 102.25H285.125C285.622 102.25 286.099 102.052 286.451 101.701C286.802 101.349 287 100.872 287 100.375C287 99.8777 286.802 99.4008 286.451 99.0492C286.099 98.6975 285.622 98.5 285.125 98.5H282.875C282.378 98.5 281.901 98.3025 281.549 97.9508C281.198 97.5992 281 97.1223 281 96.625C281 96.1277 281.198 95.6508 281.549 95.2992C281.901 94.9475 282.378 94.75 282.875 94.75H286.25" stroke="#454654" strokeWidth="1.5" stroke-linecap="round" stroke-linejoin="round"/>
<path d="M305.022 103V93.2H308.914C309.511 93.2 310.043 93.3213 310.51 93.564C310.986 93.7973 311.355 94.1333 311.616 94.572C311.887 95.0013 312.022 95.5193 312.022 96.126V96.308C312.022 96.9147 311.882 97.4373 311.602 97.876C311.331 98.3147 310.963 98.6507 310.496 98.884C310.029 99.1173 309.502 99.234 308.914 99.234H306.534V103H305.022ZM306.534 97.862H308.76C309.292 97.862 309.717 97.722 310.034 97.442C310.351 97.162 310.51 96.7793 310.51 96.294V96.154C310.51 95.6593 310.351 95.272 310.034 94.992C309.717 94.712 309.292 94.572 308.76 94.572H306.534V97.862ZM313.364 103L316.164 93.2H318.824L321.61 103H320.056L319.412 100.69H315.576L314.932 103H313.364ZM315.954 99.29H319.034L317.606 94.138H317.382L315.954 99.29ZM325.833 103V99.444L322.431 93.2H324.139L326.491 97.638H326.701L329.053 93.2H330.761L327.359 99.444V103H325.833ZM336.625 103.196C335.421 103.196 334.464 102.86 333.755 102.188C333.045 101.507 332.691 100.527 332.691 99.248V96.952C332.691 95.6733 333.045 94.698 333.755 94.026C334.464 93.3447 335.421 93.004 336.625 93.004C337.829 93.004 338.785 93.3447 339.495 94.026C340.213 94.698 340.573 95.6733 340.573 96.952V99.248C340.573 100.527 340.213 101.507 339.495 102.188C338.785 102.86 337.829 103.196 336.625 103.196ZM336.625 101.838C337.399 101.838 337.997 101.614 338.417 101.166C338.837 100.709 339.047 100.088 339.047 99.304V96.896C339.047 96.112 338.837 95.496 338.417 95.048C337.997 94.5907 337.399 94.362 336.625 94.362C335.869 94.362 335.276 94.5907 334.847 95.048C334.417 95.496 334.203 96.112 334.203 96.896V99.304C334.203 100.088 334.417 100.709 334.847 101.166C335.276 101.614 335.869 101.838 336.625 101.838ZM347.431 103.196C346.656 103.196 345.989 103.056 345.429 102.776C344.878 102.496 344.449 102.095 344.141 101.572C343.842 101.04 343.693 100.396 343.693 99.64V93.2H345.219V99.682C345.219 100.373 345.41 100.905 345.793 101.278C346.175 101.651 346.721 101.838 347.431 101.838C348.14 101.838 348.686 101.651 349.069 101.278C349.451 100.905 349.643 100.373 349.643 99.682V93.2H351.155V99.64C351.155 100.396 351.005 101.04 350.707 101.572C350.408 102.095 349.979 102.496 349.419 102.776C348.859 103.056 348.196 103.196 347.431 103.196ZM356.866 103V94.572H353.856V93.2H361.388V94.572H358.378V103H356.866Z" fill="#454654"/>
<rect x="256.5" y="71" width="243" height="55" rx="7.5" stroke="url(#paint3_linear_317_2329)"/>
<rect x="0.5" y="141" width="499" height="48" rx="7.5" fill="#0D102E"/>
<path d="M192.662 169.696C191.467 169.696 190.52 169.36 189.82 168.688C189.12 168.007 188.77 167.027 188.77 165.748V163.452C188.77 162.173 189.12 161.198 189.82 160.526C190.52 159.845 191.467 159.504 192.662 159.504C193.838 159.504 194.743 159.831 195.378 160.484C196.022 161.137 196.344 162.029 196.344 163.158V163.242H194.846V163.116C194.846 162.453 194.664 161.912 194.3 161.492C193.945 161.072 193.399 160.862 192.662 160.862C191.915 160.862 191.332 161.091 190.912 161.548C190.492 161.996 190.282 162.621 190.282 163.424V165.776C190.282 166.569 190.492 167.195 190.912 167.652C191.332 168.109 191.915 168.338 192.662 168.338C193.399 168.338 193.945 168.128 194.3 167.708C194.664 167.279 194.846 166.737 194.846 166.084V165.846H196.344V166.042C196.344 167.171 196.022 168.063 195.378 168.716C194.743 169.369 193.838 169.696 192.662 169.696ZM199.418 169.5V159.7H203.534C204.141 159.7 204.673 159.807 205.13 160.022C205.597 160.227 205.956 160.526 206.208 160.918C206.469 161.31 206.6 161.777 206.6 162.318V162.472C206.6 163.088 206.451 163.583 206.152 163.956C205.863 164.32 205.508 164.577 205.088 164.726V164.95C205.443 164.969 205.727 165.09 205.942 165.314C206.157 165.529 206.264 165.841 206.264 166.252V169.5H204.738V166.462C204.738 166.21 204.673 166.009 204.542 165.86C204.411 165.711 204.201 165.636 203.912 165.636H200.93V169.5H199.418ZM200.93 164.264H203.366C203.907 164.264 204.327 164.129 204.626 163.858C204.925 163.578 205.074 163.2 205.074 162.724V162.612C205.074 162.136 204.925 161.763 204.626 161.492C204.337 161.212 203.917 161.072 203.366 161.072H200.93V164.264ZM209.664 169.5V159.7H215.838V161.072H211.176V163.886H215.446V165.258H211.176V168.128H215.908V169.5H209.664ZM218.156 169.5L220.956 159.7H223.616L226.402 169.5H224.848L224.204 167.19H220.368L219.724 169.5H218.156ZM220.746 165.79H223.826L222.398 160.638H222.174L220.746 165.79ZM230.483 169.5V161.072H227.473V159.7H235.005V161.072H231.995V169.5H230.483ZM237.776 169.5V159.7H243.95V161.072H239.288V163.886H243.558V165.258H239.288V168.128H244.02V169.5H237.776ZM251.965 169.5V159.7H256.193C256.781 159.7 257.294 159.803 257.733 160.008C258.181 160.204 258.526 160.489 258.769 160.862C259.021 161.226 259.147 161.66 259.147 162.164V162.304C259.147 162.752 259.058 163.121 258.881 163.41C258.713 163.699 258.507 163.923 258.265 164.082C258.031 164.241 257.807 164.353 257.593 164.418V164.642C257.807 164.698 258.036 164.81 258.279 164.978C258.531 165.137 258.741 165.361 258.909 165.65C259.086 165.939 259.175 166.317 259.175 166.784V166.924C259.175 167.465 259.049 167.927 258.797 168.31C258.545 168.693 258.195 168.987 257.747 169.192C257.308 169.397 256.799 169.5 256.221 169.5H251.965ZM253.477 168.128H256.053C256.557 168.128 256.949 168.007 257.229 167.764C257.518 167.521 257.663 167.185 257.663 166.756V166.63C257.663 166.201 257.518 165.865 257.229 165.622C256.949 165.379 256.557 165.258 256.053 165.258H253.477V168.128ZM253.477 163.872H256.053C256.519 163.872 256.897 163.755 257.187 163.522C257.476 163.279 257.621 162.953 257.621 162.542V162.402C257.621 161.991 257.476 161.669 257.187 161.436C256.907 161.193 256.529 161.072 256.053 161.072H253.477V163.872ZM265.947 169.696C264.743 169.696 263.786 169.36 263.077 168.688C262.368 168.007 262.013 167.027 262.013 165.748V163.452C262.013 162.173 262.368 161.198 263.077 160.526C263.786 159.845 264.743 159.504 265.947 159.504C267.151 159.504 268.108 159.845 268.817 160.526C269.536 161.198 269.895 162.173 269.895 163.452V165.748C269.895 167.027 269.536 168.007 268.817 168.688C268.108 169.36 267.151 169.696 265.947 169.696ZM265.947 168.338C266.722 168.338 267.319 168.114 267.739 167.666C268.159 167.209 268.369 166.588 268.369 165.804V163.396C268.369 162.612 268.159 161.996 267.739 161.548C267.319 161.091 266.722 160.862 265.947 160.862C265.191 160.862 264.598 161.091 264.169 161.548C263.74 161.996 263.525 162.612 263.525 163.396V165.804C263.525 166.588 263.74 167.209 264.169 167.666C264.598 168.114 265.191 168.338 265.947 168.338ZM276.753 169.696C275.978 169.696 275.311 169.556 274.751 169.276C274.2 168.996 273.771 168.595 273.463 168.072C273.164 167.54 273.015 166.896 273.015 166.14V159.7H274.541V166.182C274.541 166.873 274.732 167.405 275.115 167.778C275.498 168.151 276.044 168.338 276.753 168.338C277.462 168.338 278.008 168.151 278.391 167.778C278.774 167.405 278.965 166.873 278.965 166.182V159.7H280.477V166.14C280.477 166.896 280.328 167.54 280.029 168.072C279.73 168.595 279.301 168.996 278.741 169.276C278.181 169.556 277.518 169.696 276.753 169.696ZM283.85 169.5V159.7H286.762L289.422 168.492H289.646V159.7H291.144V169.5H288.232L285.572 160.694H285.348V169.5H283.85ZM296.926 169.5V161.072H293.916V159.7H301.448V161.072H298.438V169.5H296.926ZM306.752 169.5V165.944L303.35 159.7H305.058L307.41 164.138H307.62L309.972 159.7H311.68L308.278 165.944V169.5H306.752Z" fill="#4250E4"/>
<rect x="0.5" y="141" width="499" height="48" rx="7.5" stroke="#1A205B"/>
<defs>
<linearGradient id="paint0_linear_317_2329" x1="129.432" y1="0.5" x2="129.432" y2="56.5" gradientUnits="userSpaceOnUse">
<stop stop-color="#454654"/>
<stop offset="1" stop-color="#22232A"/>
</linearGradient>
<linearGradient id="paint1_linear_317_2329" x1="385.432" y1="0.5" x2="385.432" y2="56.5" gradientUnits="userSpaceOnUse">
<stop stop-color="#454654"/>
<stop offset="1" stop-color="#22232A"/>
</linearGradient>
<linearGradient id="paint2_linear_317_2329" x1="129.432" y1="70.5" x2="129.432" y2="126.5" gradientUnits="userSpaceOnUse">
<stop stop-color="#454654"/>
<stop offset="1" stop-color="#22232A"/>
</linearGradient>
<linearGradient id="paint3_linear_317_2329" x1="385.432" y1="70.5" x2="385.432" y2="126.5" gradientUnits="userSpaceOnUse">
<stop stop-color="#454654"/>
<stop offset="1" stop-color="#22232A"/>
</linearGradient>
</defs>
</svg>
