<svg width="645" height="214" viewBox="0 0 645 214" fill="none" xmlns="http://www.w3.org/2000/svg">
<rect x="101.5" y="8.5" width="459" height="178" rx="10.9607" fill="#17171C"/>
<rect x="125" y="32" width="115" height="23" rx="4" fill="#23232A"/>
<path d="M133.876 48V39.6H139.06V40.776H135.172V43.2H138.748V44.376H135.172V48H133.876ZM141.521 48V39.6H146.813V40.776H142.817V43.188H146.477V44.364H142.817V46.824H146.873V48H141.521ZM148.8 48L151.2 39.6H153.48L155.868 48H154.536L153.984 46.02H150.696L150.144 48H148.8ZM151.02 44.82H153.66L152.436 40.404H152.244L151.02 44.82ZM159.378 48V40.776H156.798V39.6H163.254V40.776H160.674V48H159.378ZM168.773 48.168C168.109 48.168 167.537 48.048 167.057 47.808C166.585 47.568 166.217 47.224 165.953 46.776C165.697 46.32 165.569 45.768 165.569 45.12V39.6H166.877V45.156C166.877 45.748 167.041 46.204 167.369 46.524C167.697 46.844 168.165 47.004 168.773 47.004C169.381 47.004 169.849 46.844 170.177 46.524C170.505 46.204 170.669 45.748 170.669 45.156V39.6H171.965V45.12C171.965 45.768 171.837 46.32 171.581 46.776C171.325 47.224 170.957 47.568 170.477 47.808C169.997 48.048 169.429 48.168 168.773 48.168ZM174.856 48V39.6H178.384C178.904 39.6 179.36 39.692 179.752 39.876C180.152 40.052 180.46 40.308 180.676 40.644C180.9 40.98 181.012 41.38 181.012 41.844V41.976C181.012 42.504 180.884 42.928 180.628 43.248C180.38 43.56 180.076 43.78 179.716 43.908V44.1C180.02 44.116 180.264 44.22 180.448 44.412C180.632 44.596 180.724 44.864 180.724 45.216V48H179.416V45.396C179.416 45.18 179.36 45.008 179.248 44.88C179.136 44.752 178.956 44.688 178.708 44.688H176.152V48H174.856ZM176.152 43.512H178.24C178.704 43.512 179.064 43.396 179.32 43.164C179.576 42.924 179.704 42.6 179.704 42.192V42.096C179.704 41.688 179.576 41.368 179.32 41.136C179.072 40.896 178.712 40.776 178.24 40.776H176.152V43.512ZM183.639 48V39.6H188.931V40.776H184.935V43.188H188.595V44.364H184.935V46.824H188.991V48H183.639Z" fill="#454654"/>
<path d="M199.896 48V45.66H198.492V44.592H199.896V43.008H198.492V41.94H199.896V39.6H201.024V41.94H202.56V39.6H203.676V41.94H205.092V43.008H203.676V44.592H205.092V45.66H203.676V48H202.56V45.66H201.024V48H199.896ZM201.024 44.592H202.56V43.008H201.024V44.592ZM210.502 48.168C209.886 48.168 209.338 48.056 208.858 47.832C208.378 47.608 208.002 47.284 207.73 46.86C207.466 46.436 207.334 45.932 207.334 45.348V45.132H208.594V45.324C208.594 45.852 208.766 46.272 209.11 46.584C209.462 46.888 209.926 47.04 210.502 47.04C211.078 47.04 211.526 46.896 211.846 46.608C212.166 46.32 212.326 45.956 212.326 45.516V45.408C212.326 45.096 212.25 44.844 212.098 44.652C211.946 44.46 211.742 44.32 211.486 44.232C211.23 44.136 210.942 44.088 210.622 44.088H209.098V42.636L212.05 40.896V40.728H207.538V39.6H213.418V41.304L210.598 42.984V43.152H211.114C211.538 43.152 211.938 43.232 212.314 43.392C212.69 43.552 212.994 43.796 213.226 44.124C213.466 44.452 213.586 44.868 213.586 45.372V45.516C213.586 46.052 213.458 46.52 213.202 46.92C212.946 47.312 212.586 47.62 212.122 47.844C211.658 48.06 211.118 48.168 210.502 48.168ZM219.191 48.168C218.583 48.168 218.047 48.052 217.583 47.82C217.119 47.58 216.759 47.248 216.503 46.824C216.247 46.4 216.119 45.908 216.119 45.348V42.444C216.119 41.788 216.247 41.236 216.503 40.788C216.767 40.34 217.135 40.004 217.607 39.78C218.079 39.548 218.627 39.432 219.251 39.432C219.867 39.432 220.399 39.54 220.847 39.756C221.295 39.964 221.639 40.264 221.879 40.656C222.119 41.04 222.239 41.492 222.239 42.012H220.967C220.967 41.596 220.827 41.252 220.547 40.98C220.275 40.7 219.843 40.56 219.251 40.56C218.651 40.56 218.187 40.72 217.859 41.04C217.539 41.352 217.379 41.788 217.379 42.348V43.356H217.571C217.707 43.164 217.927 42.98 218.231 42.804C218.543 42.628 218.983 42.54 219.551 42.54C220.047 42.54 220.503 42.648 220.919 42.864C221.335 43.08 221.667 43.388 221.915 43.788C222.171 44.188 222.299 44.672 222.299 45.24V45.384C222.299 45.936 222.167 46.424 221.903 46.848C221.639 47.264 221.271 47.588 220.799 47.82C220.335 48.052 219.799 48.168 219.191 48.168ZM219.203 47.04C219.763 47.04 220.207 46.888 220.535 46.584C220.871 46.28 221.039 45.872 221.039 45.36V45.264C221.039 44.92 220.963 44.624 220.811 44.376C220.659 44.12 220.443 43.92 220.163 43.776C219.891 43.632 219.571 43.56 219.203 43.56C218.843 43.56 218.523 43.632 218.243 43.776C217.971 43.92 217.759 44.12 217.607 44.376C217.455 44.624 217.379 44.92 217.379 45.264V45.36C217.379 45.872 217.543 46.28 217.871 46.584C218.207 46.888 218.651 47.04 219.203 47.04ZM226.081 48V47.7C226.081 47.396 226.101 47.144 226.141 46.944C226.181 46.736 226.285 46.496 226.453 46.224L229.669 40.908V40.74H224.545V39.6H231.013V41.112L227.629 46.752C227.525 46.928 227.453 47.088 227.413 47.232C227.381 47.368 227.365 47.54 227.365 47.748V48H226.081Z" fill="#73758C"/>
<rect x="473" y="32" width="64" height="23" rx="11.5" fill="#104334"/>
<circle cx="484" cy="43.5" r="3" fill="#35E0AD"/>
<path d="M499.032 48.168C498 48.168 497.18 47.88 496.572 47.304C495.964 46.72 495.66 45.88 495.66 44.784V42.816C495.66 41.72 495.964 40.884 496.572 40.308C497.18 39.724 498 39.432 499.032 39.432C500.064 39.432 500.884 39.724 501.492 40.308C502.108 40.884 502.416 41.72 502.416 42.816V44.784C502.416 45.88 502.108 46.72 501.492 47.304C500.884 47.88 500.064 48.168 499.032 48.168ZM499.032 47.004C499.696 47.004 500.208 46.812 500.568 46.428C500.928 46.036 501.108 45.504 501.108 44.832V42.768C501.108 42.096 500.928 41.568 500.568 41.184C500.208 40.792 499.696 40.596 499.032 40.596C498.384 40.596 497.876 40.792 497.508 41.184C497.14 41.568 496.956 42.096 496.956 42.768V44.832C496.956 45.504 497.14 46.036 497.508 46.428C497.876 46.812 498.384 47.004 499.032 47.004ZM505.15 48V39.6H508.486C508.998 39.6 509.454 39.704 509.854 39.912C510.262 40.112 510.578 40.4 510.802 40.776C511.034 41.144 511.15 41.588 511.15 42.108V42.264C511.15 42.784 511.03 43.232 510.79 43.608C510.558 43.984 510.242 44.272 509.842 44.472C509.442 44.672 508.99 44.772 508.486 44.772H506.446V48H505.15ZM506.446 43.596H508.354C508.81 43.596 509.174 43.476 509.446 43.236C509.718 42.996 509.854 42.668 509.854 42.252V42.132C509.854 41.708 509.718 41.376 509.446 41.136C509.174 40.896 508.81 40.776 508.354 40.776H506.446V43.596ZM513.581 48V39.6H518.873V40.776H514.877V43.188H518.537V44.364H514.877V46.824H518.933V48H513.581ZM521.484 48V39.6H523.98L526.26 47.136H526.452V39.6H527.736V48H525.24L522.96 40.452H522.768V48H521.484Z" fill="#35E0AD"/>
<rect x="125" y="79" width="353" height="12" rx="6" fill="#23232A"/>
<rect x="125" y="115" width="266.461" height="12" rx="6" fill="#23232A"/>
<rect x="125" y="151" width="231" height="12" rx="6" fill="#23232A"/>
<rect x="101.5" y="8.5" width="459" height="178" rx="10.9607" stroke="url(#paint0_linear_237_5351)"/>
<g filter="url(#filter0_d_237_5351)">
<rect x="46" y="135" width="140" height="33" rx="16.5" fill="#23232A" shape-rendering="crispEdges"/>
<path d="M66.9637 156V147.264H66.7397L65.5497 150.54H64.0517L65.6617 146.2H68.4477V156H66.9637ZM63.6877 156V154.628H70.8277V156H63.6877ZM77.1853 156.196C76.0466 156.196 75.1366 155.874 74.4553 155.23C73.7833 154.577 73.4473 153.597 73.4473 152.29V149.91C73.4473 148.631 73.7833 147.661 74.4553 146.998C75.1366 146.335 76.0466 146.004 77.1853 146.004C78.3333 146.004 79.2433 146.335 79.9153 146.998C80.5966 147.661 80.9373 148.631 80.9373 149.91V152.29C80.9373 153.597 80.5966 154.577 79.9153 155.23C79.2433 155.874 78.3333 156.196 77.1853 156.196ZM77.1853 154.88C77.96 154.88 78.534 154.661 78.9073 154.222C79.2806 153.774 79.4673 153.149 79.4673 152.346V149.826C79.4673 149.023 79.2666 148.407 78.8653 147.978C78.464 147.539 77.904 147.32 77.1853 147.32C76.4573 147.32 75.8973 147.544 75.5053 147.992C75.1133 148.431 74.9173 149.042 74.9173 149.826V152.346C74.9173 153.167 75.104 153.797 75.4773 154.236C75.86 154.665 76.4293 154.88 77.1853 154.88ZM84.005 157.904V157.078H84.481C84.8636 157.078 85.055 156.887 85.055 156.504V156.056H84.845C84.5183 156.056 84.2476 155.958 84.033 155.762C83.8183 155.566 83.711 155.319 83.711 155.02C83.711 154.693 83.8183 154.432 84.033 154.236C84.2476 154.031 84.5183 153.928 84.845 153.928C85.1716 153.928 85.4376 154.035 85.643 154.25C85.8576 154.455 85.965 154.726 85.965 155.062V156.518C85.965 157.442 85.503 157.904 84.579 157.904H84.005ZM92.4951 156.196C91.3564 156.196 90.4464 155.874 89.7651 155.23C89.0931 154.577 88.7571 153.597 88.7571 152.29V149.91C88.7571 148.631 89.0931 147.661 89.7651 146.998C90.4464 146.335 91.3564 146.004 92.4951 146.004C93.6431 146.004 94.5531 146.335 95.2251 146.998C95.9064 147.661 96.2471 148.631 96.2471 149.91V152.29C96.2471 153.597 95.9064 154.577 95.2251 155.23C94.5531 155.874 93.6431 156.196 92.4951 156.196ZM92.4951 154.88C93.2698 154.88 93.8438 154.661 94.2171 154.222C94.5904 153.774 94.7771 153.149 94.7771 152.346V149.826C94.7771 149.023 94.5764 148.407 94.1751 147.978C93.7738 147.539 93.2138 147.32 92.4951 147.32C91.7671 147.32 91.2071 147.544 90.8151 147.992C90.4231 148.431 90.2271 149.042 90.2271 149.826V152.346C90.2271 153.167 90.4138 153.797 90.7871 154.236C91.1698 154.665 91.7391 154.88 92.4951 154.88ZM102.577 156.196C101.438 156.196 100.528 155.874 99.8467 155.23C99.1747 154.577 98.8387 153.597 98.8387 152.29V149.91C98.8387 148.631 99.1747 147.661 99.8467 146.998C100.528 146.335 101.438 146.004 102.577 146.004C103.725 146.004 104.635 146.335 105.307 146.998C105.988 147.661 106.329 148.631 106.329 149.91V152.29C106.329 153.597 105.988 154.577 105.307 155.23C104.635 155.874 103.725 156.196 102.577 156.196ZM102.577 154.88C103.351 154.88 103.925 154.661 104.299 154.222C104.672 153.774 104.859 153.149 104.859 152.346V149.826C104.859 149.023 104.658 148.407 104.257 147.978C103.855 147.539 103.295 147.32 102.577 147.32C101.849 147.32 101.289 147.544 100.897 147.992C100.505 148.431 100.309 149.042 100.309 149.826V152.346C100.309 153.167 100.495 153.797 100.869 154.236C101.251 154.665 101.821 154.88 102.577 154.88ZM112.658 156.196C111.52 156.196 110.61 155.874 109.928 155.23C109.256 154.577 108.92 153.597 108.92 152.29V149.91C108.92 148.631 109.256 147.661 109.928 146.998C110.61 146.335 111.52 146.004 112.658 146.004C113.806 146.004 114.716 146.335 115.388 146.998C116.07 147.661 116.41 148.631 116.41 149.91V152.29C116.41 153.597 116.07 154.577 115.388 155.23C114.716 155.874 113.806 156.196 112.658 156.196ZM112.658 154.88C113.433 154.88 114.007 154.661 114.38 154.222C114.754 153.774 114.94 153.149 114.94 152.346V149.826C114.94 149.023 114.74 148.407 114.338 147.978C113.937 147.539 113.377 147.32 112.658 147.32C111.93 147.32 111.37 147.544 110.978 147.992C110.586 148.431 110.39 149.042 110.39 149.826V152.346C110.39 153.167 110.577 153.797 110.95 154.236C111.333 154.665 111.902 154.88 112.658 154.88Z" fill="white"/>
<path d="M122.12 156V146.2H126.194C126.763 146.2 127.267 146.303 127.706 146.508C128.145 146.713 128.485 147.003 128.728 147.376C128.98 147.74 129.106 148.169 129.106 148.664V148.776C129.106 149.233 129.017 149.611 128.84 149.91C128.672 150.199 128.462 150.428 128.21 150.596C127.967 150.755 127.729 150.871 127.496 150.946V151.142C127.729 151.198 127.972 151.31 128.224 151.478C128.476 151.637 128.686 151.865 128.854 152.164C129.031 152.463 129.12 152.841 129.12 153.298V153.438C129.12 153.97 128.994 154.432 128.742 154.824C128.49 155.207 128.14 155.501 127.692 155.706C127.253 155.902 126.749 156 126.18 156H122.12ZM123.296 154.936H126.054C126.67 154.936 127.141 154.791 127.468 154.502C127.795 154.213 127.958 153.821 127.958 153.326V153.2C127.958 152.705 127.795 152.313 127.468 152.024C127.141 151.735 126.67 151.59 126.054 151.59H123.296V154.936ZM123.296 150.526H126.082C126.651 150.526 127.104 150.386 127.44 150.106C127.776 149.817 127.944 149.439 127.944 148.972V148.832C127.944 148.356 127.776 147.978 127.44 147.698C127.104 147.409 126.651 147.264 126.082 147.264H123.296V150.526ZM132.393 156V146.2H138.427V147.264H133.569V150.54H138.035V151.604H133.569V154.936H138.497V156H132.393ZM141.682 156V146.2H145.434C146.022 146.2 146.544 146.317 147.002 146.55C147.468 146.774 147.837 147.096 148.108 147.516C148.378 147.936 148.514 148.445 148.514 149.042V149.224C148.514 149.812 148.374 150.321 148.094 150.75C147.823 151.17 147.454 151.492 146.988 151.716C146.521 151.94 146.003 152.052 145.434 152.052H142.858V156H141.682ZM142.858 150.988H145.308C145.933 150.988 146.428 150.834 146.792 150.526C147.156 150.209 147.338 149.765 147.338 149.196V149.056C147.338 148.487 147.156 148.048 146.792 147.74C146.437 147.423 145.942 147.264 145.308 147.264H142.858V150.988ZM151.49 156V146.2H155.452C156.059 146.2 156.591 146.307 157.048 146.522C157.515 146.727 157.879 147.026 158.14 147.418C158.401 147.801 158.532 148.263 158.532 148.804V148.958C158.532 149.602 158.378 150.111 158.07 150.484C157.762 150.857 157.398 151.109 156.978 151.24V151.436C157.314 151.445 157.589 151.557 157.804 151.772C158.028 151.977 158.14 152.29 158.14 152.71V156H156.978V152.85C156.978 152.57 156.899 152.355 156.74 152.206C156.591 152.057 156.362 151.982 156.054 151.982H152.666V156H151.49ZM152.666 150.918H155.34C155.984 150.918 156.479 150.764 156.824 150.456C157.179 150.139 157.356 149.7 157.356 149.14V149.042C157.356 148.482 157.183 148.048 156.838 147.74C156.493 147.423 155.993 147.264 155.34 147.264H152.666V150.918ZM165.278 156.196C164.111 156.196 163.178 155.86 162.478 155.188C161.787 154.507 161.442 153.517 161.442 152.22V149.98C161.442 148.683 161.787 147.698 162.478 147.026C163.178 146.345 164.111 146.004 165.278 146.004C166.454 146.004 167.387 146.345 168.078 147.026C168.778 147.698 169.128 148.683 169.128 149.98V152.22C169.128 153.517 168.778 154.507 168.078 155.188C167.387 155.86 166.454 156.196 165.278 156.196ZM165.278 155.146C166.127 155.146 166.785 154.894 167.252 154.39C167.719 153.877 167.952 153.167 167.952 152.262V149.938C167.952 149.033 167.719 148.328 167.252 147.824C166.785 147.311 166.127 147.054 165.278 147.054C164.438 147.054 163.785 147.311 163.318 147.824C162.851 148.328 162.618 149.033 162.618 149.938V152.262C162.618 153.167 162.851 153.877 163.318 154.39C163.785 154.894 164.438 155.146 165.278 155.146Z" fill="#73758C"/>
<rect x="45.5" y="134.5" width="141" height="34" rx="17" stroke="#2E2F38" shape-rendering="crispEdges"/>
</g>
<g filter="url(#filter1_d_237_5351)">
<rect x="540" y="45" width="60" height="60" rx="30" fill="#23232A"/>
<path d="M570 79.0833C571.933 79.0833 573.5 77.5163 573.5 75.5833C573.5 73.6503 571.933 72.0833 570 72.0833C568.067 72.0833 566.5 73.6503 566.5 75.5833C566.5 77.5163 568.067 79.0833 570 79.0833Z" stroke="#ABACBA" stroke-width="1.2" stroke-linecap="round" stroke-linejoin="round"/>
<path d="M565.333 68.5833C567.266 68.5833 568.833 67.0163 568.833 65.0833C568.833 63.1503 567.266 61.5833 565.333 61.5833C563.4 61.5833 561.833 63.1503 561.833 65.0833C561.833 67.0163 563.4 68.5833 565.333 68.5833Z" stroke="#ABACBA" stroke-width="1.2" stroke-linecap="round" stroke-linejoin="round"/>
<path d="M580.5 75.5833C582.433 75.5833 584 74.0163 584 72.0833C584 70.1503 582.433 68.5833 580.5 68.5833C578.567 68.5833 577 70.1503 577 72.0833C577 74.0163 578.567 75.5833 580.5 75.5833Z" stroke="#ABACBA" stroke-width="1.2" stroke-linecap="round" stroke-linejoin="round"/>
<path d="M580.5 87.2502C582.433 87.2502 584 85.6831 584 83.7502C584 81.8172 582.433 80.2502 580.5 80.2502C578.567 80.2502 577 81.8172 577 83.7502C577 85.6831 578.567 87.2502 580.5 87.2502Z" stroke="#ABACBA" stroke-width="1.2" stroke-linecap="round" stroke-linejoin="round"/>
<path d="M559.5 88.4165C561.433 88.4165 563 86.8495 563 84.9165C563 82.9835 561.433 81.4165 559.5 81.4165C557.567 81.4165 556 82.9835 556 84.9165C556 86.8495 557.567 88.4165 559.5 88.4165Z" stroke="#ABACBA" stroke-width="1.2" stroke-linecap="round" stroke-linejoin="round"/>
<path d="M568.585 72.3895L566.748 68.277" stroke="#ABACBA" stroke-width="1.2" stroke-linecap="round" stroke-linejoin="round"/>
<path d="M577.175 73.192L573.325 74.4754" stroke="#ABACBA" stroke-width="1.2" stroke-linecap="round" stroke-linejoin="round"/>
<path d="M577.744 81.606L572.756 77.7268" stroke="#ABACBA" stroke-width="1.2" stroke-linecap="round" stroke-linejoin="round"/>
<path d="M567.39 77.902L562.11 82.5978" stroke="#ABACBA" stroke-width="1.2" stroke-linecap="round" stroke-linejoin="round"/>
<rect x="540.5" y="45.5" width="59" height="59" rx="29.5" stroke="#2E2F38"/>
</g>
<defs>
<filter id="filter0_d_237_5351" x="0" y="89" width="232" height="125" filterUnits="userSpaceOnUse" color-interpolation-filters="sRGB">
<feFlood flood-opacity="0" result="BackgroundImageFix"/>
<feColorMatrix in="SourceAlpha" type="matrix" values="0 0 0 0 0 0 0 0 0 0 0 0 0 0 0 0 0 0 127 0" result="hardAlpha"/>
<feOffset/>
<feGaussianBlur stdDeviation="22.5"/>
<feComposite in2="hardAlpha" operator="out"/>
<feColorMatrix type="matrix" values="0 0 0 0 0.0470588 0 0 0 0 0.0470588 0 0 0 0 0.054902 0 0 0 1 0"/>
<feBlend mode="normal" in2="BackgroundImageFix" result="effect1_dropShadow_237_5351"/>
<feBlend mode="normal" in="SourceGraphic" in2="effect1_dropShadow_237_5351" result="shape"/>
</filter>
<filter id="filter1_d_237_5351" x="495" y="0" width="150" height="150" filterUnits="userSpaceOnUse" color-interpolation-filters="sRGB">
<feFlood flood-opacity="0" result="BackgroundImageFix"/>
<feColorMatrix in="SourceAlpha" type="matrix" values="0 0 0 0 0 0 0 0 0 0 0 0 0 0 0 0 0 0 127 0" result="hardAlpha"/>
<feOffset/>
<feGaussianBlur stdDeviation="22.5"/>
<feComposite in2="hardAlpha" operator="out"/>
<feColorMatrix type="matrix" values="0 0 0 0 0.0470588 0 0 0 0 0.0470588 0 0 0 0 0.054902 0 0 0 1 0"/>
<feBlend mode="normal" in2="BackgroundImageFix" result="effect1_dropShadow_237_5351"/>
<feBlend mode="normal" in="SourceGraphic" in2="effect1_dropShadow_237_5351" result="shape"/>
</filter>
<linearGradient id="paint0_linear_237_5351" x1="345.011" y1="8" x2="345.011" y2="187" gradientUnits="userSpaceOnUse">
<stop stop-color="#454654"/>
<stop offset="1" stop-color="#22232A"/>
</linearGradient>
</defs>
</svg>
