<svg width="14" height="14" viewBox="0 0 14 14" fill="none" xmlns="http://www.w3.org/2000/svg">
<path d="M0.707201 0.706956C1.09773 0.316431 1.73089 0.316431 2.12141 0.706956L13.4351 12.0207C13.8256 12.4112 13.8256 13.0444 13.4351 13.4349C13.0446 13.8254 12.4114 13.8254 12.0209 13.4349L0.707202 2.12117C0.316677 1.73065 0.316677 1.09748 0.707201 0.706956Z" fill="white"/>
<path d="M0.707108 13.435C0.316584 13.0445 0.316584 12.4113 0.707108 12.0208L12.0208 0.707062C12.4113 0.316537 13.0445 0.316537 13.435 0.707061C13.8256 1.09759 13.8256 1.73075 13.435 2.12127L2.12132 13.435C1.7308 13.8255 1.09763 13.8255 0.707108 13.435Z" fill="white"/>
</svg>
